<!-- Generated by IcoMoon.io -->
<svg version="1.1" xmlns="http://www.w3.org/2000/svg" width="24" height="24" viewBox="0 0 24 24">
<title>action-undo</title>
<path d="M23.225 9.247c0-3.425-2.046-6.381-4.98-7.709q-0.094-0.042-0.188-0.083-0.19-0.080-0.384-0.152-0.097-0.036-0.195-0.069-0.196-0.067-0.397-0.124c-0.693-0.204-1.489-0.321-2.313-0.321s-1.62 0.117-2.373 0.336l0.060-0.015q-0.201 0.057-0.397 0.124-0.098 0.033-0.195 0.069-0.194 0.071-0.384 0.152-0.095 0.040-0.188 0.083c-2.934 1.329-4.98 4.284-4.98 7.709v11.132l-4.5-4.5-1.061 1.061 6.31 6.31 6.31-6.31-1.061-1.061-4.5 4.5v-11.132c0-3.417 2.476-6.266 5.727-6.849 0.37-0.069 0.795-0.109 1.23-0.109s0.86 0.040 1.273 0.115l-0.043-0.007c3.252 0.582 5.727 3.432 5.727 6.849l1.5-0z"></path>
</svg>
