<!-- Generated by IcoMoon.io -->
<svg version="1.1" xmlns="http://www.w3.org/2000/svg" width="24" height="24" viewBox="0 0 24 24">
<title>airplane-mode-off</title>
<path d="M10.5 5.339c0-0.001 0-0.003 0-0.004 0-1.059 0.479-2.006 1.233-2.636l0.005-0.004c0.070-0.059 0.162-0.095 0.261-0.095s0.191 0.036 0.262 0.095l-0.001-0.001c0.759 0.634 1.239 1.581 1.239 2.64 0 0.002 0 0.003 0 0.005v-0 4.312l7.777 3.889-0.125 0.626-4.075-0.532 1.74 1.74 3.531 0.461 0.625-3.124-7.973-3.986v-3.385c0-0.002 0-0.004 0-0.006 0-1.52-0.688-2.88-1.77-3.784l-0.008-0.006c-0.328-0.275-0.756-0.442-1.222-0.442s-0.893 0.167-1.225 0.445l0.003-0.002c-1.090 0.911-1.778 2.27-1.778 3.791 0 0.002 0 0.004 0 0.006v-0 0.219l1.5 1.5z"></path>
<path d="M1.805 0.75h-1.054v1.062l7.358 7.357-7.082 3.541 0.625 3.124 7.368-0.961 0.363 3.807-3.383 1.45v3.12h12v-3.12l-3.383-1.45 0.261-2.742 7.312 7.312h1.059v-1.057zM16.5 21.12v0.63h-9v-0.63l3.48-1.491-0.48-5.039v-1.422l-7.652 0.998-0.125-0.626 6.504-3.252 4.273 4.273v0.029l-0.48 5.039z"></path>
</svg>
