<!-- Generated by IcoMoon.io -->
<svg version="1.1" xmlns="http://www.w3.org/2000/svg" width="24" height="24" viewBox="0 0 24 24">
<title>aperture</title>
<path d="M12.032 0.785c-6.195 0-11.217 5.022-11.217 11.217 0 3.098 1.256 5.902 3.285 7.932v0c2.030 2.030 4.834 3.285 7.932 3.285 6.195 0 11.217-5.022 11.217-11.217 0-3.098-1.256-5.902-3.285-7.932v0c-2.019-2.029-4.813-3.285-7.901-3.285-0.011 0-0.021 0-0.032 0h0.002zM21.749 12.002c0 0.003 0 0.008 0 0.012 0 1.615-0.396 3.137-1.097 4.474l0.025-0.053 0.632 1.094-1.299 0.751-0.238-0.412c-1.693 2.221-4.284 3.682-7.222 3.838l-0.024 0.001-0.637 1.114-1.302-0.745 0.246-0.431c-2.937-0.378-5.428-2.017-6.948-4.347l-0.023-0.037h-1.27v-1.5h0.477c-0.478-1.109-0.757-2.401-0.757-3.757 0-1.633 0.403-3.172 1.116-4.523l-0.025 0.053-0.622-1.084 1.301-0.747 0.231 0.402c1.699-2.211 4.293-3.662 7.231-3.808l0.023-0.001 0.636-1.107 1.3 0.748-0.244 0.425c2.927 0.387 5.408 2.025 6.921 4.351l0.023 0.038h1.295v1.5h-0.504c0.476 1.105 0.753 2.39 0.753 3.741 0 0.004 0 0.007 0 0.011v-0.001z"></path>
<path d="M21.5 6.751h-10.763l-0.862 1.5h4.339l-0.235-0.406 1.299-0.751 0.669 1.157h5.554v-1.5z"></path>
<path d="M15.277 7.094l-1.299 0.751 2.387 4.129 0.208-0.364 1.302 0.745-0.641 1.122 2.777 4.803 1.299-0.751-6.033-10.435z"></path>
<path d="M17.876 12.354l-1.302-0.745-2.374 4.151h0.412v1.5h-1.27l-2.754 4.815 1.302 0.745 5.985-10.466z"></path>
<path d="M14.612 17.26v-1.5h-4.753l0.225 0.392-1.301 0.747-0.654-1.139h-5.536v1.5h12.018z"></path>
<path d="M8.784 16.9l1.301-0.747-2.375-4.136-0.222 0.386-1.3-0.748 0.658-1.144-2.762-4.809-1.301 0.747 6.001 10.45z"></path>
<path d="M6.188 11.655l1.3 0.748 6.017-10.466-1.3-0.748-6.017 10.466z"></path>
</svg>
