<!-- Generated by IcoMoon.io -->
<svg version="1.1" xmlns="http://www.w3.org/2000/svg" width="24" height="24" viewBox="0 0 24 24">
<title>assistive-listening-system</title>
<path d="M12.991 4.004l-0.395 1.454c2.94 0.505 5.248 2.725 5.877 5.575l0.009 0.048 1.496-0.169c-0.711-3.517-3.457-6.236-6.932-6.899l-0.055-0.009z"></path>
<path d="M19.784 4.216c-1.583-1.591-3.619-2.732-5.898-3.211l-0.077-0.014-0.395 1.453c4.147 0.816 7.411 4.119 8.169 8.286l1.496-0.169c-0.439-2.502-1.616-4.676-3.294-6.345l-0.001-0.001z"></path>
<path d="M10.927 6.973q-0.074-0.001-0.147-0c-3.189 0.030-5.763 2.623-5.763 5.816 0 0 0 0 0 0v0h1.511c0-2.367 1.905-4.289 4.266-4.316l0.003-0c0.033-0 0.066-0 0.099 0 2.331 0.032 4.24 1.956 4.255 4.287 0 0.014 0 0.029 0 0.045 0 1.225-0.515 2.329-1.34 3.109l-0.002 0.002c-0.214 0.205-0.347 0.493-0.347 0.812v2.376c-0.002 1.46-1.185 2.644-2.645 2.645h-0.405v1.5h0.416c2.288-0.003 4.143-1.857 4.145-4.145v-2.218c1.044-1.055 1.689-2.506 1.689-4.108 0-0.010-0-0.020-0-0.030v0.002c-0.031-3.163-2.574-5.722-5.729-5.777l-0.005-0z"></path>
<path d="M13.272 12.789c0-0.003 0-0.007 0-0.010 0-1.347-1.092-2.439-2.439-2.439s-2.439 1.092-2.439 2.439c0 0.004 0 0.007 0 0.011v-0.001h1.5c-0-0.002-0-0.004-0-0.006 0-0.519 0.42-0.939 0.939-0.939s0.939 0.42 0.939 0.939c0 0.002 0 0.004-0 0.007v-0z"></path>
<path d="M10.125 14.25h1.5v1.5h-1.5v-1.5z"></path>
<path d="M5.25 19.125h1.5v1.5h-1.5v-1.5z"></path>
<path d="M5.796 15.954l1.061-1.061 4.125 4.125-1.061 1.061-4.125-4.125z"></path>
</svg>
