<!-- Generated by IcoMoon.io -->
<svg version="1.1" xmlns="http://www.w3.org/2000/svg" width="24" height="24" viewBox="0 0 24 24">
<title>asterisk-circle</title>
<path d="M12.75 10.67v-4.979h-1.5v4.979l-4.623-2.798-0.114 0.188v1.496l4.038 2.444-4.038 2.444v1.496l0.114 0.188 4.623-2.798v4.979h1.5v-4.979l4.623 2.798 0.114-0.188v-1.496l-4.038-2.444 4.038-2.444v-1.496l-0.114-0.188-4.623 2.798z"></path>
<path d="M19.962 4.096c-2.030-2.030-4.836-3.286-7.934-3.286-6.197 0-11.22 5.023-11.22 11.22 0 3.098 1.256 5.903 3.286 7.934v0c2.030 2.030 4.836 3.286 7.934 3.286 6.197 0 11.22-5.023 11.22-11.22 0-3.098-1.256-5.903-3.286-7.934v0zM12.028 21.75c-5.36 0-9.72-4.36-9.72-9.72s4.36-9.72 9.72-9.72 9.72 4.36 9.72 9.72-4.36 9.72-9.72 9.72z"></path>
</svg>
