<!-- Generated by IcoMoon.io -->
<svg version="1.1" xmlns="http://www.w3.org/2000/svg" width="24" height="24" viewBox="0 0 24 24">
<title>ban</title>
<path d="M19.955 4.045c-2.036-2.036-4.848-3.295-7.955-3.295-6.213 0-11.25 5.037-11.25 11.25 0 3.107 1.259 5.919 3.295 7.955v0c2.036 2.036 4.848 3.295 7.955 3.295 6.213 0 11.25-5.037 11.25-11.25 0-3.107-1.259-5.919-3.295-7.955v0zM12 2.25c0.003 0 0.006 0 0.009 0 2.431 0 4.653 0.894 6.356 2.37l-0.012-0.010-13.743 13.743c-1.466-1.691-2.36-3.913-2.36-6.344 0-0.003 0-0.006 0-0.009v0c0-5.376 4.374-9.75 9.75-9.75zM12 21.75c-0.002 0-0.005 0-0.008 0-2.419 0-4.632-0.885-6.332-2.349l0.013 0.011 13.739-13.739c1.453 1.687 2.338 3.9 2.338 6.319 0 0.003 0 0.006 0 0.009v-0c0 5.376-4.374 9.75-9.75 9.75z"></path>
</svg>
