<!-- Generated by IcoMoon.io -->
<svg version="1.1" xmlns="http://www.w3.org/2000/svg" width="24" height="24" viewBox="0 0 24 24">
<title>bath</title>
<path d="M21.75 13.125h-18v-8.438c0-0.002 0-0.004 0-0.007 0-0.666 0.271-1.268 0.708-1.704l0.019-0.019c0.438-0.438 1.044-0.708 1.712-0.708 0.376 0 0.732 0.086 1.049 0.238l-0.015-0.006c-0.333 0.545-0.53 1.205-0.53 1.911 0 1.022 0.414 1.948 1.083 2.618l0.513 0.513-0.945 0.945 1.061 1.061 7.125-7.125-1.061-1.061-0.945 0.945-0.513-0.513c-0.67-0.669-1.596-1.082-2.618-1.082-0.791 0-1.523 0.248-2.125 0.669l0.012-0.008c-0.593-0.38-1.317-0.605-2.093-0.605-1.082 0-2.062 0.439-2.771 1.148l-0.019 0.019c-0.709 0.705-1.148 1.682-1.148 2.76 0 0.004 0 0.007 0 0.011v-0.001 8.438h-1.5v1.5h1.5v1.439c0 0 0 0 0 0 0 0.127 0.021 0.249 0.060 0.363l-0.002-0.008 1.395 4.186c0.153 0.451 0.572 0.769 1.066 0.769 0 0 0.001 0 0.001 0h0.605l-0.547 1.875h1.562l0.547-1.875h9.754l0.563 1.875h1.566l-0.563-1.875h0.972c0 0 0.001 0 0.001 0 0.494 0 0.913-0.319 1.064-0.761l0.002-0.008 1.395-4.186c0.037-0.106 0.058-0.228 0.058-0.355 0-0 0-0 0-0v0-1.439h1.5v-1.5zM8.837 2.837c0.399-0.398 0.949-0.644 1.557-0.644s1.158 0.246 1.557 0.644l0.513 0.513-3.114 3.114-0.513-0.513c-0.398-0.399-0.644-0.949-0.644-1.557s0.246-1.158 0.644-1.557l-0 0zM20.25 16.003l-1.291 3.872h-13.919l-1.291-3.872v-1.378h16.5z"></path>
</svg>
