<!-- Generated by IcoMoon.io -->
<svg version="1.1" xmlns="http://www.w3.org/2000/svg" width="24" height="24" viewBox="0 0 24 24">
<title>battery-0</title>
<path d="M1.874 19.875h17.251c0.002 0 0.005 0 0.008 0 0.613 0 1.111-0.494 1.117-1.105v-2.645h3v-7.875h-3v-2.644c-0.006-0.612-0.504-1.106-1.117-1.106-0.003 0-0.006 0-0.009 0h-17.25c-0.002-0-0.005-0-0.008-0-0.613 0-1.111 0.494-1.117 1.105v13.164c0.006 0.612 0.504 1.106 1.117 1.106 0.003 0 0.006 0 0.009-0h-0zM2.249 6h16.501v3.75h3v4.875h-3v3.75h-16.501z"></path>
</svg>
