<!-- Generated by IcoMoon.io -->
<svg version="1.1" xmlns="http://www.w3.org/2000/svg" width="24" height="24" viewBox="0 0 24 24">
<title>birthday-cake</title>
<path d="M19.781 10.597h-5.156v-4.5h-1.688c0.499-0.661 0.8-1.496 0.8-2.401 0-0.006-0-0.011-0-0.017v0.001c0-1.296-0.613-2.513-1.6-3.177l-0.419-0.282-0.419 0.282c-0.987 0.664-1.6 1.881-1.6 3.177-0 0.005-0 0.010-0 0.016 0 0.905 0.3 1.74 0.807 2.411l-0.007-0.010h-1.874v4.5h-4.406c-1.501 0.002-2.717 1.218-2.719 2.719v8.434c0.001 0.828 0.672 1.499 1.5 1.5h18c0.828-0.001 1.499-0.672 1.5-1.5v-8.434c-0.002-1.501-1.218-2.717-2.719-2.719h-0zM11.718 2.135c0.328 0.407 0.519 0.959 0.519 1.545s-0.191 1.138-0.519 1.545c-0.328-0.407-0.519-0.959-0.519-1.545s0.191-1.138 0.519-1.545zM10.125 7.597h3v3h-3zM3 13.316c0.001-0.673 0.546-1.218 1.219-1.219h15.563c0.673 0.001 1.218 0.546 1.219 1.219v0l0 1.48-1.013 0.447c-0.185 0.083-0.401 0.132-0.628 0.132s-0.443-0.049-0.638-0.136l0.010 0.004-1.762-0.777-1.762 0.777c-0.185 0.083-0.401 0.132-0.628 0.132s-0.443-0.049-0.638-0.136l0.010 0.004-1.762-0.777-1.762 0.777c-0.185 0.084-0.401 0.132-0.628 0.132s-0.443-0.049-0.638-0.136l0.010 0.004-1.762-0.777-1.762 0.777c-0.185 0.084-0.401 0.132-0.628 0.132s-0.443-0.049-0.638-0.136l0.010 0.004-1.387-0.612zM21 21.75h-18v-5.48l0.782 0.345c0.363 0.164 0.787 0.259 1.234 0.259s0.871-0.096 1.253-0.267l-0.019 0.008 1.157-0.51 1.157 0.51c0.363 0.164 0.787 0.259 1.234 0.259s0.871-0.096 1.253-0.267l-0.019 0.008 1.157-0.51 1.157 0.51c0.363 0.164 0.787 0.259 1.234 0.259s0.871-0.096 1.253-0.267l-0.019 0.008 1.157-0.51 1.157 0.51c0.363 0.164 0.787 0.259 1.234 0.259s0.871-0.095 1.253-0.267l-0.019 0.008 0.408-0.18 0.001 5.315z"></path>
</svg>
