<!-- Generated by IcoMoon.io -->
<svg version="1.1" xmlns="http://www.w3.org/2000/svg" width="24" height="24" viewBox="0 0 24 24">
<title>blur</title>
<path d="M4.096 0.857c0 0-0 0-0 0-1.848 0-3.345 1.498-3.345 3.345s1.498 3.345 3.345 3.345c1.848 0 3.345-1.498 3.345-3.345v0c-0.002-1.847-1.499-3.343-3.345-3.345h-0zM4.096 6.048c0 0-0 0-0 0-1.019 0-1.845-0.826-1.845-1.845s0.826-1.845 1.845-1.845c1.019 0 1.845 0.826 1.845 1.845v0c-0.001 1.019-0.827 1.844-1.845 1.845h-0z"></path>
<path d="M12.858 2.158c0 0-0 0-0 0-1.54 0-2.788 1.248-2.788 2.788s1.248 2.788 2.788 2.788c1.54 0 2.788-1.248 2.788-2.788v0c-0.002-1.539-1.249-2.786-2.787-2.788h-0zM12.858 6.233c0 0-0 0-0 0-0.711 0-1.288-0.576-1.288-1.288s0.576-1.288 1.288-1.288c0.711 0 1.288 0.576 1.288 1.288 0 0 0 0 0 0v0c-0.001 0.711-0.577 1.287-1.287 1.288h-0z"></path>
<path d="M21.804 5.409c0 0.767-0.622 1.389-1.389 1.389s-1.389-0.622-1.389-1.389c0-0.767 0.622-1.389 1.389-1.389s1.389 0.622 1.389 1.389z"></path>
<path d="M4.096 8.708c0 0-0 0-0 0-1.848 0-3.345 1.498-3.345 3.345s1.498 3.345 3.345 3.345c1.848 0 3.345-1.498 3.345-3.345v0c-0.002-1.847-1.499-3.343-3.345-3.345h-0zM4.096 13.899c0 0-0 0-0 0-1.019 0-1.845-0.826-1.845-1.845s0.826-1.845 1.845-1.845c1.019 0 1.845 0.826 1.845 1.845v0c-0.001 1.019-0.827 1.844-1.845 1.845h-0z"></path>
<path d="M12.858 9.266c0 0-0 0-0 0-1.54 0-2.788 1.248-2.788 2.788s1.248 2.788 2.788 2.788c1.54 0 2.788-1.248 2.788-2.788v0c-0.002-1.539-1.249-2.786-2.787-2.788h-0zM12.858 13.341c0 0-0 0-0 0-0.711 0-1.288-0.576-1.288-1.288s0.576-1.288 1.288-1.288c0.711 0 1.288 0.576 1.288 1.288 0 0 0 0 0 0v0c-0.001 0.711-0.577 1.287-1.287 1.288h-0z"></path>
<path d="M21.804 12.053c0 0.767-0.622 1.389-1.389 1.389s-1.389-0.622-1.389-1.389c0-0.767 0.622-1.389 1.389-1.389s1.389 0.622 1.389 1.389z"></path>
<path d="M4.096 16.559c-0 0-0 0-0 0-1.848 0-3.346 1.498-3.346 3.346s1.498 3.346 3.346 3.346c1.848 0 3.346-1.498 3.346-3.346v0c-0.002-1.847-1.499-3.343-3.345-3.346h-0zM4.096 21.75c-0 0-0 0-0 0-1.019 0-1.846-0.826-1.846-1.846s0.826-1.846 1.846-1.846c1.019 0 1.846 0.826 1.846 1.846 0 0 0 0 0 0v0c-0.001 1.019-0.827 1.844-1.845 1.845h-0z"></path>
<path d="M12.858 16.374c0 0-0 0-0 0-1.54 0-2.788 1.248-2.788 2.788s1.248 2.788 2.788 2.788c1.54 0 2.788-1.248 2.788-2.788v0c-0.002-1.539-1.249-2.786-2.787-2.788h-0zM12.858 20.449c0 0-0 0-0 0-0.711 0-1.288-0.576-1.288-1.288s0.576-1.288 1.288-1.288c0.711 0 1.288 0.576 1.288 1.288v0c-0.001 0.711-0.577 1.287-1.287 1.288h-0z"></path>
<path d="M21.804 18.698c0 0.767-0.622 1.389-1.389 1.389s-1.389-0.622-1.389-1.389c0-0.767 0.622-1.389 1.389-1.389s1.389 0.622 1.389 1.389z"></path>
</svg>
