<!-- Generated by IcoMoon.io -->
<svg version="1.1" xmlns="http://www.w3.org/2000/svg" width="24" height="24" viewBox="0 0 24 24">
<title>border-inner</title>
<path d="M12.75 11.25v-9.375h-1.5v9.375h-9.375v1.5h9.375v9.375h1.5v-9.375h9.375v-1.5h-9.375z"></path>
<path d="M20.625 20.625h1.5v1.5h-1.5v-1.5z"></path>
<path d="M14.352 20.625h1.568v1.5h-1.568v-1.5z"></path>
<path d="M8.080 20.625h1.568v1.5h-1.568v-1.5z"></path>
<path d="M17.489 20.625h1.568v1.5h-1.568v-1.5z"></path>
<path d="M4.943 20.625h1.568v1.5h-1.568v-1.5z"></path>
<path d="M1.875 20.625h1.5v1.5h-1.5v-1.5z"></path>
<path d="M1.875 14.352h1.5v1.568h-1.5v-1.568z"></path>
<path d="M1.875 17.489h1.5v1.568h-1.5v-1.568z"></path>
<path d="M1.875 8.080h1.5v1.568h-1.5v-1.568z"></path>
<path d="M1.875 4.943h1.5v1.568h-1.5v-1.568z"></path>
<path d="M1.875 1.875h1.5v1.5h-1.5v-1.5z"></path>
<path d="M14.352 1.875h1.568v1.5h-1.568v-1.5z"></path>
<path d="M8.080 1.875h1.568v1.5h-1.568v-1.5z"></path>
<path d="M17.489 1.875h1.568v1.5h-1.568v-1.5z"></path>
<path d="M4.943 1.875h1.568v1.5h-1.568v-1.5z"></path>
<path d="M20.625 1.875h1.5v1.5h-1.5v-1.5z"></path>
<path d="M20.625 17.489h1.5v1.568h-1.5v-1.568z"></path>
<path d="M20.625 14.352h1.5v1.568h-1.5v-1.568z"></path>
<path d="M20.625 4.943h1.5v1.568h-1.5v-1.568z"></path>
<path d="M20.625 8.080h1.5v1.568h-1.5v-1.568z"></path>
</svg>
