<!-- Generated by IcoMoon.io -->
<svg version="1.1" xmlns="http://www.w3.org/2000/svg" width="24" height="24" viewBox="0 0 24 24">
<title>border-right</title>
<path d="M20.625 1.875v20.25h1.5v-20.25h-1.5z"></path>
<path d="M14.352 20.625h1.568v1.5h-1.568v-1.5z"></path>
<path d="M8.080 20.625h1.568v1.5h-1.568v-1.5z"></path>
<path d="M17.489 20.625h1.568v1.5h-1.568v-1.5z"></path>
<path d="M4.943 20.625h1.568v1.5h-1.568v-1.5z"></path>
<path d="M1.875 20.625h1.5v1.5h-1.5v-1.5z"></path>
<path d="M1.875 14.352h1.5v1.568h-1.5v-1.568z"></path>
<path d="M1.875 17.489h1.5v1.568h-1.5v-1.568z"></path>
<path d="M1.875 11.216h1.5v1.568h-1.5v-1.568z"></path>
<path d="M1.875 8.080h1.5v1.568h-1.5v-1.568z"></path>
<path d="M1.875 4.943h1.5v1.568h-1.5v-1.568z"></path>
<path d="M1.875 1.875h1.5v1.5h-1.5v-1.5z"></path>
<path d="M14.352 1.875h1.568v1.5h-1.568v-1.5z"></path>
<path d="M8.080 1.875h1.568v1.5h-1.568v-1.5z"></path>
<path d="M17.489 1.875h1.568v1.5h-1.568v-1.5z"></path>
<path d="M11.216 1.875h1.568v1.5h-1.568v-1.5z"></path>
<path d="M4.943 1.875h1.568v1.5h-1.568v-1.5z"></path>
<path d="M11.216 11.216h1.568v1.568h-1.568v-1.568z"></path>
<path d="M11.216 14.352h1.568v1.568h-1.568v-1.568z"></path>
<path d="M11.216 8.080h1.568v1.568h-1.568v-1.568z"></path>
<path d="M11.216 4.943h1.568v1.568h-1.568v-1.568z"></path>
<path d="M11.216 17.489h1.568v1.568h-1.568v-1.568z"></path>
<path d="M11.216 20.625h1.568v1.5h-1.568v-1.5z"></path>
<path d="M14.352 11.216h1.568v1.568h-1.568v-1.568z"></path>
<path d="M17.489 11.216h1.568v1.568h-1.568v-1.568z"></path>
<path d="M8.080 11.216h1.568v1.568h-1.568v-1.568z"></path>
<path d="M4.943 11.216h1.568v1.568h-1.568v-1.568z"></path>
</svg>
