<!-- Generated by IcoMoon.io -->
<svg version="1.1" xmlns="http://www.w3.org/2000/svg" width="24" height="24" viewBox="0 0 24 24">
<title>border-clear</title>
<path d="M20.625 22.125h1.5v-1.5h-1.5v1.5z"></path>
<path d="M14.352 22.125h1.568v-1.5h-1.568v1.5z"></path>
<path d="M8.080 22.125h1.568v-1.5h-1.568v1.5z"></path>
<path d="M17.489 22.125h1.568v-1.5h-1.568v1.5z"></path>
<path d="M4.943 22.125h1.568v-1.5h-1.568v1.5z"></path>
<path d="M1.875 22.125h1.5v-1.5h-1.5v1.5z"></path>
<path d="M1.875 15.92h1.5v-1.568h-1.5v1.568z"></path>
<path d="M1.875 19.057h1.5v-1.568h-1.5v1.568z"></path>
<path d="M1.875 12.784h1.5v-1.568h-1.5v1.568z"></path>
<path d="M1.875 9.648h1.5v-1.568h-1.5v1.568z"></path>
<path d="M1.875 6.511h1.5v-1.568h-1.5v1.568z"></path>
<path d="M1.875 3.375h1.5v-1.5h-1.5v1.5z"></path>
<path d="M14.352 3.375h1.568v-1.5h-1.568v1.5z"></path>
<path d="M8.080 3.375h1.568v-1.5h-1.568v1.5z"></path>
<path d="M17.489 3.375h1.568v-1.5h-1.568v1.5z"></path>
<path d="M11.216 3.375h1.568v-1.5h-1.568v1.5z"></path>
<path d="M4.943 3.375h1.568v-1.5h-1.568v1.5z"></path>
<path d="M20.625 1.875v1.5h1.5v-1.5h-1.5z"></path>
<path d="M20.625 19.057h1.5v-1.568h-1.5v1.568z"></path>
<path d="M20.625 15.92h1.5v-1.568h-1.5v1.568z"></path>
<path d="M20.625 6.511h1.5v-1.568h-1.5v1.568z"></path>
<path d="M20.625 9.648h1.5v-1.568h-1.5v1.568z"></path>
<path d="M20.625 12.784h1.5v-1.568h-1.5v1.568z"></path>
<path d="M11.216 12.784h1.568v-1.568h-1.568v1.568z"></path>
<path d="M11.216 15.92h1.568v-1.568h-1.568v1.568z"></path>
<path d="M11.216 9.648h1.568v-1.568h-1.568v1.568z"></path>
<path d="M11.216 6.511h1.568v-1.568h-1.568v1.568z"></path>
<path d="M11.216 19.057h1.568v-1.568h-1.568v1.568z"></path>
<path d="M11.216 22.125h1.568v-1.5h-1.568v1.5z"></path>
<path d="M14.352 12.784h1.568v-1.568h-1.568v1.568z"></path>
<path d="M17.489 12.784h1.568v-1.568h-1.568v1.568z"></path>
<path d="M8.080 12.784h1.568v-1.568h-1.568v1.568z"></path>
<path d="M4.943 12.784h1.568v-1.568h-1.568v1.568z"></path>
</svg>
