<!-- Generated by IcoMoon.io -->
<svg version="1.1" xmlns="http://www.w3.org/2000/svg" width="24" height="24" viewBox="0 0 24 24">
<title>border-outer</title>
<path d="M21.375 1.875h-18.75c-0.414 0-0.75 0.336-0.75 0.75v0 18.75c0 0.414 0.336 0.75 0.75 0.75v0h18.75c0.414 0 0.75-0.336 0.75-0.75v0-18.75c0-0.414-0.336-0.75-0.75-0.75v0zM20.625 20.625h-17.25v-17.25h17.25z"></path>
<path d="M11.216 11.216h1.568v1.568h-1.568v-1.568z"></path>
<path d="M11.216 14.352h1.568v1.568h-1.568v-1.568z"></path>
<path d="M11.216 8.080h1.568v1.568h-1.568v-1.568z"></path>
<path d="M11.216 4.943h1.568v1.568h-1.568v-1.568z"></path>
<path d="M11.216 17.489h1.568v1.568h-1.568v-1.568z"></path>
<path d="M14.352 11.216h1.568v1.568h-1.568v-1.568z"></path>
<path d="M17.489 11.216h1.568v1.568h-1.568v-1.568z"></path>
<path d="M8.080 11.216h1.568v1.568h-1.568v-1.568z"></path>
<path d="M4.943 11.216h1.568v1.568h-1.568v-1.568z"></path>
</svg>
