<!-- Generated by IcoMoon.io -->
<svg version="1.1" xmlns="http://www.w3.org/2000/svg" width="24" height="24" viewBox="0 0 24 24">
<title>border-style</title>
<path d="M20.625 20.625h1.5v1.5h-1.5v-1.5z"></path>
<path d="M14.352 20.625h1.568v1.5h-1.568v-1.5z"></path>
<path d="M8.080 20.625h1.568v1.5h-1.568v-1.5z"></path>
<path d="M17.489 20.625h1.568v1.5h-1.568v-1.5z"></path>
<path d="M4.943 20.625h1.568v1.5h-1.568v-1.5z"></path>
<path d="M2.625 1.875c-0.414 0-0.75 0.336-0.75 0.75v0 19.5h1.5v-18.75h18.75v-1.5z"></path>
<path d="M20.625 17.489h1.5v1.568h-1.5v-1.568z"></path>
<path d="M20.625 14.352h1.5v1.568h-1.5v-1.568z"></path>
<path d="M20.625 4.943h1.5v1.568h-1.5v-1.568z"></path>
<path d="M20.625 8.080h1.5v1.568h-1.5v-1.568z"></path>
<path d="M20.625 11.216h1.5v1.568h-1.5v-1.568z"></path>
<path d="M11.216 20.625h1.568v1.5h-1.568v-1.5z"></path>
</svg>
