<!-- Generated by IcoMoon.io -->
<svg version="1.1" xmlns="http://www.w3.org/2000/svg" width="24" height="24" viewBox="0 0 24 24">
<title>brush</title>
<path d="M22.624 1.455c-0.415-0.424-0.993-0.687-1.632-0.687-0.552 0-1.057 0.196-1.452 0.522l0.004-0.003-10.853 8.994c-0.080-0.004-0.16-0.006-0.24-0.006-0 0-0 0-0.001 0s-0 0-0.001-0h0c-0.002 0-0.005 0-0.008 0-2.358 0-4.359 1.529-5.065 3.649l-0.011 0.038-2.507 7.667c-0.039 0.117-0.062 0.251-0.062 0.391 0 0.694 0.562 1.258 1.256 1.26h0c0.141-0 0.276-0.023 0.403-0.066l-0.009 0.003 7.667-2.507c2.158-0.717 3.687-2.718 3.687-5.076 0-0.003 0-0.006 0-0.009v0c0-0.118-0.004-0.237-0.012-0.355l8.953-10.784c0.326-0.39 0.525-0.897 0.525-1.451 0-0.614-0.244-1.172-0.641-1.58l0.001 0.001zM9.646 19.282l-7.215 2.359 2.359-7.215c0.516-1.553 1.956-2.653 3.653-2.653 0.002 0 0.004 0 0.006 0h-0c0.106 0 0.214 0.004 0.321 0.013l3.516 3.516c0.009 0.107 0.013 0.214 0.013 0.321 0 0.002 0 0.004 0 0.006 0 1.697-1.1 3.137-2.626 3.645l-0.027 0.008zM21.586 3.526l-8.584 10.339-2.849-2.849 10.348-8.575c0.132-0.11 0.304-0.177 0.492-0.177 0.426 0 0.771 0.345 0.771 0.771 0 0.188-0.067 0.36-0.179 0.493l0.001-0.001z"></path>
</svg>
