<!-- Generated by IcoMoon.io -->
<svg version="1.1" xmlns="http://www.w3.org/2000/svg" width="24" height="24" viewBox="0 0 24 24">
<title>brush-alt</title>
<path d="M19.125 9.75h-4.060l0.613-4.981 0.003-0.032c0.008-0.088 0.012-0.191 0.012-0.294 0-2.039-1.653-3.693-3.693-3.693s-3.693 1.653-3.693 3.693c0 0.104 0.004 0.206 0.013 0.308l-0.001-0.013 0.001 0.016 0.615 4.997h-4.060c-1.242 0.001-2.249 1.008-2.25 2.25v11.25h18.75v-11.25c-0.001-1.242-1.008-2.249-2.25-2.25h-0zM19.875 21.75h-15.75v-6.75h15.75zM4.125 13.5v-1.5c0-0.414 0.336-0.75 0.75-0.75h5.756l-0.818-6.647c-0.004-0.048-0.006-0.104-0.006-0.16 0-1.211 0.982-2.193 2.193-2.193s2.193 0.982 2.193 2.193c0 0.056-0.002 0.112-0.006 0.167l0-0.007-0.818 6.647h5.756c0.414 0 0.75 0.336 0.75 0.75v1.5z"></path>
</svg>
