<!-- Generated by IcoMoon.io -->
<svg version="1.1" xmlns="http://www.w3.org/2000/svg" width="24" height="24" viewBox="0 0 24 24">
<title>calendar-check</title>
<path d="M22.125 4.5h-4.125v-2.625h-1.5v2.625h-9v-2.625h-1.5v2.625h-4.125c-0.621 0.001-1.124 0.504-1.125 1.125v15.75c0.001 0.621 0.504 1.124 1.125 1.125h20.25c0.621-0.001 1.124-0.504 1.125-1.125v-15.75c-0.001-0.621-0.504-1.124-1.125-1.125h-0zM21.75 21h-19.5v-15h3.75v1.875h1.5v-1.875h9v1.875h1.5v-1.875h3.75z"></path>
<path d="M11.409 14.689l-2.549-2.549-1.061 1.061 3.61 3.61 5.888-5.888-1.061-1.061-4.828 4.828z"></path>
</svg>
