<!-- Generated by IcoMoon.io -->
<svg version="1.1" xmlns="http://www.w3.org/2000/svg" width="24" height="24" viewBox="0 0 24 24">
<title>cast</title>
<path d="M0.75 16.875v0 3h3c0-1.657-1.343-3-3-3v0z"></path>
<path d="M22.125 3.75h-20.25c-0.621 0.001-1.124 0.504-1.125 1.125v3.375h1.5v-3h19.5v13.125h-9.375v1.5h9.75c0.621-0.001 1.124-0.504 1.125-1.125v-13.875c-0.001-0.621-0.504-1.124-1.125-1.125h-0z"></path>
<path d="M0.75 10.125v1.5c4.549 0 8.25 3.701 8.25 8.25h1.5c0-5.376-4.374-9.75-9.75-9.75z"></path>
<path d="M0.75 13.5v1.5c2.691 0.003 4.872 2.184 4.875 4.875v0h1.5c0-3.515-2.86-6.375-6.375-6.375z"></path>
</svg>
