<!-- Generated by IcoMoon.io -->
<svg version="1.1" xmlns="http://www.w3.org/2000/svg" width="24" height="24" viewBox="0 0 24 24">
<title>cat</title>
<path d="M17.567 8.759v0c-0.35-1.009-1.293-1.721-2.401-1.721-0.001 0-0.002 0-0.004 0h-2.037v-6.029l-0.856 0.122c-1.942 0.277-3.455 1.262-4.496 2.925-0.751 1.199-1.099 2.522-1.261 3.511-1.118 0.86-2.090 2.044-2.894 3.525-0.677 1.248-1.238 2.71-1.667 4.347-0.724 2.765-0.822 5.059-0.826 5.155l-0 2.655h1.5v-2.608c0.019-0.386 0.491-8.829 5.017-12.044l0.265-0.188 0.044-0.323c0.226-1.67 1.006-4.428 3.674-5.276v5.728h3.537c0.001 0 0.002 0 0.003 0 0.453 0 0.838 0.29 0.979 0.695l0.002 0.007c0.598 1.765 1.625 3.974 3.227 5.012l-0.482 1.806c-0.34 1.275-1.484 2.198-2.844 2.198-0.031 0-0.062-0-0.092-0.001l0.004 0c-1.344-0.040-2.742 0.135-4.157 0.521l-0.553 0.151v4.323h1.5v-3.166c0.859-0.212 1.845-0.333 2.86-0.333 0.107 0 0.214 0.001 0.321 0.004l-0.016-0c0.037 0.001 0.079 0.002 0.123 0.002 2.053 0 3.782-1.39 4.296-3.28l0.007-0.031 0.801-3.004-0.596-0.256c-1.116-0.478-2.173-2.050-2.979-4.426z"></path>
</svg>
