<!-- Generated by IcoMoon.io -->
<svg version="1.1" xmlns="http://www.w3.org/2000/svg" width="24" height="24" viewBox="0 0 24 24">
<title>chevron-double-down</title>
<path d="M11.835 16.173l-5.11-5.11-3.725 3.725 8.837 8.837 3.195-3.194 0.525-0.529 5.113-5.113-3.725-3.725zM13.969 19.368l-0.524 0.527-1.61 1.61-0.002-0.002-1.607-1.607 0.002-0.002-5.107-5.107 1.603-1.603 5.11 5.11 5.11-5.11 1.603 1.603z"></path>
<path d="M8.112 9.534l3.191 3.191 0.534 0.53 3.195-3.194 0.525-0.529 5.113-5.113-3.725-3.725-5.11 5.11-5.11-5.11-3.725 3.725 5.113 5.113zM5.121 4.419l1.603-1.603 5.11 5.11 5.11-5.11 1.603 1.603-6.716 6.716-1.607-1.607 0.002-0.002z"></path>
</svg>
