<!-- Generated by IcoMoon.io -->
<svg version="1.1" xmlns="http://www.w3.org/2000/svg" width="24" height="24" viewBox="0 0 24 24">
<title>clone</title>
<path d="M22.125 0.75h-14.625c-0.621 0.001-1.124 0.504-1.125 1.125v14.625c0.001 0.621 0.504 1.124 1.125 1.125h14.625c0.621-0.001 1.124-0.504 1.125-1.125v-14.625c-0.001-0.621-0.504-1.124-1.125-1.125h-0zM21.75 16.125h-13.875v-13.875h13.875z"></path>
<path d="M16.125 21.75h-13.875v-13.875h2.625v-1.5h-3c-0.621 0.001-1.124 0.504-1.125 1.125v14.625c0.001 0.621 0.504 1.124 1.125 1.125h14.625c0.621-0.001 1.124-0.504 1.125-1.125v-3h-1.5z"></path>
</svg>
