<!-- Generated by IcoMoon.io -->
<svg version="1.1" xmlns="http://www.w3.org/2000/svg" width="24" height="24" viewBox="0 0 24 24">
<title>cloud</title>
<path d="M17.945 21h-11.567c-1.441 0-2.877-0.596-3.94-1.636-1.089-1.064-1.688-2.454-1.688-3.913 0.001-1.442 0.597-2.744 1.555-3.675l0.001-0.001c0.783-0.766 1.787-1.31 2.907-1.527l0.036-0.006v-0.117c0-3.722 3.028-6.75 6.75-6.75s6.75 3.028 6.75 6.75v0.068c2.612 0.372 4.5 2.519 4.5 5.258 0 1.466-0.533 2.846-1.501 3.887-0.943 1.023-2.29 1.662-3.786 1.662-0.006 0-0.012 0-0.018-0h0.001zM12 4.875c-2.898 0.003-5.247 2.352-5.25 5.25v1.472l-0.697 0.050c-2.133 0.152-3.803 1.823-3.803 3.804 0 2.157 1.929 4.049 4.128 4.049h11.567c2.134 0 3.805-1.779 3.805-4.049 0-2.183-1.581-3.787-3.759-3.815l-0.741-0.009v-1.502c-0.003-2.898-2.352-5.247-5.25-5.25h-0z"></path>
</svg>
