<!-- Generated by IcoMoon.io -->
<svg version="1.1" xmlns="http://www.w3.org/2000/svg" width="24" height="24" viewBox="0 0 24 24">
<title>color-palette</title>
<path d="M19.946 3.846c-2.097-1.997-4.914-3.096-7.933-3.096-2.814 0-5.618 0.941-7.695 2.581-2.301 1.818-3.568 4.364-3.568 7.169 0 2.817 0.728 4.635 2.291 5.72 1.313 0.911 3.207 1.3 6.334 1.3h1.395c0.679 0.001 1.23 0.551 1.23 1.23v2.249c0 0 0 0 0 0 0 0.828 0.672 1.5 1.5 1.5l4.256-0.004c0.35-0.001 0.671-0.121 0.926-0.321l-0.003 0.002c0.456-0.357 1.628-1.378 2.662-3.136 1.267-2.153 1.909-4.648 1.909-7.416 0-2.987-1.173-5.75-3.304-7.779zM20.048 18.28c-0.904 1.537-1.906 2.412-2.294 2.715l-4.254 0.004v-2.249c-0.002-1.507-1.223-2.729-2.73-2.73h-1.395c-2.798 0-4.436-0.309-5.479-1.032-1.139-0.79-1.646-2.174-1.646-4.487 0-5.164 4.964-8.25 9.763-8.25 5.46 0 9.737 4.118 9.737 9.375 0 2.496-0.573 4.735-1.702 6.655z"></path>
<path d="M6 6.75c-1.45 0-2.625 1.175-2.625 2.625s1.175 2.625 2.625 2.625c1.45 0 2.625-1.175 2.625-2.625v0c-0.002-1.449-1.176-2.623-2.625-2.625h-0zM6 10.5c-0.621 0-1.125-0.504-1.125-1.125s0.504-1.125 1.125-1.125c0.621 0 1.125 0.504 1.125 1.125v0c-0.001 0.621-0.504 1.124-1.125 1.125h-0z"></path>
<path d="M11.25 3.375c-1.45 0-2.625 1.175-2.625 2.625s1.175 2.625 2.625 2.625c1.45 0 2.625-1.175 2.625-2.625v0c-0.002-1.449-1.176-2.623-2.625-2.625h-0zM11.25 7.125c-0.621 0-1.125-0.504-1.125-1.125s0.504-1.125 1.125-1.125c0.621 0 1.125 0.504 1.125 1.125v0c-0.001 0.621-0.504 1.124-1.125 1.125h-0z"></path>
<path d="M16.875 11.25c1.45 0 2.625-1.175 2.625-2.625s-1.175-2.625-2.625-2.625c-1.45 0-2.625 1.175-2.625 2.625v0c0.002 1.449 1.176 2.623 2.625 2.625h0zM16.875 7.5c0.621 0 1.125 0.504 1.125 1.125s-0.504 1.125-1.125 1.125c-0.621 0-1.125-0.504-1.125-1.125v0c0.001-0.621 0.504-1.124 1.125-1.125h0z"></path>
<path d="M17.625 12.375c-1.45 0-2.625 1.175-2.625 2.625s1.175 2.625 2.625 2.625c1.45 0 2.625-1.175 2.625-2.625v0c-0.002-1.449-1.176-2.623-2.625-2.625h-0zM17.625 16.125c-0.621 0-1.125-0.504-1.125-1.125s0.504-1.125 1.125-1.125c0.621 0 1.125 0.504 1.125 1.125v0c-0.001 0.621-0.504 1.124-1.125 1.125h-0z"></path>
</svg>
