<!-- Generated by IcoMoon.io -->
<svg version="1.1" xmlns="http://www.w3.org/2000/svg" width="24" height="24" viewBox="0 0 24 24">
<title>devices</title>
<path d="M22.125 10.875h-2.25v-5.25c-0.001-0.621-0.504-1.124-1.125-1.125h-16.875c-0.621 0.001-1.124 0.504-1.125 1.125v11.531c0.001 0.621 0.504 1.124 1.125 1.125h8.063v2.344h-2.813v1.5h7.125v-1.5h-2.813v-2.344h4.313v2.719c0.001 0.621 0.504 1.124 1.125 1.125h5.25c0.621-0.001 1.124-0.504 1.125-1.125v-9c-0.001-0.621-0.504-1.124-1.125-1.125h-0zM15.75 12v4.781h-13.5v-10.781h16.125v4.875h-1.5c-0.621 0.001-1.124 0.504-1.125 1.125v0zM21.75 20.625h-4.5v-8.25h4.5z"></path>
</svg>
