<!-- Generated by IcoMoon.io -->
<svg version="1.1" xmlns="http://www.w3.org/2000/svg" width="24" height="24" viewBox="0 0 24 24">
<title>dog</title>
<path d="M18.436 7.562l-2.755-3.979c-0.406-0.58-1.066-0.957-1.816-0.969l-0.002-0-5.239-0.075c-2.699 0-4.77 0.451-6.104 2.655-1.242 2.051-1.771 5.545-1.771 11.682v0.75h1.714l-1.103 5.625h1.529l1.103-5.625h0.508c0.012 0 0.027 0 0.042 0 1.261 0 2.405-0.5 3.245-1.314l-0.001 0.001c0.796-0.762 1.37-1.803 1.66-3.013l0.003-0.011 1.286-6.164h-1.532l-1.218 5.835c-0.371 1.532-1.48 3.165-3.485 3.165h-2.247c0.041-5.309 0.524-8.457 1.552-10.155 0.863-1.425 2.123-1.931 4.815-1.932l5.222 0.075c0.25 0.004 0.471 0.13 0.604 0.321l0.002 0.002 3.116 4.501 4.186 0.698v0.795l-0.698 3.723c-0.206 1.099-0.558 1.652-2.002 1.826l-5.921 1.013-0.039 6.258h1.5l0.031-4.992 4.627-0.792c1.048-0.129 1.821-0.467 2.364-1.032 0.464-0.484 0.746-1.102 0.915-2.004l0.724-3.86v-2.205z"></path>
</svg>
