<!-- Generated by IcoMoon.io -->
<svg version="1.1" xmlns="http://www.w3.org/2000/svg" width="24" height="24" viewBox="0 0 24 24">
<title>flip-to-back</title>
<path d="M2.25 21v-15.375h-1.5v15.375c0.001 1.242 1.008 2.249 2.25 2.25h15.75v-1.5h-15.75c-0.414-0-0.75-0.336-0.75-0.75v-0z"></path>
<path d="M21.75 17.25h1.5v1.5h-1.5v-1.5z"></path>
<path d="M8.114 17.25h1.364v1.5h-1.364v-1.5z"></path>
<path d="M19.023 17.25h1.364v1.5h-1.364v-1.5z"></path>
<path d="M10.841 17.25h1.364v1.5h-1.364v-1.5z"></path>
<path d="M13.568 17.25h1.364v1.5h-1.364v-1.5z"></path>
<path d="M16.295 17.25h1.364v1.5h-1.364v-1.5z"></path>
<path d="M5.25 17.25h1.5v1.5h-1.5v-1.5z"></path>
<path d="M5.25 6.341h1.5v1.364h-1.5v-1.364z"></path>
<path d="M5.25 3.614h1.5v1.364h-1.5v-1.364z"></path>
<path d="M5.25 14.523h1.5v1.364h-1.5v-1.364z"></path>
<path d="M5.25 11.795h1.5v1.364h-1.5v-1.364z"></path>
<path d="M5.25 9.068h1.5v1.364h-1.5v-1.364z"></path>
<path d="M5.25 0.75h1.5v1.5h-1.5v-1.5z"></path>
<path d="M13.568 0.75h1.364v1.5h-1.364v-1.5z"></path>
<path d="M10.841 0.75h1.364v1.5h-1.364v-1.5z"></path>
<path d="M19.023 0.75h1.364v1.5h-1.364v-1.5z"></path>
<path d="M8.114 0.75h1.364v1.5h-1.364v-1.5z"></path>
<path d="M16.295 0.75h1.364v1.5h-1.364v-1.5z"></path>
<path d="M21.75 0.75h1.5v1.5h-1.5v-1.5z"></path>
<path d="M21.75 14.523h1.5v1.364h-1.5v-1.364z"></path>
<path d="M21.75 3.614h1.5v1.364h-1.5v-1.364z"></path>
<path d="M21.75 9.068h1.5v1.364h-1.5v-1.364z"></path>
<path d="M21.75 6.341h1.5v1.364h-1.5v-1.364z"></path>
<path d="M21.75 11.795h1.5v1.364h-1.5v-1.364z"></path>
</svg>
