<!-- Generated by IcoMoon.io -->
<svg version="1.1" xmlns="http://www.w3.org/2000/svg" width="24" height="24" viewBox="0 0 24 24">
<title>folder-open</title>
<path d="M22.906 10.39c-0.206-0.264-0.525-0.433-0.883-0.433-0.001 0-0.002 0-0.004 0h-3.103v-2.457c-0.001-0.598-0.485-1.083-1.083-1.083h-6.389l-0.833-2c-0.167-0.395-0.551-0.667-0.998-0.667-0.001 0-0.001 0-0.002 0h-7.778c-0.598 0.001-1.083 0.485-1.083 1.083v17.083h19.721l2.64-10.562c0.022-0.082 0.034-0.177 0.034-0.274 0-0.262-0.090-0.503-0.241-0.693l0.002 0.002zM2.25 20.417v-15.167h7.083l1.111 2.667h6.972v2.040h-10.967c-0 0-0.001 0-0.001 0-0.524 0-0.964 0.359-1.088 0.844l-0.002 0.008-2.402 9.608zM19.299 20.417h-14.797l2.24-8.96h14.797z"></path>
</svg>
