<!-- Generated by IcoMoon.io -->
<svg version="1.1" xmlns="http://www.w3.org/2000/svg" width="24" height="24" viewBox="0 0 24 24">
<title>football</title>
<path d="M19.955 4.045c-2.036-2.039-4.851-3.3-7.959-3.3-6.213 0-11.25 5.037-11.25 11.25 0 3.109 1.261 5.923 3.299 7.959l0 0c2.036 2.039 4.851 3.3 7.959 3.3 6.213 0 11.25-5.037 11.25-11.25 0-3.109-1.261-5.923-3.299-7.959l-0-0zM19.746 6.086c1.175 1.52 1.913 3.431 1.995 5.511l0.001 0.019-3.1-2.333zM14.814 2.665l-2.736 2.033-2.865-2.041c0.834-0.258 1.794-0.407 2.788-0.407 1.004 0 1.972 0.152 2.883 0.433l-0.069-0.018zM5.475 9.283l-3.217 2.357c0.078-2.121 0.826-4.053 2.036-5.606l-0.016 0.022zM4.041 17.625h3.72l1.174 3.631c-2.022-0.688-3.697-1.954-4.874-3.601l-0.020-0.030zM10.64 21.655l-1.788-5.53h-5.685c-0.377-0.782-0.661-1.69-0.805-2.643l-0.007-0.054 4.92-3.604-1.858-5.009c0.621-0.572 1.326-1.069 2.089-1.468l0.054-0.026 4.537 3.231 4.347-3.23c0.82 0.427 1.527 0.927 2.158 1.508l-0.007-0.006-1.727 5 4.779 3.596c-0.151 1.009-0.435 1.92-0.838 2.762l0.025-0.058h-5.481l-1.971 5.527c-0.415 0.063-0.894 0.098-1.381 0.098-0.48 0-0.951-0.035-1.413-0.102l0.053 0.006zM15.121 21.238l1.288-3.613h3.55c-1.186 1.661-2.84 2.919-4.769 3.592l-0.069 0.021z"></path>
<path d="M16.257 10.473l-4.17-3.030-4.17 3.030 1.593 4.902h5.154zM13.574 13.875h-2.975l-0.919-2.829 2.406-1.748 2.406 1.748z"></path>
</svg>
