<!-- Generated by IcoMoon.io -->
<svg version="1.1" xmlns="http://www.w3.org/2000/svg" width="24" height="24" viewBox="0 0 24 24">
<title>fridge</title>
<path d="M17.625 0.75h-11.25c-1.242 0.001-2.249 1.008-2.25 2.25v18.75c0.001 0.828 0.672 1.499 1.5 1.5h12.75c0.828-0.001 1.499-0.672 1.5-1.5v-18.75c-0.001-1.242-1.008-2.249-2.25-2.25h-0zM18.375 21.75h-12.75v-10.5h12.75zM18.375 9.75h-12.75v-6.75c0-0.414 0.336-0.75 0.75-0.75h11.25c0.414 0 0.75 0.336 0.75 0.75v0z"></path>
<path d="M6.75 13.125h1.5v4.5h-1.5v-4.5z"></path>
<path d="M6.75 4.875h1.5v3h-1.5v-3z"></path>
</svg>
