<!-- Generated by IcoMoon.io -->
<svg version="1.1" xmlns="http://www.w3.org/2000/svg" width="24" height="24" viewBox="0 0 24 24">
<title>functions</title>
<path d="M17.099 17.378c-0.307-0.206-0.529-0.518-0.615-0.883l-0.002-0.010-0.432-2.020 4.954-4.789h-2.158l-3.165 3.060-0.143-0.667-0.002-0.009c-0.302-1.292-1.417-2.25-2.765-2.31l-0.006-0-0.015-0.001h-3.149l0.883-4.11c0.15-0.633 0.693-1.102 1.352-1.139l0.004-0h2.233v-1.5l-2.281 0.001c-1.355 0.060-2.469 1.018-2.768 2.29l-0.004 0.020-0.954 4.439h-3.94v1.5h3.617l-1.528 7.11c-0.15 0.633-0.693 1.102-1.352 1.139l-0.004 0h-2.233v1.5l2.281-0.001c1.355-0.060 2.469-1.018 2.768-2.29l0.004-0.020 1.599-7.439h3.439c0.662 0.037 1.205 0.506 1.354 1.129l0.002 0.010 0.338 1.577-5.337 5.159h2.158l3.549-3.431 0.24 1.12c0.302 1.292 1.417 2.25 2.765 2.31l0.006 0 2.46 0.001v-1.5h-2.412c-0.277-0.015-0.531-0.105-0.745-0.25l0.005 0.003z"></path>
</svg>
