<!-- Generated by IcoMoon.io -->
<svg version="1.1" xmlns="http://www.w3.org/2000/svg" width="24" height="24" viewBox="0 0 24 24">
<title>gamepad</title>
<path d="M17.25 7.875h-4.5v-3h8.25c0.621-0.001 1.124-0.504 1.125-1.125v-3h-1.5v2.625h-8.25c-0.621 0.001-1.124 0.504-1.125 1.125v3.375h-4.5c-3.312 0.004-5.996 2.688-6 6v4.733c0.003 2.356 1.912 4.265 4.268 4.268h0.085c0.002 0 0.003 0 0.005 0 1.313 0 2.487-0.594 3.268-1.529l0.005-0.007 2.47-2.964h2.279l2.469 3.209c0.788 1.017 2.010 1.666 3.383 1.666 2.357 0 4.268-1.911 4.268-4.268 0-0 0-0 0-0v0-5.107c-0.004-3.312-2.688-5.996-6-6h-0zM21.75 18.982c0 0 0 0 0 0 0 1.529-1.239 2.768-2.768 2.768-0.891 0-1.683-0.421-2.189-1.074l-0.005-0.006-2.919-3.795h-3.721l-2.92 3.504c-0.51 0.61-1.271 0.996-2.123 0.996-0.001 0-0.002 0-0.004 0h-0.084c-1.528-0.002-2.766-1.24-2.768-2.768v-4.732c0.003-2.484 2.016-4.497 4.5-4.5h10.5c2.484 0.003 4.497 2.016 4.5 4.5v0z"></path>
<path d="M16.875 11.625h1.5v1.5h-1.5v-1.5z"></path>
<path d="M16.875 15.375h1.5v1.5h-1.5v-1.5z"></path>
<path d="M15 13.5h1.5v1.5h-1.5v-1.5z"></path>
<path d="M18.75 13.5h1.5v1.5h-1.5v-1.5z"></path>
<path d="M7.125 11.625h-1.5v1.875h-1.875v1.5h1.875v1.875h1.5v-1.875h1.875v-1.5h-1.875v-1.875z"></path>
</svg>
