<!-- Generated by IcoMoon.io -->
<svg version="1.1" xmlns="http://www.w3.org/2000/svg" width="24" height="24" viewBox="0 0 24 24">
<title>gift</title>
<path d="M22.125 6h-4.695c0.357-0.527 0.57-1.177 0.57-1.877 0-1.863-1.51-3.373-3.373-3.373-1.059 0-2.003 0.488-2.622 1.251l-0.005 0.006c-0.623-0.769-1.568-1.257-2.627-1.257-1.863 0-3.373 1.51-3.373 3.373 0 0.7 0.213 1.35 0.578 1.889l-0.008-0.012h-4.695c-0.621 0.001-1.124 0.504-1.125 1.125v15.073c0 0.58 0.505 1.052 1.125 1.052h20.25c0.62 0 1.125-0.472 1.125-1.052v-15.073c-0.001-0.621-0.504-1.124-1.125-1.125h-0zM14.625 2.25c1.036 0 1.875 0.839 1.875 1.875s-0.839 1.875-1.875 1.875v0h-1.875v-1.875c0.001-1.035 0.84-1.874 1.875-1.875h0zM7.5 4.125c0-1.036 0.839-1.875 1.875-1.875s1.875 0.839 1.875 1.875v0 1.875h-1.875c-1.035-0.001-1.874-0.84-1.875-1.875v-0zM2.25 21.75v-9.75h6.75v9.75zM10.5 21.75v-9.75h3v9.75zM21.75 21.75h-6.75v-9.75h6.75zM2.25 10.5v-3h19.5v3z"></path>
</svg>
