<!-- Generated by IcoMoon.io -->
<svg version="1.1" xmlns="http://www.w3.org/2000/svg" width="24" height="24" viewBox="0 0 24 24">
<title>golf</title>
<path d="M17.758 16.033c-1.85-0.666-4.295-1.033-6.883-1.033-0.018-0-0.038-0-0.059-0-1.302 0-2.582 0.099-3.831 0.289l0.14-0.018v-5.374l7.125-2.625v-1.787l-7.125-3.338v-1.398h-1.5v18.75h1.5v-2.711c1.104-0.184 2.377-0.289 3.674-0.289 0.027 0 0.054 0 0.080 0h-0.004c2.42 0 4.684 0.335 6.375 0.944 1.661 0.598 2.25 1.279 2.25 1.681s-0.589 1.083-2.25 1.681c-1.691 0.609-3.955 0.944-6.375 0.944s-4.684-0.335-6.375-0.944c-1.661-0.598-2.25-1.279-2.25-1.681 0-0.37 0.5-0.976 1.875-1.537v-1.602c-0.045 0.015-0.089 0.031-0.133 0.047-2.679 0.965-3.242 2.214-3.242 3.092s0.562 2.128 3.242 3.092c1.85 0.666 4.295 1.033 6.883 1.033s5.033-0.367 6.883-1.033c2.679-0.965 3.242-2.214 3.242-3.092s-0.562-2.128-3.242-3.092zM7.125 3.805l5.371 2.516-5.371 1.979z"></path>
<path d="M21.75 13.125c0 0.828-0.672 1.5-1.5 1.5s-1.5-0.672-1.5-1.5c0-0.828 0.672-1.5 1.5-1.5s1.5 0.672 1.5 1.5z"></path>
</svg>
