<!-- Generated by IcoMoon.io -->
<svg version="1.1" xmlns="http://www.w3.org/2000/svg" width="24" height="24" viewBox="0 0 24 24">
<title>gradient</title>
<path d="M20.625 1.875h-17.25c-0.414 0-0.75 0.336-0.75 0.75v0 18.75c0 0.414 0.336 0.75 0.75 0.75v0h17.25c0.414 0 0.75-0.336 0.75-0.75v0-18.75c0-0.414-0.336-0.75-0.75-0.75v0zM4.125 13.125h2.25v-2.25h-2.25v-7.5h15.75v7.5h-2.25v2.25h2.25v2.25h-2.25v1.875h-2.25v-1.875h-2.25v1.875h-2.25v-1.875h-2.25v1.875h-2.25v-1.875h-2.25z"></path>
<path d="M6.375 13.125h2.25v2.25h-2.25v-2.25z"></path>
<path d="M8.625 10.875h2.25v2.25h-2.25v-2.25z"></path>
<path d="M10.875 13.125h2.25v2.25h-2.25v-2.25z"></path>
<path d="M13.125 10.875h2.25v2.25h-2.25v-2.25z"></path>
<path d="M15.375 13.125h2.25v2.25h-2.25v-2.25z"></path>
<path d="M6.375 8.625h2.25v2.25h-2.25v-2.25z"></path>
<path d="M10.875 8.625h2.25v2.25h-2.25v-2.25z"></path>
<path d="M15.375 8.625h2.25v2.25h-2.25v-2.25z"></path>
</svg>
