<!-- Generated by IcoMoon.io -->
<svg version="1.1" xmlns="http://www.w3.org/2000/svg" width="24" height="24" viewBox="0 0 24 24">
<title>hand-point-right</title>
<path d="M12.84 22.125h-7.486c-0.214 0-0.414-0.060-0.584-0.163l0.005 0.003-4.025-2.415v-6.758l11.59-10.468c0.199-0.18 0.463-0.29 0.754-0.29 0.337 0 0.639 0.148 0.846 0.383l0.001 0.001c0.651 0.741 1.049 1.72 1.049 2.791 0 1.319-0.602 2.497-1.547 3.274l-0.007 0.006-1.060 0.867v1.145h8.438c1.346 0 2.438 1.091 2.438 2.437s-1.091 2.438-2.438 2.438v0h-5.242l-1.646 5.926c-0.137 0.478-0.57 0.823-1.084 0.824h-0zM5.458 20.625h7.097l1.875-6.75h6.383c0.518 0 0.938-0.42 0.938-0.938s-0.42-0.938-0.938-0.938v0h-9.938v-3.355l1.61-1.317c0.615-0.506 1.004-1.267 1.004-2.12 0-0.557-0.166-1.076-0.452-1.508l0.006 0.010-10.793 9.748v5.242zM13.345 3.437v0z"></path>
</svg>
