<!-- Generated by IcoMoon.io -->
<svg version="1.1" xmlns="http://www.w3.org/2000/svg" width="24" height="24" viewBox="0 0 24 24">
<title>hand-point-down</title>
<path d="M21.59 4.775l-2.415-4.025h-6.758l-10.468 11.59c-0.18 0.199-0.29 0.463-0.29 0.754 0 0.337 0.148 0.639 0.383 0.846l0.001 0.001c0.741 0.651 1.72 1.049 2.791 1.049 1.319 0 2.497-0.602 3.274-1.547l0.006-0.007 0.867-1.060h1.145v8.438c0 1.346 1.091 2.438 2.438 2.438s2.438-1.091 2.438-2.438v0-5.242l5.926-1.646c0.478-0.137 0.823-0.57 0.824-1.084v-7.486c-0-0.214-0.060-0.414-0.163-0.584l0.003 0.005zM20.25 12.555l-6.75 1.875v6.383c0 0.518-0.42 0.938-0.938 0.938s-0.938-0.42-0.938-0.938v0-9.938h-3.355l-1.317 1.61c-0.506 0.615-1.268 1.004-2.12 1.004-0.557 0-1.076-0.166-1.508-0.452l0.010 0.006 9.748-10.793h5.242l1.925 3.208z"></path>
</svg>
