<!-- Generated by IcoMoon.io -->
<svg version="1.1" xmlns="http://www.w3.org/2000/svg" width="24" height="24" viewBox="0 0 24 24">
<title>headphones</title>
<path d="M21 10.125h-2.25v-1.5c0-3.722-3.028-6.75-6.75-6.75s-6.75 3.028-6.75 6.75v1.5h-2.25c-1.242 0.001-2.249 1.008-2.25 2.25v6c0.001 1.242 1.008 2.249 2.25 2.25h2.25c0.828 0 1.5-0.672 1.5-1.5v0-10.5c0-2.899 2.351-5.25 5.25-5.25s5.25 2.351 5.25 5.25v0 10.5c0 0.828 0.672 1.5 1.5 1.5v0h2.25c1.242-0.001 2.249-1.008 2.25-2.25v-6c-0.001-1.242-1.008-2.249-2.25-2.25h-0zM5.25 19.125h-2.25c-0.414 0-0.75-0.336-0.75-0.75v0-6c0-0.414 0.336-0.75 0.75-0.75v0h2.25v7.5zM21.75 18.375c0 0.414-0.336 0.75-0.75 0.75v0h-2.25v-7.5h2.25c0.414 0 0.75 0.336 0.75 0.75v0z"></path>
</svg>
