<!-- Generated by IcoMoon.io -->
<svg version="1.1" xmlns="http://www.w3.org/2000/svg" width="24" height="24" viewBox="0 0 24 24">
<title>hot-tub</title>
<path d="M6.824 6.652c0 0.882-0.715 1.598-1.598 1.598s-1.598-0.715-1.598-1.598c0-0.882 0.715-1.598 1.598-1.598s1.598 0.715 1.598 1.598z"></path>
<path d="M9 13.875h-0.143l-1.636-4.5h-3.364v4.5h-3.107v7.125c0.001 1.242 1.008 2.249 2.25 2.25h18c1.242-0.001 2.249-1.008 2.25-2.25v-7.125zM21.75 21c-0 0.414-0.336 0.75-0.75 0.75h-18c-0.414-0-0.75-0.336-0.75-0.75v-5.625h19.5z"></path>
<path d="M13.875 10.125c0-0 0-0 0-0.001 0-0.392 0.236-0.728 0.573-0.876l0.006-0.002 0.557-0.239c0.883-0.385 1.489-1.251 1.489-2.258s-0.606-1.872-1.473-2.251l-0.016-0.006-0.557-0.239c-0.344-0.15-0.579-0.486-0.579-0.878 0-0 0-0 0-0.001v0-1.875h-1.5v1.875c0 0.001 0 0.001 0 0.002 0 1.006 0.606 1.871 1.473 2.25l0.016 0.006 0.557 0.239c0.344 0.15 0.579 0.487 0.579 0.879s-0.236 0.729-0.573 0.876l-0.006 0.002-0.557 0.239c-0.883 0.385-1.489 1.249-1.489 2.256 0 0.001 0 0.001 0 0.002v-0 2.25h1.5z"></path>
<path d="M19.125 10.125c0-0 0-0 0-0.001 0-0.392 0.236-0.728 0.573-0.876l0.006-0.002 0.557-0.239c0.883-0.385 1.489-1.251 1.489-2.258s-0.606-1.872-1.473-2.251l-0.016-0.006-0.557-0.239c-0.344-0.15-0.579-0.486-0.579-0.878 0-0 0-0 0-0.001v0-1.875h-1.5v1.875c0 0.001 0 0.001 0 0.002 0 1.006 0.606 1.871 1.473 2.25l0.016 0.006 0.557 0.239c0.344 0.15 0.579 0.487 0.579 0.879s-0.236 0.729-0.573 0.876l-0.006 0.002-0.557 0.239c-0.883 0.385-1.489 1.249-1.489 2.256 0 0.001 0 0.001 0 0.002v-0 2.25h1.5z"></path>
<path d="M4.5 16.875h1.5v3.375h-1.5v-3.375z"></path>
<path d="M9 16.875h1.5v3.375h-1.5v-3.375z"></path>
<path d="M13.5 16.875h1.5v3.375h-1.5v-3.375z"></path>
<path d="M18 16.875h1.5v3.375h-1.5v-3.375z"></path>
</svg>
