<!-- Generated by IcoMoon.io -->
<svg version="1.1" xmlns="http://www.w3.org/2000/svg" width="24" height="24" viewBox="0 0 24 24">
<title>industry-slash</title>
<path d="M21.528 4.5l-6.153 6.080v-6.080h-1.62l-3.021 3.053 1.061 1.061 2.079-2.102v4.181l1.749 1.749 6.126-6.053v12.179l1.5 1.5v-15.568h-1.722z"></path>
<path d="M7.875 0.75h-3.943l3.943 3.943v-3.943z"></path>
<path d="M6.375 14.25h1.5v1.5h-1.5v-1.5z"></path>
<path d="M6.375 17.625h1.5v1.5h-1.5v-1.5z"></path>
<path d="M10.125 14.25h1.5v1.5h-1.5v-1.5z"></path>
<path d="M10.125 17.625h1.5v1.5h-1.5v-1.5z"></path>
<path d="M13.875 17.625h1.5v1.5h-1.5v-1.5z"></path>
<path d="M7.875 6.814l-6.064-6.064h-1.061v22.5h22.5v-1.061l-10.755-10.755zM2.25 21.75v-18.439l4.125 4.125v4.189h1.5v-2.689l12.814 12.814z"></path>
</svg>
