<!-- Generated by IcoMoon.io -->
<svg version="1.1" xmlns="http://www.w3.org/2000/svg" width="24" height="24" viewBox="0 0 24 24">
<title>location-pin</title>
<path d="M11.903 5.981c-1.657 0-3 1.343-3 3s1.343 3 3 3c1.657 0 3-1.343 3-3v0c-0.002-1.656-1.344-2.998-3-3h-0zM11.903 10.481c-0.828 0-1.5-0.672-1.5-1.5s0.672-1.5 1.5-1.5c0.828 0 1.5 0.672 1.5 1.5v0c-0.001 0.828-0.672 1.499-1.5 1.5h-0z"></path>
<path d="M20.011 8.13c-0.443-4.123-3.904-7.306-8.109-7.306-4.503 0-8.153 3.65-8.153 8.153 0 1.655 0.493 3.195 1.34 4.48l-0.019-0.031 5.668 8.701c0.252 0.382 0.678 0.631 1.163 0.631s0.912-0.249 1.16-0.625l0.003-0.005 5.668-8.701c0.828-1.257 1.321-2.799 1.321-4.456 0-0.296-0.016-0.588-0.046-0.876l0.003 0.036zM17.477 12.607l-5.574 8.557-5.574-8.557c-1.706-2.619-1.34-6.125 0.87-8.335 1.204-1.204 2.867-1.949 4.704-1.949s3.5 0.745 4.704 1.949v0c2.21 2.21 2.576 5.716 0.87 8.335z"></path>
</svg>
