<!-- Generated by IcoMoon.io -->
<svg version="1.1" xmlns="http://www.w3.org/2000/svg" width="24" height="24" viewBox="0 0 24 24">
<title>locomotive</title>
<path d="M23.25 17.489l-1.125-3v-3.062c0-0.002 0-0.005 0-0.008 0-0.874-0.501-1.631-1.231-1.999l-0.013-0.006-1.006-0.503v-4.411h-5.25v4.125h-3.209l-1.362-4.087c-0.306-0.901-1.145-1.538-2.133-1.538-0.001 0-0.001 0-0.002 0h-7.169v3.883l1.875 0.75v2.359l-1.875 0.75v9.508h4.054c0.121 1.267 1.179 2.25 2.468 2.25 1.328 0 2.412-1.044 2.475-2.356l0-0.006 0.674-0.017c0.055 1.325 1.142 2.379 2.476 2.379 1.369 0 2.478-1.11 2.478-2.478 0-0 0-0 0-0v0c0-0.008-0.001-0.016-0.001-0.024l0.67-0.017c-0 0.014-0.001 0.027-0.001 0.041 0 0.001 0 0.002 0 0.003 0 1.369 1.11 2.478 2.478 2.478s2.478-1.11 2.478-2.478c0-0.001 0-0.002 0-0.004v0c0-0.049-0.002-0.098-0.005-0.147h2.255zM7.272 21c-0.54 0-0.978-0.438-0.978-0.978s0.438-0.978 0.978-0.978c0.54 0 0.978 0.438 0.978 0.978v0c-0.001 0.54-0.438 0.978-0.978 0.978h-0zM12.897 21c-0.54 0-0.978-0.438-0.978-0.978s0.438-0.978 0.978-0.978c0.54 0 0.978 0.438 0.978 0.978v0c-0.001 0.54-0.438 0.978-0.978 0.978h-0zM18.522 21c-0.54 0-0.978-0.438-0.978-0.978s0.438-0.978 0.978-0.978c0.54 0 0.978 0.438 0.978 0.978v0c-0.001 0.54-0.438 0.978-0.978 0.978h-0zM21.75 18.375h-1.378c-0.455-0.511-1.115-0.832-1.85-0.832-0.777 0-1.47 0.358-1.924 0.918l-0.004 0.005-1.736 0.043c-0.457-0.59-1.165-0.966-1.962-0.966-0.84 0-1.582 0.418-2.030 1.058l-0.005 0.008-1.528 0.038c-0.45-0.67-1.205-1.104-2.062-1.104-0.899 0-1.686 0.479-2.12 1.196l-0.006 0.011h-2.895v-6.992l1.875-0.75v-4.39l-1.875-0.75v-1.367h5.669c0 0 0 0 0.001 0 0.329 0 0.609 0.212 0.709 0.508l0.002 0.005 1.704 5.112h5.791v-4.125h2.25v3.839l1.835 0.918c0.248 0.125 0.415 0.377 0.415 0.668 0 0.001 0 0.002 0 0.003v-0 2.448h-16.125v1.5h16.355l0.895 2.386z"></path>
</svg>
