<!-- Generated by IcoMoon.io -->
<svg version="1.1" xmlns="http://www.w3.org/2000/svg" width="24" height="24" viewBox="0 0 24 24">
<title>map</title>
<path d="M22.428 4.173l-6.978-1.952-6.999 1.971-6.508-1.846c-0.077-0.023-0.165-0.036-0.256-0.036-0.518 0-0.938 0.42-0.938 0.938v0 15.965c0.002 0.511 0.343 0.943 0.81 1.080l0.008 0.002 6.882 1.952 7.002-1.972 6.609 1.849c0.076 0.022 0.163 0.035 0.252 0.035 0.518 0 0.938-0.42 0.938-0.938v0-15.965c-0.001-0.513-0.345-0.945-0.814-1.081l-0.008-0.002zM7.641 20.459l-5.391-1.529v-14.938l5.391 1.529zM14.701 18.929l-5.56 1.566v-14.939l5.56-1.566zM21.75 20.48l-5.549-1.552v-14.939l5.549 1.552z"></path>
</svg>
