<!-- Generated by IcoMoon.io -->
<svg version="1.1" xmlns="http://www.w3.org/2000/svg" width="24" height="24" viewBox="0 0 24 24">
<title>mouth-slash</title>
<path d="M19.35 5.025c-1.128-1.504-2.21-2.175-3.507-2.175-1.057 0-2.065 0.627-2.915 1.813-0.246 0.342-0.48 0.73-0.683 1.138l-0.022 0.049h-0.446c-0.225-0.457-0.459-0.846-0.722-1.213l0.017 0.025c-0.851-1.186-1.859-1.813-2.916-1.813-0.006-0-0.013-0-0.019-0-0.627 0-1.214 0.173-1.715 0.473l0.015-0.008 1.128 1.128c0.171-0.059 0.368-0.093 0.572-0.093 0.007 0 0.014 0 0.020 0h-0.001c1.18 0 2.18 1.869 2.437 2.522l0.186 0.478 2.438-0.001 0.187-0.476c0.257-0.655 1.258-2.523 2.438-2.523 0.557 0 1.266 0.187 2.307 1.575 0.871 1.162 3.078 3.788 3.869 4.725l-2.101 5.663q-0.019 0.039-0.038 0.078c-0.040 0.081-0.084 0.16-0.128 0.238l1.093 1.093c0.119-0.181 0.244-0.396 0.358-0.618l0.018-0.040q0.034-0.067 0.066-0.135l0.014-0.030 1.948-5.253v-1.864c-0.694-0.822-3.031-3.598-3.9-4.757z"></path>
<path d="M18.155 15.032l2.129-4.826-4.731-2.115-0.365 0.413c-0.010 0.012-0.88 0.979-2.238 1.323l1.18 1.18c0.681-0.294 1.267-0.669 1.783-1.122l-0.008 0.006 2.404 1.075-1.292 2.929z"></path>
<path d="M0.75 0.75v1.028l3.619 3.619c-1.008 1.334-2.964 3.882-3.619 4.734v1.835l1.943 4.915 0.020 0.047q0.032 0.068 0.066 0.135c0.615 1.205 1.524 2.183 2.634 2.864l0.031 0.018c1.076 0.662 2.38 1.055 3.775 1.055 0.002 0 0.003 0 0.005 0h5.552c0.001 0 0.003 0 0.005 0 1.395 0 2.699-0.392 3.807-1.073l-0.032 0.018q0.112-0.068 0.221-0.14l3.445 3.445h1.028v-1.093l-21.407-21.407zM8.999 10.028l4.090 4.090c-0.326-0.010-0.709-0.016-1.094-0.016-1.694 0-3.361 0.111-4.996 0.327l0.192-0.021-1.482-3.112 2.914-1.457zM7.63 8.659l-3.907 1.954 2.587 5.433 0.546-0.078c1.545-0.233 3.328-0.366 5.142-0.366 0.941 0 1.873 0.036 2.796 0.106l-0.123-0.008 3.011 3.011c-0.833 0.494-1.835 0.787-2.906 0.789h-5.553c-2.153 0-4.157-1.22-5.104-3.109q-0.021-0.042-0.042-0.085l-2.099-5.312c0.663-0.864 2.44-3.179 3.461-4.526z"></path>
</svg>
