<!-- Generated by IcoMoon.io -->
<svg version="1.1" xmlns="http://www.w3.org/2000/svg" width="24" height="24" viewBox="0 0 24 24">
<title>newspaper</title>
<path d="M4.125 3.375v14.813c0 0.518-0.42 0.938-0.938 0.938s-0.938-0.42-0.938-0.938v0-11.063h-1.5v11.063c0.002 1.346 1.092 2.436 2.437 2.438h17.625c1.346-0.002 2.436-1.092 2.438-2.437v-14.813zM21.75 18.188c-0.001 0.518-0.42 0.937-0.937 0.938h-15.375c0.119-0.276 0.188-0.598 0.188-0.935 0-0.001 0-0.001 0-0.002v0-13.313h16.125z"></path>
<path d="M13.875 6.375h-6.75v7.5h6.75zM12.375 12.375h-3.75v-4.5h3.75z"></path>
<path d="M15.375 6.375h4.875v1.5h-4.875v-1.5z"></path>
<path d="M15.375 9.375h4.875v1.5h-4.875v-1.5z"></path>
<path d="M15.375 12.375h4.875v1.5h-4.875v-1.5z"></path>
</svg>
