<!-- Generated by IcoMoon.io -->
<svg version="1.1" xmlns="http://www.w3.org/2000/svg" width="24" height="24" viewBox="0 0 24 24">
<title>object-ungroup</title>
<path d="M23.25 10.875v-4.5h-4.5v1.5h-3.375v-2.625h1.5v-4.5h-4.5v1.5h-7.125v-1.5h-4.5v4.5h1.5v7.125h-1.5v4.5h4.5v-1.5h3.375v3.375h-1.5v4.5h4.5v-1.5h7.125v1.5h4.5v-4.5h-1.5v-7.875zM20.25 7.875h1.5v1.5h-1.5zM13.875 2.25h1.5v1.5h-1.5zM2.25 2.25h1.5v1.5h-1.5zM3.75 15.375h-1.5v-1.5h1.5zM5.25 13.875v-1.5h-1.5v-7.125h1.5v-1.5h7.125v1.5h1.5v7.125h-1.5v1.5zM15.375 13.875v1.5h-1.5v-1.5zM10.125 21.75h-1.5v-1.5h1.5zM21.75 21.75h-1.5v-1.5h1.5zM20.25 18.75h-1.5v1.5h-7.125v-1.5h-1.5v-3.375h2.25v1.5h4.5v-4.5h-1.5v-3h3.375v1.5h1.5z"></path>
</svg>
