<!-- Generated by IcoMoon.io -->
<svg version="1.1" xmlns="http://www.w3.org/2000/svg" width="24" height="24" viewBox="0 0 24 24">
<title>options-horizontal</title>
<path d="M17.25 12c0 1.657 1.343 3 3 3s3-1.343 3-3c0-1.657-1.343-3-3-3v0c-1.656 0.002-2.998 1.344-3 3v0zM21.75 12c0 0.828-0.672 1.5-1.5 1.5s-1.5-0.672-1.5-1.5c0-0.828 0.672-1.5 1.5-1.5v0c0.828 0.001 1.499 0.672 1.5 1.5v0z"></path>
<path d="M6.75 12c0-1.657-1.343-3-3-3s-3 1.343-3 3c0 1.657 1.343 3 3 3v0c1.656-0.002 2.998-1.344 3-3v-0zM2.25 12c0-0.828 0.672-1.5 1.5-1.5s1.5 0.672 1.5 1.5c0 0.828-0.672 1.5-1.5 1.5v0c-0.828-0.001-1.499-0.672-1.5-1.5v-0z"></path>
<path d="M15 12c0-1.657-1.343-3-3-3s-3 1.343-3 3c0 1.657 1.343 3 3 3v0c1.656-0.002 2.998-1.344 3-3v-0zM10.5 12c0-0.828 0.672-1.5 1.5-1.5s1.5 0.672 1.5 1.5c0 0.828-0.672 1.5-1.5 1.5v0c-0.828-0.001-1.499-0.672-1.5-1.5v-0z"></path>
</svg>
