<!-- Generated by IcoMoon.io -->
<svg version="1.1" xmlns="http://www.w3.org/2000/svg" width="24" height="24" viewBox="0 0 24 24">
<title>paw</title>
<path d="M17.945 14.277c-0.743-2.631-3.123-4.527-5.945-4.527s-5.202 1.896-5.934 4.484l-0.011 0.043-0.855 3.101c-0.086 0.299-0.135 0.642-0.135 0.997 0 2.071 1.679 3.75 3.75 3.75h6.371c2.071 0 3.75-1.679 3.75-3.75 0-0.355-0.049-0.698-0.141-1.024l0.006 0.026zM16.975 19.738c-0.412 0.541-1.056 0.887-1.782 0.887-0.003 0-0.006 0-0.009-0h-6.37c-1.243 0-2.25-1.007-2.25-2.25 0-0.213 0.030-0.419 0.085-0.614l-0.004 0.016 0.855-3.101c0.562-1.991 2.363-3.426 4.499-3.426s3.937 1.435 4.491 3.393l0.008 0.033 0.855 3.101c0.053 0.18 0.083 0.388 0.083 0.602 0 0.514-0.174 0.987-0.465 1.365l0.004-0.005z"></path>
<path d="M6.848 10.796c0.13-0.815-0.043-1.689-0.487-2.459s-1.115-1.357-1.886-1.652c-0.826-0.316-1.669-0.265-2.373 0.141-1.401 0.809-1.77 2.802-0.822 4.444 0.445 0.77 1.115 1.357 1.886 1.652 0.318 0.127 0.685 0.202 1.071 0.205h0.001c0.003 0 0.006 0 0.009 0 0.476 0 0.922-0.129 1.305-0.353l-0.012 0.007c0.705-0.407 1.17-1.112 1.309-1.985zM5.367 10.559c-0.067 0.419-0.272 0.746-0.578 0.923s-0.692 0.19-1.088 0.039c-0.451-0.172-0.849-0.527-1.122-1-0.525-0.91-0.4-2.006 0.273-2.395 0.156-0.090 0.343-0.143 0.543-0.143 0.004 0 0.009 0 0.013 0h-0.001c0.192 0.002 0.375 0.040 0.543 0.108l-0.010-0.004c0.451 0.172 0.849 0.527 1.122 1s0.382 0.996 0.305 1.472z"></path>
<path d="M7.011 7.688c0.533 0.426 1.141 0.647 1.756 0.647 0.194-0 0.383-0.022 0.565-0.062l-0.017 0.003c1.581-0.344 2.539-2.13 2.137-3.982v0c-0.189-0.869-0.648-1.632-1.293-2.148-0.691-0.552-1.509-0.761-2.304-0.588-1.581 0.344-2.539 2.13-2.137 3.982 0.189 0.869 0.648 1.632 1.293 2.148zM8.173 3.024c0.066-0.015 0.143-0.024 0.221-0.024 0 0 0.001 0 0.001 0h-0c0.279 0 0.566 0.109 0.827 0.318 0.377 0.301 0.648 0.761 0.764 1.295v0c0.223 1.026-0.23 2.033-0.989 2.198-0.345 0.075-0.717-0.029-1.048-0.294-0.377-0.301-0.648-0.761-0.764-1.295-0.223-1.026 0.23-2.033 0.989-2.198z"></path>
<path d="M21.899 6.826c-0.704-0.407-1.547-0.457-2.373-0.141-0.771 0.295-1.441 0.881-1.886 1.652s-0.618 1.644-0.487 2.459c0.14 0.873 0.605 1.578 1.309 1.985 0.371 0.218 0.816 0.346 1.292 0.346 0.003 0 0.007 0 0.010-0h-0.001c0.386-0.002 0.754-0.077 1.092-0.212l-0.020 0.007c0.771-0.295 1.441-0.881 1.886-1.652 0.948-1.642 0.579-3.635-0.822-4.444zM21.421 10.52c-0.273 0.473-0.672 0.828-1.122 1-0.396 0.151-0.782 0.137-1.088-0.039s-0.511-0.504-0.578-0.923c-0.076-0.476 0.032-0.999 0.305-1.472s0.672-0.828 1.122-1c0.158-0.064 0.341-0.102 0.532-0.104h0.001c0.004-0 0.008-0 0.012-0 0.2 0 0.387 0.053 0.549 0.146l-0.005-0.003c0.673 0.389 0.798 1.485 0.273 2.395z"></path>
<path d="M14.685 8.277c0.165 0.038 0.354 0.059 0.548 0.059h0c0.615 0 1.223-0.222 1.756-0.647 0.645-0.516 1.104-1.278 1.293-2.148 0.403-1.852-0.556-3.639-2.137-3.982-0.795-0.173-1.613 0.036-2.304 0.588-0.645 0.516-1.104 1.278-1.293 2.148-0.403 1.852 0.556 3.639 2.137 3.982zM14.015 4.613v0c0.116-0.534 0.387-0.994 0.764-1.295 0.261-0.209 0.548-0.318 0.827-0.318 0 0 0 0 0.001 0 0.078 0 0.155 0.009 0.228 0.025l-0.007-0.001c0.759 0.165 1.212 1.172 0.989 2.198-0.116 0.534-0.387 0.994-0.764 1.295-0.331 0.265-0.703 0.369-1.048 0.294-0.759-0.165-1.213-1.172-0.989-2.198z"></path>
</svg>
