<!-- Generated by IcoMoon.io -->
<svg version="1.1" xmlns="http://www.w3.org/2000/svg" width="24" height="24" viewBox="0 0 24 24">
<title>pen-alt</title>
<path d="M22.030 1.97c-0.754-0.752-1.795-1.218-2.944-1.218s-2.19 0.465-2.944 1.218l-0.447 0.447-0.975-0.975c-0.428-0.428-1.018-0.692-1.67-0.692s-1.243 0.264-1.67 0.692l-6.284 6.284 1.061 1.061 6.284-6.284c0.156-0.156 0.372-0.253 0.61-0.253s0.454 0.097 0.61 0.253l0.975 0.975-6.295 6.295c-3.178 3.185-5.65 7.075-7.164 11.414l-0.065 0.213c-0.040 0.113-0.063 0.243-0.063 0.378 0 0.323 0.132 0.616 0.344 0.827l0.004 0.004c0.211 0.212 0.503 0.344 0.826 0.344h0c0.136-0 0.266-0.023 0.388-0.066l-0.008 0.003h0c4.552-1.578 8.442-4.051 11.627-7.229l7.802-7.802c0.752-0.754 1.218-1.795 1.218-2.944s-0.465-2.19-1.218-2.944l0 0zM13.167 14.601c-2.871 2.864-6.344 5.126-10.213 6.579l-0.199 0.065c1.519-4.067 3.78-7.54 6.645-10.412l2.547-2.547 3.767 3.767zM20.97 6.798l-4.195 4.195-3.767-3.767 4.195-4.195c0.482-0.483 1.149-0.782 1.886-0.782 1.471 0 2.664 1.193 2.664 2.664 0 0.737-0.299 1.404-0.782 1.886l-0 0z"></path>
</svg>
