<!-- Generated by IcoMoon.io -->
<svg version="1.1" xmlns="http://www.w3.org/2000/svg" width="24" height="24" viewBox="0 0 24 24">
<title>react</title>
<path d="M19.87 7.949c-0.168-0.066-0.343-0.13-0.521-0.192q0.053-0.277 0.094-0.547c0.396-2.637-0.166-4.54-1.584-5.358-0.43-0.249-0.946-0.396-1.497-0.396-0.013 0-0.025 0-0.038 0l0.002-0c-1.277 0-2.767 0.71-4.326 2.058-1.559-1.348-3.049-2.058-4.326-2.058-0.011-0-0.023-0-0.036-0-0.551 0-1.067 0.147-1.511 0.404l0.015-0.008c-1.418 0.819-1.981 2.722-1.584 5.358 0.027 0.179 0.059 0.362 0.095 0.547q-0.267 0.093-0.521 0.192c-2.482 0.975-3.848 2.414-3.848 4.051s1.367 3.076 3.848 4.051q0.253 0.099 0.521 0.192-0.053 0.277-0.094 0.547c-0.396 2.637 0.166 4.54 1.584 5.358 0.43 0.249 0.946 0.396 1.497 0.396 0.013 0 0.025-0 0.038-0l-0.002 0c1.277 0 2.767-0.71 4.326-2.058 1.559 1.348 3.049 2.058 4.327 2.058 0.011 0 0.023 0 0.036 0 0.551 0 1.067-0.147 1.511-0.404l-0.015 0.008c1.418-0.819 1.981-2.722 1.584-5.358-0.027-0.179-0.059-0.362-0.094-0.547q0.266-0.093 0.521-0.192c2.482-0.975 3.849-2.414 3.849-4.051s-1.367-3.076-3.849-4.051zM17.109 3.15c0.835 0.482 1.145 1.88 0.851 3.836-0.149 0.993-0.442 2.075-0.858 3.197q-0.229-0.43-0.474-0.856c-1.058-1.833-2.267-3.464-3.535-4.776 1.223-1.033 2.359-1.597 3.233-1.597 0.009-0 0.020-0 0.030-0 0.276 0 0.536 0.073 0.76 0.2l-0.008-0.004zM14.169 15.755c-0.705 0.058-1.431 0.089-2.169 0.089-0.732 0-1.46-0.030-2.169-0.089-0.403-0.582-0.793-1.197-1.16-1.833-0.366-0.633-0.704-1.279-1.007-1.922 0.302-0.639 0.638-1.283 1.007-1.921 0.367-0.636 0.757-1.252 1.16-1.833 0.705-0.058 1.431-0.089 2.169-0.089 0.733 0 1.46 0.030 2.169 0.089 0.402 0.58 0.79 1.193 1.159 1.833 0.366 0.633 0.704 1.279 1.007 1.922-0.302 0.639-0.638 1.283-1.007 1.922-0.367 0.636-0.757 1.251-1.16 1.833zM6.040 6.987c-0.294-1.956 0.016-3.354 0.851-3.836 0.217-0.123 0.476-0.196 0.752-0.196 0.011 0 0.021 0 0.032 0l-0.002-0c0.966 0 2.251 0.687 3.618 1.935 0.601 0.554 1.153 1.136 1.663 1.753l0.024 0.030q-0.487-0.017-0.979-0.017c-2.111 0-4.142 0.235-5.903 0.673-0.021-0.116-0.040-0.23-0.057-0.343zM4.678 14.655c-1.841-0.723-2.897-1.691-2.897-2.655s1.056-1.932 2.897-2.655c0.934-0.367 2.018-0.655 3.198-0.856q-0.258 0.413-0.504 0.839c-1.056 1.829-1.868 3.704-2.369 5.449q-0.166-0.060-0.325-0.122zM6.891 20.85c-0.835-0.482-1.145-1.88-0.851-3.836 0.149-0.993 0.442-2.075 0.858-3.197q0.229 0.43 0.474 0.856c0.457 0.792 0.947 1.554 1.457 2.265 0.667 0.933 1.349 1.752 2.085 2.519l-0.007-0.008c-1.222 1.033-2.359 1.597-3.233 1.597-0.009 0-0.020 0-0.030 0-0.276 0-0.536-0.073-0.76-0.2l0.008 0.004zM17.96 17.013c0.294 1.956-0.016 3.354-0.851 3.836-0.217 0.123-0.476 0.196-0.752 0.196-0.011 0-0.021-0-0.032-0l0.002 0c-0.966 0-2.251-0.687-3.618-1.935-0.601-0.554-1.153-1.136-1.664-1.753l-0.024-0.030q0.488 0.017 0.98 0.017c2.111 0 4.142-0.235 5.903-0.673 0.021 0.116 0.040 0.23 0.057 0.343zM19.322 14.655c-0.934 0.367-2.018 0.655-3.198 0.856q0.258-0.413 0.504-0.839c1.056-1.829 1.868-3.704 2.369-5.449 0.111 0.040 0.22 0.080 0.325 0.122 1.841 0.723 2.897 1.691 2.897 2.655s-1.056 1.932-2.897 2.655z"></path>
<path d="M12 9.375c-1.45 0-2.625 1.175-2.625 2.625s1.175 2.625 2.625 2.625c1.45 0 2.625-1.175 2.625-2.625v0c-0.002-1.449-1.176-2.623-2.625-2.625h-0zM12 13.125c-0.621 0-1.125-0.504-1.125-1.125s0.504-1.125 1.125-1.125c0.621 0 1.125 0.504 1.125 1.125v0c-0.001 0.621-0.504 1.124-1.125 1.125h-0z"></path>
</svg>
