<!-- Generated by IcoMoon.io -->
<svg version="1.1" xmlns="http://www.w3.org/2000/svg" width="24" height="24" viewBox="0 0 24 24">
<title>registered</title>
<path d="M15.854 18.755l0.009-0.005h-0.012l0.003 0.005z"></path>
<path d="M15.263 12c0.535-0.594 0.862-1.385 0.862-2.252 0-1.863-1.51-3.373-3.373-3.373-0.001 0-0.002 0-0.002 0h-4.125v10.5h1.5v-3.75h2.417l2.206 3.75h1.74l-2.375-4.038c0.452-0.204 0.835-0.486 1.148-0.834l0.003-0.003zM12.75 11.625h-2.625v-3.75h2.625c1.036 0 1.875 0.839 1.875 1.875s-0.839 1.875-1.875 1.875v0z"></path>
<path d="M19.955 4.045c-2.036-2.036-4.848-3.295-7.955-3.295-6.213 0-11.25 5.037-11.25 11.25 0 3.107 1.259 5.919 3.295 7.955v0c2.036 2.036 4.848 3.295 7.955 3.295 6.213 0 11.25-5.037 11.25-11.25 0-3.107-1.259-5.919-3.295-7.955v0zM12 21.75c-5.376 0-9.75-4.374-9.75-9.75s4.374-9.75 9.75-9.75 9.75 4.374 9.75 9.75-4.374 9.75-9.75 9.75z"></path>
</svg>
