<!-- Generated by IcoMoon.io -->
<svg version="1.1" xmlns="http://www.w3.org/2000/svg" width="24" height="24" viewBox="0 0 24 24">
<title>scrubber</title>
<path d="M19.962 4.096c-2.031-2.032-4.837-3.289-7.936-3.289-6.197 0-11.22 5.023-11.22 11.22 0 3.099 1.257 5.905 3.289 7.936l0 0c2.031 2.032 4.837 3.289 7.936 3.289 6.197 0 11.22-5.023 11.22-11.22 0-3.099-1.257-5.905-3.289-7.936l-0-0zM12.028 21.75c-5.36 0-9.72-4.36-9.72-9.72s4.36-9.72 9.72-9.72 9.72 4.36 9.72 9.72-4.36 9.72-9.72 9.72z"></path>
<path d="M12.028 9.030c-1.657 0-3 1.343-3 3s1.343 3 3 3c1.657 0 3-1.343 3-3v0c-0.002-1.656-1.344-2.998-3-3h-0zM12.028 13.53c-0.828 0-1.5-0.672-1.5-1.5s0.672-1.5 1.5-1.5c0.828 0 1.5 0.672 1.5 1.5v0c-0.001 0.828-0.672 1.499-1.5 1.5h-0z"></path>
</svg>
