<!-- Generated by IcoMoon.io -->
<svg version="1.1" xmlns="http://www.w3.org/2000/svg" width="24" height="24" viewBox="0 0 24 24">
<title>share</title>
<path d="M3.194 23.25h-2.444v-12.219c-0-0.004-0-0.009-0-0.014 0-0.871 0.208-1.694 0.578-2.421l-0.014 0.030c1.028-2.229 3.242-3.748 5.811-3.751h6.401v-4.125h1.986l7.674 7.674-7.701 7.701h-1.958v-4.125h-4.163c-1.82 0.005-3.355 1.224-3.836 2.889l-0.007 0.028zM7.125 6.375c-1.97 0.002-3.666 1.17-4.437 2.85l-0.013 0.030-0.014 0.029c-0.26 0.505-0.412 1.103-0.412 1.736 0 0.004 0 0.008 0 0.012v-0.001 10.022l1.825-6.539c0.672-2.331 2.783-4.008 5.287-4.014h5.664v3.962l6.038-6.038-6.038-6.038v3.989z"></path>
</svg>
