<!-- Generated by IcoMoon.io -->
<svg version="1.1" xmlns="http://www.w3.org/2000/svg" width="24" height="24" viewBox="0 0 24 24">
<title>shield-alt</title>
<path d="M22.2 4.129c-0.063-0.006-6.373-0.668-9.338-3.199l-0.21-0.18h-1.303l-0.21 0.18c-2.96 2.526-9.275 3.193-9.338 3.199l-0.675 0.068v0.678c0 4.178 0.686 7.755 2.040 10.632 1.786 3.796 4.692 6.266 8.638 7.342l0.197 0.054 0.197-0.054c3.945-1.076 6.851-3.546 8.638-7.342 1.354-2.877 2.040-6.454 2.040-10.632v-0.678zM21.369 5.537q-0.011 0.599-0.044 1.213h-8.574v-4.035c2.809 1.855 6.986 2.593 8.619 2.822zM12.75 15h6.669c-0.35 0.723-0.715 1.337-1.124 1.918l0.029-0.043h-5.573zM12.75 13.5v-1.875h7.87c-0.203 0.816-0.416 1.487-0.664 2.14l0.043-0.13v-0.135zM12.75 10.125v-1.875h8.455c-0.066 0.624-0.153 1.251-0.264 1.875zM2.631 5.537c1.633-0.229 5.81-0.967 8.619-2.822v18.389c-6.843-2.43-8.508-9.602-8.619-15.568zM12.75 21.104v-2.729h4.329c-1.139 1.158-2.561 2.102-4.329 2.729z"></path>
</svg>
