<!-- Generated by IcoMoon.io -->
<svg version="1.1" xmlns="http://www.w3.org/2000/svg" width="24" height="24" viewBox="0 0 24 24">
<title>sign-language</title>
<path d="M20.89 11.336v-8.149c0-0.207-0.168-0.375-0.375-0.375v0c0 0 0 0 0 0-1.551 0-2.808 1.257-2.808 2.808v0 1.965l-0.405 0.405-3.278-3.278c-0.193-0.192-0.459-0.311-0.753-0.311-0.178 0-0.345 0.043-0.493 0.12l0.006-0.003-2.634-2.634c-0.238-0.238-0.566-0.384-0.928-0.384s-0.691 0.147-0.928 0.384v0c-0.237 0.238-0.384 0.566-0.384 0.928 0 0.294 0.097 0.565 0.26 0.784l-0.002-0.003v0.020l-0.934-0.934c-0.238-0.238-0.566-0.384-0.928-0.384-0.725 0-1.313 0.588-1.313 1.312 0 0.362 0.147 0.691 0.384 0.928l1.061 1.061c-0.237-0.237-0.565-0.383-0.927-0.383-0.725 0-1.313 0.588-1.313 1.313 0 0.362 0.146 0.69 0.383 0.927l1.326 1.326c-0.238-0.237-0.566-0.384-0.928-0.384s-0.691 0.147-0.928 0.384v0c-0.238 0.238-0.384 0.566-0.384 0.928s0.147 0.691 0.384 0.928l0.783 0.783c-0.779 0.289-1.324 1.025-1.326 1.889v0.095c0 0 0 0.001 0 0.002 0 0.189 0.026 0.371 0.075 0.544l-0.003-0.014c-0.97 0.154-1.703 0.984-1.705 1.986v0.095c0.001 1.002 0.734 1.832 1.693 1.984l0.011 0.002c-0.045 0.159-0.071 0.342-0.071 0.53 0 0.001 0 0.001 0 0.002v-0 0.095c0.001 1.109 0.9 2.008 2.009 2.009h0.67c-0.041 0.152-0.065 0.327-0.065 0.507 0 0.001 0 0.001 0 0.002v-0 0.046l-0 0.002 0 0.002v0.046c0.001 1.109 0.9 2.008 2.009 2.009h6.989l6.547-1.455v-9.753zM20.167 20.592l-5.212 1.158h-6.777c-0.307-0-0.556-0.249-0.557-0.556v-0.002c0.001-0.307 0.25-0.555 0.556-0.556h4.246v-1.5h-6.859c-0 0-0.001 0-0.002 0-0.307 0-0.557-0.249-0.557-0.557s0.249-0.557 0.557-0.557c0.001 0 0.001 0 0.002 0h6.859v-1.5h-8.493c-0.307-0.001-0.555-0.25-0.555-0.557s0.248-0.556 0.555-0.557h8.493v-1.5h-6.907c-0.281-0-0.509-0.228-0.509-0.509v-0.095c0-0.281 0.228-0.509 0.509-0.509h10.15v-2.285l-2.163-2.163c-0.319-0.32-0.517-0.762-0.517-1.251 0-0.372 0.115-0.717 0.311-1.002l-0.004 0.006 3.901 3.901 2.973 2.703z"></path>
</svg>
