<!-- Generated by IcoMoon.io -->
<svg version="1.1" xmlns="http://www.w3.org/2000/svg" width="24" height="24" viewBox="0 0 24 24">
<title>smoke-free</title>
<path d="M18 14.818l1.5 1.5v-5.068h-1.5v3.568z"></path>
<path d="M20.625 11.25h1.5v5.625h-1.5v-5.625z"></path>
<path d="M17.037 5.346c-0.446 0.521-0.718 1.203-0.718 1.949 0 0.618 0.187 1.193 0.507 1.671l-0.007-0.011 0.28 0.42h1.803l-0.834-1.252c-0.156-0.233-0.25-0.52-0.25-0.828 0-0.372 0.136-0.713 0.36-0.975l-0.002 0.002c0.449-0.52 0.722-1.202 0.722-1.948 0-0.653-0.21-1.257-0.565-1.749l0.006 0.009-0.274-0.384h-1.715l-0.085 0.061 0.853 1.195c0.174 0.241 0.279 0.543 0.279 0.868 0 0.372-0.136 0.713-0.362 0.974l0.002-0.002z"></path>
<path d="M20.412 5.346c-0.446 0.521-0.718 1.203-0.718 1.949 0 0.618 0.187 1.193 0.507 1.671l-0.007-0.011 0.28 0.42h1.803l-0.834-1.252c-0.156-0.233-0.25-0.52-0.25-0.828 0-0.372 0.136-0.713 0.36-0.975l-0.002 0.002c0.449-0.52 0.722-1.202 0.722-1.948 0-0.653-0.21-1.257-0.565-1.749l0.006 0.009-0.274-0.384h-1.715l-0.085 0.061 0.853 1.195c0.174 0.241 0.279 0.543 0.279 0.868 0 0.372-0.136 0.713-0.362 0.974l0.002-0.002z"></path>
<path d="M12.311 11.25l-10.5-10.5h-1.061v1.061l9.439 9.439h-9.439v5.625h15.064l6.375 6.375h1.061v-1.061zM2.25 15.375v-2.625h9.439l2.625 2.625z"></path>
</svg>
