<!-- Generated by IcoMoon.io -->
<svg version="1.1" xmlns="http://www.w3.org/2000/svg" width="24" height="24" viewBox="0 0 24 24">
<title>sun</title>
<path d="M12 4.875c-3.929 0-7.125 3.196-7.125 7.125s3.196 7.125 7.125 7.125 7.125-3.196 7.125-7.125-3.196-7.125-7.125-7.125zM12 17.625c-3.107 0-5.625-2.518-5.625-5.625s2.518-5.625 5.625-5.625c3.107 0 5.625 2.518 5.625 5.625v0c-0.004 3.105-2.52 5.621-5.625 5.625h-0z"></path>
<path d="M11.25 0.75h1.5v2.25h-1.5v-2.25z"></path>
<path d="M11.25 21h1.5v2.25h-1.5v-2.25z"></path>
<path d="M21 11.25h2.25v1.5h-2.25v-1.5z"></path>
<path d="M0.75 11.25h2.25v1.5h-2.25v-1.5z"></path>
<path d="M18.22 19.28l1.061-1.061 1.5 1.5-1.061 1.061-1.5-1.5z"></path>
<path d="M3.22 4.28l1.061-1.061 1.5 1.5-1.061 1.061-1.5-1.5z"></path>
<path d="M3.22 19.72l1.5-1.5 1.061 1.061-1.5 1.5-1.061-1.061z"></path>
<path d="M18.22 4.72l1.5-1.5 1.061 1.061-1.5 1.5-1.061-1.061z"></path>
</svg>
