<!-- Generated by IcoMoon.io -->
<svg version="1.1" xmlns="http://www.w3.org/2000/svg" width="24" height="24" viewBox="0 0 24 24">
<title>swimming</title>
<path d="M10.468 6.445c0.093-0.044 0.202-0.070 0.317-0.070 0.204 0 0.388 0.081 0.524 0.212l-0-0 1.541 1.648-4.784 4.221c0.448 0.089 0.764 0.236 1.037 0.364 0.365 0.17 0.653 0.305 1.29 0.305s0.925-0.134 1.29-0.305l0.007-0.003c0.742-0.35 1.382-0.775 1.95-1.278l-0.009 0.007 1.268-1.119 2.48 2.652c0.29-0.053 0.495-0.149 0.732-0.259 0.223-0.114 0.486-0.218 0.759-0.298l0.033-0.008-6.528-6.98c-0.408-0.406-0.971-0.658-1.592-0.658-0.345 0-0.671 0.077-0.964 0.216l0.014-0.006-3.025 1.412 0.634 1.359z"></path>
<path d="M19.125 6.188c0 0.932-0.756 1.688-1.688 1.688s-1.688-0.756-1.688-1.688c0-0.932 0.756-1.688 1.688-1.688s1.688 0.756 1.688 1.688z"></path>
<path d="M20.036 17.625c-0.97 0-1.499 0.247-1.924 0.445-0.365 0.17-0.653 0.305-1.29 0.305s-0.925-0.134-1.29-0.305c-0.425-0.198-0.954-0.445-1.924-0.445s-1.499 0.247-1.924 0.445c-0.365 0.17-0.653 0.305-1.29 0.305s-0.925-0.134-1.29-0.305c-0.425-0.198-0.954-0.445-1.924-0.445s-1.499 0.247-1.924 0.445c-0.365 0.17-0.653 0.305-1.29 0.305s-0.925-0.134-1.29-0.305c-0.425-0.198-0.954-0.445-1.924-0.445v1.5c0.637 0 0.925 0.134 1.29 0.305 0.425 0.198 0.954 0.445 1.924 0.445s1.499-0.247 1.924-0.445c0.365-0.17 0.653-0.305 1.29-0.305s0.925 0.134 1.29 0.305c0.425 0.198 0.954 0.445 1.924 0.445s1.499-0.247 1.924-0.445c0.365-0.17 0.653-0.305 1.29-0.305s0.925 0.134 1.29 0.305c0.425 0.198 0.954 0.445 1.924 0.445s1.499-0.247 1.924-0.445c0.365-0.17 0.653-0.305 1.29-0.305s0.925 0.134 1.29 0.305c0.425 0.198 0.954 0.445 1.924 0.445v-1.5c-0.637 0-0.925-0.134-1.29-0.305-0.425-0.198-0.954-0.445-1.924-0.445z"></path>
<path d="M23.123 14.623c-0.55-0.017-0.824-0.144-1.163-0.303-0.406-0.19-0.908-0.423-1.798-0.443-0.042-0.001-0.083-0.002-0.127-0.002s-0.085 0.001-0.127 0.002c-0.89 0.021-1.392 0.254-1.798 0.443-0.34 0.158-0.613 0.286-1.163 0.303-0.041 0.001-0.083 0.002-0.127 0.002s-0.086-0.001-0.127-0.002c-0.55-0.017-0.824-0.144-1.163-0.303-0.406-0.19-0.908-0.423-1.798-0.443-0.042-0.001-0.083-0.002-0.127-0.002s-0.085 0.001-0.127 0.002c-0.889 0.021-1.392 0.254-1.798 0.443-0.34 0.158-0.613 0.286-1.163 0.303-0.041 0.001-0.083 0.002-0.127 0.002s-0.086-0.001-0.127-0.002c-0.55-0.017-0.824-0.144-1.163-0.303-0.406-0.19-0.908-0.423-1.798-0.443-0.029-0.001-0.060-0.001-0.091-0.002l0 0c-0.012-0-0.023-0.001-0.035-0.001-0.043 0-0.085 0.001-0.127 0.002-0.889 0.021-1.392 0.254-1.798 0.443-0.34 0.158-0.613 0.286-1.163 0.303-0.041 0.001-0.083 0.002-0.127 0.002s-0.086-0.001-0.127-0.002c-0.55-0.017-0.824-0.144-1.163-0.303-0.406-0.19-0.908-0.423-1.798-0.443-0.042-0.001-0.083-0.002-0.127-0.002v1.5c0.637 0 0.925 0.134 1.29 0.305 0.425 0.198 0.954 0.445 1.924 0.445s1.499-0.247 1.924-0.445c0.365-0.17 0.653-0.305 1.29-0.305s0.925 0.134 1.29 0.305c0.425 0.198 0.954 0.445 1.924 0.445s1.499-0.247 1.924-0.445c0.365-0.17 0.653-0.305 1.29-0.305s0.925 0.134 1.29 0.305c0.425 0.198 0.954 0.445 1.924 0.445s1.499-0.247 1.924-0.445c0.365-0.17 0.653-0.305 1.29-0.305s0.925 0.134 1.29 0.305c0.425 0.198 0.954 0.445 1.924 0.445v-1.5c-0.044 0-0.086-0.001-0.127-0.002z"></path>
</svg>
