<!-- Generated by IcoMoon.io -->
<svg version="1.1" xmlns="http://www.w3.org/2000/svg" width="24" height="24" viewBox="0 0 24 24">
<title>tennis</title>
<path d="M6.75 3.75c0-1.657-1.343-3-3-3s-3 1.343-3 3c0 1.657 1.343 3 3 3v0c1.656-0.002 2.998-1.344 3-3v-0zM2.25 3.75c0-0.828 0.672-1.5 1.5-1.5s1.5 0.672 1.5 1.5c0 0.828-0.672 1.5-1.5 1.5v0c-0.828-0.001-1.499-0.672-1.5-1.5v-0z"></path>
<path d="M20.655 3.349c-1.129-1.135-2.69-1.84-4.416-1.844h-0.001c-0.010-0-0.019-0-0.029-0-1.757 0-3.473 0.749-4.834 2.11-1.387 1.387-2.519 3.494-3.031 5.636-0.119 0.468-0.21 1.023-0.254 1.591l-0.002 0.035c-0.058 0.894-0.316 1.717-0.73 2.44l0.015-0.027c-0.307 0.526-0.66 0.981-1.064 1.384l-0 0-3.716 3.807c-0.581 0.583-0.642 1.182-0.592 1.582 0.059 0.465 0.306 0.927 0.715 1.335s0.871 0.656 1.335 0.715c0.067 0.009 0.144 0.014 0.223 0.014h0c0.384 0 0.879-0.126 1.363-0.609l3.716-3.806c0.433-0.434 0.926-0.808 1.465-1.11l0.034-0.017c0.659-0.362 1.436-0.597 2.261-0.653l0.017-0.001c0.607-0.047 1.165-0.14 1.705-0.276l-0.070 0.015c2.135-0.515 4.238-1.651 5.626-3.039v0c1.369-1.369 2.118-3.096 2.11-4.864-0.005-1.727-0.709-3.288-1.844-4.417l-0-0zM4.573 20.458c-0.185 0.184-0.293 0.17-0.334 0.165-0.128-0.016-0.297-0.121-0.463-0.287s-0.271-0.335-0.287-0.463c-0.005-0.041-0.019-0.15 0.168-0.337l2.971-3.043 0.919 0.919zM8.607 16.351l-0.936-0.936c0.363-0.402 0.691-0.848 0.972-1.325l0.021-0.038c0.313 0.55 0.756 0.994 1.29 1.298l0.017 0.009c-0.516 0.302-0.962 0.63-1.371 0.999l0.007-0.006zM19.33 11.569c-1.183 1.183-3.067 2.195-4.917 2.641-1.841 0.444-3.383 0.266-4.126-0.476-1.583-1.583-0.418-6.494 2.148-9.060 1.175-1.175 2.508-1.664 3.759-1.664 1.326 0.001 2.527 0.535 3.401 1.4l-0-0c1.671 1.671 2.146 4.748-0.265 7.159z"></path>
</svg>
