<!-- Generated by IcoMoon.io -->
<svg version="1.1" xmlns="http://www.w3.org/2000/svg" width="24" height="24" viewBox="0 0 24 24">
<title>text-strike</title>
<path d="M0.75 0.75v22.5h22.5v-22.5zM21.75 21.75h-19.5v-19.5h19.5z"></path>
<path d="M16.161 13.5h-4.113l1.784 1.207c0.25 0.17 0.419 0.442 0.448 0.755l0 0.004c0.003 0.030 0.005 0.064 0.005 0.099 0 0.27-0.111 0.514-0.289 0.69l-0 0c-0.182 0.179-0.557 0.48-1.027 0.48h-4.875v2.531h4.875c1.018 0 2.014-0.43 2.805-1.21 0.644-0.635 1.042-1.516 1.042-2.491 0-0.117-0.006-0.232-0.017-0.346l0.001 0.014c-0.061-0.655-0.292-1.247-0.647-1.744l0.007 0.011z"></path>
<path d="M14.348 12h5.902v-1.5h-8.119l-2.033-1.376c-0.572-0.387-0.456-0.973-0.407-1.143 0.059-0.206 0.265-0.686 0.889-0.715 0.303-0.001 5.544 0 5.544 0l0.001-2.531s-5.586-0-5.615 0.001c-1.544 0.052-2.821 1.051-3.251 2.544-0.334 1.159-0.085 2.337 0.632 3.22h-4.141v1.5h10.598z"></path>
</svg>
