<!-- Generated by IcoMoon.io -->
<svg version="1.1" xmlns="http://www.w3.org/2000/svg" width="24" height="24" viewBox="0 0 24 24">
<title>thumb-down</title>
<path d="M5.975 4.875h-3.565c-0.541 0.002-0.992 0.383-1.101 0.891l-0.001 0.007-0.070 0.343c-0.31 1.436-0.488 3.085-0.488 4.776 0 1.807 0.203 3.567 0.588 5.257l-0.030-0.158c0.117 0.508 0.564 0.881 1.098 0.884h3.569c0.621-0.001 1.124-0.504 1.125-1.125v-9.75c-0.001-0.621-0.504-1.124-1.125-1.125h-0zM5.6 15.375h-2.89c-0.292-1.348-0.46-2.896-0.46-4.484 0-1.584 0.167-3.129 0.483-4.618l-0.026 0.145 0.009-0.043h2.884z"></path>
<path d="M23.102 10.241l-3.34-5.87c-0.199-0.345-0.566-0.573-0.986-0.574h-6.169c-0.212 0-0.41 0.058-0.579 0.159l0.005-0.003-3.376 1.98v1.739l4.049-2.375h5.857l3.187 5.601v0.435l-0.923 2.462h-6.014l-0.75 0.75v2.296l0.066 0.309 0.515 1.141c0.147 0.318 0.233 0.69 0.233 1.083 0 0.942-0.495 1.769-1.24 2.234l-0.011 0.006-3.878-8.489h-1.124v1.125l3.797 8.337c0.185 0.394 0.579 0.662 1.035 0.662 0 0 0.001 0 0.001 0h-0c0 0 0 0 0 0 0.164 0 0.319-0.035 0.46-0.098l-0.007 0.003c1.464-0.656 2.466-2.101 2.466-3.78 0-0.616-0.135-1.2-0.377-1.726l0.011 0.026-0.449-0.994v-1.384h5.517c0.483-0.002 0.895-0.303 1.060-0.728l0.003-0.008 1.035-2.761c0.046-0.118 0.072-0.255 0.072-0.398 0-0 0-0.001 0-0.001v0-0.598c-0-0.206-0.055-0.4-0.151-0.566l0.003 0.006z"></path>
</svg>
