<!-- Generated by IcoMoon.io -->
<svg version="1.1" xmlns="http://www.w3.org/2000/svg" width="24" height="24" viewBox="0 0 24 24">
<title>touch-app</title>
<path d="M21.301 13.076l-5.926-1.646v-0.384c1.793-0.914 3-2.746 3-4.861 0-3.003-2.434-5.438-5.438-5.438s-5.438 2.434-5.438 5.438c0 2.114 1.207 3.947 2.969 4.846l0.031 0.014v3.579h-1.145l-0.867-1.060c-0.783-0.952-1.961-1.554-3.28-1.554-1.005 0-1.928 0.35-2.655 0.934l0.008-0.006c-0.371 0.145-0.628 0.499-0.628 0.913 0 0.253 0.096 0.483 0.253 0.656l-0.001-0.001 7.896 8.742h12.043v-9.090c-0.001-0.514-0.346-0.947-0.816-1.082l-0.008-0.002zM9 6.188c0-0.001 0-0.002 0-0.003 0-2.175 1.763-3.938 3.938-3.938s3.938 1.763 3.938 3.938c0 1.25-0.583 2.365-1.492 3.086l-0.008 0.006v-3.089c0-1.346-1.091-2.438-2.438-2.438s-2.438 1.091-2.438 2.438v0 3.089c-0.917-0.726-1.5-1.84-1.5-3.089v-0zM20.625 21.75h-9.876l-7.039-7.793c0.422-0.28 0.941-0.446 1.498-0.446 0.852 0 1.614 0.389 2.116 0.999l0.004 0.005 1.317 1.61h3.355v-9.938c0-0.518 0.42-0.938 0.938-0.938s0.938 0.42 0.938 0.938v0 6.383l6.75 1.875z"></path>
</svg>
