<!-- Generated by IcoMoon.io -->
<svg version="1.1" xmlns="http://www.w3.org/2000/svg" width="24" height="24" viewBox="0 0 24 24">
<title>wifi-signal-off</title>
<path d="M23.615 5.824c-3.236-2.291-7.264-3.662-11.612-3.662-1.406 0-2.778 0.143-4.103 0.416l0.131-0.022 1.012 1.339c0.888-0.148 1.911-0.233 2.955-0.233 0.001 0 0.002 0 0.004 0h-0c0.009-0 0.019-0 0.030-0 3.753 0 7.248 1.109 10.174 3.017l-0.072-0.044-5.299 7.568 0.951 1.258 5.842-8.343v-1.286z"></path>
<path d="M3.869 0.75v1.027l1.213 1.605c-1.793 0.66-3.344 1.484-4.76 2.485l0.063-0.042-0.010 0.007v1.286l10.771 15.382h1.708l3.211-4.586 2.899 3.836h1.077v-1.062l-15.068-19.938zM15.115 16.657l-3.115 4.448-10.132-14.47c1.197-0.783 2.572-1.459 4.029-1.961l0.131-0.039z"></path>
</svg>
