<!-- Generated by IcoMoon.io -->
<svg version="1.1" xmlns="http://www.w3.org/2000/svg" width="24" height="24" viewBox="0 0 24 24">
<title>zoom-in</title>
<path d="M9.75 4.5h-1.5v3.75h-3.75v1.5h3.75v3.75h1.5v-3.75h3.75v-1.5h-3.75v-3.75z"></path>
<path d="M22.481 18.769l-3.801-3.801-2.923-1.208c0.934-1.314 1.493-2.951 1.493-4.719 0-0.003 0-0.006 0-0.009v0c0-4.549-3.701-8.25-8.25-8.25s-8.25 3.701-8.25 8.25 3.701 8.25 8.25 8.25c0.003 0 0.006 0 0.009 0 1.783 0 3.433-0.569 4.779-1.534l-0.025 0.017 1.205 2.916 3.801 3.801c0.476 0.479 1.135 0.776 1.863 0.776 1.45 0 2.625-1.175 2.625-2.625 0-0.728-0.297-1.387-0.776-1.863l-0-0zM2.25 9.032c0-3.722 3.028-6.75 6.75-6.75s6.75 3.028 6.75 6.75-3.028 6.75-6.75 6.75-6.75-3.028-6.75-6.75zM21.42 21.42c-0.204 0.203-0.485 0.329-0.795 0.329s-0.592-0.126-0.796-0.329l-3.589-3.589-1.12-2.711 2.711 1.12 3.589 3.589c0.203 0.204 0.329 0.485 0.329 0.795s-0.126 0.592-0.329 0.796l0-0z"></path>
</svg>
