<!-- Generated by IcoMoon.io -->
<svg version="1.1" xmlns="http://www.w3.org/2000/svg" width="24" height="24" viewBox="0 0 24 24">
<title>address-book</title>
<path d="M23.25 6.786v-1.572h-1.839v-3.245c-0.006-0.643-0.529-1.161-1.172-1.161-0.003 0-0.006 0-0.009 0h-16.461c-0.002-0-0.005-0-0.008-0-0.643 0-1.166 0.518-1.172 1.16v20.157c0.006 0.643 0.529 1.161 1.172 1.161 0.003 0 0.006 0 0.009-0h16.461c0.002 0 0.005 0 0.008 0 0.643 0 1.166-0.518 1.172-1.16v-3.34h1.839v-1.572h-1.839v-4.428h1.839v-1.572h-1.839v-4.428zM19.839 11.214h-2.214v1.572h2.214v4.428h-2.214v1.572h2.214v2.928h-15.678v-19.334h15.678v2.834h-2.214v1.572h2.214z"></path>
<path d="M14.702 14.387h0l-1.347-0.876 0.648-1.578v-2.478c0-1.701-1.379-3.080-3.080-3.080s-3.080 1.379-3.080 3.080v0 2.464l0.596 1.626-1.296 0.842c-0.635 0.415-1.048 1.123-1.048 1.927 0 0.002 0 0.003 0 0.005v-0 2.431h9.656v-2.431c0-0.001 0-0.003 0-0.004 0-0.804-0.413-1.512-1.039-1.922l-0.009-0.005zM14.25 17.25h-6.656v-0.931c0-0 0-0.001 0-0.002 0-0.28 0.144-0.527 0.363-0.67l0.003-0.002 2.298-1.494-0.916-2.498v-2.197c0-0.873 0.708-1.58 1.58-1.58s1.58 0.708 1.58 1.58v0 2.182l-1.008 2.454 2.39 1.553c0.221 0.145 0.366 0.392 0.366 0.672 0 0.001 0 0.001 0 0.002v-0z"></path>
</svg>
