<!-- Generated by IcoMoon.io -->
<svg version="1.1" xmlns="http://www.w3.org/2000/svg" width="24" height="24" viewBox="0 0 24 24">
<title>alarm</title>
<path d="M12 3.75c-5.385 0-9.75 4.365-9.75 9.75s4.365 9.75 9.75 9.75 9.75-4.365 9.75-9.75-4.365-9.75-9.75-9.75zM17.834 19.334c-1.493 1.493-3.555 2.416-5.834 2.416-4.556 0-8.25-3.694-8.25-8.25s3.694-8.25 8.25-8.25c4.556 0 8.25 3.694 8.25 8.25v0c0 0.007 0 0.015 0 0.022 0 2.271-0.924 4.327-2.416 5.811l-0 0z"></path>
<path d="M12.75 7.5h-1.5v6.36l4.031 3.225 0.937-1.171-3.469-2.775v-5.64z"></path>
<path d="M1.076 5.381l7.125-4.875 0.847 1.238-7.125 4.875-0.847-1.238z"></path>
<path d="M14.951 1.744l0.847-1.238 7.125 4.875-0.847 1.238-7.125-4.875z"></path>
</svg>
