<!-- Generated by IcoMoon.io -->
<svg version="1.1" xmlns="http://www.w3.org/2000/svg" width="24" height="24" viewBox="0 0 24 24">
<title>album</title>
<path d="M19.955 4.045c-2.036-2.036-4.848-3.295-7.955-3.295-6.213 0-11.25 5.037-11.25 11.25 0 3.107 1.259 5.919 3.295 7.955v0c2.036 2.036 4.848 3.295 7.955 3.295 6.213 0 11.25-5.037 11.25-11.25 0-3.107-1.259-5.919-3.295-7.955v0zM12 21.75c-5.376 0-9.75-4.374-9.75-9.75s4.374-9.75 9.75-9.75 9.75 4.374 9.75 9.75-4.374 9.75-9.75 9.75z"></path>
<path d="M12 7.125c-2.692 0-4.875 2.183-4.875 4.875s2.183 4.875 4.875 4.875c2.692 0 4.875-2.183 4.875-4.875v0c-0.003-2.691-2.184-4.872-4.875-4.875h-0zM12 15.375c-1.864 0-3.375-1.511-3.375-3.375s1.511-3.375 3.375-3.375c1.864 0 3.375 1.511 3.375 3.375v0c-0.002 1.863-1.512 3.373-3.375 3.375h-0z"></path>
<path d="M11.25 11.25h1.5v1.5h-1.5v-1.5z"></path>
<path d="M12 5.25v-1.5c-0.008-0-0.017-0-0.026-0-1.36 0-2.641 0.332-3.769 0.921l0.045-0.021c-1.142 0.594-2.095 1.402-2.836 2.38l-0.015 0.021 1.199 0.901c1.235-1.647 3.182-2.701 5.375-2.701 0.010 0 0.019 0 0.029 0h-0.001z"></path>
</svg>
