<!-- Generated by IcoMoon.io -->
<svg version="1.1" xmlns="http://www.w3.org/2000/svg" width="24" height="24" viewBox="0 0 24 24">
<title>american-football</title>
<path d="M22.185 2.209l-0.106-0.196-0.196-0.106c-2.342-1.268-5.253-1.618-8.194-0.986-2.993 0.643-5.802 2.21-8.125 4.533s-3.89 5.132-4.533 8.125c-0.632 2.942-0.282 5.852 0.986 8.195l0.106 0.196 0.196 0.106c1.581 0.855 3.42 1.293 5.353 1.293 1.008-0.002 1.988-0.114 2.932-0.324l-0.090 0.017c2.993-0.643 5.802-2.21 8.125-4.533s3.89-5.132 4.533-8.125c0.632-2.942 0.282-5.852-0.986-8.195zM20.97 3.122c0.927 1.821 1.211 3.928 0.909 6.072l-6.981-6.981c2.143-0.302 4.25-0.018 6.072 0.909zM3.231 20.861c-0.947-1.86-1.223-4.018-0.889-6.209l7.098 7.098c-2.19 0.334-4.348 0.058-6.209-0.889zM17.577 17.468v0c-1.895 1.895-4.13 3.215-6.406 3.892l-8.44-8.44c0.677-2.276 1.997-4.511 3.892-6.406 1.929-1.929 4.21-3.262 6.528-3.928l8.354 8.354c-0.666 2.318-1.998 4.599-3.928 6.528z"></path>
<path d="M16.28 8.78l-1.061-1.061-0.97 0.97-1.345-1.345-1.061 1.061 1.345 1.345-1.189 1.189-1.345-1.345-1.061 1.061 1.345 1.345-1.189 1.189-1.345-1.345-1.061 1.061 1.345 1.345-0.97 0.97 1.061 1.061 0.97-0.97 1.345 1.345 1.061-1.061-1.345-1.345 1.189-1.189 1.345 1.345 1.061-1.061-1.345-1.345 1.189-1.189 1.345 1.345 1.061-1.061-1.345-1.345 0.97-0.97z"></path>
</svg>
