<!-- Generated by IcoMoon.io -->
<svg version="1.1" xmlns="http://www.w3.org/2000/svg" width="24" height="24" viewBox="0 0 24 24">
<title>android</title>
<path d="M9.417 12.746c0.205 0.773-0.255 1.565-1.028 1.771s-1.565-0.255-1.771-1.028c-0.205-0.773 0.255-1.565 1.028-1.771s1.565 0.255 1.771 1.028z"></path>
<path d="M17.356 12.746c0.205 0.773-0.255 1.565-1.028 1.771s-1.565-0.255-1.771-1.028c-0.205-0.773 0.255-1.565 1.028-1.771s1.565 0.255 1.771 1.028z"></path>
<path d="M21.718 12.522c-0.54-1.071-1.201-1.99-1.983-2.792l0.002 0.002 1.566-2.2c0.268-0.372 0.428-0.837 0.428-1.339 0-1.274-1.033-2.307-2.307-2.307-0.773 0-1.457 0.38-1.875 0.963l-0.005 0.007-1.653 2.322c-1.187-0.479-2.564-0.756-4.006-0.756s-2.819 0.278-4.080 0.782l0.074-0.026-1.653-2.322c-0.423-0.589-1.107-0.969-1.879-0.969-1.274 0-2.307 1.033-2.307 2.307 0 0.502 0.16 0.966 0.432 1.345l-0.005-0.007 1.566 2.2c-0.779 0.799-1.44 1.718-1.951 2.726l-0.029 0.063c-0.718 1.411-1.138 3.076-1.138 4.84 0 0.011 0 0.021 0 0.032v-0.002 1.5h21.939v-1.5c0-0.009 0-0.019 0-0.030 0-1.764-0.42-3.429-1.167-4.902l0.028 0.062zM2.417 17.392c0-0.003 0-0.006 0-0.009 0-3.008 1.405-5.688 3.594-7.419l0.020-0.015-2.34-3.287c-0.094-0.13-0.15-0.292-0.15-0.468 0-0.446 0.361-0.807 0.807-0.807 0.27 0 0.509 0.133 0.656 0.336l0.002 0.002 2.374 3.335c1.303-0.717 2.855-1.139 4.507-1.139s3.204 0.422 4.556 1.164l-0.049-0.025 2.374-3.335c0.148-0.206 0.387-0.339 0.657-0.339 0.176 0 0.338 0.056 0.47 0.151l-0.002-0.002c0.206 0.148 0.339 0.387 0.339 0.657 0 0.175-0.056 0.338-0.151 0.47l0.002-0.002-2.34 3.287c2.209 1.746 3.614 4.426 3.614 7.434 0 0.003 0 0.006 0 0.009v-0z"></path>
</svg>
