<!-- Generated by IcoMoon.io -->
<svg version="1.1" xmlns="http://www.w3.org/2000/svg" width="24" height="24" viewBox="0 0 24 24">
<title>at</title>
<path d="M23.242 10.875c-0.055-1.344-0.376-2.6-0.91-3.735l0.025 0.059c-0.609-1.304-1.423-2.412-2.413-3.334l-0.006-0.006c-2.139-2.005-4.958-3.109-7.938-3.109-6.213 0-11.25 5.037-11.25 11.25 0 3.107 1.259 5.919 3.295 7.955v0c2.036 2.036 4.848 3.295 7.955 3.295 3.066 0 5.846-1.227 7.875-3.216l-0.002 0.002-1.050-1.071c-1.749 1.722-4.151 2.786-6.801 2.786-0.008 0-0.016 0-0.024-0h0.001c-5.376 0-9.75-4.374-9.75-9.75s4.374-9.75 9.75-9.75c5.285 0 9.75 4.122 9.75 9v1.688c0 1.344-1.178 2.438-2.625 2.438s-2.625-1.093-2.625-2.438v-5.438h-1.5v1.254c-0.834-0.776-1.956-1.253-3.19-1.253-2.589 0-4.687 2.098-4.687 4.687s2.098 4.687 4.687 4.687c1.545 0 2.915-0.747 3.769-1.9l0.009-0.013c0.722 1.145 2.037 1.913 3.537 1.913 2.275 0 4.125-1.766 4.125-3.938v-2.063zM11.813 15.375c-1.76 0-3.188-1.427-3.188-3.188s1.427-3.188 3.188-3.188c1.76 0 3.188 1.427 3.188 3.188v0c-0.002 1.76-1.428 3.185-3.187 3.188h-0z"></path>
</svg>
