<!-- Generated by IcoMoon.io -->
<svg version="1.1" xmlns="http://www.w3.org/2000/svg" width="24" height="24" viewBox="0 0 24 24">
<title>balance-scale</title>
<path d="M9.527 18.113l0.223-0.245v-1.209l-3.65-7.706h-1.699l-3.65 7.706v1.268l0.198 0.215c1.067 1.153 2.587 1.872 4.276 1.874h0c0.007 0 0.013 0 0.020-0 1.695-0.008 3.219-0.738 4.279-1.899l0.004-0.005zM8.25 17.279c-0.77 0.765-1.832 1.238-3.004 1.238-0.003 0-0.005 0-0.008 0h0c-0.005 0-0.010 0-0.015 0-0.006 0-0.014 0-0.021 0-1.147 0-2.188-0.453-2.954-1.19l0.001 0.001v-0.331l3-6.333 3 6.333z"></path>
<path d="M19.6 8.953h-1.699l-3.65 7.706v1.268l0.198 0.215c1.067 1.153 2.587 1.872 4.276 1.874h0c0.007 0 0.013 0 0.020-0 1.695-0.008 3.219-0.738 4.279-1.899l0.004-0.005 0.223-0.245v-1.209zM21.75 17.279c-0.77 0.765-1.832 1.238-3.004 1.238-0.003 0-0.005 0-0.008 0h0c-0.005 0-0.010 0-0.015 0-0.006 0-0.014 0-0.021 0-1.147 0-2.188-0.453-2.954-1.19l0.001 0.001v-0.331l3-6.333 3 6.333z"></path>
<path d="M12.75 9.218c0.849-0.261 1.504-0.916 1.76-1.747l0.005-0.019h4.985v-1.5h-4.985c-0.333-1.093-1.333-1.875-2.515-1.875s-2.182 0.782-2.51 1.856l-0.005 0.019h-4.985v1.5h4.985c0.261 0.849 0.916 1.504 1.747 1.76l0.019 0.005v12.485h-4.875v1.5h11.25v-1.5h-4.875zM10.875 6.703c0-0.621 0.504-1.125 1.125-1.125s1.125 0.504 1.125 1.125c0 0.621-0.504 1.125-1.125 1.125v0c-0.621 0-1.125-0.504-1.125-1.125v0z"></path>
</svg>
