<!-- Generated by IcoMoon.io -->
<svg version="1.1" xmlns="http://www.w3.org/2000/svg" width="24" height="24" viewBox="0 0 24 24">
<title>barcode</title>
<path d="M0.75 2.625v19.125h22.5v-19.125zM21.75 20.25h-19.5v-16.125h19.5z"></path>
<path d="M3.75 6h1.5v12h-1.5v-12z"></path>
<path d="M6.75 6h1.5v9h-1.5v-9z"></path>
<path d="M9.75 6h1.5v12h-1.5v-12z"></path>
<path d="M12.75 6h1.5v9h-1.5v-9z"></path>
<path d="M15.75 6h1.5v9h-1.5v-9z"></path>
<path d="M18.75 6h1.5v12h-1.5v-12z"></path>
<path d="M6.75 16.5h1.5v1.5h-1.5v-1.5z"></path>
<path d="M12.75 16.5h1.5v1.5h-1.5v-1.5z"></path>
<path d="M15.75 16.5h1.5v1.5h-1.5v-1.5z"></path>
</svg>
