<!-- Generated by IcoMoon.io -->
<svg version="1.1" xmlns="http://www.w3.org/2000/svg" width="64" height="64" viewBox="0 0 64 64">
<title>basket-loaded</title>
<path d="M15 38h4v16h-4v-16z"></path>
<path d="M25 38h4v16h-4v-16z"></path>
<path d="M35 38h4v16h-4v-16z"></path>
<path d="M45 38h4v16h-4v-16z"></path>
<path d="M59.21 21l-9.952-19h-4.515l9.952 19h-45.389l9.952-19h-4.515l-9.952 19h-2.79v13.934l5.357 27.066h49.283l5.36-26.802v-14.198zM58 34.802l-4.64 23.198h-42.717l-4.643-23.459v-0.541h52zM58 30h-52v-5h52z"></path>
<path d="M21.414 17l3.432-3.718c1.869-2.021 4.535-3.282 7.495-3.282 3.115 0 5.904 1.396 7.775 3.597l0.012 0.015 2.867 3.389h5.24l-5.054-5.972c-2.621-3.084-6.504-5.028-10.84-5.028-4.121 0-7.832 1.755-10.426 4.559l-0.009 0.009-5.937 6.431z"></path>
</svg>
