<!-- Generated by IcoMoon.io -->
<svg version="1.1" xmlns="http://www.w3.org/2000/svg" width="24" height="24" viewBox="0 0 24 24">
<title>basket</title>
<path d="M5.625 14.25h1.5v6h-1.5v-6z"></path>
<path d="M9.375 14.25h1.5v6h-1.5v-6z"></path>
<path d="M13.125 14.25h1.5v6h-1.5v-6z"></path>
<path d="M16.875 14.25h1.5v6h-1.5v-6z"></path>
<path d="M22.204 7.875l-3.732-7.125h-1.693l3.732 7.125h-17.021l3.732-7.125h-1.693l-3.732 7.125h-1.046v5.225l2.009 10.15h18.481l2.010-10.051v-5.324zM21.75 13.051l-1.74 8.699h-16.019l-1.741-8.797v-0.203h19.5zM21.75 11.25h-19.5v-1.875h19.5z"></path>
</svg>
