<!-- Generated by IcoMoon.io -->
<svg version="1.1" xmlns="http://www.w3.org/2000/svg" width="24" height="24" viewBox="0 0 24 24">
<title>basketball</title>
<path d="M12 0.75c-6.213 0-11.25 5.037-11.25 11.25 0 3.107 1.259 5.919 3.295 7.955v0c2.036 2.039 4.851 3.3 7.959 3.3 6.213 0 11.25-5.037 11.25-11.25 0-3.109-1.261-5.923-3.299-7.959l-0-0c-2.025-2.035-4.827-3.295-7.924-3.295-0.011 0-0.021 0-0.032 0h0.002zM5.051 5.168q0.197 0.273 0.382 0.584c0.875 1.481 1.398 3.411 1.499 5.498h-4.654c0.189-2.385 1.212-4.501 2.774-6.083l-0.001 0.001zM5.051 18.832c-1.561-1.581-2.584-3.697-2.771-6.048l-0.002-0.034h4.654c-0.101 2.087-0.624 4.017-1.499 5.498q-0.184 0.312-0.382 0.584zM11.25 21.721c-1.923-0.151-3.66-0.841-5.090-1.918l0.025 0.018c0.175-0.231 0.353-0.496 0.517-0.77l0.023-0.041c1.007-1.705 1.605-3.905 1.71-6.261h2.816zM11.25 11.25h-2.816c-0.105-2.356-0.703-4.556-1.71-6.261-0.186-0.315-0.365-0.58-0.556-0.834l0.016 0.023c1.405-1.059 3.142-1.749 5.031-1.898l0.034-0.002zM12.75 2.279c1.923 0.151 3.66 0.841 5.090 1.918l-0.025-0.018c-0.175 0.231-0.353 0.496-0.517 0.77l-0.023 0.041c-1.007 1.705-1.605 3.905-1.71 6.261h-2.816zM12.75 21.721v-8.971h2.816c0.105 2.356 0.703 4.556 1.71 6.261 0.186 0.315 0.365 0.58 0.556 0.834l-0.016-0.023c-1.405 1.059-3.142 1.749-5.031 1.898l-0.034 0.002zM18.949 18.832q-0.197-0.273-0.382-0.584c-0.875-1.481-1.398-3.411-1.499-5.498h4.654c-0.189 2.385-1.212 4.501-2.774 6.083l0.001-0.001zM17.068 11.25c0.101-2.087 0.624-4.017 1.499-5.498q0.184-0.312 0.382-0.584c1.561 1.581 2.584 3.697 2.771 6.048l0.002 0.034z"></path>
</svg>
