<!-- Generated by IcoMoon.io -->
<svg version="1.1" xmlns="http://www.w3.org/2000/svg" width="24" height="24" viewBox="0 0 24 24">
<title>beach-access</title>
<path d="M12.161 12.6l6.562-6.563-1.302-1.302c-1.767-1.767-4.209-2.86-6.905-2.86-5.393 0-9.766 4.372-9.766 9.766 0 2.697 1.093 5.138 2.86 6.905l1.302 1.302 6.188-6.188 7.714 7.714h2.121zM10.516 3.375c0.007-0 0.015-0 0.022-0 2.275 0 4.335 0.926 5.822 2.421l0.242 0.242-2.675 2.675c-0.89-0.908-1.853-1.738-2.882-2.483l-0.065-0.045c-1.182-0.836-2.317-1.422-3.375-1.741-0.212-0.068-0.482-0.135-0.757-0.187l-0.044-0.007c1.076-0.552 2.347-0.876 3.694-0.876 0.006 0 0.012 0 0.019 0h-0.001zM4.913 17.727l-0.242-0.242c-1.496-1.498-2.421-3.566-2.421-5.851 0-1.351 0.323-2.626 0.897-3.753l-0.022 0.047c0.058 0.319 0.125 0.589 0.207 0.852l-0.014-0.051c0.319 1.057 0.904 2.193 1.741 3.375 0.79 1.094 1.619 2.057 2.524 2.944l0.004 0.004zM8.648 13.991c-0.556-0.545-1.511-1.546-2.364-2.752-1.072-1.516-2.184-3.652-1.582-5.412 1.754-0.6 3.881 0.503 5.391 1.567 1.212 0.855 2.223 1.819 2.773 2.379z"></path>
</svg>
