<!-- Generated by IcoMoon.io -->
<svg version="1.1" xmlns="http://www.w3.org/2000/svg" width="24" height="24" viewBox="0 0 24 24">
<title>beaker</title>
<path d="M21.375 16.616c0-0 0-0.001 0-0.001 0-0.238-0.074-0.459-0.201-0.641l0.002 0.004-5.051-7.329v-2.977h1.875c0.621-0.001 1.124-0.504 1.125-1.125v-3.797h-14.25v3.797c0.001 0.621 0.504 1.124 1.125 1.125h1.871v3.029l-5.046 7.276c-0.125 0.178-0.2 0.4-0.2 0.639 0 0.001 0 0.001 0 0.002v-0 5.504c0.001 0.621 0.504 1.124 1.125 1.125l16.502 0.004c0.621-0 1.125-0.504 1.125-1.125 0-0 0-0 0-0v0zM9.371 9.17v-4.998h-2.996v-1.922h11.25v1.922h-3v4.944l3.022 4.384h-11.278zM4.125 21.746v-5.011l1.203-1.735h13.352l1.194 1.733 0.002 5.017z"></path>
</svg>
