<!-- Generated by IcoMoon.io -->
<svg version="1.1" xmlns="http://www.w3.org/2000/svg" width="64" height="64" viewBox="0 0 64 64">
<title>bell</title>
<path d="M56.284 43.571l-5.459-10.078v-10.493c0-10.477-8.523-19-19-19s-19 8.523-19 19v10.493l-5.459 10.078c-0.228 0.413-0.362 0.905-0.362 1.429 0 1.657 1.343 3 3 3h10.867c-0.030 0.33-0.046 0.663-0.046 1 0 6.075 4.925 11 11 11s11-4.925 11-11v0c0-0.337-0.016-0.67-0.046-1h10.867c0 0 0 0 0 0 1.657 0 3-1.343 3-3 0-0.524-0.134-1.016-0.37-1.444l0.008 0.016zM38.825 49c0 0.002 0 0.004 0 0.006 0 3.866-3.134 7-7 7s-7-3.134-7-7c0-0.355 0.026-0.703 0.077-1.044l-0.005 0.038h13.855c0.046 0.3 0.072 0.647 0.073 1v0zM11.683 44l5.142-9.493v-11.507c0-8.284 6.716-15 15-15s15 6.716 15 15v0 11.507l5.142 9.493z"></path>
</svg>
