<!-- Generated by IcoMoon.io -->
<svg version="1.1" xmlns="http://www.w3.org/2000/svg" width="24" height="24" viewBox="0 0 24 24">
<title>bike</title>
<path d="M5.438 12.563c-2.589 0-4.688 2.099-4.688 4.688s2.099 4.688 4.688 4.688c2.589 0 4.688-2.099 4.688-4.688v0c-0.003-2.588-2.1-4.684-4.687-4.688h-0zM5.438 20.438c-1.76 0-3.188-1.427-3.188-3.188s1.427-3.188 3.188-3.188c1.76 0 3.188 1.427 3.188 3.188v0c-0.002 1.76-1.428 3.185-3.187 3.188h-0z"></path>
<path d="M18.563 12.563c-2.589 0-4.688 2.099-4.688 4.688s2.099 4.688 4.688 4.688c2.589 0 4.688-2.099 4.688-4.688v0c-0.003-2.588-2.1-4.684-4.687-4.688h-0zM18.563 20.438c-1.76 0-3.188-1.427-3.188-3.188s1.427-3.188 3.188-3.188c1.76 0 3.188 1.427 3.188 3.188v0c-0.002 1.76-1.428 3.185-3.187 3.188h-0z"></path>
<path d="M16.5 4.41c0 0.882-0.715 1.598-1.598 1.598s-1.598-0.715-1.598-1.598c0-0.882 0.715-1.598 1.598-1.598s1.598 0.715 1.598 1.598z"></path>
<path d="M15.853 11.099c0.205 0.209 0.49 0.338 0.805 0.339h1.342v-1.5h-1.184l-4.335-4.439-0.022 0.022-0.394-0.394-5.25 5.25 2.121 2.121 0.015-0.015 2.299 2.268v4.186h1.5v-4.343c-0.001-0.313-0.129-0.596-0.335-0.801l-0-0-2.403-2.371 3.115-3.115z"></path>
</svg>
