<!-- Generated by IcoMoon.io -->
<svg version="1.1" xmlns="http://www.w3.org/2000/svg" width="24" height="24" viewBox="0 0 24 24">
<title>blind</title>
<path d="M17.574 11.9l0.532-0.484-5.152-5.667h-3.211l-2.076 1.348c-0.783 0.512-1.293 1.384-1.293 2.376 0 0.002 0 0.004 0 0.006v-0 3.365h1.5v-3.365c0-0.001 0-0.002 0-0.003 0-0.468 0.241-0.879 0.605-1.118l0.005-0.003 1.265-0.821v4.399l4.955 10.33h1.544l-3.465-7.464v-7.007l3.498 3.848 3.863 10.623h1.197z"></path>
<path d="M10.064 4.54c0.284 0.265 0.667 0.428 1.088 0.428 0.882 0 1.598-0.715 1.598-1.598s-0.715-1.598-1.598-1.598c-0.882 0-1.598 0.715-1.598 1.598 0 0 0 0 0 0v-0c0 0.001 0 0.001 0 0.002 0 0.461 0.196 0.876 0.509 1.166l0.001 0.001z"></path>
<path d="M6.225 22.262h1.616l2.696-6.74-0.881-1.837-3.431 8.577z"></path>
</svg>
