<!-- Generated by IcoMoon.io -->
<svg version="1.1" xmlns="http://www.w3.org/2000/svg" width="24" height="24" viewBox="0 0 24 24">
<title>blur-circular</title>
<path d="M12 0.75c-6.213 0-11.25 5.037-11.25 11.25 0 3.107 1.259 5.919 3.295 7.955v0c2.037 2.042 4.854 3.306 7.966 3.306 6.213 0 11.25-5.037 11.25-11.25 0-3.112-1.263-5.929-3.305-7.965l-0-0c-2.025-2.035-4.827-3.295-7.924-3.295-0.011 0-0.021 0-0.032 0h0.002zM18.894 18.894v0c-3.802 3.802-9.987 3.802-13.789 0s-3.802-9.987 0-13.789c1.766-1.762 4.203-2.851 6.894-2.851s5.129 1.089 6.894 2.851l-0-0c3.802 3.802 3.802 9.987 0 13.789z"></path>
<path d="M9.257 11.362c1.199-0.001 2.17-0.973 2.17-2.172s-0.972-2.172-2.172-2.172-2.172 0.972-2.172 2.172c0 0.6 0.243 1.143 0.637 1.536l0 0c0.392 0.393 0.934 0.635 1.533 0.635 0.001 0 0.003 0 0.004 0h-0zM8.781 8.714c0.122-0.122 0.29-0.197 0.476-0.197 0.372 0 0.673 0.301 0.673 0.673s-0.301 0.673-0.673 0.673c-0.186 0-0.354-0.075-0.476-0.197v0c-0.122-0.122-0.198-0.29-0.198-0.476s0.076-0.354 0.198-0.476l0-0z"></path>
<path d="M14.743 11.362c1.2 0 2.172-0.973 2.172-2.172s-0.973-2.172-2.172-2.172c-0.6 0-1.143 0.243-1.536 0.637v0c-0.393 0.393-0.637 0.936-0.637 1.536 0 1.199 0.972 2.172 2.172 2.172 0 0 0.001 0 0.001 0h-0zM14.267 8.714c0.122-0.122 0.29-0.197 0.476-0.197 0.372 0 0.673 0.301 0.673 0.673s-0.301 0.673-0.673 0.673c-0.186 0-0.354-0.075-0.476-0.197v0c-0.122-0.122-0.197-0.29-0.197-0.476s0.075-0.354 0.197-0.476v0z"></path>
<path d="M7.721 13.274c-0.393 0.393-0.636 0.936-0.636 1.536 0 1.2 0.973 2.173 2.173 2.173s2.173-0.973 2.173-2.173c0-0.6-0.243-1.143-0.636-1.536v0c-0.392-0.397-0.935-0.642-1.536-0.642s-1.145 0.246-1.536 0.642l-0 0zM9.733 15.286c-0.122 0.122-0.29 0.197-0.475 0.197-0.371 0-0.672-0.301-0.672-0.672s0.301-0.672 0.672-0.672c0.186 0 0.354 0.075 0.475 0.197v0c0.122 0.122 0.197 0.29 0.197 0.476s-0.075 0.354-0.197 0.476l0-0z"></path>
<path d="M13.207 13.274c-0.393 0.393-0.636 0.936-0.636 1.536 0 1.2 0.973 2.173 2.173 2.173s2.173-0.973 2.173-2.173c0-0.6-0.243-1.143-0.636-1.536v0c-0.393-0.393-0.937-0.635-1.536-0.635s-1.143 0.243-1.536 0.635l0-0zM15.219 15.286c-0.122 0.122-0.29 0.197-0.476 0.197-0.372 0-0.673-0.301-0.673-0.673s0.301-0.673 0.673-0.673c0.372 0 0.673 0.301 0.673 0.673v0c-0 0.186-0.075 0.354-0.197 0.476v0z"></path>
<path d="M16.095 4.298c0.176 0.747-0.286 1.495-1.033 1.671s-1.495-0.286-1.671-1.033c-0.176-0.747 0.286-1.495 1.033-1.671s1.495 0.286 1.671 1.033z"></path>
<path d="M10.609 4.298c0.176 0.747-0.286 1.495-1.033 1.671s-1.495-0.286-1.671-1.033c-0.176-0.747 0.286-1.495 1.033-1.671s1.495 0.286 1.671 1.033z"></path>
<path d="M16.095 19.064c0.176 0.747-0.286 1.495-1.033 1.671s-1.495-0.286-1.671-1.033c-0.176-0.747 0.286-1.495 1.033-1.671s1.495 0.286 1.671 1.033z"></path>
<path d="M10.609 19.064c0.176 0.747-0.286 1.495-1.033 1.671s-1.495-0.286-1.671-1.033c-0.176-0.747 0.286-1.495 1.033-1.671s1.495 0.286 1.671 1.033z"></path>
<path d="M20.735 14.424c0.176 0.747-0.286 1.495-1.033 1.671s-1.495-0.286-1.671-1.033c-0.176-0.747 0.286-1.495 1.033-1.671s1.495 0.286 1.671 1.033z"></path>
<path d="M20.365 8.275c0.543 0.543 0.543 1.422 0 1.965s-1.422 0.543-1.965 0c-0.543-0.543-0.543-1.422 0-1.965s1.422-0.543 1.965 0z"></path>
<path d="M6.006 14.743c0 0.767-0.622 1.389-1.389 1.389s-1.389-0.622-1.389-1.389c0-0.767 0.622-1.389 1.389-1.389s1.389 0.622 1.389 1.389z"></path>
<path d="M6.006 9.257c0 0.767-0.622 1.389-1.389 1.389s-1.389-0.622-1.389-1.389c0-0.767 0.622-1.389 1.389-1.389s1.389 0.622 1.389 1.389z"></path>
</svg>
