<!-- Generated by IcoMoon.io -->
<svg version="1.1" xmlns="http://www.w3.org/2000/svg" width="24" height="24" viewBox="0 0 24 24">
<title>blur-linear</title>
<path d="M0.75 0.75h22.5v1.5h-22.5v-1.5z"></path>
<path d="M0.75 21.75h22.5v1.5h-22.5v-1.5z"></path>
<path d="M4.096 10.85c1.848-0 3.345-1.498 3.345-3.345s-1.498-3.345-3.345-3.345c-1.848 0-3.345 1.498-3.345 3.345v0c0.002 1.847 1.499 3.343 3.345 3.345h0zM4.096 5.659c1.019 0 1.845 0.826 1.845 1.845s-0.826 1.845-1.845 1.845c-1.019 0-1.845-0.826-1.845-1.845v0c0.001-1.019 0.827-1.844 1.845-1.845h0z"></path>
<path d="M12.858 10.85c1.539 0 2.788-1.248 2.788-2.788s-1.248-2.788-2.788-2.788c-1.54 0-2.788 1.248-2.788 2.788v0c0.002 1.539 1.249 2.786 2.787 2.788h0zM12.858 6.775c0.711 0 1.288 0.576 1.288 1.288s-0.576 1.288-1.288 1.288c-0.711 0-1.288-0.576-1.288-1.288v0c0.001-0.711 0.577-1.287 1.287-1.288h0z"></path>
<path d="M20.415 10.1c0.767 0 1.389-0.622 1.389-1.389s-0.622-1.389-1.389-1.389c-0.767 0-1.389 0.622-1.389 1.389 0 0 0 0 0 0v0c0 0.767 0.622 1.389 1.389 1.389 0 0 0 0 0 0v0z"></path>
<path d="M4.096 20.032c1.848 0 3.345-1.498 3.345-3.346s-1.498-3.346-3.346-3.346c-1.848 0-3.346 1.498-3.346 3.346v0c0.002 1.847 1.499 3.343 3.345 3.346h0zM4.096 14.841c1.019 0 1.845 0.826 1.845 1.846s-0.826 1.846-1.846 1.846c-1.019 0-1.846-0.826-1.846-1.846 0 0 0 0 0 0v0c0.001-1.019 0.827-1.844 1.845-1.846h0z"></path>
<path d="M12.858 18.916c1.54 0 2.788-1.248 2.788-2.788s-1.248-2.788-2.788-2.788c-1.54 0-2.788 1.248-2.788 2.788 0 0 0 0 0 0v0c0.002 1.539 1.249 2.786 2.787 2.788h0zM12.858 14.841c0.711 0 1.288 0.576 1.288 1.288s-0.576 1.288-1.288 1.288c-0.711 0-1.288-0.576-1.288-1.288v0c0.001-0.711 0.577-1.287 1.287-1.288h0z"></path>
<path d="M20.415 16.869c0.767 0 1.389-0.622 1.389-1.389s-0.622-1.389-1.389-1.389c-0.767 0-1.389 0.622-1.389 1.389 0 0 0 0 0 0v0c0 0.767 0.622 1.389 1.389 1.389 0 0 0 0 0 0v0z"></path>
</svg>
