<!-- Generated by IcoMoon.io -->
<svg version="1.1" xmlns="http://www.w3.org/2000/svg" width="24" height="24" viewBox="0 0 24 24">
<title>bootstrap</title>
<path d="M19.987 1.125h-15.979c-1.59 0-2.884 1.279-2.884 2.851v16.046c0 1.573 1.294 2.853 2.884 2.853h15.979c1.592 0 2.888-1.28 2.888-2.853v-16.046c0-1.572-1.296-2.851-2.888-2.851zM21.375 20.022c0 0.747-0.623 1.353-1.388 1.353h-15.979c-0.764 0-1.384-0.606-1.384-1.353v-16.046c0-0.746 0.62-1.351 1.384-1.351h15.979c0.765 0 1.388 0.605 1.388 1.351z"></path>
<path d="M16.512 11.474c0.462-0.636 0.738-1.432 0.738-2.293 0-2.171-1.76-3.93-3.93-3.93-0.001 0-0.002 0-0.003 0h-6.566v13.5h7.691c0 0 0.001 0 0.001 0 2.172 0 3.932-1.761 3.932-3.932 0-1.406-0.738-2.639-1.847-3.334l-0.016-0.010zM9 7.5h4.316c0.93 0 1.684 0.754 1.684 1.684s-0.754 1.684-1.684 1.684v0h-4.316zM14.441 16.5h-5.441v-3.367h5.441c0.93 0 1.684 0.754 1.684 1.684s-0.754 1.684-1.684 1.684v0z"></path>
</svg>
