<!-- Generated by IcoMoon.io -->
<svg version="1.1" xmlns="http://www.w3.org/2000/svg" width="24" height="24" viewBox="0 0 24 24">
<title>bowling</title>
<path d="M14.625 6c-0.001 0-0.001 0-0.002 0-2.617 0-4.962 1.168-6.541 3.012l-0.010 0.012c-0.080-0.178-0.163-0.356-0.25-0.531l0.533-4.219c0.016-0.118 0.025-0.254 0.025-0.392 0-1.729-1.402-3.13-3.13-3.13s-3.13 1.402-3.13 3.13c0 0.138 0.009 0.274 0.026 0.408l-0.002-0.016 0.533 4.219c-0.991 1.959-1.571 4.27-1.571 6.717 0 1.615 0.253 3.172 0.721 4.632l-0.030-0.107 1.101 3.517h4.702l0.825-2.635c1.567 1.625 3.763 2.635 6.195 2.635 0.002 0 0.003 0 0.005 0h-0c4.756 0 8.625-3.869 8.625-8.625s-3.869-8.625-8.625-8.625zM4.027 2.802c0.3-0.339 0.737-0.552 1.223-0.552 0.9 0 1.63 0.73 1.63 1.63 0 0.072-0.005 0.143-0.014 0.213l0.001-0.008-0.479 3.79h-2.278l-0.479-3.79c-0.008-0.061-0.013-0.132-0.013-0.204 0-0.414 0.154-0.792 0.409-1.080l-0.002 0.002zM7.271 19.285l-0.772 2.465h-2.498l-0.772-2.465c-0.399-1.22-0.629-2.624-0.629-4.082 0-2.118 0.486-4.123 1.352-5.909l-0.035 0.081h2.666q0.262 0.552 0.472 1.119c-0.664 1.192-1.055 2.615-1.055 4.13 0 1.687 0.485 3.261 1.324 4.589l-0.021-0.035c-0.011 0.036-0.021 0.072-0.032 0.107zM14.625 21.75c-3.929 0-7.125-3.196-7.125-7.125s3.196-7.125 7.125-7.125 7.125 3.196 7.125 7.125-3.196 7.125-7.125 7.125z"></path>
<path d="M15.75 10.5c0 0.621-0.504 1.125-1.125 1.125s-1.125-0.504-1.125-1.125c0-0.621 0.504-1.125 1.125-1.125s1.125 0.504 1.125 1.125z"></path>
<path d="M19.125 12.75c0 0.621-0.504 1.125-1.125 1.125s-1.125-0.504-1.125-1.125c0-0.621 0.504-1.125 1.125-1.125s1.125 0.504 1.125 1.125z"></path>
<path d="M15.375 14.25c0 0.621-0.504 1.125-1.125 1.125s-1.125-0.504-1.125-1.125c0-0.621 0.504-1.125 1.125-1.125s1.125 0.504 1.125 1.125z"></path>
</svg>
