<!-- Generated by IcoMoon.io -->
<svg version="1.1" xmlns="http://www.w3.org/2000/svg" width="24" height="24" viewBox="0 0 24 24">
<title>braille</title>
<path d="M5.25 9c0-1.243-1.007-2.25-2.25-2.25s-2.25 1.007-2.25 2.25c0 1.243 1.007 2.25 2.25 2.25v0c1.242-0.001 2.249-1.008 2.25-2.25v-0zM2.25 9c0-0.414 0.336-0.75 0.75-0.75s0.75 0.336 0.75 0.75c0 0.414-0.336 0.75-0.75 0.75v0c-0.414-0-0.75-0.336-0.75-0.75v-0z"></path>
<path d="M15 11.25c1.243 0 2.25-1.007 2.25-2.25s-1.007-2.25-2.25-2.25c-1.243 0-2.25 1.007-2.25 2.25v0c0.001 1.242 1.008 2.249 2.25 2.25h0zM15 8.25c0.414 0 0.75 0.336 0.75 0.75s-0.336 0.75-0.75 0.75c-0.414 0-0.75-0.336-0.75-0.75v0c0-0.414 0.336-0.75 0.75-0.75h0z"></path>
<path d="M8.625 5.25c1.243 0 2.25-1.007 2.25-2.25s-1.007-2.25-2.25-2.25c-1.243 0-2.25 1.007-2.25 2.25v0c0.001 1.242 1.008 2.249 2.25 2.25h0zM8.625 2.25c0.414 0 0.75 0.336 0.75 0.75s-0.336 0.75-0.75 0.75c-0.414 0-0.75-0.336-0.75-0.75v0c0-0.414 0.336-0.75 0.75-0.75h0z"></path>
<path d="M21 6.75c-1.243 0-2.25 1.007-2.25 2.25s1.007 2.25 2.25 2.25c1.243 0 2.25-1.007 2.25-2.25v0c-0.001-1.242-1.008-2.249-2.25-2.25h-0zM21 9.75c-0.414 0-0.75-0.336-0.75-0.75s0.336-0.75 0.75-0.75c0.414 0 0.75 0.336 0.75 0.75v0c-0 0.414-0.336 0.75-0.75 0.75h-0z"></path>
<path d="M21 5.25c1.243 0 2.25-1.007 2.25-2.25s-1.007-2.25-2.25-2.25c-1.243 0-2.25 1.007-2.25 2.25v0c0.001 1.242 1.008 2.249 2.25 2.25h0zM21 2.25c0.414 0 0.75 0.336 0.75 0.75s-0.336 0.75-0.75 0.75c-0.414 0-0.75-0.336-0.75-0.75v0c0-0.414 0.336-0.75 0.75-0.75h0z"></path>
<path d="M15 5.25c1.243 0 2.25-1.007 2.25-2.25s-1.007-2.25-2.25-2.25c-1.243 0-2.25 1.007-2.25 2.25v0c0.001 1.242 1.008 2.249 2.25 2.25h0zM15 2.25c0.414 0 0.75 0.336 0.75 0.75s-0.336 0.75-0.75 0.75c-0.414 0-0.75-0.336-0.75-0.75v0c0-0.414 0.336-0.75 0.75-0.75h0z"></path>
<path d="M17.625 15c-0.045 0-0.090 0.002-0.135 0.004-0.014 0.001-0.027 0.002-0.041 0.003q-0.048 0.004-0.095 0.009c-0.015 0.002-0.029 0.004-0.043 0.006q-0.051 0.007-0.102 0.017c-0.010 0.002-0.019 0.003-0.029 0.005q-0.064 0.013-0.126 0.029c-0.011 0.003-0.022 0.006-0.033 0.009-0.031 0.009-0.062 0.018-0.093 0.028-0.014 0.005-0.028 0.009-0.041 0.014q-0.044 0.015-0.087 0.032c-0.012 0.005-0.024 0.009-0.035 0.014-0.039 0.016-0.078 0.034-0.116 0.052-0.005 0.002-0.010 0.005-0.014 0.007q-0.050 0.025-0.099 0.052c-0.004 0.002-0.009 0.005-0.013 0.007-0.004-0.006-0.008-0.012-0.012-0.018q-0.025-0.038-0.052-0.075c-0.007-0.010-0.014-0.020-0.021-0.030-0.025-0.034-0.050-0.067-0.077-0.099-0.003-0.004-0.007-0.008-0.011-0.012q-0.035-0.042-0.072-0.082c-0.009-0.010-0.019-0.020-0.028-0.030q-0.030-0.032-0.062-0.062c-0.010-0.010-0.021-0.020-0.031-0.030q-0.036-0.033-0.073-0.065c-0.007-0.006-0.014-0.013-0.021-0.019q-0.048-0.040-0.098-0.077c-0.009-0.007-0.019-0.014-0.029-0.020q-0.037-0.027-0.076-0.052c-0.012-0.008-0.024-0.016-0.037-0.024q-0.037-0.024-0.076-0.046c-0.012-0.007-0.023-0.013-0.035-0.020-0.037-0.020-0.074-0.040-0.112-0.058-0.003-0.002-0.007-0.003-0.011-0.005q-0.052-0.025-0.106-0.047c-0.013-0.005-0.026-0.010-0.038-0.015q-0.042-0.016-0.084-0.031c-0.014-0.005-0.027-0.009-0.041-0.014-0.031-0.010-0.063-0.020-0.095-0.028-0.010-0.003-0.020-0.006-0.029-0.008q-0.062-0.016-0.126-0.029c-0.011-0.002-0.021-0.004-0.032-0.006-0.033-0.006-0.065-0.011-0.098-0.016-0.015-0.002-0.029-0.004-0.044-0.006q-0.047-0.006-0.094-0.009c-0.014-0.001-0.027-0.002-0.041-0.003-0.045-0.003-0.089-0.004-0.134-0.004s-0.090 0.002-0.135 0.004c-0.014 0.001-0.027 0.002-0.041 0.003q-0.048 0.004-0.095 0.009c-0.015 0.002-0.029 0.004-0.043 0.006q-0.051 0.007-0.102 0.017c-0.010 0.002-0.019 0.003-0.029 0.005q-0.064 0.013-0.126 0.029c-0.011 0.003-0.022 0.006-0.033 0.009-0.031 0.009-0.062 0.018-0.093 0.028-0.014 0.005-0.028 0.009-0.041 0.014q-0.044 0.015-0.087 0.032c-0.012 0.005-0.024 0.009-0.035 0.014-0.039 0.016-0.078 0.034-0.116 0.052-0.005 0.002-0.010 0.005-0.014 0.007q-0.050 0.025-0.099 0.052c-0.004 0.002-0.009 0.005-0.013 0.007-0.004-0.006-0.008-0.012-0.012-0.018q-0.025-0.038-0.052-0.075c-0.007-0.010-0.014-0.020-0.021-0.030-0.025-0.034-0.050-0.067-0.077-0.099-0.003-0.004-0.007-0.008-0.011-0.012q-0.035-0.042-0.072-0.082c-0.009-0.010-0.019-0.020-0.028-0.030q-0.030-0.032-0.062-0.062c-0.010-0.010-0.021-0.020-0.031-0.030q-0.036-0.033-0.073-0.065c-0.007-0.006-0.014-0.013-0.021-0.019q-0.048-0.040-0.098-0.077c-0.009-0.007-0.019-0.014-0.029-0.020q-0.037-0.027-0.076-0.052c-0.012-0.008-0.024-0.016-0.037-0.024q-0.037-0.024-0.076-0.046c-0.012-0.007-0.023-0.013-0.035-0.020-0.037-0.020-0.074-0.040-0.112-0.058-0.003-0.002-0.007-0.003-0.011-0.005q-0.052-0.025-0.106-0.047c-0.013-0.005-0.026-0.010-0.038-0.015q-0.042-0.016-0.084-0.031c-0.014-0.005-0.027-0.009-0.041-0.014-0.031-0.010-0.063-0.020-0.095-0.028-0.010-0.003-0.020-0.006-0.029-0.008q-0.062-0.016-0.126-0.029c-0.011-0.002-0.021-0.004-0.032-0.006-0.033-0.006-0.065-0.011-0.098-0.016-0.015-0.002-0.029-0.004-0.044-0.006q-0.047-0.006-0.094-0.009c-0.014-0.001-0.027-0.002-0.041-0.003-0.045-0.003-0.089-0.004-0.134-0.004-0.036 0-0.072 0.001-0.108 0.003-0.012 0.001-0.023 0.001-0.035 0.002-0.024 0.002-0.048 0.003-0.072 0.006-0.013 0.001-0.027 0.003-0.040 0.004q-0.033 0.004-0.066 0.008c-0.013 0.002-0.027 0.004-0.040 0.006-0.022 0.004-0.044 0.008-0.066 0.012-0.013 0.002-0.025 0.005-0.038 0.007-0.025 0.005-0.050 0.011-0.075 0.017-0.009 0.002-0.018 0.004-0.027 0.006q-0.050 0.013-0.099 0.028c-0.008 0.002-0.015 0.005-0.023 0.008-0.021 0.007-0.042 0.013-0.062 0.021v-2.003c0-1.243-1.007-2.25-2.25-2.25s-2.25 1.007-2.25 2.25v0 4.502c-0.617-0.469-1.399-0.752-2.246-0.752-0.001 0-0.003 0-0.004 0h0c-0.621 0.001-1.124 0.504-1.125 1.125v6.75h1.5v-6.344c1.070 0.187 1.874 1.109 1.875 2.219v0.75h1.5v-8.25c0-0.414 0.336-0.75 0.75-0.75s0.75 0.336 0.75 0.75v0 8.25h1.5v-4.125c0-0.414 0.336-0.75 0.75-0.75s0.75 0.336 0.75 0.75v0 4.125h1.5v-3.375c0-0.414 0.336-0.75 0.75-0.75s0.75 0.336 0.75 0.75v0 3.375h1.5v-2.625c0-0.414 0.336-0.75 0.75-0.75s0.75 0.336 0.75 0.75v0 6h1.5v-6c-0.001-1.242-1.008-2.249-2.25-2.25h-0z"></path>
</svg>
