<!-- Generated by IcoMoon.io -->
<svg version="1.1" xmlns="http://www.w3.org/2000/svg" width="24" height="24" viewBox="0 0 24 24">
<title>brightness</title>
<path d="M3.678 11.899l2.462 2.029 0.293 0.669-0.39 3.216 3.175-0.306 0.681 0.266 1.999 2.55 2.029-2.462 0.669-0.293 3.216 0.39-0.306-3.175 0.266-0.681 2.55-1.999-2.462-2.029-0.293-0.669 0.39-3.216-3.175 0.306-0.681-0.266-1.999-2.55-2.029 2.462-0.669 0.293-3.216-0.39 0.306 3.175-0.266 0.681zM7.476 10.827l0.545-1.396-0.162-1.674 1.771 0.215 1.373-0.602 1.069-1.298 1.101 1.404 1.396 0.545 1.674-0.162-0.215 1.771 0.602 1.373 1.298 1.069-1.404 1.101-0.545 1.396 0.162 1.674-1.771-0.215-1.372 0.602-1.069 1.298-1.101-1.404-1.396-0.545-1.674 0.162 0.215-1.771-0.602-1.372-1.298-1.069z"></path>
<path d="M22.125 0.75h-20.25c-0.621 0.001-1.124 0.504-1.125 1.125v20.25c0.001 0.621 0.504 1.124 1.125 1.125h20.25c0.621-0.001 1.124-0.504 1.125-1.125v-20.25c-0.001-0.621-0.504-1.124-1.125-1.125h-0zM21.75 21.75h-19.5v-19.5h19.5z"></path>
</svg>
