<!-- Generated by IcoMoon.io -->
<svg version="1.1" xmlns="http://www.w3.org/2000/svg" width="24" height="24" viewBox="0 0 24 24">
<title>bug</title>
<path d="M19.502 9.904l3.751-1.346-0.001-3.314-1.5 0.001 0.001 2.258-3.107 1.115-2.144 0v-1.451c0-0.001 0-0.003 0-0.004 0-1.099-0.391-2.106-1.043-2.89l0.006 0.007 2.022-2.035h2.008v-1.5h-2.632l-2.531 2.547c-0.676-0.422-1.497-0.672-2.377-0.672-0.862 0-1.668 0.24-2.354 0.658l0.020-0.011-2.487-2.524-2.632 0.002 0.001 1.5 2.004-0.002 1.97 1.999c-0.664 0.783-1.068 1.804-1.068 2.921 0 0.001 0 0.003 0 0.004v-0 1.453l-2.027 0-3.131-1.115v-2.258h-1.5v3.316l3.752 1.336 0 3.971h-3.75v1.5h3.75l0 0.376c0 0.002 0 0.005 0 0.008 0 0.922 0.167 1.805 0.472 2.621l-0.017-0.052-4.205 1.621v3.302h1.5v-2.272l3.362-1.296c1.34 2.158 3.697 3.573 6.385 3.573 2.077 0 3.957-0.846 5.314-2.211l0-0c0.402-0.402 0.759-0.85 1.062-1.335l0.019-0.032 3.358 1.3v2.273h1.5v-3.301l-4.201-1.626c0.285-0.76 0.451-1.638 0.451-2.554 0-0.010-0-0.020-0-0.030v0.002-0.365h3.75v-1.5h-3.75zM8.908 7.167c0-1.683 1.364-3.047 3.047-3.047s3.047 1.364 3.047 3.047v0 1.452l-6.094 0.001zM6.002 15.745l-0-5.626 5.248 0v11.585c-2.954-0.365-5.248-2.898-5.248-5.959zM18.002 15.737c0 0 0 0 0 0 0 3.052-2.274 5.574-5.221 5.962l-0.030 0.003v-11.582l5.251-0.002z"></path>
</svg>
