<!-- Generated by IcoMoon.io -->
<svg version="1.1" xmlns="http://www.w3.org/2000/svg" width="64" height="64" viewBox="0 0 64 64">
<title>bug</title>
<path d="M52.004 26.411l10.003-3.588-0.003-8.838-4 0.001 0.002 6.022-8.286 2.972-5.716 0.001v-3.87c0-0.003 0-0.008 0-0.012 0-2.93-1.044-5.616-2.78-7.706l0.016 0.020 5.391-5.427h5.355v-4h-7.020l-6.748 6.793c-1.803-1.126-3.993-1.793-6.339-1.793-2.299 0-4.448 0.641-6.279 1.754l0.054-0.030-6.632-6.73-7.020 0.006 0.004 4 5.343-0.005 5.253 5.331c-1.771 2.087-2.849 4.812-2.849 7.788 0 0.004 0 0.007 0 0.011v-0.001 3.874l-5.404 0.001-8.35-2.974v-6.021h-4v8.843l10.004 3.564 0.001 10.589h-10.001v4h10.001l0 1.001c0 0.006 0 0.013 0 0.020 0 2.459 0.445 4.815 1.258 6.99l-0.045-0.138-11.214 4.321v8.805h4v-6.059l8.966-3.455c3.573 5.754 9.859 9.529 17.026 9.529 5.54 0 10.552-2.255 14.171-5.897l0.001-0.001c1.072-1.073 2.023-2.267 2.833-3.559l0.049-0.084 8.955 3.466v6.062h4v-8.803l-11.202-4.336c0.761-2.026 1.202-4.367 1.202-6.811 0-0.027-0-0.054-0-0.081v0.004-0.974h10v-4h-10zM23.754 19.111c0-4.487 3.638-8.125 8.125-8.125s8.125 3.638 8.125 8.125v0 3.871l-16.25 0.003zM16.006 41.987l-0.001-15.001 13.996 0v30.893c-7.876-0.974-13.995-7.729-13.995-15.892zM48.004 41.965c0 0 0 0 0 0.001 0 8.14-6.065 14.863-13.923 15.897l-0.081 0.009v-30.887l14.004-0.005z"></path>
</svg>
