<!-- Generated by IcoMoon.io -->
<svg version="1.1" xmlns="http://www.w3.org/2000/svg" width="24" height="24" viewBox="0 0 24 24">
<title>burger</title>
<path d="M19.346 4.172c-1.668-0.984-3.869-1.525-6.199-1.525h-1.919c-2.33 0-4.531 0.542-6.199 1.525-1.792 1.057-2.779 2.505-2.779 4.078v0.75h19.875v-0.75c0-1.573-0.987-3.021-2.779-4.078zM3.881 7.5c0.663-1.881 3.759-3.353 7.347-3.353h1.919c3.588 0 6.683 1.472 7.347 3.353z"></path>
<path d="M2.25 14.25h19.875v1.5h-19.875v-1.5z"></path>
<path d="M18.15 10.502c-1.162 0-1.77 0.287-2.308 0.54-0.47 0.222-0.842 0.397-1.668 0.397s-1.197-0.175-1.668-0.397c-0.537-0.253-1.146-0.54-2.307-0.54s-1.77 0.287-2.307 0.54c-0.47 0.222-0.842 0.397-1.667 0.397s-1.197-0.175-1.667-0.397c-0.537-0.253-1.146-0.54-2.307-0.54v1.5c0.826 0 1.197 0.175 1.667 0.397 0.537 0.253 1.146 0.54 2.307 0.54s1.77-0.287 2.307-0.54c0.47-0.222 0.842-0.397 1.667-0.397s1.197 0.175 1.668 0.397c0.537 0.253 1.146 0.54 2.307 0.54s1.77-0.287 2.308-0.54c0.47-0.222 0.842-0.397 1.668-0.397s1.197 0.175 1.668 0.397c0.537 0.253 1.146 0.54 2.308 0.54v-1.5c-0.826 0-1.197-0.175-1.668-0.397-0.537-0.253-1.146-0.54-2.308-0.54z"></path>
<path d="M2.25 21c0.001 0.621 0.504 1.124 1.125 1.125h17.625c0.621-0.001 1.124-0.504 1.125-1.125v-3.75h-19.875zM3.75 18.75h16.875v1.875h-16.875z"></path>
</svg>
