<!-- Generated by IcoMoon.io -->
<svg version="1.1" xmlns="http://www.w3.org/2000/svg" width="24" height="24" viewBox="0 0 24 24">
<title>bus-alt</title>
<path d="M23.047 8.473l-2.333-3.333c-0.275-0.389-0.723-0.64-1.229-0.64h-17.235c-0.828 0.001-1.499 0.672-1.5 1.5v11.625h1.926c0.276 1.502 1.575 2.625 3.137 2.625s2.861-1.123 3.134-2.605l0.003-0.020h5.726c0.276 1.502 1.575 2.625 3.137 2.625s2.861-1.123 3.134-2.605l0.003-0.020h2.301v-8.507c0-0 0-0.001 0-0.002 0-0.241-0.076-0.464-0.206-0.647l0.002 0.003zM21.75 9.236v1.264h-5.063v-4.5h2.797zM15.188 10.5h-6.75v-4.5h6.75zM2.25 6h4.688v4.5h-4.688zM5.813 18.75c-0.932 0-1.688-0.756-1.688-1.688s0.756-1.688 1.688-1.688c0.932 0 1.688 0.756 1.688 1.688v0c-0.001 0.932-0.756 1.686-1.687 1.688h-0zM17.813 18.75c-0.932 0-1.688-0.756-1.688-1.688s0.756-1.688 1.688-1.688c0.932 0 1.688 0.756 1.688 1.688v0c-0.001 0.932-0.756 1.686-1.687 1.688h-0zM21.75 16.125h-0.891c-0.414-1.314-1.621-2.25-3.047-2.25s-2.633 0.936-3.040 2.227l-0.006 0.023h-5.907c-0.414-1.314-1.621-2.25-3.047-2.25s-2.633 0.936-3.040 2.227l-0.006 0.023h-0.516v-4.125h19.5z"></path>
</svg>
