<!-- Generated by IcoMoon.io -->
<svg version="1.1" xmlns="http://www.w3.org/2000/svg" width="64" height="64" viewBox="0 0 64 64">
<title>calculator</title>
<path d="M59 5h-54c-1.656 0.002-2.998 1.344-3 3v48c0.002 1.656 1.344 2.998 3 3h54c1.656-0.002 2.998-1.344 3-3v-48c-0.002-1.656-1.344-2.998-3-3h-0zM58 55h-52v-46h52z"></path>
<path d="M19 30h4v-5h5v-4h-5v-5h-4v5h-5v4h5v5z"></path>
<path d="M24.535 35.636l-3.535 3.535-3.535-3.535-2.828 2.828 3.536 3.535-3.535 3.535 2.828 2.828 3.535-3.535 3.535 3.535 2.828-2.828-3.535-3.535 3.535-3.535-2.828-2.828z"></path>
<path d="M36 21h14v4h-14v-4z"></path>
<path d="M36 36h14v4h-14v-4z"></path>
<path d="M36 44h14v4h-14v-4z"></path>
</svg>
