<!-- Generated by IcoMoon.io -->
<svg version="1.1" xmlns="http://www.w3.org/2000/svg" width="24" height="24" viewBox="0 0 24 24">
<title>calculator</title>
<path d="M22.125 1.875h-20.25c-0.621 0.001-1.124 0.504-1.125 1.125v18c0.001 0.621 0.504 1.124 1.125 1.125h20.25c0.621-0.001 1.124-0.504 1.125-1.125v-18c-0.001-0.621-0.504-1.124-1.125-1.125h-0zM21.75 20.625h-19.5v-17.25h19.5z"></path>
<path d="M7.125 11.25h1.5v-1.875h1.875v-1.5h-1.875v-1.875h-1.5v1.875h-1.875v1.5h1.875v1.875z"></path>
<path d="M9.201 13.364l-1.326 1.326-1.326-1.326-1.061 1.061 1.326 1.326-1.326 1.326 1.061 1.061 1.326-1.326 1.326 1.326 1.061-1.061-1.326-1.326 1.326-1.326-1.061-1.061z"></path>
<path d="M13.5 7.875h5.25v1.5h-5.25v-1.5z"></path>
<path d="M13.5 13.5h5.25v1.5h-5.25v-1.5z"></path>
<path d="M13.5 16.5h5.25v1.5h-5.25v-1.5z"></path>
</svg>
