<!-- Generated by IcoMoon.io -->
<svg version="1.1" xmlns="http://www.w3.org/2000/svg" width="24" height="24" viewBox="0 0 24 24">
<title>camera</title>
<path d="M22.125 5.25h-4.181l-0.762-2.191c-0.21-0.592-0.765-1.008-1.417-1.008-0 0-0 0-0 0h-7.551c-0.654 0.001-1.21 0.421-1.414 1.006l-0.003 0.011-0.745 2.183h-4.177c-0.621 0-1.125 0.504-1.125 1.125v0 14.625c0 0.621 0.504 1.125 1.125 1.125v0h20.25c0.621 0 1.125-0.504 1.125-1.125v0-14.625c0-0.621-0.504-1.125-1.125-1.125v0zM21.75 20.625h-19.5v-13.875h4.875l1.088-3.199h7.552l1.11 3.199h4.875z"></path>
<path d="M12 7.875c-2.951 0-5.344 2.392-5.344 5.344s2.392 5.344 5.344 5.344c2.951 0 5.344-2.392 5.344-5.344v0c-0.003-2.95-2.394-5.34-5.343-5.344h-0zM12 17.063c-2.123 0-3.844-1.721-3.844-3.844s1.721-3.844 3.844-3.844c2.123 0 3.844 1.721 3.844 3.844v0c-0.003 2.122-1.722 3.841-3.843 3.844h-0z"></path>
</svg>
