<!-- Generated by IcoMoon.io -->
<svg version="1.1" xmlns="http://www.w3.org/2000/svg" width="24" height="24" viewBox="0 0 24 24">
<title>camera-control</title>
<path d="M15.75 12c0-2.071-1.679-3.75-3.75-3.75s-3.75 1.679-3.75 3.75c0 2.071 1.679 3.75 3.75 3.75v0c2.070-0.002 3.748-1.68 3.75-3.75v-0zM9.75 12c0-1.243 1.007-2.25 2.25-2.25s2.25 1.007 2.25 2.25c0 1.243-1.007 2.25-2.25 2.25v0c-1.242-0.001-2.249-1.008-2.25-2.25v-0z"></path>
<path d="M7.5 18.656l3.999 4.594h1.002l3.999-4.594v-1.406h-9zM14.43 18.75l-2.43 2.791-2.43-2.791z"></path>
<path d="M11.499 0.75l-3.999 4.594v1.406h9v-1.406l-3.999-4.594zM9.57 5.25l2.43-2.791 2.43 2.791z"></path>
<path d="M0.75 11.499v1.002l4.594 3.999h1.406v-9h-1.406zM5.25 14.43l-2.791-2.43 2.791-2.43z"></path>
<path d="M18.656 7.5h-1.406v9h1.406l4.594-3.999v-1.002zM18.75 14.43v-4.859l2.791 2.43z"></path>
</svg>
