<!-- Generated by IcoMoon.io -->
<svg version="1.1" xmlns="http://www.w3.org/2000/svg" width="24" height="24" viewBox="0 0 24 24">
<title>casino</title>
<path d="M23.214 12.543l-2.352-10.618c-0.155-0.677-0.752-1.175-1.466-1.175-0.114 0-0.226 0.013-0.333 0.037l0.010-0.002-10.618 2.352c-0.677 0.154-1.176 0.751-1.176 1.464 0 0.115 0.013 0.227 0.037 0.334l-0.002-0.010 0.985 4.449h-6.051c-0.828 0.001-1.499 0.672-1.5 1.5v10.875c0.001 0.828 0.672 1.499 1.5 1.5h10.875c0.828-0.001 1.499-0.672 1.5-1.5v-5.768l7.449-1.65c0.677-0.155 1.175-0.752 1.175-1.466 0-0.114-0.013-0.226-0.037-0.333l0.002 0.010zM13.125 21.75h-10.875v-10.875h6.383l1.034 4.669c0.154 0.676 0.749 1.174 1.461 1.176h0c0.116-0 0.229-0.013 0.338-0.038l-0.010 0.002 1.669-0.37 0 5.435zM21.75 12.868l-10.618 2.352-2.352-10.618 10.618-2.352 2.353 10.617z"></path>
<path d="M3.75 12.375h1.875v1.875h-1.875v-1.875z"></path>
<path d="M3.75 18.375h1.875v1.875h-1.875v-1.875z"></path>
<path d="M9.75 18.375h1.875v1.875h-1.875v-1.875z"></path>
<path d="M6.75 15.375h1.875v1.875h-1.875v-1.875z"></path>
<path d="M10.569 5.742l1.831-0.405 0.405 1.831-1.831 0.405-0.405-1.831z"></path>
<path d="M17.725 10.303l1.831-0.405 0.405 1.831-1.831 0.405-0.405-1.831z"></path>
<path d="M14.147 8.022l1.831-0.405 0.405 1.831-1.831 0.405-0.405-1.831z"></path>
</svg>
