<!-- Generated by IcoMoon.io -->
<svg version="1.1" xmlns="http://www.w3.org/2000/svg" width="24" height="24" viewBox="0 0 24 24">
<title>center-focus</title>
<path d="M2.25 21v-5.625h-1.5v5.625c0.001 1.242 1.008 2.249 2.25 2.25h5.625v-1.5h-5.625c-0.414-0-0.75-0.336-0.75-0.75v-0z"></path>
<path d="M2.25 3c0-0.414 0.336-0.75 0.75-0.75h5.625v-1.5h-5.625c-1.242 0.001-2.249 1.008-2.25 2.25v5.625h1.5z"></path>
<path d="M21 0.75h-5.625v1.5h5.625c0.414 0 0.75 0.336 0.75 0.75v5.625h1.5v-5.625c-0.001-1.242-1.008-2.249-2.25-2.25h-0z"></path>
<path d="M21.75 21c-0 0.414-0.336 0.75-0.75 0.75h-5.625v1.5h5.625c1.242-0.001 2.249-1.008 2.25-2.25v-5.625h-1.5z"></path>
<path d="M18.75 12c0-3.722-3.028-6.75-6.75-6.75s-6.75 3.028-6.75 6.75 3.028 6.75 6.75 6.75 6.75-3.028 6.75-6.75zM12 17.25c-2.899 0-5.25-2.351-5.25-5.25s2.351-5.25 5.25-5.25c2.899 0 5.25 2.351 5.25 5.25v0c-0.003 2.898-2.352 5.247-5.25 5.25h-0z"></path>
</svg>
