<!-- Generated by IcoMoon.io -->
<svg version="1.1" xmlns="http://www.w3.org/2000/svg" width="24" height="24" viewBox="0 0 24 24">
<title>chart-pie</title>
<path d="M4.939 18.671c-1.659-1.661-2.685-3.955-2.685-6.489 0-5.071 4.111-9.182 9.182-9.182 1.719 0 3.328 0.472 4.704 1.295l-0.042-0.023 1.090-1.090c-1.628-1.056-3.619-1.684-5.756-1.684-5.899 0-10.682 4.782-10.682 10.682 0 2.949 1.195 5.62 3.128 7.553l-0-0c1.934 1.933 4.605 3.128 7.556 3.128 2.128 0 4.111-0.622 5.776-1.694l-0.042 0.025-1.093-1.093c-3.517 2.062-8.122 1.586-11.136-1.428z"></path>
<path d="M21.98 16.55c0.55-1.291 0.87-2.793 0.87-4.37s-0.32-3.079-0.898-4.445l0.028 0.075c-0.041-0.1-0.085-0.199-0.129-0.298-0.598-1.321-1.387-2.449-2.346-3.407l-0.53-0.531-8.605 8.606 8.605 8.605 0.53-0.53c0.944-0.942 1.722-2.049 2.289-3.275l0.029-0.070c0.054-0.119 0.107-0.239 0.157-0.36zM18.954 5.716c1.489 1.725 2.396 3.988 2.396 6.464s-0.907 4.739-2.406 6.476l0.011-0.013-6.464-6.464z"></path>
</svg>
