<!-- Generated by IcoMoon.io -->
<svg version="1.1" xmlns="http://www.w3.org/2000/svg" width="64" height="64" viewBox="0 0 64 64">
<title>chart-pie</title>
<path d="M13.17 49.79c-4.425-4.43-7.161-10.547-7.161-17.303 0-13.523 10.963-24.486 24.486-24.486 4.585 0 8.875 1.26 12.543 3.452l-0.112-0.062 2.907-2.907c-4.341-2.816-9.65-4.49-15.35-4.49-15.732 0-28.484 12.753-28.484 28.484 0 7.865 3.188 14.986 8.341 20.14l-0-0c5.157 5.154 12.281 8.342 20.148 8.342 5.674 0 10.961-1.658 15.403-4.516l-0.113 0.068-2.914-2.914c-9.378 5.498-21.659 4.229-29.696-3.808z"></path>
<path d="M58.614 44.134c1.466-3.443 2.319-7.449 2.319-11.654s-0.852-8.21-2.394-11.853l0.075 0.2c-0.111-0.267-0.226-0.531-0.343-0.794-1.595-3.522-3.699-6.531-6.257-9.085l-1.415-1.415-22.948 22.948 22.948 22.948 1.414-1.414c2.516-2.513 4.593-5.465 6.104-8.732l0.078-0.187c0.144-0.317 0.285-0.637 0.419-0.96zM50.545 15.244c3.97 4.6 6.389 10.635 6.389 17.236s-2.418 12.637-6.417 17.27l0.029-0.034-17.236-17.236z"></path>
</svg>
