<!-- Generated by IcoMoon.io -->
<svg version="1.1" xmlns="http://www.w3.org/2000/svg" width="24" height="24" viewBox="0 0 24 24">
<title>chart</title>
<path d="M5.813 6.375h-4.125c-0.518 0.001-0.937 0.42-0.938 0.937v15c0.001 0.518 0.42 0.937 0.937 0.938h4.125c0.518-0.001 0.937-0.42 0.938-0.937v-15c-0.001-0.518-0.42-0.937-0.937-0.938h-0zM5.25 21.75h-3v-13.875h3z"></path>
<path d="M14.063 11.25h-4.125c-0.518 0.001-0.937 0.42-0.938 0.937v10.125c0.001 0.518 0.42 0.937 0.937 0.938h4.125c0.518-0.001 0.937-0.42 0.938-0.937v-10.125c-0.001-0.518-0.42-0.937-0.937-0.938h-0zM13.5 21.75h-3v-9h3z"></path>
<path d="M22.313 0.75h-4.125c-0.518 0.001-0.937 0.42-0.938 0.937v20.625c0.001 0.518 0.42 0.937 0.937 0.938h4.125c0.518-0.001 0.937-0.42 0.938-0.937v-20.625c-0.001-0.518-0.42-0.937-0.937-0.938h-0zM21.75 21.75h-3v-19.5h3z"></path>
</svg>
