<!-- Generated by IcoMoon.io -->
<svg version="1.1" xmlns="http://www.w3.org/2000/svg" width="24" height="24" viewBox="0 0 24 24">
<title>chat-bubble</title>
<path d="M21.010 18.399c1.431-1.275 2.24-2.974 2.24-4.738 0-1.874-0.877-3.627-2.471-4.936-1.55-1.274-3.603-1.975-5.779-1.975s-4.229 0.701-5.779 1.975c-1.593 1.309-2.471 3.062-2.471 4.936s0.877 3.627 2.471 4.936c1.55 1.273 3.603 1.975 5.779 1.975 0.29 0 0.582-0.013 0.871-0.038l0.494 0.428c1.634 1.422 3.783 2.288 6.134 2.288h0.75v-1.596l-0.22-0.22c-0.844-0.847-1.527-1.855-1.998-2.974l-0.023-0.061zM17.348 19.828l-0.992-0.86-0.331 0.041c-0.308 0.040-0.664 0.062-1.025 0.062h-0c-3.722 0-6.75-2.427-6.75-5.411s3.028-5.411 6.75-5.411 6.75 2.427 6.75 5.411c0 1.486-0.742 2.874-2.088 3.907l-0.432 0.331 0.199 0.564c0.439 1.219 1.040 2.272 1.792 3.199l-0.016-0.020c-1.493-0.255-2.805-0.899-3.867-1.823l0.010 0.008z"></path>
<path d="M2.821 14.882c0.672-0.845 1.225-1.823 1.609-2.882l0.023-0.072 0.198-0.561-0.432-0.331c-1.27-0.974-1.969-2.282-1.969-3.682 0-2.814 2.86-5.103 6.375-5.103 2.586 0 4.817 1.239 5.816 3.014 0.185-0.009 0.372-0.014 0.559-0.014q0.564 0 1.117 0.055c-0.386-1-1.056-1.913-1.978-2.67-1.48-1.215-3.438-1.885-5.514-1.885s-4.035 0.669-5.514 1.885c-1.522 1.251-2.361 2.926-2.361 4.718 0 1.678 0.766 3.295 2.121 4.511-0.467 1.107-1.109 2.052-1.902 2.847l-0.219 0.219v1.57h0.75c1.456-0 2.831-0.349 4.046-0.967l-0.051 0.023c-0.128-0.466-0.213-1.006-0.237-1.562l-0.001-0.015c-0.702 0.419-1.519 0.733-2.39 0.895l-0.046 0.007z"></path>
</svg>
