<!-- Generated by IcoMoon.io -->
<svg version="1.1" xmlns="http://www.w3.org/2000/svg" width="24" height="24" viewBox="0 0 24 24">
<title>chevron-double-up</title>
<path d="M12.165 8.145l5.11 5.11 3.725-3.725-8.837-8.837-3.194 3.194-0.531 0.535-5.107 5.107 3.725 3.725zM10.031 4.951l0.532-0.535 1.599-1.599 0.002 0.002 0.003-0.003 1.603 1.604-0.002 0.002 5.11 5.11-1.604 1.603-5.11-5.11-5.11 5.11-1.603-1.603z"></path>
<path d="M15.888 14.785l-3.191-3.191-0.534-0.53-3.194 3.194-0.528 0.532-5.11 5.11 3.725 3.725 5.11-5.11 5.11 5.11 3.725-3.725-5.113-5.113zM18.879 19.9l-1.604 1.603-5.11-5.11-5.11 5.11-1.603-1.603 6.714-6.718 1.609 1.609-0.002 0.002z"></path>
</svg>
