<!-- Generated by IcoMoon.io -->
<svg version="1.1" xmlns="http://www.w3.org/2000/svg" width="24" height="24" viewBox="0 0 24 24">
<title>chevron-circle-left-alt</title>
<path d="M12 23.25c-6.213-0-11.25-5.037-11.25-11.25 0-3.107 1.259-5.919 3.295-7.955v0c2.035-2.033 4.846-3.291 7.951-3.291 6.213 0 11.25 5.037 11.25 11.25 0 3.105-1.258 5.915-3.291 7.951l0-0c-2.025 2.035-4.827 3.295-7.924 3.295-0.011 0-0.021-0-0.032-0h0.002zM12 2.25c-5.376 0-9.75 4.374-9.75 9.75s4.374 9.75 9.75 9.75 9.75-4.374 9.75-9.75-4.374-9.75-9.75-9.75z"></path>
<path d="M13.345 17.78l-5.78-5.78 5.78-5.78 1.061 1.061-4.72 4.72 4.72 4.72-1.061 1.061z"></path>
</svg>
