<!-- Generated by IcoMoon.io -->
<svg version="1.1" xmlns="http://www.w3.org/2000/svg" width="24" height="24" viewBox="0 0 24 24">
<title>chevron-circle-up-alt</title>
<path d="M12 23.25c0 0-0 0-0 0-6.213 0-11.25-5.037-11.25-11.25 0-3.107 1.259-5.919 3.295-7.955v0c2.036-2.036 4.848-3.295 7.955-3.295 6.213 0 11.25 5.037 11.25 11.25 0 3.107-1.259 5.919-3.295 7.955v0c-2.025 2.035-4.827 3.295-7.924 3.295-0.011 0-0.021-0-0.032-0h0.002zM12 2.25c-5.376 0-9.75 4.374-9.75 9.75s4.374 9.75 9.75 9.75 9.75-4.374 9.75-9.75-4.374-9.75-9.75-9.75z"></path>
<path d="M16.72 14.78l-4.72-4.72-4.72 4.72-1.061-1.061 5.78-5.78 5.78 5.78-1.061 1.061z"></path>
</svg>
