<!-- Generated by IcoMoon.io -->
<svg version="1.1" xmlns="http://www.w3.org/2000/svg" width="24" height="24" viewBox="0 0 24 24">
<title>child-friendly</title>
<path d="M20.862 16.178l0.888-3.33v-1.973c-0.381-4.406-4.122-7.875-8.625-7.875h-1.5v7.875h-5.43l-0.836-3.692c-0.154-0.68-0.751-1.18-1.466-1.183h-3.143v1.5h3.142l1.897 8.375c-1.619 0.439-2.79 1.895-2.79 3.625 0 2.071 1.679 3.75 3.75 3.75s3.75-1.679 3.75-3.75c0-0 0-0 0-0v0c0-0.127-0.006-0.252-0.019-0.375h4.913c-0.012 0.123-0.019 0.248-0.019 0.375 0 0 0 0.001 0 0.002 0 2.071 1.679 3.75 3.75 3.75s3.75-1.679 3.75-3.75c0-1.436-0.807-2.684-1.993-3.314l-0.020-0.010zM13.125 4.5c3.676 0 6.71 2.797 7.086 6.375h-7.086zM6.75 21.75c-1.243 0-2.25-1.007-2.25-2.25s1.007-2.25 2.25-2.25c1.243 0 2.25 1.007 2.25 2.25v0c-0.001 1.242-1.008 2.249-2.25 2.25h-0zM15.879 17.625h-5.884c-0.568-0.969-1.533-1.653-2.665-1.83l-0.021-0.003-0.774-3.417h13.715v0.277l-0.83 3.111c-0.098-0.008-0.196-0.013-0.295-0.013-1.38 0.001-2.585 0.747-3.236 1.857l-0.010 0.018zM19.125 21.75c-1.243 0-2.25-1.007-2.25-2.25s1.007-2.25 2.25-2.25c1.243 0 2.25 1.007 2.25 2.25v0c-0.001 1.242-1.008 2.249-2.25 2.25h-0z"></path>
</svg>
