<!-- Generated by IcoMoon.io -->
<svg version="1.1" xmlns="http://www.w3.org/2000/svg" width="24" height="24" viewBox="0 0 24 24">
<title>child</title>
<path d="M19.94 9.377c-1.134-2.615-3.449-4.53-6.253-5.088l-0.055-0.009 1.254-2.007-1.272-0.795-1.655 2.648c-3.529 0.017-6.556 2.15-7.878 5.195l-0.022 0.056c-1.836 0.036-3.31 1.532-3.31 3.373s1.475 3.338 3.307 3.373l0.003 0c1.349 3.113 4.395 5.252 7.94 5.252s6.591-2.138 7.919-5.196l0.022-0.056c1.836-0.036 3.31-1.532 3.31-3.373s-1.475-3.338-3.307-3.373l-0.003-0zM21.213 14.063c-0.332 0.339-0.791 0.552-1.3 0.561l-0.002 0-0.971 0.018-0.38 0.894c-1.114 2.572-3.631 4.339-6.56 4.339s-5.446-1.767-6.542-4.293l-0.018-0.046-0.38-0.894-0.971-0.018c-1.019-0.020-1.838-0.851-1.838-1.874s0.819-1.854 1.836-1.874l0.002-0 0.971-0.018 0.38-0.894c1.114-2.572 3.631-4.339 6.56-4.339s5.446 1.767 6.542 4.293l0.018 0.046 0.38 0.894 0.971 0.018c1.020 0.020 1.838 0.851 1.838 1.873 0 0.512-0.205 0.975-0.537 1.313l0-0z"></path>
<path d="M7.875 10.875h1.875v1.875h-1.875v-1.875z"></path>
<path d="M14.25 10.875h1.875v1.875h-1.875v-1.875z"></path>
<path d="M12 18c2.071 0 3.75-1.679 3.75-3.75v0h-7.5c0 2.071 1.679 3.75 3.75 3.75v0z"></path>
</svg>
