<!-- Generated by IcoMoon.io -->
<svg version="1.1" xmlns="http://www.w3.org/2000/svg" width="24" height="24" viewBox="0 0 24 24">
<title>circle</title>
<path d="M12.028 23.25c0 0 0 0 0 0 6.197 0 11.22-5.023 11.22-11.22 0-3.098-1.256-5.903-3.286-7.934v0c-2.030-2.029-4.834-3.284-7.932-3.284-6.197 0-11.22 5.023-11.22 11.22 0 3.097 1.255 5.901 3.284 7.932l-0-0c2.019 2.030 4.815 3.286 7.903 3.286 0.011 0 0.021-0 0.032-0h-0.002zM12.028 2.31c5.36 0 9.72 4.36 9.72 9.72s-4.36 9.72-9.72 9.72-9.72-4.36-9.72-9.72 4.36-9.72 9.72-9.72z"></path>
</svg>
