<!-- Generated by IcoMoon.io -->
<svg version="1.1" xmlns="http://www.w3.org/2000/svg" width="24" height="24" viewBox="0 0 24 24">
<title>closed-captioning</title>
<path d="M22.125 3h-20.25c-0.621 0-1.125 0.504-1.125 1.125v0 15.75c0 0.621 0.504 1.125 1.125 1.125v0h20.25c0.621 0 1.125-0.504 1.125-1.125v0-15.75c0-0.621-0.504-1.125-1.125-1.125v0zM21.75 19.5h-19.5v-15h19.5z"></path>
<path d="M8.625 16.125c0.004 0 0.010 0 0.015 0 0.963 0 1.849-0.334 2.547-0.892l-0.008 0.006-0.929-1.177c-0.439 0.351-1.002 0.563-1.614 0.563-0.004 0-0.007 0-0.011-0h0.001c-1.45 0-2.625-1.175-2.625-2.625s1.175-2.625 2.625-2.625v0c0.003-0 0.007-0 0.011-0 0.612 0 1.175 0.212 1.619 0.567l-0.005-0.004 0.929-1.178c-0.69-0.552-1.575-0.885-2.538-0.885-0.006 0-0.011 0-0.017 0h0.001c-2.278 0-4.125 1.847-4.125 4.125s1.847 4.125 4.125 4.125v0z"></path>
<path d="M16.286 16.125c0.004 0 0.010 0 0.015 0 0.963 0 1.849-0.334 2.547-0.892l-0.008 0.006-0.929-1.177c-0.439 0.351-1.002 0.563-1.614 0.563-0.004 0-0.007 0-0.011-0h0.001c-1.45 0-2.625-1.175-2.625-2.625s1.175-2.625 2.625-2.625v0c0.003-0 0.007-0 0.011-0 0.612 0 1.175 0.212 1.619 0.567l-0.005-0.004 0.929-1.178c-0.69-0.552-1.575-0.885-2.538-0.885-0.005 0-0.011 0-0.016 0h0.001c-2.278 0-4.125 1.847-4.125 4.125s1.847 4.125 4.125 4.125v0z"></path>
</svg>
