<!-- Generated by IcoMoon.io -->
<svg version="1.1" xmlns="http://www.w3.org/2000/svg" width="24" height="24" viewBox="0 0 24 24">
<title>cloud-upload</title>
<path d="M16.23 13.347l-4.228-4.228-4.228 4.228 1.061 1.061 2.417-2.417v11.259h1.5v-11.259l2.417 2.417 1.061-1.061z"></path>
<path d="M18.75 7.568v-0.068c0-3.722-3.028-6.75-6.75-6.75s-6.75 3.028-6.75 6.75v0.117c-1.156 0.223-2.16 0.767-2.945 1.534l0.001-0.001c-0.96 0.932-1.555 2.234-1.557 3.676v0c0 1.459 0.599 2.848 1.688 3.913 1.064 1.040 2.5 1.636 3.94 1.636h2.997v-1.5h-2.997c-2.199 0-4.128-1.892-4.128-4.049 0-1.981 1.671-3.652 3.803-3.804l0.697-0.050v-1.472c0-2.899 2.351-5.25 5.25-5.25s5.25 2.351 5.25 5.25v0 1.502l0.741 0.009c2.178 0.028 3.759 1.632 3.759 3.815 0 2.271-1.671 4.049-3.805 4.049h-3.32v1.5h3.32c0.005 0 0.011 0 0.017 0 1.496 0 2.843-0.639 3.783-1.658l0.003-0.004c0.968-1.041 1.501-2.421 1.501-3.887 0-2.739-1.888-4.886-4.5-5.258z"></path>
</svg>
