<!-- Generated by IcoMoon.io -->
<svg version="1.1" xmlns="http://www.w3.org/2000/svg" width="24" height="24" viewBox="0 0 24 24">
<title>cloud-download</title>
<path d="M12.75 20.379v-10.573h-1.5v10.573l-2.432-2.432-1.061 1.061 4.243 4.243 4.243-4.243-1.061-1.061-2.432 2.432z"></path>
<path d="M18.75 7.555c0-3.722-3.028-6.75-6.75-6.75s-6.75 3.028-6.75 6.75c-2.485 0-4.5 2.015-4.5 4.5s2.015 4.5 4.5 4.5h3.75v-1.5h-3.75c-1.657 0-3-1.343-3-3s1.343-3 3-3v0h1.5v-1.5c0-2.899 2.351-5.25 5.25-5.25s5.25 2.351 5.25 5.25v0 1.5h1.5c1.657 0 3 1.343 3 3s-1.343 3-3 3v0h-3.75v1.5h3.75c2.485 0 4.5-2.015 4.5-4.5s-2.015-4.5-4.5-4.5v0z"></path>
</svg>
