<!-- Generated by IcoMoon.io -->
<svg version="1.1" xmlns="http://www.w3.org/2000/svg" width="64" height="64" viewBox="0 0 64 64">
<title>cloud-download</title>
<path d="M34 54.196v-28.196h-4v28.196l-6.485-6.485-2.828 2.828 11.314 11.314 11.314-11.314-2.828-2.828-6.485 6.485z"></path>
<path d="M50 20c0-9.925-8.075-18-18-18s-18 8.075-18 18c-6.627 0-12 5.373-12 12s5.373 12 12 12v0h10v-4h-10c-4.418 0-8-3.582-8-8s3.582-8 8-8v0h4v-4c0-7.732 6.268-14 14-14s14 6.268 14 14v0 4h4c4.418 0 8 3.582 8 8s-3.582 8-8 8v0h-10v4h10c6.627 0 12-5.373 12-12s-5.373-12-12-12v0z"></path>
</svg>
