<!-- Generated by IcoMoon.io -->
<svg version="1.1" xmlns="http://www.w3.org/2000/svg" width="24" height="24" viewBox="0 0 24 24">
<title>cloudy</title>
<path d="M18.734 12.416v-0.179c0-3.722-3.028-6.75-6.75-6.75-0.103 0-0.206 0.003-0.308 0.007-0.37-2.693-2.656-4.745-5.422-4.745-3.021 0-5.47 2.449-5.47 5.47 0 2.671 1.914 4.895 4.446 5.374l0.034 0.005c-0.020 0.21-0.030 0.423-0.030 0.638v0.179c-2.575 0.475-4.5 2.703-4.5 5.381 0 3.019 2.447 5.467 5.467 5.467h11.567c3.019-0 5.467-2.448 5.467-5.467 0-2.678-1.925-4.906-4.466-5.376l-0.034-0.005zM2.285 6.22c0-0 0-0 0-0.001 0-2.192 1.777-3.969 3.969-3.969 2.019 0 3.686 1.508 3.937 3.459l0.002 0.020c-2.188 0.621-3.896 2.257-4.607 4.353l-0.014 0.048c-1.878-0.339-3.284-1.96-3.287-3.909v-0zM17.768 21.764h-11.567c-0 0-0 0-0 0-2.191 0-3.966-1.776-3.966-3.966 0-2.126 1.673-3.862 3.775-3.962l0.009-0 0.716-0.032v-1.566c0-2.899 2.35-5.25 5.25-5.25s5.25 2.351 5.25 5.25v0 1.566l0.716 0.032c2.111 0.1 3.784 1.836 3.784 3.962 0 2.191-1.776 3.966-3.966 3.966-0 0-0 0-0 0v0z"></path>
</svg>
