<!-- Generated by IcoMoon.io -->
<svg version="1.1" xmlns="http://www.w3.org/2000/svg" width="24" height="24" viewBox="0 0 24 24">
<title>codepen</title>
<path d="M21.998 7.759l-9.37-6.361c-0.177-0.122-0.396-0.195-0.632-0.195s-0.455 0.073-0.636 0.198l0.004-0.002-9.371 6.361c-0.299 0.205-0.493 0.545-0.493 0.93 0 0 0 0 0 0.001v-0 6.1c0 0 0 0 0 0.001 0 0.385 0.194 0.725 0.489 0.928l0.004 0.002 9.37 6.361c0.177 0.122 0.396 0.195 0.632 0.195s0.455-0.073 0.636-0.198l-0.004 0.002 9.371-6.361c0.299-0.205 0.493-0.545 0.493-0.93 0-0 0-0 0-0.001v0-6.1c0-0 0-0 0-0.001 0-0.385-0.194-0.725-0.489-0.928l-0.004-0.002zM12.745 3.291l7.964 5.407-3.536 2.249-4.428-2.817zM11.245 3.291v4.839l-4.428 2.817-3.536-2.249zM3 10.296l2.42 1.539-2.42 1.539zM11.246 20.189l-7.819-5.309 3.39-2.157 4.432 2.819zM11.995 14.24l-3.781-2.405 3.781-2.405 3.781 2.405zM12.746 20.188l0.003-4.65 4.424-2.814 3.39 2.157zM20.991 13.375l-2.42-1.539 2.42-1.539z"></path>
</svg>
