<!-- Generated by IcoMoon.io -->
<svg version="1.1" xmlns="http://www.w3.org/2000/svg" width="24" height="24" viewBox="0 0 24 24">
<title>color-fill</title>
<path d="M22.125 17.625h-20.25c-0.621 0.001-1.124 0.504-1.125 1.125v3.375c0.001 0.621 0.504 1.124 1.125 1.125h20.25c0.621-0.001 1.124-0.504 1.125-1.125v-3.375c-0.001-0.621-0.504-1.124-1.125-1.125h-0zM21.75 21.75h-19.5v-2.625h19.5z"></path>
<path d="M2.11 11.226c-0.047 0.175-0.073 0.376-0.073 0.583 0 1.092 0.745 2.011 1.754 2.276l0.016 0.004 7.43 1.9c0.175 0.047 0.376 0.074 0.584 0.074 1.092 0 2.011-0.745 2.275-1.754l0.004-0.016 2.482-9.71-11.989-3.065-0.563 2.202-2.719-0.695-0.372 1.453 2.719 0.695zM11.608 14.535v0l-7.43-1.9c-0.372-0.098-0.642-0.431-0.642-0.827 0-0.075 0.010-0.147 0.028-0.217l-0.001 0.006 0.187-0.731v0.008h9.674l-0.778 3.045c-0.098 0.372-0.431 0.642-0.827 0.642-0.075 0-0.147-0.010-0.217-0.028l0.006 0.001zM14.757 5.664l-0.949 3.711h-9.677l1.543-6.034z"></path>
<path d="M19.688 16.5c1.758 0 3.188-1.514 3.188-3.375 0-0.758-0.438-1.805-1.339-3.2-0.623-0.964-1.237-1.735-1.263-1.768l-0.586-0.733-0.586 0.733c-0.026 0.032-0.64 0.803-1.263 1.768-0.901 1.395-1.339 2.442-1.339 3.2 0 1.861 1.43 3.375 3.188 3.375zM19.688 9.87c0.828 1.155 1.688 2.598 1.688 3.255 0 1.034-0.757 1.875-1.688 1.875s-1.688-0.841-1.688-1.875c0-0.657 0.86-2.1 1.688-3.255z"></path>
</svg>
