<!-- Generated by IcoMoon.io -->
<svg version="1.1" xmlns="http://www.w3.org/2000/svg" width="24" height="24" viewBox="0 0 24 24">
<title>color-border</title>
<path d="M6.722 15.558c0.054 0 0.108-0.005 0.159-0.015l-0.005 0.001 4.213-0.997 8.916-8.916c0.534-0.534 0.864-1.271 0.864-2.086 0-1.629-1.321-2.949-2.949-2.949-0.815 0-1.552 0.33-2.086 0.864l-8.916 8.916-0.991 4.181-0.007 0.032c-0.009 0.046-0.015 0.099-0.015 0.154 0 0.451 0.366 0.817 0.817 0.817h0zM8.279 11.135l8.615-8.615c0.262-0.263 0.625-0.426 1.026-0.426 0.801 0 1.45 0.649 1.45 1.45 0 0.401-0.163 0.764-0.426 1.026l-8.615 8.615-2.687 0.637z"></path>
<path d="M22.125 17.625h-20.25c-0.621 0.001-1.124 0.504-1.125 1.125v3.375c0.001 0.621 0.504 1.124 1.125 1.125h20.25c0.621-0.001 1.124-0.504 1.125-1.125v-3.375c-0.001-0.621-0.504-1.124-1.125-1.125h-0zM21.75 21.75h-19.5v-2.625h19.5z"></path>
</svg>
