<!-- Generated by IcoMoon.io -->
<svg version="1.1" xmlns="http://www.w3.org/2000/svg" width="24" height="24" viewBox="0 0 24 24">
<title>comment-bubble</title>
<path d="M23.25 23.25h-0.75c-3.217-0-6.157-1.186-8.407-3.144l0.016 0.013-0.789-0.684c-0.438 0.043-0.88 0.064-1.319 0.064-2.978 0-5.784-0.958-7.901-2.697-2.16-1.774-3.349-4.146-3.349-6.678s1.189-4.904 3.349-6.678c2.117-1.739 4.923-2.697 7.901-2.697s5.784 0.958 7.901 2.697c2.16 1.774 3.349 4.146 3.349 6.678-0.001 1.413-0.367 2.739-1.009 3.892l0.021-0.041c-0.583 1.054-1.32 1.948-2.192 2.686l-0.014 0.011c0.708 1.772 1.716 3.285 2.975 4.547l0.219 0.219zM13.803 17.87l1.288 1.116c1.707 1.485 3.884 2.471 6.281 2.708l0.047 0.004c-1.248-1.391-2.246-3.036-2.902-4.846l-0.033-0.104-0.206-0.584 0.432-0.331c1.961-1.505 3.041-3.532 3.041-5.708 0-4.342-4.374-7.875-9.75-7.875s-9.75 3.533-9.75 7.875 4.374 7.875 9.75 7.875c0.519-0 1.030-0.033 1.532-0.096l-0.060 0.006z"></path>
</svg>
