<!-- Generated by IcoMoon.io -->
<svg version="1.1" xmlns="http://www.w3.org/2000/svg" width="24" height="24" viewBox="0 0 24 24">
<title>contrast</title>
<path d="M12 0.75c-6.213 0-11.25 5.037-11.25 11.25s5.037 11.25 11.25 11.25 11.25-5.037 11.25-11.25-5.037-11.25-11.25-11.25zM2.25 12q0-0.465 0.043-0.922l8.676 4.857v2.5l-8.583-4.805c-0.086-0.489-0.135-1.052-0.135-1.626 0-0.001 0-0.002 0-0.003v0zM3.295 7.603l7.673 4.3v2.312l-8.399-4.702c0.136-0.516 0.289-0.951 0.47-1.371l-0.024 0.063q0.13-0.307 0.28-0.603zM10.969 2.304v3.768l-4.202-2.301c1.197-0.774 2.624-1.298 4.159-1.463l0.043-0.004zM5.462 4.767l5.507 3.016v2.401l-6.895-3.864c0.325-0.45 0.664-0.847 1.032-1.214l0-0q0.174-0.174 0.356-0.339zM5.106 18.894c-0.868-0.866-1.573-1.895-2.066-3.037l-0.024-0.063c-0.017-0.040-0.033-0.081-0.050-0.121l8.003 4.48v1.543c-2.307-0.249-4.339-1.272-5.863-2.802l-0-0zM18.894 18.894c-1.654 1.659-3.905 2.724-6.403 2.844l-0.022 0.001v-19.478c5.181 0.252 9.286 4.515 9.286 9.735 0 2.694-1.093 5.133-2.86 6.898l-0 0z"></path>
</svg>
