<!-- Generated by IcoMoon.io -->
<svg version="1.1" xmlns="http://www.w3.org/2000/svg" width="24" height="24" viewBox="0 0 24 24">
<title>contact</title>
<path d="M22.125 2.25h-20.25c-0.621 0.001-1.124 0.504-1.125 1.125v17.25c0.001 0.621 0.504 1.124 1.125 1.125h4.125v-2.757c0-0.351 0.192-0.656 0.477-0.817l0.005-0.002 4.311-2.396-1.419-3.546v-2.856c0-1.45 1.175-2.625 2.625-2.625s2.625 1.175 2.625 2.625v0 2.856l-1.419 3.546 4.312 2.396c0.29 0.163 0.482 0.469 0.482 0.819v2.757h4.125c0.621-0.001 1.124-0.504 1.125-1.125v-17.25c-0.001-0.621-0.504-1.124-1.125-1.125h-0zM21.75 20.25h-2.25v-1.257c-0-0.911-0.5-1.706-1.241-2.124l-0.012-0.006h0l-3.157-1.755 1.035-2.588v-3.144c0-2.278-1.847-4.125-4.125-4.125s-4.125 1.847-4.125 4.125v0 3.144l1.035 2.588-3.157 1.755c-0.753 0.425-1.253 1.219-1.253 2.13v1.257h-2.25v-16.5h19.5z"></path>
</svg>
