<!-- Generated by IcoMoon.io -->
<svg version="1.1" xmlns="http://www.w3.org/2000/svg" width="24" height="24" viewBox="0 0 24 24">
<title>copyright</title>
<path d="M12.375 7.5c0.005-0 0.011-0 0.017-0 1.051 0 2.016 0.364 2.778 0.972l-0.009-0.007 0.929-1.177c-1.004-0.803-2.292-1.288-3.693-1.288-0.008 0-0.015 0-0.023 0h0.001c-3.314 0-6 2.686-6 6s2.686 6 6 6v0c0.006 0 0.014 0 0.022 0 1.401 0 2.689-0.485 3.705-1.297l-0.012 0.009-0.929-1.177c-0.753 0.602-1.718 0.965-2.769 0.965-0.006 0-0.012 0-0.018-0h0.001c-2.485 0-4.5-2.015-4.5-4.5s2.015-4.5 4.5-4.5v0z"></path>
<path d="M12 0.75c-6.213 0-11.25 5.037-11.25 11.25s5.037 11.25 11.25 11.25 11.25-5.037 11.25-11.25-5.037-11.25-11.25-11.25zM18.894 18.894c-1.757 1.752-4.182 2.835-6.859 2.835-5.365 0-9.715-4.349-9.715-9.715s4.349-9.715 9.715-9.715c5.365 0 9.715 4.349 9.715 9.715 0 1.365-0.282 2.664-0.79 3.843l0.024-0.063c-0.517 1.205-1.222 2.234-2.090 3.099l-0 0z"></path>
</svg>
