<!-- Generated by IcoMoon.io -->
<svg version="1.1" xmlns="http://www.w3.org/2000/svg" width="24" height="24" viewBox="0 0 24 24">
<title>crop-rotate</title>
<path d="M17.25 0.748l-5.25 0.002c-2.99 0.004-5.785 1.204-7.9 3.318-2.029 2.019-3.285 4.813-3.285 7.901 0 0.011 0 0.021 0 0.032v-0.002h1.5c0-5.352 4.35-9.708 9.7-9.717v1.957z"></path>
<path d="M21.749 12.002c0 5.349-4.371 9.702-9.75 9.719v-1.47l-5.235 3h5.235c6.206-0.017 11.25-5.073 11.25-11.248z"></path>
<path d="M18 6.814v-0.814h-1.061l-1.125 1.125h-7.189v-1.5h-1.5v1.5h-1.5v1.5h1.5v8.25h7.875v1.5h1.5v-1.5h1.5v-1.5h-1.5v-4.939l-1.5 1.5v3.439h-5.561zM8.625 14.314v-5.689h5.689z"></path>
</svg>
