<!-- Generated by IcoMoon.io -->
<svg version="1.1" xmlns="http://www.w3.org/2000/svg" width="24" height="24" viewBox="0 0 24 24">
<title>cut</title>
<path d="M21 19.939l-7.752-7.752 7.752-7.752v-1.061h-1.061l-7.752 7.752-3.915-3.915c0.455-0.654 0.728-1.466 0.728-2.341 0-2.28-1.849-4.129-4.129-4.129s-4.129 1.849-4.129 4.129c0 2.28 1.849 4.129 4.129 4.129 0.875 0 1.687-0.272 2.354-0.737l-0.014 0.009 3.915 3.915-3.699 3.699c-0.695-0.551-1.585-0.885-2.553-0.885-2.278 0-4.125 1.847-4.125 4.125s1.847 4.125 4.125 4.125c2.278 0 4.125-1.847 4.125-4.125 0-0.779-0.216-1.508-0.591-2.129l0.010 0.018 3.768-3.768 7.752 7.752h1.061zM4.875 7.5c-1.45 0-2.625-1.175-2.625-2.625s1.175-2.625 2.625-2.625c1.45 0 2.625 1.175 2.625 2.625v0c-0.002 1.449-1.176 2.623-2.625 2.625h-0zM4.875 21.75c-1.45 0-2.625-1.175-2.625-2.625s1.175-2.625 2.625-2.625c1.45 0 2.625 1.175 2.625 2.625v0c-0.002 1.449-1.176 2.623-2.625 2.625h-0z"></path>
</svg>
