<!-- Generated by IcoMoon.io -->
<svg version="1.1" xmlns="http://www.w3.org/2000/svg" width="24" height="24" viewBox="0 0 24 24">
<title>deaf</title>
<path d="M12.008 3.375c3.061 0.022 5.566 2.53 5.584 5.591 0 0.009 0 0.020 0 0.032 0 1.507-0.592 2.876-1.557 3.887l0.002-0.002 1.061 1.061c1.234-1.28 1.994-3.024 1.994-4.946 0-0.014-0-0.028-0-0.042v0.002c-0.023-3.878-3.196-7.055-7.074-7.082-0.022-0-0.048-0-0.074-0-1.914 0-3.649 0.76-4.922 1.996l0.002-0.002 1.061 1.061c1.002-0.962 2.366-1.555 3.868-1.555 0.019 0 0.038 0 0.057 0l-0.003-0z"></path>
<path d="M16.842 15.808v0l-15.058-15.058h-1.067v1.054l4.608 4.608c-0.305 0.764-0.483 1.65-0.483 2.577 0 0.004 0 0.008 0 0.012v-0.001 1.5h1.5v-1.5c0-0.001 0-0.003 0-0.004 0-0.495 0.063-0.975 0.183-1.432l-0.009 0.039 1.328 1.328c-0.001 0.037-0.002 0.074-0.002 0.112v4.019l0.239 0.238c1.011 1.006 1.636 2.398 1.636 3.936 0 0.005 0 0.011-0 0.016v-0.001h1.5c0-0.006 0-0.013 0-0.020 0-1.849-0.713-3.531-1.879-4.787l0.004 0.004v-2.018l6 6v1.227c-0.002 1.639-1.33 2.967-2.969 2.969h-1.156v1.5h1.156c2.374-0.003 4.314-1.854 4.46-4.191l0.001-0.013 5.329 5.329h1.054v-1.067z"></path>
<path d="M11.936 4.875c-1.080 0.009-2.058 0.436-2.782 1.126l0.002-0.002 1.060 1.060c0.454-0.42 1.062-0.679 1.73-0.685h0.001c0.007-0 0.013-0 0.020-0 0 0 0 0 0 0 1.45 0 2.625 1.175 2.625 2.625 0 0 0 0 0 0v0h1.5c-0-2.278-1.847-4.125-4.125-4.125-0.011 0-0.022 0-0.033 0h0.002z"></path>
</svg>
