<!-- Generated by IcoMoon.io -->
<svg version="1.1" xmlns="http://www.w3.org/2000/svg" width="64" height="64" viewBox="0 0 64 64">
<title>drop1</title>
<path d="M32 61.775c-11.848 0-21.487-9.639-21.487-21.487-0-0.017-0-0.037-0-0.057 0-4.761 1.561-9.157 4.198-12.705l-0.040 0.057 15.645-24.436c0.361-0.558 0.98-0.922 1.684-0.922s1.323 0.364 1.68 0.914l0.005 0.008 15.645 24.436c2.597 3.491 4.158 7.887 4.158 12.648 0 0.020 0 0.040-0 0.060v-0.003c0 11.848-9.639 21.487-21.487 21.487zM32 7.934l-13.996 21.861q-0.036 0.056-0.076 0.11c-2.133 2.849-3.415 6.442-3.415 10.335 0 0.017 0 0.033 0 0.050v-0.003c0 9.643 7.845 17.487 17.487 17.487s17.487-7.845 17.487-17.487c0-0.014 0-0.031 0-0.047 0-3.893-1.282-7.486-3.448-10.38l0.032 0.045q-0.040-0.054-0.076-0.11z"></path>
</svg>
