<!-- Generated by IcoMoon.io -->
<svg version="1.1" xmlns="http://www.w3.org/2000/svg" width="24" height="24" viewBox="0 0 24 24">
<title>drop</title>
<path d="M12 23.166c-4.443 0-8.058-3.615-8.058-8.058-0-0.006-0-0.014-0-0.021 0-1.785 0.585-3.434 1.574-4.764l-0.015 0.021 5.867-9.164c0.135-0.209 0.368-0.346 0.632-0.346s0.496 0.136 0.63 0.343l0.002 0.003 5.867 9.164c0.974 1.309 1.559 2.958 1.559 4.743 0 0.007 0 0.015-0 0.022v-0.001c0 4.443-3.615 8.058-8.058 8.058zM12 2.975l-5.248 8.198q-0.014 0.021-0.029 0.041c-0.8 1.068-1.281 2.416-1.281 3.876 0 0.006 0 0.012 0 0.019v-0.001c0 3.616 2.942 6.558 6.558 6.558s6.558-2.942 6.558-6.558c0-0.005 0-0.012 0-0.018 0-1.46-0.481-2.807-1.293-3.893l0.012 0.017q-0.015-0.020-0.029-0.041z"></path>
</svg>
