<!-- Generated by IcoMoon.io -->
<svg version="1.1" xmlns="http://www.w3.org/2000/svg" width="24" height="24" viewBox="0 0 24 24">
<title>envelope-letter</title>
<path d="M18.75 7.65v-4.462c-0.001-0.518-0.42-0.937-0.937-0.938h-11.625c-0.518 0.001-0.937 0.42-0.938 0.937v4.462l-4.5 3.214v12.386h22.5v-12.386zM21.266 11.29l-2.516 1.645v-3.442zM6.75 3.75h10.5v10.166l-2.68 1.752-2.183-1.132-2.38 1.149-3.257-1.978zM12.363 16.214l9.387 4.867v0.669h-19.5v-0.654zM2.25 12.73l6.147 3.732-6.147 2.968zM16.099 16.461l5.651-3.695v6.625zM5.25 9.493v3.304l-2.5-1.518z"></path>
</svg>
