<!-- Generated by IcoMoon.io -->
<svg version="1.1" xmlns="http://www.w3.org/2000/svg" width="24" height="24" viewBox="0 0 24 24">
<title>equalizer</title>
<path d="M4.5 6.844v-6.094h-1.5v6.094c-1.307 0.343-2.256 1.514-2.256 2.906s0.949 2.563 2.235 2.902l0.021 0.005v10.594h1.5v-10.594c1.307-0.343 2.256-1.514 2.256-2.906s-0.949-2.563-2.235-2.902l-0.021-0.005zM3.75 11.25c-0.828 0-1.5-0.672-1.5-1.5s0.672-1.5 1.5-1.5c0.828 0 1.5 0.672 1.5 1.5v0c0 0.828-0.672 1.5-1.5 1.5v0z"></path>
<path d="M12.75 13.594v-12.844h-1.5v12.844c-1.307 0.343-2.256 1.514-2.256 2.906s0.949 2.563 2.235 2.902l0.021 0.005v3.844h1.5v-3.844c1.307-0.343 2.256-1.514 2.256-2.906s-0.949-2.563-2.235-2.902l-0.021-0.005zM12 18c-0.828 0-1.5-0.672-1.5-1.5s0.672-1.5 1.5-1.5c0.828 0 1.5 0.672 1.5 1.5v0c0 0.828-0.672 1.5-1.5 1.5v0z"></path>
<path d="M21 3.844v-3.094h-1.5v3.094c-1.307 0.343-2.256 1.514-2.256 2.906s0.949 2.563 2.235 2.902l0.021 0.005v13.594h1.5v-13.594c1.307-0.343 2.256-1.514 2.256-2.906s-0.949-2.563-2.235-2.902l-0.021-0.005zM20.25 8.25c-0.828 0-1.5-0.672-1.5-1.5s0.672-1.5 1.5-1.5c0.828 0 1.5 0.672 1.5 1.5v0c0 0.828-0.672 1.5-1.5 1.5v0z"></path>
</svg>
