<!-- Generated by IcoMoon.io -->
<svg version="1.1" xmlns="http://www.w3.org/2000/svg" width="24" height="24" viewBox="0 0 24 24">
<title>exposure</title>
<path d="M21.375 1.875h-18.75c-0.414 0-0.75 0.336-0.75 0.75v0 18.75c0 0.414 0.336 0.75 0.75 0.75v0h18.75c0.414 0 0.75-0.336 0.75-0.75v0-18.75c0-0.414-0.336-0.75-0.75-0.75v0zM3.375 3.375h16.189l-16.189 16.189zM20.625 20.625h-16.189l16.189-16.189z"></path>
<path d="M15.75 17.25v1.875h1.5v-1.875h1.875v-1.5h-1.875v-1.875h-1.5v1.875h-1.875v1.5h1.875z"></path>
<path d="M5.25 6.375h5.25v1.5h-5.25v-1.5z"></path>
</svg>
