<!-- Generated by IcoMoon.io -->
<svg version="1.1" xmlns="http://www.w3.org/2000/svg" width="24" height="24" viewBox="0 0 24 24">
<title>eyedropper</title>
<path d="M22.085 2.102l-0.188-0.188c-0.72-0.72-1.714-1.165-2.813-1.165s-2.093 0.445-2.813 1.165l-3.015 3.015-2.432-2.441-1.063 1.059 2.443 2.452-9.23 9.23c-1.276 1.269-2.065 3.026-2.065 4.967 0 0.007 0 0.013 0 0.020v-0.001 1.944c0.001 0.624 0.506 1.129 1.129 1.129h1.564c0.006 0 0.012 0 0.019 0 1.941 0 3.698-0.79 4.967-2.065l9.409-9.409 2.618 2.628 1.063-1.059-2.62-2.63 0.060-0.060-0.001-0.001 2.967-2.967c0.72-0.72 1.165-1.714 1.165-2.812s-0.445-2.093-1.165-2.813v0zM7.529 20.164c-0.999 1.004-2.382 1.626-3.911 1.626-0.005 0-0.011 0-0.016-0h-1.193v-1.573c-0-0.004-0-0.010-0-0.015 0-1.528 0.622-2.911 1.626-3.91l0.876-0.876h7.366zM13.756 13.938v-0.023h-7.344l6.903-6.903 3.683 3.683zM21.024 6.667l-2.877 2.877-3.691-3.691 2.877-2.877c0.448-0.448 1.068-0.726 1.752-0.726s1.304 0.277 1.752 0.726l0.187 0.187c0.448 0.449 0.724 1.068 0.724 1.752s-0.277 1.303-0.725 1.752l0-0z"></path>
</svg>
