<!-- Generated by IcoMoon.io -->
<svg version="1.1" xmlns="http://www.w3.org/2000/svg" width="24" height="24" viewBox="0 0 24 24">
<title>facebook</title>
<path d="M9 23.25h5.25v-9.375h3.304l0.525-5.25h-3.829v-1.875c0-0.429 0.066-0.55 0.105-0.584 0.044-0.039 0.249-0.166 1.020-0.166h3v-4.772l-0.64-0.095c-0.050-0.007-0.16-0.029-0.276-0.052-0.587-0.116-1.679-0.331-2.834-0.331-3.417 0-5.625 2.208-5.625 5.625v2.25h-3.375v5.25h3.375zM7.125 12.375v-2.25h3.375v-3.75c0-2.583 1.542-4.125 4.125-4.125 0.845 0 1.685 0.139 2.25 0.246v2.004h-1.5c-0.965 0-1.584 0.166-2.009 0.537-0.546 0.478-0.616 1.167-0.616 1.713v3.375h3.671l-0.225 2.25h-3.446v9.375h-2.25v-9.375z"></path>
</svg>
