<!-- Generated by IcoMoon.io -->
<svg version="1.1" xmlns="http://www.w3.org/2000/svg" width="24" height="24" viewBox="0 0 24 24">
<title>fastfood</title>
<path d="M22.227 5.625h-5.352v-3.75h-1.5v3.75h-6v1.5h0.84l0.288 2.25h-5.253c-2.070 0.002-3.748 1.68-3.75 3.75v0.75h13.125v-0.75c0-0.001 0-0.003 0-0.004 0-0.593-0.138-1.153-0.385-1.651l0.010 0.022c-0.45-0.912-1.232-1.603-2.184-1.923l-0.027-0.008-0.312-2.436h8.795l-1.683 13.125h-17.34v1.5h18.66l1.875-14.625h1.215v-1.5zM12.996 12.375h-9.868c0.319-0.881 1.148-1.499 2.121-1.5h5.625c0.973 0.001 1.802 0.619 2.116 1.484l0.005 0.016z"></path>
<path d="M14.25 16.5h0.375v-1.5h-13.125v1.5h12.75z"></path>
<path d="M14.25 19.125h0.375v-1.5h-13.125v1.5h12.75z"></path>
</svg>
