<!-- Generated by IcoMoon.io -->
<svg version="1.1" xmlns="http://www.w3.org/2000/svg" width="24" height="24" viewBox="0 0 24 24">
<title>fax</title>
<path d="M22.872 10.953l-2.997-2.664v-4.099l-3.439-3.439h-9.311v6h-3.375c-0.621 0.001-1.124 0.504-1.125 1.125v14.25c0.001 0.621 0.504 1.124 1.125 1.125h19.5v-11.457c-0-0.334-0.146-0.634-0.377-0.84l-0.001-0.001zM18.375 4.811v0.439h-3v-3h0.439zM8.625 2.25h5.25v4.5h4.5v3.375h-9.75zM7.125 21.75h-3v-13.5h3zM21.75 21.75h-13.125v-10.125h11.25v-1.33l1.875 1.667z"></path>
<path d="M10.875 16.125h1.5v1.5h-1.5v-1.5z"></path>
<path d="M13.875 16.125h1.5v1.5h-1.5v-1.5z"></path>
<path d="M10.875 19.125h1.5v1.5h-1.5v-1.5z"></path>
<path d="M13.875 19.125h1.5v1.5h-1.5v-1.5z"></path>
<path d="M16.875 16.125h1.5v1.5h-1.5v-1.5z"></path>
<path d="M16.875 19.125h1.5v1.5h-1.5v-1.5z"></path>
<path d="M10.875 13.125h7.5v1.5h-7.5v-1.5z"></path>
</svg>
