<!-- Generated by IcoMoon.io -->
<svg version="1.1" xmlns="http://www.w3.org/2000/svg" width="24" height="24" viewBox="0 0 24 24">
<title>featured-playlist</title>
<path d="M21.75 3.375h-19.5c-0.828 0-1.5 0.672-1.5 1.5v0 14.25c0 0.828 0.672 1.5 1.5 1.5v0h19.5c0.828 0 1.5-0.672 1.5-1.5v0-14.25c0-0.828-0.672-1.5-1.5-1.5v0zM21.75 19.125h-19.5v-14.25h19.5v14.25z"></path>
<path d="M10.875 8.625h8.625v1.5h-8.625v-1.5z"></path>
<path d="M8.25 12h11.25v1.5h-11.25v-1.5z"></path>
<path d="M8.25 15.375h11.25v1.5h-11.25v-1.5z"></path>
<path d="M4.168 6.75v6.043l4.649-3.254-4.649-2.789z"></path>
</svg>
