<!-- Generated by IcoMoon.io -->
<svg version="1.1" xmlns="http://www.w3.org/2000/svg" width="24" height="24" viewBox="0 0 24 24">
<title>filter-photo</title>
<path d="M20.625 1.875h-17.25c-0.828 0.001-1.499 0.672-1.5 1.5v17.25c0.001 0.828 0.672 1.499 1.5 1.5h17.25c0.828-0.001 1.499-0.672 1.5-1.5v-17.25c-0.001-0.828-0.672-1.499-1.5-1.5h-0zM20.625 20.625h-17.25v-17.25h17.25z"></path>
<path d="M5.654 12.269l0.001 0.106 0.015 1.077 3.846 1.238 1.211 3.845h2.545l1.211-3.845 3.846-1.238 0.015-1.077 0.001-0.106 0.003-0.239 0.015-1.091-3.681-1.247-1.436-4.254h-2.495l-1.436 4.254-3.681 1.247 0.015 1.091zM10.5 10.875l1.329-3.937h0.341l1.329 3.937 3.35 1.135c-0.002 0.165-0.002 0.18-0.005 0.345l-3.559 1.146-1.113 3.535h-0.345l-1.113-3.535-3.559-1.146c-0.002-0.165-0.002-0.18-0.005-0.345z"></path>
</svg>
