<!-- Generated by IcoMoon.io -->
<svg version="1.1" xmlns="http://www.w3.org/2000/svg" width="24" height="24" viewBox="0 0 24 24">
<title>find-in-page</title>
<path d="M15.686 0.75h-13.436v22.5h19.875v-16.061zM20.625 21.75h-16.875v-19.5h11.314l5.561 5.561z"></path>
<path d="M11.244 7.125c-0.001 0-0.002 0-0.003 0-2.482 0-4.493 2.012-4.493 4.493s2.012 4.493 4.493 4.493c0.939 0 1.811-0.288 2.532-0.781l-0.015 0.010 3.189 3.189 1.061-1.061-3.164-3.164c0.558-0.74 0.894-1.676 0.894-2.689 0-2.481-2.011-4.491-4.491-4.491-0.001 0-0.002 0-0.002 0h0zM8.25 11.619c0 0 0-0 0-0 0-1.653 1.34-2.994 2.994-2.994s2.994 1.34 2.994 2.994c0 1.653-1.34 2.994-2.994 2.994 0 0 0 0 0 0v0c-1.652-0.002-2.992-1.341-2.994-2.993v-0z"></path>
</svg>
