<!-- Generated by IcoMoon.io -->
<svg version="1.1" xmlns="http://www.w3.org/2000/svg" width="24" height="24" viewBox="0 0 24 24">
<title>fingerprint</title>
<path d="M6.961 15.604l5.723-5.924 1.079 1.042-5.723 5.924-1.079-1.042z"></path>
<path d="M15.488 13.239c0.678-0.678 1.097-1.615 1.097-2.65 0-2.071-1.679-3.75-3.75-3.75-1.036 0-1.974 0.42-2.653 1.1l-3.511 3.511c-1.030 1.035-2.455 1.676-4.030 1.676-0.005 0-0.011 0-0.016-0h-0.374v1.5h0.375c0.006 0 0.013 0 0.020 0 1.988 0 3.787-0.809 5.087-2.115l0-0 3.511-3.511c0.407-0.407 0.97-0.659 1.591-0.659 1.243 0 2.25 1.007 2.25 2.25 0 0.621-0.252 1.184-0.659 1.591v0l-3.197 3.253c-1.145 1.159-1.853 2.753-1.853 4.512 0 0.005 0 0.011 0 0.016v-0.001 1.789h1.5v-1.789c0-0.003-0-0.008-0-0.012 0-1.351 0.543-2.574 1.423-3.465l-0 0z"></path>
<path d="M18.616 15.415c-0.931 1.013-3.868 3.984-3.897 4.014l-0.005 0.005c-0.103 0.106-0.247 0.172-0.407 0.172-0.313 0-0.567-0.254-0.567-0.567 0-0.154 0.061-0.293 0.161-0.396l-0 0 3.71-3.815c1.152-1.153 1.865-2.745 1.865-4.504 0-1.761-0.714-3.355-1.868-4.508l-0-0c-2.486-2.486-6.53-2.486-9.016 0l-2.878 2.967c-1.504 1.341-2.040 1.341-3.463 1.341v1.5c1.713 0 2.619-0.074 4.483-1.741l0.020-0.018 2.903-2.993c0.882-0.878 2.098-1.421 3.441-1.421 2.692 0 4.875 2.183 4.875 4.875 0 1.345-0.545 2.562-1.425 3.444l0-0-3.721 3.826c-0.362 0.372-0.586 0.881-0.586 1.442 0 1.142 0.926 2.067 2.067 2.067 0.581 0 1.105-0.239 1.481-0.625l0-0c0.149-0.151 2.988-3.024 3.932-4.051 1.637-1.78 2.78-4.218 2.78-5.93h-1.5c0 1.324-1.025 3.437-2.384 4.915z"></path>
<path d="M19.928 3.633c-1.649-1.594-3.718-2.508-5.678-2.508v1.5c1.574 0 3.264 0.76 4.635 2.086 1.324 1.28 2.115 2.884 2.115 4.289h1.5c0-1.831-0.938-3.787-2.572-5.367z"></path>
<path d="M6.232 6.44c1.034-1.427 2.765-3.815 6.518-3.815v-1.5c-4.518 0-6.609 2.885-7.732 4.435-0.763 1.053-1.669 1.565-2.768 1.565v1.5c1.569 0 2.946-0.755 3.982-2.185z"></path>
<path d="M3.75 15.75h-1.5v1.5h1.5c1.449 0.002 2.623 1.176 2.625 2.625v1.875h1.5v-1.875c-0.003-2.277-1.848-4.122-4.125-4.125h-0z"></path>
</svg>
