<!-- Generated by IcoMoon.io -->
<svg version="1.1" xmlns="http://www.w3.org/2000/svg" width="24" height="24" viewBox="0 0 24 24">
<title>fire</title>
<path d="M14.585 12.075c0.258-0.423 0.524-0.861 0.788-1.313 0.881-1.51 1.043-3.032 0.481-4.523-1.134-3.008-4.925-4.841-5.802-5.134l-0.617-0.206-0.963 1.926 0.465 0.38c0.005 0.004 0.521 0.455 0.556 1.139 0.029 0.584-0.291 1.214-0.951 1.875-0.459 0.459-0.962 0.902-1.495 1.371-2.242 1.975-4.783 4.213-4.783 8.448q0 0.087 0.002 0.174c0.035 1.963 0.862 3.727 2.175 4.99l0.002 0.002c1.3 1.266 3.078 2.046 5.039 2.046 0.005 0 0.011 0 0.016-0h4.316l-0.533-1.082c-2.165-4.395-0.634-6.909 1.304-10.093zM9.496 21.75c-3.103 0-5.674-2.497-5.732-5.566q-0.001-0.072-0.001-0.146c0-3.557 2.173-5.471 4.274-7.322 0.527-0.464 1.072-0.944 1.564-1.436 0.973-0.973 1.44-1.986 1.388-3.011-0.024-0.459-0.147-0.884-0.346-1.262l0.008 0.017c1.305 0.713 3.165 2.065 3.798 3.744 0.4 1.062 0.279 2.122-0.373 3.238-0.256 0.439-0.519 0.871-0.773 1.288-1.86 3.055-3.624 5.952-1.849 10.455z"></path>
<path d="M21.949 15.99q-0.019-0.074-0.039-0.149c-0.541-1.984-3.537-4.536-3.877-4.82l-0.682-0.571-0.447 0.769c-1.020 1.753-1.895 3.352-2.276 5.166-0.435 2.069-0.142 4.171 0.895 6.428l0.201 0.437h0.51c0.005 0 0.011 0 0.017 0 1.881 0 3.554-0.885 4.628-2.261l0.010-0.013c0.771-0.973 1.238-2.218 1.238-3.572 0-0.502-0.064-0.99-0.185-1.454l0.009 0.040zM19.705 20.054c-0.72 0.923-1.787 1.546-3.002 1.672l-0.019 0.002c-1.478-3.558-0.606-5.983 1.061-8.958 1.108 1.031 2.459 2.517 2.718 3.467q0.016 0.060 0.031 0.12c0.083 0.314 0.13 0.675 0.13 1.047 0 1.005-0.346 1.93-0.926 2.66l0.007-0.009z"></path>
</svg>
