<!-- Generated by IcoMoon.io -->
<svg version="1.1" xmlns="http://www.w3.org/2000/svg" width="24" height="24" viewBox="0 0 24 24">
<title>flight-takeoff</title>
<path d="M0.75 21.75h22.5v1.5h-22.5v-1.5z"></path>
<path d="M22.514 10.65c1.113-0.524 1.249-1.362 1.004-1.972-0.271-0.676-1.058-1.24-2.158-1.546-1.096-0.305-2.262-0.284-3.282 0.061l-0.042 0.014-3.051 1.45-8.905-3.54c-0.247-0.102-0.533-0.161-0.834-0.161-0.578 0-1.104 0.219-1.501 0.578l0.002-0.002-1.192 1.069c-0.23 0.207-0.374 0.505-0.374 0.838 0 0.377 0.186 0.712 0.471 0.916l0.003 0.002 5.52 3.912-2.117 1.109-1.677-1.532c-0.399-0.365-0.933-0.588-1.518-0.588-0.323 0-0.631 0.068-0.909 0.191l0.014-0.006-0.912 0.395c-0.402 0.177-0.678 0.573-0.678 1.032 0 0.193 0.049 0.375 0.135 0.534l-0.003-0.006 3.413 6.414zM2.565 12.819c0.088-0.039 0.19-0.062 0.298-0.062 0.195 0 0.373 0.075 0.507 0.197l-0.001-0.001 2.453 2.242 5.219-2.734-7.135-5.057 0.842-0.755c0.132-0.119 0.307-0.192 0.5-0.192 0.1 0 0.196 0.020 0.283 0.056l-0.005-0.002 9.513 3.782 3.56-1.692c0.725-0.235 1.587-0.242 2.375-0.019 0.648 0.183 0.993 0.45 1.11 0.59-0.061 0.046-0.131 0.087-0.205 0.12l-0.007 0.003-0.007 0.003-17.299 8.527-2.54-4.772z"></path>
</svg>
