<!-- Generated by IcoMoon.io -->
<svg version="1.1" xmlns="http://www.w3.org/2000/svg" width="24" height="24" viewBox="0 0 24 24">
<title>flip-to-front</title>
<path d="M21.75 0.75h-15c-0.828 0.001-1.499 0.672-1.5 1.5v15c0.001 0.828 0.672 1.499 1.5 1.5h15c0.828-0.001 1.499-0.672 1.5-1.5v-15c-0.001-0.828-0.672-1.499-1.5-1.5h-0zM21.75 17.25h-15v-15h15l0.001 15z"></path>
<path d="M3.649 21.75h1.442v1.5h-1.442v-1.5z"></path>
<path d="M18 21.75h1.442v1.5h-1.442v-1.5z"></path>
<path d="M9.389 21.75h1.442v1.5h-1.442v-1.5z"></path>
<path d="M6.519 21.75h1.442v1.5h-1.442v-1.5z"></path>
<path d="M12.26 21.75h1.442v1.5h-1.442v-1.5z"></path>
<path d="M15.13 21.75h1.442v1.5h-1.442v-1.5z"></path>
<path d="M0.75 21.75h1.5v1.5h-1.5v-1.5z"></path>
<path d="M0.75 10.514h1.5v1.413h-1.5v-1.413z"></path>
<path d="M0.75 13.334h1.5v1.413h-1.5v-1.413z"></path>
<path d="M0.75 18.974h1.5v1.413h-1.5v-1.413z"></path>
<path d="M0.75 16.154h1.5v1.413h-1.5v-1.413z"></path>
<path d="M0.75 7.695h1.5v1.413h-1.5v-1.413z"></path>
<path d="M0.75 4.875h1.5v1.413h-1.5v-1.413z"></path>
</svg>
