<!-- Generated by IcoMoon.io -->
<svg version="1.1" xmlns="http://www.w3.org/2000/svg" width="24" height="24" viewBox="0 0 24 24">
<title>flip</title>
<path d="M13.875 1.875h1.5v1.5h-1.5v-1.5z"></path>
<path d="M17.25 1.875h1.5v1.5h-1.5v-1.5z"></path>
<path d="M13.875 20.625h1.5v1.5h-1.5v-1.5z"></path>
<path d="M17.25 20.625h1.5v1.5h-1.5v-1.5z"></path>
<path d="M20.625 1.875h1.5v1.5h-1.5v-1.5z"></path>
<path d="M20.625 4.943h1.5v1.568h-1.5v-1.568z"></path>
<path d="M20.625 8.080h1.5v1.568h-1.5v-1.568z"></path>
<path d="M20.625 17.489h1.5v1.568h-1.5v-1.568z"></path>
<path d="M20.625 11.216h1.5v1.568h-1.5v-1.568z"></path>
<path d="M20.625 14.352h1.5v1.568h-1.5v-1.568z"></path>
<path d="M20.625 20.625h1.5v1.5h-1.5v-1.5z"></path>
<path d="M10.5 1.875h-7.875c-0.414 0-0.75 0.336-0.75 0.75v0 18.75c0 0.414 0.336 0.75 0.75 0.75v0h7.875v1.125h1.5v-22.5h-1.5zM10.5 20.625h-7.125v-17.25h7.125z"></path>
</svg>
