<!-- Generated by IcoMoon.io -->
<svg version="1.1" xmlns="http://www.w3.org/2000/svg" width="24" height="24" viewBox="0 0 24 24">
<title>flower</title>
<path d="M19.125 14.25c-3.131 0.003-5.834 1.83-7.105 4.476l-0.020 0.047c-1.291-2.693-3.994-4.52-7.125-4.523h-4.125v0.75c0 4.342 3.533 7.875 7.875 7.875h6.75c4.342 0 7.875-3.533 7.875-7.875v-0.75zM8.625 21.375c-3.262 0-5.959-2.462-6.331-5.625h2.581c3.262 0 5.959 2.462 6.331 5.625zM15.375 21.375h-2.581c0.372-3.163 3.070-5.625 6.331-5.625h2.581c-0.372 3.163-3.070 5.625-6.331 5.625z"></path>
<path d="M7.933 12.317c0.151 0.877 0.562 1.639 1.15 2.224l0.22 0.22h0.311c0.003 0 0.007 0 0.011 0 0.891 0 1.715-0.284 2.387-0.768l-0.012 0.008c0.66 0.475 1.484 0.759 2.375 0.759 0.004 0 0.008 0 0.012-0h0.31l0.22-0.22c0.588-0.585 1-1.347 1.147-2.2l0.003-0.024c0.877-0.151 1.639-0.562 2.224-1.15l0.22-0.22v-0.311c0-0.003 0-0.007 0-0.011 0-0.891-0.284-1.715-0.768-2.387l0.008 0.012c0.475-0.66 0.759-1.484 0.759-2.375 0-0.004 0-0.008-0-0.012v0.001-0.311l-0.22-0.22c-0.585-0.588-1.347-1-2.2-1.147l-0.024-0.003c-0.151-0.877-0.562-1.639-1.15-2.224l-0.22-0.22h-0.311c-0.003 0-0.007-0-0.011-0-0.891 0-1.715 0.284-2.387 0.768l0.012-0.008c-0.66-0.475-1.484-0.759-2.375-0.759-0.004 0-0.008 0-0.012 0h-0.31l-0.22 0.22c-0.588 0.585-1 1.347-1.147 2.2l-0.003 0.024c-0.877 0.151-1.639 0.562-2.224 1.15l-0.22 0.22v0.311c0 0.003-0 0.007-0 0.011 0 0.891 0.284 1.715 0.768 2.387l-0.008-0.012c-0.475 0.66-0.759 1.484-0.759 2.375 0 0.004 0 0.008 0 0.012v-0.001 0.311l0.22 0.22c0.585 0.588 1.347 1 2.2 1.147l0.024 0.003zM7.757 7.72c-0.403-0.401-0.675-0.932-0.749-1.525l-0.001-0.013c0.439-0.347 1-0.557 1.61-0.557 0.003 0 0.005 0 0.008 0h0.75v-0.75c0-0.002 0-0.005 0-0.008 0-0.61 0.21-1.171 0.561-1.615l-0.004 0.005c0.606 0.074 1.137 0.347 1.537 0.75l0.53 0.53 0.53-0.53c0.401-0.403 0.932-0.675 1.525-0.749l0.013-0.001c0.347 0.439 0.557 1 0.557 1.61 0 0.003 0 0.005-0 0.008v-0 0.75h0.75c0.002 0 0.005 0 0.008 0 0.61 0 1.171 0.21 1.615 0.561l-0.005-0.004c-0.074 0.606-0.347 1.137-0.75 1.538l-0.53 0.53 0.53 0.53c0.403 0.401 0.675 0.932 0.749 1.525l0.001 0.013c-0.439 0.347-1 0.557-1.61 0.557-0.003 0-0.005 0-0.008-0h-0.75v0.75c0 0.002 0 0.005 0 0.008 0 0.61-0.21 1.171-0.561 1.615l0.004-0.005c-0.606-0.074-1.137-0.347-1.538-0.75l-0.53-0.53-0.53 0.53c-0.401 0.403-0.932 0.675-1.525 0.749l-0.013 0.001c-0.347-0.439-0.557-1-0.557-1.61 0-0.003 0-0.005 0-0.008v0-0.75h-0.75c-0.002 0-0.005 0-0.008 0-0.61 0-1.171-0.21-1.615-0.561l0.005 0.004c0.074-0.606 0.347-1.137 0.75-1.537l0.53-0.53z"></path>
</svg>
