<!-- Generated by IcoMoon.io -->
<svg version="1.1" xmlns="http://www.w3.org/2000/svg" width="24" height="24" viewBox="0 0 24 24">
<title>frown</title>
<path d="M12 0.75c-6.213 0-11.25 5.037-11.25 11.25s5.037 11.25 11.25 11.25 11.25-5.037 11.25-11.25-5.037-11.25-11.25-11.25zM18.894 18.894c-1.757 1.752-4.182 2.835-6.859 2.835-5.365 0-9.715-4.349-9.715-9.715s4.349-9.715 9.715-9.715c5.365 0 9.715 4.349 9.715 9.715 0 1.365-0.282 2.664-0.79 3.843l0.024-0.063c-0.517 1.205-1.222 2.234-2.090 3.099l-0 0z"></path>
<path d="M7.125 9.375h1.875v1.875h-1.875v-1.875z"></path>
<path d="M15 9.375h1.875v1.875h-1.875v-1.875z"></path>
<path d="M12 13.5c-2.277 0.003-4.122 1.848-4.125 4.125v0h1.5c0-1.45 1.175-2.625 2.625-2.625s2.625 1.175 2.625 2.625v0h1.5c-0.003-2.277-1.848-4.122-4.125-4.125h-0z"></path>
</svg>
