<!-- Generated by IcoMoon.io -->
<svg version="1.1" xmlns="http://www.w3.org/2000/svg" width="24" height="24" viewBox="0 0 24 24">
<title>git</title>
<path d="M22.607 10.939l-9.546-9.546c-0.272-0.271-0.647-0.439-1.061-0.439s-0.789 0.168-1.061 0.439l-9.546 9.546c-0.271 0.272-0.439 0.647-0.439 1.061s0.168 0.789 0.439 1.061l9.546 9.546c0.272 0.271 0.647 0.439 1.061 0.439s0.789-0.168 1.061-0.439l9.546-9.546c0.271-0.272 0.439-0.647 0.439-1.061s-0.168-0.789-0.439-1.061l0 0zM12.001 21.547l-0.001-0.001-9.546-9.546 5.681-5.681 2.087 2.087c-0.061 0.177-0.097 0.382-0.097 0.594 0 0.763 0.456 1.42 1.111 1.713l0.012 0.005v4.065c-0.666 0.297-1.123 0.954-1.123 1.717 0 1.035 0.839 1.875 1.875 1.875s1.875-0.839 1.875-1.875c0-0.765-0.458-1.423-1.115-1.715l-0.012-0.005v-3.848l1.599 1.599c-0.061 0.177-0.097 0.382-0.097 0.594 0 1.036 0.84 1.875 1.875 1.875s1.875-0.84 1.875-1.875c0-1.036-0.84-1.875-1.875-1.875-0.28 0-0.545 0.061-0.784 0.171l0.012-0.005-1.645-1.645c0.105-0.227 0.166-0.492 0.166-0.772 0-1.035-0.839-1.875-1.875-1.875-0.28 0-0.545 0.061-0.784 0.171l0.012-0.005-2.033-2.033 2.804-2.804 9.546 9.546z"></path>
</svg>
