<!-- Generated by IcoMoon.io -->
<svg version="1.1" xmlns="http://www.w3.org/2000/svg" width="24" height="24" viewBox="0 0 24 24">
<title>github</title>
<path d="M21.051 3.483l-0.131-0.328-0.336-0.108c-0.551-0.177-1.252-0.1-2.144 0.236-0.771 0.286-1.431 0.609-2.052 0.988l0.052-0.029-0.503 0.318c-1.136-0.298-2.441-0.47-3.786-0.47-1.267 0-2.498 0.152-3.676 0.439l0.106-0.022c-0.515-0.67-1.269-1.146-2.213-1.392-0.451-0.118-0.969-0.185-1.502-0.185-0.38 0-0.752 0.034-1.113 0.1l0.038-0.006-0.322 0.061-0.174 0.278c-0.542 0.864-0.662 1.857-0.668 2.537-0 0.024-0.001 0.053-0.001 0.081 0 0.641 0.106 1.257 0.302 1.832l-0.012-0.040c-0.987 1.219-1.487 2.674-1.487 4.332 0 1.224 0.152 2.327 0.452 3.278 0.305 0.966 0.708 1.767 1.198 2.38 0.511 0.627 1.128 1.146 1.827 1.534l0.032 0.016c0.75 0.418 1.431 0.773 2.169 0.881 1.563 0.239 3.367 0.376 5.202 0.377h0c1.723 0 3.391-0.126 4.883-0.379 0.764-0.129 1.482-0.505 2.153-0.878 0.73-0.404 1.347-0.916 1.855-1.522l0.008-0.010c0.501-0.609 0.909-1.413 1.215-2.39 0.299-0.959 0.451-2.064 0.451-3.286 0-1.668-0.506-3.131-1.505-4.355 0.399-1.299 0.292-2.732-0.319-4.267zM21.375 12.105c0 1.070-0.129 2.025-0.383 2.839-0.248 0.792-0.564 1.426-0.941 1.884-0.398 0.473-0.873 0.865-1.409 1.162l-0.026 0.013c-0.556 0.31-1.144 0.62-1.674 0.71-2.83 0.48-6.335 0.479-9.617-0.003-0.488-0.072-1.016-0.35-1.657-0.707-0.557-0.307-1.028-0.7-1.411-1.168l-0.007-0.008c-0.374-0.468-0.69-1.105-0.939-1.894-0.254-0.805-0.382-1.756-0.382-2.827 0-1.459 0.46-2.663 1.407-3.682l0.358-0.385-0.239-0.468c-0.388-0.758-0.462-2.165-0.043-3.119 0.892-0.080 2.528 0.041 3.168 1.265l0.282 0.538 0.585-0.163c1.111-0.318 2.387-0.501 3.706-0.501s2.595 0.183 3.804 0.525l-0.098-0.024 0.321 0.090 1.051-0.664c0.495-0.302 1.069-0.582 1.669-0.807l0.071-0.023c0.389-0.147 0.66-0.205 0.842-0.225 0.392 1.182 0.395 2.222 0.010 3.168l-0.18 0.443 0.325 0.35c0.947 1.019 1.407 2.224 1.407 3.682z"></path>
</svg>
