<!-- Generated by IcoMoon.io -->
<svg version="1.1" xmlns="http://www.w3.org/2000/svg" width="24" height="24" viewBox="0 0 24 24">
<title>gitlab</title>
<path d="M21.676 9.512l-0.002-0.006-0.002-0.006-2.062-6.105c-0.258-0.748-0.956-1.275-1.776-1.275s-1.518 0.527-1.772 1.262l-0.004 0.013-1.718 5.085h-4.679l-1.718-5.085c-0.258-0.748-0.956-1.275-1.776-1.275s-1.518 0.527-1.772 1.262l-0.004 0.013-2.066 6.117-1.088 3.308c-0.060 0.175-0.095 0.377-0.095 0.587 0 0.617 0.298 1.164 0.759 1.505l0.005 0.004 8.983 6.617c0.307 0.228 0.693 0.365 1.112 0.365s0.805-0.137 1.117-0.369l-0.005 0.004 8.983-6.617c0.465-0.344 0.764-0.891 0.764-1.508 0-0.21-0.035-0.412-0.098-0.6l0.004 0.013zM21.205 13.708l-8.983 6.617c-0.061 0.046-0.139 0.073-0.222 0.073s-0.161-0.027-0.223-0.074l0.001 0.001-8.983-6.617c-0.093-0.069-0.153-0.179-0.153-0.302 0-0.042 0.007-0.082 0.020-0.12l-0.001 0.003 1.088-3.309 2.062-6.105c0.052-0.15 0.191-0.255 0.355-0.255s0.304 0.105 0.354 0.252l0.001 0.003 2.062 6.105h6.832l2.062-6.105c0.052-0.15 0.191-0.255 0.355-0.255s0.304 0.105 0.354 0.252l0.001 0.003 2.062 6.105 1.088 3.308c0.012 0.035 0.019 0.075 0.019 0.117 0 0.123-0.060 0.233-0.152 0.301l-0.001 0.001z"></path>
</svg>
