<!-- Generated by IcoMoon.io -->
<svg version="1.1" xmlns="http://www.w3.org/2000/svg" width="64" height="64" viewBox="0 0 64 64">
<title>globe</title>
<path d="M32 2c-16.569 0-30 13.431-30 30s13.431 30 30 30 30-13.431 30-30-13.431-30-30-30zM57.94 30.25h-11.965c-0.188-7.050-1.467-13.645-3.652-18.732-0.694-1.634-1.464-3.032-2.354-4.341l0.056 0.087c9.901 3.21 17.198 12.197 17.915 22.986zM32 58c-2.322 0-4.744-2.541-6.648-6.972-1.941-4.519-3.099-10.412-3.315-16.778h19.925c-0.216 6.366-1.374 12.259-3.315 16.778-1.903 4.431-4.326 6.972-6.648 6.972zM22.026 30.25c0.183-6.51 1.347-12.545 3.326-17.153 1.903-4.431 4.326-6.972 6.648-6.972s4.744 2.541 6.648 6.972c1.979 4.608 3.144 10.643 3.326 17.153zM23.975 7.264c-0.834 1.222-1.604 2.621-2.236 4.092l-0.062 0.163c-2.185 5.087-3.464 11.681-3.652 18.732h-11.965c0.717-10.789 8.014-19.776 17.915-22.986zM6.098 34.25h11.937c0.222 6.909 1.496 13.36 3.642 18.357 0.671 1.576 1.403 2.921 2.247 4.186l-0.058-0.092c-9.692-3.19-16.865-11.924-17.768-22.45zM40.134 56.7c0.785-1.173 1.518-2.518 2.126-3.929l0.063-0.164c2.146-4.996 3.419-11.447 3.642-18.357h11.937c-0.903 10.526-8.076 19.26-17.768 22.45z"></path>
</svg>
