<!-- Generated by IcoMoon.io -->
<svg version="1.1" xmlns="http://www.w3.org/2000/svg" width="24" height="24" viewBox="0 0 24 24">
<title>golf-alt</title>
<path d="M7.587 15h9l0.231-1.5h-9l-0.231 1.5z"></path>
<path d="M21.896 0.75l-0.77 5.25h-1.384l0.859-5.25h-1.52l-1.656 10.125h-10.121c-1.093 0.001-2.004 0.781-2.208 1.815l-0.002 0.014-0.438 2.302c-2.181 0.12-3.905 1.918-3.905 4.119 0 2.278 1.847 4.125 4.125 4.125 1.878 0 3.462-1.254 3.961-2.971l0.007-0.029h5.877c3.395-0 6.205-2.507 6.68-5.771l0.004-0.036 2.007-13.693zM4.875 21.75c-1.45 0-2.625-1.175-2.625-2.625s1.175-2.625 2.625-2.625c1.45 0 2.625 1.175 2.625 2.625v0c-0.002 1.449-1.176 2.623-2.625 2.625h-0zM19.92 14.23c-0.146 1.013-0.564 1.908-1.177 2.634l0.006-0.008c-0.378 0.449-0.819 0.829-1.314 1.131l-0.023 0.013c-0.768 0.471-1.697 0.75-2.692 0.75h-5.738c-0.038-0.414-0.132-0.796-0.275-1.153l0.010 0.028h7.465l0.231-1.5h-8.71q-0.123-0.116-0.255-0.222c-0.37-0.298-0.803-0.538-1.273-0.694l-0.029-0.008 0.422-2.216c0.069-0.349 0.372-0.609 0.737-0.61h11.396l0.797-4.875h1.409z"></path>
</svg>
