<!-- Generated by IcoMoon.io -->
<svg version="1.1" xmlns="http://www.w3.org/2000/svg" width="24" height="24" viewBox="0 0 24 24">
<title>grain</title>
<path d="M4.125 6c1.45 0 2.625-1.175 2.625-2.625s-1.175-2.625-2.625-2.625c-1.45 0-2.625 1.175-2.625 2.625v0c0.002 1.449 1.176 2.623 2.625 2.625h0zM4.125 2.25c0.621 0 1.125 0.504 1.125 1.125s-0.504 1.125-1.125 1.125c-0.621 0-1.125-0.504-1.125-1.125v0c0.001-0.621 0.504-1.124 1.125-1.125h0z"></path>
<path d="M9.375 11.75c1.45 0 2.625-1.175 2.625-2.625s-1.175-2.625-2.625-2.625c-1.45 0-2.625 1.175-2.625 2.625v0c0.002 1.449 1.176 2.623 2.625 2.625h0zM9.375 8c0.621 0 1.125 0.504 1.125 1.125s-0.504 1.125-1.125 1.125c-0.621 0-1.125-0.504-1.125-1.125v0c0.001-0.621 0.504-1.124 1.125-1.125h0z"></path>
<path d="M4.125 12.25c-1.45 0-2.625 1.175-2.625 2.625s1.175 2.625 2.625 2.625c1.45 0 2.625-1.175 2.625-2.625v0c-0.002-1.449-1.176-2.623-2.625-2.625h-0zM4.125 16c-0.621 0-1.125-0.504-1.125-1.125s0.504-1.125 1.125-1.125c0.621 0 1.125 0.504 1.125 1.125v0c-0.001 0.621-0.504 1.124-1.125 1.125h-0z"></path>
<path d="M9.375 18c-1.45 0-2.625 1.175-2.625 2.625s1.175 2.625 2.625 2.625c1.45 0 2.625-1.175 2.625-2.625v0c-0.002-1.449-1.176-2.623-2.625-2.625h-0zM9.375 21.75c-0.621 0-1.125-0.504-1.125-1.125s0.504-1.125 1.125-1.125c0.621 0 1.125 0.504 1.125 1.125v0c-0.001 0.621-0.504 1.124-1.125 1.125h-0z"></path>
<path d="M14.625 6c1.45 0 2.625-1.175 2.625-2.625s-1.175-2.625-2.625-2.625c-1.45 0-2.625 1.175-2.625 2.625v0c0.002 1.449 1.176 2.623 2.625 2.625h0zM14.625 2.25c0.621 0 1.125 0.504 1.125 1.125s-0.504 1.125-1.125 1.125c-0.621 0-1.125-0.504-1.125-1.125v0c0.001-0.621 0.504-1.124 1.125-1.125h0z"></path>
<path d="M19.875 11.75c1.45 0 2.625-1.175 2.625-2.625s-1.175-2.625-2.625-2.625c-1.45 0-2.625 1.175-2.625 2.625v0c0.002 1.449 1.176 2.623 2.625 2.625h0zM19.875 8c0.621 0 1.125 0.504 1.125 1.125s-0.504 1.125-1.125 1.125c-0.621 0-1.125-0.504-1.125-1.125v0c0.001-0.621 0.504-1.124 1.125-1.125h0z"></path>
<path d="M14.625 12.25c-1.45 0-2.625 1.175-2.625 2.625s1.175 2.625 2.625 2.625c1.45 0 2.625-1.175 2.625-2.625v0c-0.002-1.449-1.176-2.623-2.625-2.625h-0zM14.625 16c-0.621 0-1.125-0.504-1.125-1.125s0.504-1.125 1.125-1.125c0.621 0 1.125 0.504 1.125 1.125v0c-0.001 0.621-0.504 1.124-1.125 1.125h-0z"></path>
<path d="M19.875 18c-1.45 0-2.625 1.175-2.625 2.625s1.175 2.625 2.625 2.625c1.45 0 2.625-1.175 2.625-2.625v0c-0.002-1.449-1.176-2.623-2.625-2.625h-0zM19.875 21.75c-0.621 0-1.125-0.504-1.125-1.125s0.504-1.125 1.125-1.125c0.621 0 1.125 0.504 1.125 1.125v0c-0.001 0.621-0.504 1.124-1.125 1.125h-0z"></path>
</svg>
