<!-- Generated by IcoMoon.io -->
<svg version="1.1" xmlns="http://www.w3.org/2000/svg" width="64" height="64" viewBox="0 0 64 64">
<title>graph</title>
<path d="M54 4c-0.001 0-0.002 0-0.003 0-4.416 0-7.997 3.58-7.997 7.997 0 2.825 1.464 5.307 3.675 6.73l0.032 0.019-5.22 18.271c-0.161-0.010-0.323-0.016-0.487-0.016-0.002 0-0.005 0-0.008 0-1.797 0-3.454 0.595-4.786 1.599l0.020-0.015-9.644-8.037c0.266-0.762 0.419-1.641 0.419-2.555 0-4.418-3.582-8-8-8s-8 3.582-8 8c0 2.241 0.921 4.267 2.406 5.719l0.001 0.001-5.662 11.323c-0.246-0.023-0.494-0.036-0.746-0.036-0.003 0-0.007 0-0.010 0-4.424 0-8.010 3.586-8.010 8.010s3.586 8.010 8.010 8.010c4.424 0 8.010-3.586 8.010-8.010 0-2.727-1.362-5.135-3.443-6.582l-0.026-0.017 5.349-10.699c0.636 0.182 1.367 0.287 2.122 0.287 2.074 0 3.962-0.791 5.381-2.087l-0.006 0.006 9.338 7.782c-0.451 0.971-0.715 2.107-0.715 3.305 0 4.418 3.582 8 8 8s8-3.582 8-8c0-2.825-1.464-5.308-3.675-6.731l-0.032-0.019 5.22-18.271c0.161 0.010 0.323 0.016 0.487 0.016 4.418 0 8-3.582 8-8s-3.582-8-8-8v0zM10 57c-2.209 0-4-1.791-4-4s1.791-4 4-4c2.209 0 4 1.791 4 4v0c-0.003 2.208-1.792 3.997-4 4h-0zM22 32c-2.209 0-4-1.791-4-4s1.791-4 4-4c2.209 0 4 1.791 4 4v0c-0.003 2.208-1.792 3.997-4 4h-0zM44 49c-2.209 0-4-1.791-4-4s1.791-4 4-4c2.209 0 4 1.791 4 4v0c-0.003 2.208-1.792 3.997-4 4h-0zM54 16c-2.209 0-4-1.791-4-4s1.791-4 4-4c2.209 0 4 1.791 4 4v0c-0.003 2.208-1.792 3.997-4 4h-0z"></path>
</svg>
