<!-- Generated by IcoMoon.io -->
<svg version="1.1" xmlns="http://www.w3.org/2000/svg" width="24" height="24" viewBox="0 0 24 24">
<title>graph</title>
<path d="M20.25 1.5c-0 0-0.001 0-0.001 0-1.656 0-2.999 1.343-2.999 2.999 0 1.059 0.549 1.99 1.378 2.524l0.012 0.007-1.958 6.852c-0.060-0.004-0.121-0.006-0.183-0.006-0.001 0-0.002 0-0.003 0-0.674 0-1.295 0.223-1.795 0.6l0.008-0.005-3.617-3.014c0.1-0.286 0.157-0.615 0.157-0.958 0-1.657-1.343-3-3-3s-3 1.343-3 3c0 0.84 0.346 1.6 0.902 2.145l0.001 0.001-2.123 4.246c-0.092-0.009-0.185-0.014-0.28-0.014-0.001 0-0.002 0-0.004 0-1.659 0-3.004 1.345-3.004 3.004s1.345 3.004 3.004 3.004c1.659 0 3.004-1.345 3.004-3.004 0-1.022-0.511-1.926-1.291-2.468l-0.010-0.006 2.006-4.012c0.239 0.068 0.513 0.108 0.796 0.108 0.778 0 1.486-0.297 2.018-0.783l-0.002 0.002 3.502 2.918c-0.169 0.364-0.268 0.79-0.268 1.24 0 1.657 1.343 3 3 3s3-1.343 3-3c0-1.059-0.549-1.991-1.378-2.524l-0.012-0.007 1.958-6.852c0.060 0.004 0.121 0.006 0.183 0.006 1.657 0 3-1.343 3-3s-1.343-3-3-3v0zM3.75 21.375c-0.828 0-1.5-0.672-1.5-1.5s0.672-1.5 1.5-1.5c0.828 0 1.5 0.672 1.5 1.5v0c-0.001 0.828-0.672 1.499-1.5 1.5h-0zM8.25 12c-0.828 0-1.5-0.672-1.5-1.5s0.672-1.5 1.5-1.5c0.828 0 1.5 0.672 1.5 1.5v0c-0.001 0.828-0.672 1.499-1.5 1.5h-0zM16.5 18.375c-0.828 0-1.5-0.672-1.5-1.5s0.672-1.5 1.5-1.5c0.828 0 1.5 0.672 1.5 1.5v0c-0.001 0.828-0.672 1.499-1.5 1.5h-0zM20.25 6c-0.828 0-1.5-0.672-1.5-1.5s0.672-1.5 1.5-1.5c0.828 0 1.5 0.672 1.5 1.5v0c-0.001 0.828-0.672 1.499-1.5 1.5h-0z"></path>
</svg>
