<!-- Generated by IcoMoon.io -->
<svg version="1.1" xmlns="http://www.w3.org/2000/svg" width="24" height="24" viewBox="0 0 24 24">
<title>grid-slash</title>
<path d="M8.243 3.729v1.258l1.5 1.5v-2.758h4.514v4.514h-2.758l1.5 1.5h1.258v1.258l1.5 1.5v-2.758h4.514v4.514h-2.758l1.5 1.5h1.258v1.258l1.5 1.5v-15.537c0-0.414-0.336-0.75-0.75-0.75v0h-15.537l1.5 1.5zM20.271 8.243h-4.514v-4.514h4.514z"></path>
<path d="M1.811 0.781h-1.061v1.061l1.479 1.479v17.701c0 0.414 0.336 0.75 0.75 0.75v0h17.701l1.51 1.51h1.061v-1.061zM13.165 14.257h-3.422v-3.422zM3.729 9.743h4.514v4.514h-4.514zM7.151 8.243h-3.422v-3.422zM3.729 15.757h4.514v4.514h-4.514zM9.743 15.757h4.514v4.514h-4.514zM15.757 20.271v-3.422l3.422 3.422z"></path>
</svg>
