<!-- Generated by IcoMoon.io -->
<svg version="1.1" xmlns="http://www.w3.org/2000/svg" width="24" height="24" viewBox="0 0 24 24">
<title>hand-point-left</title>
<path d="M18.646 22.125h-7.486c-0.514-0.001-0.947-0.346-1.082-0.816l-0.002-0.008-1.646-5.926h-5.242c-1.346 0-2.438-1.091-2.438-2.438s1.091-2.438 2.438-2.438v0h8.438v-1.145l-1.060-0.867c-0.952-0.783-1.554-1.961-1.554-3.28 0-1.071 0.397-2.049 1.053-2.795l-0.004 0.005c0.207-0.236 0.51-0.384 0.847-0.384 0.291 0 0.555 0.11 0.755 0.291l-0.001-0.001 11.59 10.468v6.758l-4.025 2.415c-0.165 0.101-0.365 0.16-0.579 0.16v0zM11.445 20.625h7.097l3.208-1.925v-5.242l-10.793-9.748c-0.28 0.422-0.446 0.941-0.446 1.498 0 0.852 0.389 1.614 1 2.116l0.005 0.004 1.61 1.317v3.355h-9.938c-0.518 0-0.938 0.42-0.938 0.938s0.42 0.938 0.938 0.938v0h6.383zM10.655 3.437l0.001 0.001z"></path>
</svg>
