<!-- Generated by IcoMoon.io -->
<svg version="1.1" xmlns="http://www.w3.org/2000/svg" width="24" height="24" viewBox="0 0 24 24">
<title>hdr</title>
<path d="M13.5 4.875h-4.5v13.5h4.5c0.828-0.001 1.499-0.672 1.5-1.5v-10.5c-0.001-0.828-0.672-1.499-1.5-1.5h-0zM13.5 16.875h-3v-10.5h3z"></path>
<path d="M6 10.875h-3v-6h-1.5v13.5h1.5v-6h3v6h1.5v-13.5h-1.5v6z"></path>
<path d="M22.5 10.875v-4.5c-0.001-0.828-0.672-1.499-1.5-1.5h-4.5v13.5h1.5v-6h1.367l1.258 3.144v2.856h1.5v-3.144l-1.142-2.856h0.017c0.828-0.001 1.499-0.672 1.5-1.5v-0zM18 10.125v-3.75h3v4.5h-3z"></path>
</svg>
