<!-- Generated by IcoMoon.io -->
<svg version="1.1" xmlns="http://www.w3.org/2000/svg" width="24" height="24" viewBox="0 0 24 24">
<title>healing</title>
<path d="M7.36 21.149c-0-0-0-0-0.001-0.001v0l-4.508-4.508 2.614-2.614-1.061-1.061-2.614 2.614c-0.271 0.271-0.439 0.646-0.439 1.061s0.168 0.789 0.439 1.061l4.508 4.508c0.272 0.271 0.647 0.439 1.061 0.439s0.789-0.168 1.061-0.439l2.614-2.614-1.060-1.060z"></path>
<path d="M16.64 2.852l4.508 4.508-2.614 2.614 1.061 1.061 2.614-2.614c0.271-0.271 0.439-0.646 0.439-1.061s-0.168-0.789-0.439-1.061l-4.508-4.508c-0.272-0.271-0.647-0.439-1.061-0.439s-0.789 0.168-1.061 0.439l-2.614 2.614 1.061 1.061z"></path>
<path d="M11.295 9.727l0.727-0.727 0.727 0.727-0.727 0.727-0.727-0.727z"></path>
<path d="M11.295 14.273l0.727-0.727 0.727 0.727-0.727 0.727-0.727-0.727z"></path>
<path d="M13.568 12l0.727-0.727 0.727 0.727-0.727 0.727-0.727-0.727z"></path>
<path d="M9.023 12l0.727-0.727 0.727 0.727-0.727 0.727-0.727-0.727z"></path>
<path d="M21.315 14.685l-12.364-12.364c-0.407-0.407-0.97-0.659-1.591-0.659s-1.184 0.252-1.591 0.659l-3.447 3.447c-0.407 0.407-0.659 0.97-0.659 1.591s0.252 1.184 0.659 1.591l12.728 12.728c0.004 0.004 0.008 0.007 0.011 0.011 0.406 0.401 0.964 0.648 1.58 0.648 0.621 0 1.184-0.252 1.591-0.659l3.447-3.447c0.407-0.407 0.659-0.97 0.659-1.591s-0.252-1.184-0.659-1.591v0zM3.382 7.89c-0.136-0.136-0.22-0.323-0.22-0.53s0.084-0.395 0.22-0.53l3.447-3.447c0.136-0.136 0.323-0.22 0.53-0.22s0.395 0.084 0.53 0.22l3.049 3.049-4.508 4.508zM7.492 12l4.508-4.508 4.508 4.508-4.508 4.508zM20.618 17.171l-3.447 3.447c-0.136 0.136-0.323 0.22-0.53 0.22s-0.395-0.084-0.53-0.22l-3.049-3.049 4.508-4.508 3.049 3.049c0.136 0.136 0.22 0.323 0.22 0.53s-0.084 0.395-0.22 0.53v0z"></path>
</svg>
