<!-- Generated by IcoMoon.io -->
<svg version="1.1" xmlns="http://www.w3.org/2000/svg" width="24" height="24" viewBox="0 0 24 24">
<title>heart</title>
<path d="M21.24 3.704c-1.086-1.086-2.586-1.757-4.243-1.757-1.658 0-3.16 0.673-4.246 1.76l-0 0-0.727 0.736-0.726-0.739c-1.086-1.086-2.586-1.757-4.243-1.757s-3.157 0.672-4.243 1.757l-0.324 0.324c-1.086 1.086-1.757 2.586-1.757 4.243s0.672 3.157 1.757 4.243l8.549 8.549 0.965 1.011 0.023-0.023 0.025 0.025 0.904-0.954 8.608-8.608c1.084-1.087 1.755-2.586 1.755-4.243s-0.67-3.156-1.755-4.243l0 0zM20.503 11.452l-8.477 8.477-8.477-8.477c-0.814-0.814-1.318-1.939-1.318-3.182s0.504-2.368 1.318-3.182l0.324-0.324c0.814-0.814 1.939-1.318 3.182-1.318 1.241 0 2.365 0.503 3.18 1.316l-0-0 1.786 1.818 1.794-1.816c0.814-0.814 1.939-1.318 3.182-1.318s2.368 0.504 3.182 1.318l0.324 0.324c0.813 0.815 1.316 1.94 1.316 3.182s-0.503 2.367-1.316 3.182l0-0z"></path>
</svg>
