<!-- Generated by IcoMoon.io -->
<svg version="1.1" xmlns="http://www.w3.org/2000/svg" width="24" height="24" viewBox="0 0 24 24">
<title>history</title>
<path d="M19.958 4.042c-2.034-2.034-4.843-3.292-7.946-3.292-3.074 0-5.86 1.234-7.889 3.235l0.001-0.001v-3.233h-1.5v6h6v-1.5h-3.643c1.776-1.849 4.268-2.998 7.029-3h0c5.37 0 9.738 4.369 9.738 9.738s-4.369 9.738-9.738 9.738-9.738-4.369-9.738-9.738h-1.5c0 6.207 5.032 11.238 11.238 11.238 3.103 0 5.913-1.258 7.947-3.292v0c2.034-2.034 3.292-4.843 3.292-7.947s-1.258-5.913-3.292-7.947v0z"></path>
<path d="M11.25 5.248l-0.025 8.252h6.025v-1.5h-4.52l0.020-6.748-1.5-0.005z"></path>
</svg>
