<!-- Generated by IcoMoon.io -->
<svg version="1.1" xmlns="http://www.w3.org/2000/svg" width="24" height="24" viewBox="0 0 24 24">
<title>hospital</title>
<path d="M7.5 14.25h1.5v1.5h-1.5v-1.5z"></path>
<path d="M11.25 14.25h1.5v1.5h-1.5v-1.5z"></path>
<path d="M15 14.25h1.5v1.5h-1.5v-1.5z"></path>
<path d="M20.625 21.75v-17.625h-3.375v-3.375h-10.5v3.375h-3.375v17.625h-2.625v1.5h22.5v-1.5zM8.25 2.25h7.5v7.5h-7.5zM19.125 21.75h-6.375v-3h-1.5v3h-6.375v-16.125h1.875v5.625h10.5v-5.625h1.875z"></path>
<path d="M12.75 3.75h-1.5v1.5h-1.5v1.5h1.5v1.5h1.5v-1.5h1.5v-1.5h-1.5v-1.5z"></path>
</svg>
