<!-- Generated by IcoMoon.io -->
<svg version="1.1" xmlns="http://www.w3.org/2000/svg" width="24" height="24" viewBox="0 0 24 24">
<title>https</title>
<path d="M18.75 9.375h-0.563v-2.625c0-3.314-2.686-6-6-6s-6 2.686-6 6v0 2.625h-0.563c-0.621 0.001-1.124 0.504-1.125 1.125v11.625c0.001 0.621 0.504 1.124 1.125 1.125h13.125c0.621-0.001 1.124-0.504 1.125-1.125v-11.625c-0.001-0.621-0.504-1.124-1.125-1.125h-0zM7.688 6.75c0-2.485 2.015-4.5 4.5-4.5s4.5 2.015 4.5 4.5v0 2.625h-9zM18.375 21.75h-12.375v-10.875h12.375z"></path>
<path d="M11.25 15.375h1.875v1.875h-1.875v-1.875z"></path>
</svg>
