<!-- Generated by IcoMoon.io -->
<svg version="1.1" xmlns="http://www.w3.org/2000/svg" width="24" height="24" viewBox="0 0 24 24">
<title>industry</title>
<path d="M21.528 4.5l-6.153 6.080v-6.080h-1.618l-5.882 5.966v-9.716h-7.125v22.5h22.5v-18.75zM21.75 21.75h-19.5v-19.5h4.125v10.125h1.724l5.776-5.859v5.859h1.817l6.058-5.986z"></path>
<path d="M6.375 15.375v0.375h1.5v-1.5h-1.5v1.125z"></path>
<path d="M6.375 17.625h1.5v1.5h-1.5v-1.5z"></path>
<path d="M10.125 15.375v0.375h1.5v-1.5h-1.5v1.125z"></path>
<path d="M10.125 17.625h1.5v1.5h-1.5v-1.5z"></path>
<path d="M13.875 15.375v0.375h1.5v-1.5h-1.5v1.125z"></path>
<path d="M13.875 17.625h1.5v1.5h-1.5v-1.5z"></path>
<path d="M17.625 14.25h1.5v1.5h-1.5v-1.5z"></path>
<path d="M17.625 17.625h1.5v1.5h-1.5v-1.5z"></path>
</svg>
