<!-- Generated by IcoMoon.io -->
<svg version="1.1" xmlns="http://www.w3.org/2000/svg" width="24" height="24" viewBox="0 0 24 24">
<title>infinity</title>
<path d="M21.712 8.288c-0.95-0.95-2.263-1.538-3.712-1.538s-2.762 0.588-3.712 1.538l-2.277 2.277-2.277-2.277c-0.95-0.95-2.263-1.538-3.712-1.538-2.899 0-5.25 2.351-5.25 5.25s2.351 5.25 5.25 5.25c1.45 0 2.762-0.588 3.712-1.538l2.277-2.277 2.277 2.277c0.95 0.95 2.263 1.538 3.712 1.538 2.899 0 5.25-2.351 5.25-5.25 0-1.45-0.588-2.762-1.538-3.712v0zM8.674 14.652c-0.679 0.679-1.616 1.098-2.652 1.098-2.071 0-3.75-1.679-3.75-3.75s1.679-3.75 3.75-3.75c1.036 0 1.973 0.42 2.652 1.098l2.587 2.587v0.129zM20.652 14.652c-0.679 0.679-1.616 1.098-2.652 1.098s-1.973-0.42-2.652-1.098l-2.587-2.587v-0.129l2.587-2.587c0.679-0.679 1.616-1.098 2.652-1.098 2.071 0 3.75 1.679 3.75 3.75 0 1.036-0.42 1.973-1.098 2.652v0z"></path>
</svg>
