<!-- Generated by IcoMoon.io -->
<svg version="1.1" xmlns="http://www.w3.org/2000/svg" width="24" height="24" viewBox="0 0 24 24">
<title>info</title>
<path d="M12 4.5h1.637v1.637h-1.637v-1.637z"></path>
<path d="M0.75 0.75v22.5h22.5v-22.5zM21.75 21.75h-19.5v-19.5h19.5z"></path>
<path d="M10.512 9.508c0.127-0.301 0.42-0.508 0.761-0.508 0.455 0 0.824 0.369 0.824 0.824 0 0.083-0.012 0.163-0.035 0.238l0.002-0.006-1.672 5.685c-0.061 0.198-0.095 0.426-0.095 0.662 0 1.296 1.051 2.347 2.347 2.347v0c0.86-0.002 1.612-0.464 2.021-1.154l0.006-0.011 0.708-1.215-1.296-0.755-0.708 1.215c-0.15 0.253-0.421 0.42-0.731 0.42h-0c-0 0-0 0-0 0-0.468 0-0.847-0.379-0.847-0.847 0-0.085 0.013-0.167 0.036-0.245l-0.002 0.006 1.672-5.685c0.060-0.196 0.094-0.422 0.094-0.656 0-1.283-1.040-2.324-2.324-2.324-0.962 0-1.788 0.585-2.141 1.418l-0.006 0.015-0.549 1.323 1.385 0.575z"></path>
</svg>
