<!-- Generated by IcoMoon.io -->
<svg version="1.1" xmlns="http://www.w3.org/2000/svg" width="24" height="24" viewBox="0 0 24 24">
<title>instagram</title>
<path d="M17.626 1.5h-11.252c-2.691 0.003-4.871 2.183-4.874 4.874v11.252c0.003 2.691 2.183 4.871 4.874 4.874h11.252c2.691-0.003 4.871-2.183 4.874-4.874v-11.252c-0.003-2.691-2.183-4.871-4.874-4.874h-0zM21 17.626c0 1.863-1.511 3.374-3.374 3.374h-11.252c-1.863 0-3.374-1.511-3.374-3.374v0-11.252c0-1.863 1.511-3.374 3.374-3.374h11.252c1.863 0 3.374 1.511 3.374 3.374v0z"></path>
<path d="M12 6.75c-3.107 0-5.625 2.518-5.625 5.625s2.518 5.625 5.625 5.625c3.107 0 5.625-2.518 5.625-5.625 0-1.553-0.63-2.96-1.648-3.977v0c-1.012-1.018-2.414-1.648-3.962-1.648-0.005 0-0.011 0-0.016 0h0.001zM12 16.5c-2.278 0-4.125-1.847-4.125-4.125s1.847-4.125 4.125-4.125c2.278 0 4.125 1.847 4.125 4.125v0c0 2.278-1.847 4.125-4.125 4.125v0z"></path>
<path d="M19.5 6c0 0.828-0.672 1.5-1.5 1.5s-1.5-0.672-1.5-1.5c0-0.828 0.672-1.5 1.5-1.5s1.5 0.672 1.5 1.5z"></path>
</svg>
