<!-- Generated by IcoMoon.io -->
<svg version="1.1" xmlns="http://www.w3.org/2000/svg" width="24" height="24" viewBox="0 0 24 24">
<title>keyboard</title>
<path d="M22.125 3.75h-20.25c-0.621 0.001-1.124 0.504-1.125 1.125v11.25c0.001 0.621 0.504 1.124 1.125 1.125h20.25c0.621-0.001 1.124-0.504 1.125-1.125v-11.25c-0.001-0.621-0.504-1.124-1.125-1.125h-0zM21.75 15.75h-19.5v-10.5h19.5z"></path>
<path d="M6.75 12.75h7.5v1.5h-7.5v-1.5z"></path>
<path d="M3.75 12.75h1.5v1.5h-1.5v-1.5z"></path>
<path d="M18.75 12.75h1.5v1.5h-1.5v-1.5z"></path>
<path d="M15.75 12.75h1.5v1.5h-1.5v-1.5z"></path>
<path d="M17.25 9.75h1.5v1.5h-1.5v-1.5z"></path>
<path d="M14.25 9.75h1.5v1.5h-1.5v-1.5z"></path>
<path d="M11.25 9.75h1.5v1.5h-1.5v-1.5z"></path>
<path d="M8.25 9.75h1.5v1.5h-1.5v-1.5z"></path>
<path d="M5.25 9.75h1.5v1.5h-1.5v-1.5z"></path>
<path d="M15.75 6.75h1.5v1.5h-1.5v-1.5z"></path>
<path d="M18.75 6.75h1.5v1.5h-1.5v-1.5z"></path>
<path d="M12.75 6.75h1.5v1.5h-1.5v-1.5z"></path>
<path d="M9.75 6.75h1.5v1.5h-1.5v-1.5z"></path>
<path d="M6.75 6.75h1.5v1.5h-1.5v-1.5z"></path>
<path d="M3.75 6.75h1.5v1.5h-1.5v-1.5z"></path>
</svg>
