<!-- Generated by IcoMoon.io -->
<svg version="1.1" xmlns="http://www.w3.org/2000/svg" width="24" height="24" viewBox="0 0 24 24">
<title>lan</title>
<path d="M23.25 12.75v-1.5h-10.5v-2.25h2.625c0.621-0.001 1.124-0.504 1.125-1.125v-6c-0.001-0.621-0.504-1.124-1.125-1.125h-6.75c-0.621 0.001-1.124 0.504-1.125 1.125v6c0.001 0.621 0.504 1.124 1.125 1.125h2.625v2.25h-10.5v1.5h3.75v2.25h-2.56c-0.621 0.001-1.124 0.504-1.125 1.125v6c0.001 0.621 0.504 1.124 1.125 1.125h6.685c0.621-0.001 1.124-0.504 1.125-1.125v-6c-0.001-0.621-0.504-1.124-1.125-1.125h-2.625v-2.25h12v2.25h-2.625c-0.621 0.001-1.124 0.504-1.125 1.125v6c0.001 0.621 0.504 1.124 1.125 1.125h6.75c0.621-0.001 1.124-0.504 1.125-1.125v-6c-0.001-0.621-0.504-1.124-1.125-1.125h-2.625v-2.25zM9 2.25h6v5.25h-6zM8.25 21.75h-5.935v-5.25h5.935zM21.75 21.75h-6v-5.25h6z"></path>
</svg>
