<!-- Generated by IcoMoon.io -->
<svg version="1.1" xmlns="http://www.w3.org/2000/svg" width="24" height="24" viewBox="0 0 24 24">
<title>language</title>
<path d="M15 9v-7.875h-14.25v14.25h8.25v7.875h14.25v-14.25zM2.25 13.875v-11.25h11.25v6.375h-3.125l-1.577-4.5h-1.846l-2.354 6.717h1.589l0.383-1.092h2.43v3.75zM8.654 8.625h-1.558l0.779-2.224zM21.75 21.75h-11.25v-11.25h11.25z"></path>
<path d="M14.88 17.273c0.158 0.252 0.314 0.468 0.482 0.673l-0.009-0.011q-0.816 0.44-1.853 0.441v1.5c1.132 0 2.143-0.3 3-0.882 0.857 0.582 1.868 0.882 3 0.882v-1.5q-1.035 0-1.852-0.441c0.159-0.194 0.315-0.41 0.457-0.635l0.016-0.026c0.409-0.654 0.733-1.412 0.931-2.219l0.011-0.053h0.813v-1.5h-2.625v-1.125h-1.5v1.125h-2.625v1.5h0.813c0.209 0.861 0.533 1.619 0.961 2.305l-0.019-0.033zM17.509 15c-0.171 0.563-0.395 1.053-0.676 1.504l0.015-0.026c-0.117 0.187-0.232 0.347-0.355 0.499l0.007-0.009c-0.108-0.132-0.215-0.28-0.313-0.433l-0.012-0.019c-0.277-0.436-0.51-0.938-0.673-1.471l-0.012-0.044z"></path>
</svg>
