<!-- Generated by IcoMoon.io -->
<svg version="1.1" xmlns="http://www.w3.org/2000/svg" width="24" height="24" viewBox="0 0 24 24">
<title>layers</title>
<path d="M22.872 7.599l-10.5-6c-0.107-0.062-0.235-0.099-0.372-0.099s-0.265 0.037-0.376 0.101l0.004-0.002-10.5 6c-0.227 0.132-0.378 0.374-0.378 0.651 0 0.285 0.158 0.532 0.392 0.659l0.004 0.002 10.5 5.625c0.102 0.056 0.224 0.089 0.354 0.089s0.252-0.033 0.358-0.091l-0.004 0.002 10.5-5.625c0.237-0.129 0.396-0.377 0.396-0.661 0-0.277-0.15-0.519-0.374-0.649l-0.004-0.002zM12 13.024l-8.951-4.795 8.951-5.115 8.951 5.115z"></path>
<path d="M1.5 11.182v1.712l10.139 5.576c0.104 0.058 0.229 0.093 0.361 0.093s0.257-0.034 0.365-0.095l-0.004 0.002 10.139-5.576v-1.712l-10.5 5.775z"></path>
<path d="M1.5 15.3v1.7l10.147 5.412c0.102 0.056 0.224 0.088 0.353 0.088s0.251-0.033 0.357-0.090l-0.004 0.002 10.147-5.412v-1.7l-10.5 5.6z"></path>
</svg>
