<!-- Generated by IcoMoon.io -->
<svg version="1.1" xmlns="http://www.w3.org/2000/svg" width="64" height="64" viewBox="0 0 64 64">
<title>layers</title>
<path d="M60.992 20.264l-28-16c-0.285-0.166-0.627-0.263-0.992-0.263s-0.707 0.098-1.002 0.269l0.010-0.005-28 16c-0.606 0.351-1.008 0.997-1.008 1.736 0 0.759 0.422 1.419 1.045 1.758l0.010 0.005 28 15c0.273 0.149 0.599 0.237 0.944 0.237s0.671-0.088 0.955-0.242l-0.011 0.005 28-15c0.633-0.344 1.056-1.004 1.056-1.763 0-0.739-0.401-1.385-0.998-1.731l-0.010-0.005zM32 34.731l-23.87-12.788 23.87-13.64 23.87 13.64z"></path>
<path d="M4 29.817v4.565l27.036 14.87c0.278 0.156 0.61 0.248 0.964 0.248s0.686-0.092 0.974-0.253l-0.010 0.005 27.036-14.87v-4.565l-28 15.4z"></path>
<path d="M4 40.8v4.533l27.059 14.431c0.272 0.148 0.597 0.235 0.941 0.235s0.669-0.087 0.952-0.24l-0.011 0.005 27.059-14.431v-4.533l-28 14.933z"></path>
</svg>
