<!-- Generated by IcoMoon.io -->
<svg version="1.1" xmlns="http://www.w3.org/2000/svg" width="24" height="24" viewBox="0 0 24 24">
<title>leaf</title>
<path d="M18.237 5.92c-1.261-2.112-2.987-3.824-5.045-5.033l-0.067-0.036-0.376-0.217-0.376 0.217c-4.25 2.485-7.059 7.026-7.059 12.224 0 0.002 0 0.004 0 0.006v-0c0 0.162 0.003 0.326 0.008 0.487 0.075 2.196 0.915 4.044 2.429 5.345 1.159 0.995 2.646 1.602 4.247 1.747v2.591h1.5v-12h-1.5v7.9c-2.534-0.294-5.057-2.084-5.177-5.633-0.005-0.145-0.007-0.292-0.007-0.437 0.010-4.49 2.354-8.431 5.883-10.674l0.052-0.031c3.581 2.274 5.925 6.214 5.935 10.703v0.001c0 0.145-0.003 0.291-0.007 0.437-0.096 2.839-1.73 4.553-3.677 5.275v1.588c1.061-0.306 1.979-0.811 2.757-1.475l-0.010 0.008c1.514-1.3 2.354-3.148 2.429-5.345 0.005-0.162 0.008-0.326 0.008-0.487 0-0.002 0-0.005 0-0.007 0-2.637-0.724-5.106-1.983-7.217l0.036 0.065z"></path>
</svg>
