<!-- Generated by IcoMoon.io -->
<svg version="1.1" xmlns="http://www.w3.org/2000/svg" width="24" height="24" viewBox="0 0 24 24">
<title>lemon</title>
<path d="M21.857 2.248c-0.728-0.728-1.735-1.179-2.846-1.179-0.971 0-1.862 0.344-2.557 0.916l0.007-0.006c-0.912-0.332-1.965-0.524-3.063-0.524-0.005 0-0.010 0-0.014 0h0.001c-0 0-0 0-0 0-6.505 0-11.778 5.273-11.778 11.778 0 0 0 0 0 0v0c0 0.004 0 0.009 0 0.014 0 1.098 0.192 2.151 0.544 3.127l-0.020-0.064c-0.567 0.688-0.911 1.579-0.911 2.55 0 2.223 1.802 4.025 4.025 4.025 0.971 0 1.862-0.344 2.557-0.916l-0.007 0.006c0.912 0.332 1.965 0.524 3.063 0.524 0.005 0 0.010 0 0.014 0h-0.001c6.505-0 11.778-5.273 11.778-11.778v0c0-0.004 0-0.009 0-0.014 0-1.098-0.192-2.151-0.544-3.128l0.020 0.064c0.566-0.689 0.909-1.579 0.909-2.55 0-1.111-0.45-2.117-1.177-2.847l0 0zM20.564 7.761c0.37 0.871 0.585 1.884 0.585 2.947 0 0.005 0 0.009-0 0.014v-0.001c0 5.667-4.611 10.278-10.278 10.278-0.004 0-0.009 0-0.013 0-1.063 0-2.076-0.215-2.998-0.604l0.051 0.019-0.484-0.2-0.354 0.386c-0.014 0.015-0.028 0.031-0.043 0.046-0.457 0.456-1.088 0.738-1.784 0.738-1.394 0-2.525-1.13-2.525-2.525 0-0.697 0.282-1.327 0.738-1.784l-0 0c0.015-0.015 0.030-0.029 0.046-0.044l0.386-0.354-0.2-0.484c-0.37-0.871-0.585-1.884-0.585-2.947 0-0.005 0-0.009 0-0.014v0.001c0-5.667 4.611-10.278 10.278-10.278 0.004 0 0.009 0 0.013 0 1.063 0 2.076 0.215 2.998 0.604l-0.051-0.019 0.484 0.2 0.354-0.385c0.014-0.015 0.028-0.031 0.044-0.046 0.457-0.456 1.087-0.738 1.783-0.738 1.394 0 2.525 1.13 2.525 2.525 0 0.696-0.282 1.327-0.738 1.783l0-0c-0.015 0.015-0.031 0.030-0.047 0.044l-0.385 0.354z"></path>
<path d="M5.64 10.629l1.335 0.685c1.198-2.309 3.179-4.072 5.584-4.96l0.071-0.023-0.51-1.411c-2.837 1.043-5.108 3.063-6.449 5.644l-0.031 0.065z"></path>
</svg>
