<!-- Generated by IcoMoon.io -->
<svg version="1.1" xmlns="http://www.w3.org/2000/svg" width="24" height="24" viewBox="0 0 24 24">
<title>library-add</title>
<path d="M2.25 21.75v-15h-1.5v15.375c0 0.621 0.504 1.125 1.125 1.125v0h15.375v-1.5h-15z"></path>
<path d="M6.75 18.75h-1.5v-15h-1.5v15.375c0 0.621 0.504 1.125 1.125 1.125v0h15.375v-1.5h-13.5z"></path>
<path d="M22.125 0.75h-14.25c-0.621 0-1.125 0.504-1.125 1.125v0 14.25c0 0.621 0.504 1.125 1.125 1.125v0h14.25c0.621 0 1.125-0.504 1.125-1.125v0-14.25c0-0.621-0.504-1.125-1.125-1.125v0zM21.75 15.75h-13.5v-13.5h13.5z"></path>
<path d="M14.25 13.5h1.5v-3.938h3.938v-1.5h-3.938v-3.938h-1.5v3.938h-3.938v1.5h3.938v3.938z"></path>
</svg>
