<!-- Generated by IcoMoon.io -->
<svg version="1.1" xmlns="http://www.w3.org/2000/svg" width="24" height="24" viewBox="0 0 24 24">
<title>life-ring</title>
<path d="M19.955 4.045c-2.036-2.036-4.848-3.295-7.955-3.295-6.213 0-11.25 5.037-11.25 11.25 0 3.107 1.259 5.919 3.295 7.955v0c2.036 2.036 4.848 3.295 7.955 3.295 6.213 0 11.25-5.037 11.25-11.25 0-3.107-1.259-5.919-3.295-7.955v0zM16.203 15.142c0.654-0.865 1.047-1.958 1.047-3.142s-0.393-2.278-1.056-3.156l0.010 0.013 3.198-3.198c1.46 1.692 2.349 3.912 2.349 6.34s-0.889 4.648-2.36 6.353l0.011-0.013zM8.25 12c0-2.071 1.679-3.75 3.75-3.75s3.75 1.679 3.75 3.75c0 2.071-1.679 3.75-3.75 3.75v0c-2.070-0.002-3.748-1.68-3.75-3.75v-0zM18.34 4.599l-3.198 3.198c-0.865-0.654-1.958-1.047-3.142-1.047s-2.278 0.393-3.156 1.056l0.013-0.010-3.198-3.198c1.692-1.46 3.912-2.349 6.34-2.349s4.648 0.889 6.353 2.36l-0.013-0.011zM4.599 5.66l3.198 3.198c-0.654 0.865-1.047 1.958-1.047 3.142s0.393 2.278 1.056 3.156l-0.010-0.013-3.198 3.198c-1.46-1.692-2.349-3.912-2.349-6.34s0.889-4.648 2.36-6.353l-0.011 0.013zM5.66 19.401l3.198-3.198c0.865 0.654 1.958 1.047 3.142 1.047s2.278-0.393 3.156-1.056l-0.013 0.010 3.198 3.198c-1.692 1.46-3.912 2.349-6.34 2.349s-4.648-0.889-6.353-2.36l0.013 0.011z"></path>
</svg>
