<!-- Generated by IcoMoon.io -->
<svg version="1.1" xmlns="http://www.w3.org/2000/svg" width="24" height="24" viewBox="0 0 24 24">
<title>lightbulb</title>
<path d="M12 0.75c-4.595 0-8.333 3.738-8.333 8.333 0 0.002 0 0.004 0 0.006 0 2.616 1.207 4.95 3.095 6.475l0.016 0.012v2.611c0.003 2.795 2.268 5.059 5.062 5.063h0.32c2.795-0.003 5.059-2.268 5.063-5.062v-2.611c1.904-1.537 3.111-3.871 3.111-6.487 0-0.002 0-0.004 0-0.007v0c0-4.595-3.738-8.333-8.333-8.333zM8.278 16.125h7.444v1.875h-7.444zM12.16 21.75h-0.319c-1.494-0.002-2.773-0.922-3.302-2.226l-0.009-0.024h6.941c-0.538 1.328-1.817 2.248-3.311 2.25h-0zM16.029 14.602l-0.031 0.023h-7.997l-0.031-0.023c-1.705-1.26-2.799-3.261-2.804-5.518v-0.001c0-3.768 3.065-6.833 6.833-6.833s6.833 3.065 6.833 6.833c-0.005 2.258-1.099 4.259-2.785 5.506l-0.019 0.013z"></path>
</svg>
