<!-- Generated by IcoMoon.io -->
<svg version="1.1" xmlns="http://www.w3.org/2000/svg" width="24" height="24" viewBox="0 0 24 24">
<title>link</title>
<path d="M21.444 2.617c-2.486-2.486-6.53-2.486-9.016 0l-4.508 4.508 1.061 1.061 4.508-4.508c0.882-0.882 2.101-1.428 3.447-1.428 2.692 0 4.875 2.183 4.875 4.875 0 1.346-0.546 2.565-1.428 3.447l-4.508 4.508 1.061 1.061 4.508-4.508c2.486-2.486 2.486-6.53 0-9.016z"></path>
<path d="M10.572 20.383c-0.882 0.882-2.101 1.428-3.447 1.428s-2.565-0.546-3.447-1.428v0h-0c-0.882-0.882-1.428-2.101-1.428-3.447s0.546-2.565 1.428-3.447l4.243-4.243-1.061-1.061-4.243 4.243c-1.154 1.154-1.867 2.747-1.867 4.508 0 3.521 2.854 6.375 6.375 6.375 1.76 0 3.354-0.714 4.508-1.867l4.243-4.243-1.061-1.061z"></path>
<path d="M6.064 16.936l10.607-10.607 1.061 1.061-10.607 10.607-1.061-1.061z"></path>
</svg>
