<!-- Generated by IcoMoon.io -->
<svg version="1.1" xmlns="http://www.w3.org/2000/svg" width="24" height="24" viewBox="0 0 24 24">
<title>linkedin</title>
<path d="M6.796 5.206c-0 0-0 0-0.001 0-0.89 0-1.612 0.722-1.612 1.612s0.722 1.612 1.612 1.612c0.89 0 1.612-0.722 1.612-1.612 0-0 0-0 0-0v0c-0-0.89-0.722-1.611-1.612-1.612h-0z"></path>
<path d="M5.405 9.654h2.781v8.948h-2.781v-8.948z"></path>
<path d="M15.266 9.432c-1.353 0-2.26 0.742-2.631 1.445h-0.037v-1.223h-2.667v8.948h2.779v-4.427c0-1.167 0.222-2.297 1.669-2.297 1.426 0 1.445 1.335 1.445 2.372v4.352h2.779v-4.908c-0-2.409-0.52-4.262-3.336-4.262z"></path>
<path d="M19.987 1.125h-15.979c-1.59 0-2.884 1.279-2.884 2.851v16.046c0 1.573 1.294 2.853 2.884 2.853h15.979c1.592 0 2.888-1.28 2.888-2.853v-16.046c0-1.572-1.296-2.851-2.888-2.851zM21.375 20.022c0 0.747-0.623 1.353-1.388 1.353h-15.979c-0.764 0-1.384-0.606-1.384-1.353v-16.046c0-0.746 0.62-1.351 1.384-1.351h15.979c0.765 0 1.388 0.605 1.388 1.351z"></path>
</svg>
