<!-- Generated by IcoMoon.io -->
<svg version="1.1" xmlns="http://www.w3.org/2000/svg" width="24" height="24" viewBox="0 0 24 24">
<title>link-broken</title>
<path d="M13.5 23.25h1.5v-6h6v-1.5h-7.5v7.5z"></path>
<path d="M10.5 8.25v-7.5h-1.5v6h-6v1.5h7.5z"></path>
<path d="M3.689 20.371l-0.060-0.060c-0.852-0.852-1.379-2.030-1.379-3.33s0.527-2.478 1.38-3.33l3.525-3.525h-2.121l-2.464 2.464c-1.124 1.124-1.819 2.676-1.819 4.391s0.695 3.267 1.819 4.391l0.060 0.060c1.125 1.122 2.677 1.816 4.391 1.816s3.267-0.694 4.391-1.816l0.214-0.214v-2.121l-1.275 1.275c-0.853 0.851-2.030 1.377-3.33 1.377s-2.477-0.526-3.33-1.377l0 0z"></path>
<path d="M21.431 2.629l-0.060-0.060c-2.421-2.421-6.361-2.421-8.782 0l-0.214 0.214v2.121l1.275-1.275c0.853-0.851 2.030-1.377 3.33-1.377s2.477 0.526 3.33 1.377l0.060 0.060c0.852 0.852 1.379 2.030 1.379 3.33s-0.527 2.478-1.38 3.33l-3.525 3.525h2.121l2.464-2.464c1.124-1.124 1.819-2.676 1.819-4.391s-0.695-3.267-1.819-4.391v0z"></path>
</svg>
