<!-- Generated by IcoMoon.io -->
<svg version="1.1" xmlns="http://www.w3.org/2000/svg" width="64" height="64" viewBox="0 0 64 64">
<title>list-rich</title>
<path d="M2 18h15v-15h-15zM6 7h7v7h-7z"></path>
<path d="M2 40h15v-15h-15zM6 29h7v7h-7z"></path>
<path d="M2 62h15v-15h-15zM6 51h7v7h-7z"></path>
<path d="M22 3h40v4h-40v-4z"></path>
<path d="M22 14h32v4h-32v-4z"></path>
<path d="M22 25h40v4h-40v-4z"></path>
<path d="M22 36h32v4h-32v-4z"></path>
<path d="M22 58h32v4h-32v-4z"></path>
<path d="M22 47h40v4h-40v-4z"></path>
</svg>
