<!-- Generated by IcoMoon.io -->
<svg version="1.1" xmlns="http://www.w3.org/2000/svg" width="64" height="64" viewBox="0 0 64 64">
<title>location-pin</title>
<path d="M31.741 15.949c-4.418 0-8 3.582-8 8s3.582 8 8 8c4.418 0 8-3.582 8-8v0c-0.005-4.416-3.584-7.995-8-8h-0zM31.741 27.949c-2.209 0-4-1.791-4-4s1.791-4 4-4c2.209 0 4 1.791 4 4v0c-0.003 2.208-1.792 3.997-4 4h-0z"></path>
<path d="M53.363 21.68c-1.182-10.996-10.411-19.483-21.623-19.483-12.007 0-21.74 9.733-21.74 21.74 0 4.413 1.315 8.519 3.575 11.948l-0.051-0.082 15.114 23.202c0.671 1.019 1.809 1.681 3.102 1.681s2.431-0.663 3.094-1.668l0.009-0.014 15.114-23.202c2.208-3.353 3.522-7.464 3.522-11.883 0-0.789-0.042-1.569-0.124-2.336l0.008 0.096zM46.605 33.62l-14.864 22.819-14.865-22.819c-4.55-6.985-3.574-16.333 2.32-22.227 3.21-3.21 7.645-5.196 12.544-5.196s9.334 1.986 12.544 5.196v0c5.895 5.895 6.87 15.242 2.32 22.227z"></path>
</svg>
