<!-- Generated by IcoMoon.io -->
<svg version="1.1" xmlns="http://www.w3.org/2000/svg" width="24" height="24" viewBox="0 0 24 24">
<title>loop</title>
<path d="M21.75 9.868v2.507c-0.003 2.898-2.352 5.247-5.25 5.25h-12.815l2.094-2.095-1.060-1.060-3.876 3.875 3.469 3.904 1.125-0.997-1.892-2.127h12.955c3.722 0 6.75-3.028 6.75-6.75v-4.007z"></path>
<path d="M2.25 12c0.003-2.898 2.352-5.247 5.25-5.25h12.815l-2.094 2.095 1.060 1.060 3.876-3.875-3.469-3.904-1.125 0.997 1.892 2.127h-12.955c-3.722 0-6.75 3.028-6.75 6.75v4.021l1.5-1.5z"></path>
</svg>
