<!-- Generated by IcoMoon.io -->
<svg version="1.1" xmlns="http://www.w3.org/2000/svg" width="24" height="24" viewBox="0 0 24 24">
<title>low-vision</title>
<path d="M18.62 6.52l-0.010-0.010c-2.892-2.892-7.223-3.489-10.709-1.791l1.135 1.135c2.834-1.152 6.211-0.581 8.508 1.712l4.206 4.373v0.146l-3.179 3.305 1.061 1.061 3.618-3.761v-1.354z"></path>
<path d="M16.828 13.609c0.267-0.584 0.422-1.266 0.422-1.985 0-2.692-2.182-4.874-4.874-4.874-0.719 0-1.401 0.156-2.015 0.435l0.031-0.012 1.176 1.176c0.243-0.063 0.522-0.098 0.809-0.098 1.863 0 3.374 1.511 3.374 3.374 0 0.287-0.036 0.566-0.103 0.832l0.005-0.023z"></path>
<path d="M0.75 0.75v1.028l4.686 4.686c-0.015 0.015-0.031 0.030-0.046 0.045l-4.64 4.824v1.354l4.64 4.824c1.693 1.689 4.030 2.733 6.611 2.733 2.049 0 3.945-0.658 5.486-1.775l-0.027 0.019 4.761 4.761h1.028v-1.093l-21.407-21.407zM3.843 10.282l0.799-0.83 9.099 9.099c-0.424 0.1-0.919 0.168-1.425 0.188l-0.015 0zM2.25 12.084v-0.146l0.553-0.575 7.099 7.099c-1.355-0.381-2.517-1.077-3.445-2.006l-0-0zM15.322 18.012l-9.641-9.641 0.775-0.805c0.014-0.014 0.027-0.027 0.041-0.040l9.886 9.886c-0.303 0.207-0.65 0.407-1.014 0.58l-0.047 0.020z"></path>
</svg>
