<!-- Generated by IcoMoon.io -->
<svg version="1.1" xmlns="http://www.w3.org/2000/svg" width="24" height="24" viewBox="0 0 24 24">
<title>magnifying-glass</title>
<path d="M22.481 18.737l-3.801-3.801-2.923-1.208c0.934-1.314 1.493-2.951 1.493-4.719 0-0.003 0-0.006 0-0.009v0c0-4.549-3.701-8.25-8.25-8.25s-8.25 3.701-8.25 8.25 3.701 8.25 8.25 8.25c0.003 0 0.006 0 0.009 0 1.783 0 3.433-0.569 4.779-1.534l-0.025 0.017 1.205 2.916 3.801 3.801c0.475 0.478 1.133 0.773 1.86 0.773 1.45 0 2.625-1.175 2.625-2.625 0-0.727-0.296-1.385-0.773-1.86l-0-0zM2.25 9c0-3.722 3.028-6.75 6.75-6.75s6.75 3.028 6.75 6.75-3.028 6.75-6.75 6.75-6.75-3.028-6.75-6.75zM21.42 21.388c-0.204 0.203-0.485 0.329-0.795 0.329s-0.592-0.126-0.796-0.329l-3.589-3.589-1.12-2.711 2.711 1.12 3.589 3.589c0.203 0.204 0.329 0.485 0.329 0.795s-0.126 0.592-0.329 0.796l0-0z"></path>
</svg>
