<!-- Generated by IcoMoon.io -->
<svg version="1.1" xmlns="http://www.w3.org/2000/svg" width="64" height="64" viewBox="0 0 64 64">
<title>magnifying-glass</title>
<path d="M59.95 49.965l-10.136-10.136-7.796-3.221c2.491-3.504 3.982-7.87 3.982-12.584 0-0.008 0-0.017 0-0.025v0.001c0-12.131-9.869-22-22-22s-22 9.869-22 22 9.869 22 22 22c0.007 0 0.016 0 0.025 0 4.754 0 9.154-1.516 12.743-4.092l-0.066 0.045 3.212 7.776 10.136 10.136c1.268 1.274 3.023 2.062 4.961 2.062 3.866 0 7-3.134 7-7 0-1.939-0.788-3.693-2.061-4.961l-0-0zM6 24c0-9.925 8.075-18 18-18s18 8.075 18 18-8.075 18-18 18-18-8.075-18-18zM57.121 57.035c-0.543 0.542-1.293 0.877-2.121 0.877s-1.578-0.335-2.121-0.877l-9.572-9.572-2.987-7.229 7.229 2.987 9.572 9.572c0.542 0.543 0.877 1.293 0.877 2.121s-0.335 1.578-0.877 2.121l0-0z"></path>
</svg>
