<!-- Generated by IcoMoon.io -->
<svg version="1.1" xmlns="http://www.w3.org/2000/svg" width="24" height="24" viewBox="0 0 24 24">
<title>media-eject</title>
<path d="M4.551 13.433h14.898c0.621-0 1.125-0.504 1.125-1.125 0-0.275-0.099-0.527-0.262-0.722l0.001 0.002-7.449-8.932c-0.208-0.248-0.518-0.404-0.864-0.404s-0.656 0.156-0.862 0.403l-0.001 0.002-7.449 8.932c-0.162 0.194-0.261 0.446-0.261 0.72 0 0.621 0.504 1.125 1.125 1.125v0zM12 3.96l6.648 7.972h-13.296z"></path>
<path d="M19.5 15.375h-15c-0.621 0-1.125 0.504-1.125 1.125v0 3c0 0.621 0.504 1.125 1.125 1.125v0h15c0.621 0 1.125-0.504 1.125-1.125v0-3c0-0.621-0.504-1.125-1.125-1.125v0zM19.125 19.125h-14.25v-2.25h14.25z"></path>
</svg>
