<!-- Generated by IcoMoon.io -->
<svg version="1.1" xmlns="http://www.w3.org/2000/svg" width="24" height="24" viewBox="0 0 24 24">
<title>media-skip-backward</title>
<path d="M21.375 19.888c0.621 0 1.125-0.504 1.125-1.125v0-13.513c-0-0.621-0.504-1.125-1.125-1.125-0.252 0-0.485 0.083-0.673 0.223l0.003-0.002-8.33 6.171v-5.267c-0-0.621-0.504-1.125-1.125-1.125-0.252 0-0.485 0.083-0.673 0.223l0.003-0.002-9.12 6.756c-0.278 0.207-0.455 0.535-0.455 0.904s0.178 0.697 0.452 0.902l0.003 0.002 9.12 6.756c0.185 0.138 0.417 0.221 0.669 0.221 0.621 0 1.125-0.504 1.125-1.125 0 0 0-0 0-0v0-5.266l8.331 6.171c0.184 0.138 0.417 0.222 0.669 0.222v0zM10.875 18.017l-8.115-6.011 8.115-6.011zM21 5.995v12.022l-8.115-6.011z"></path>
</svg>
