<!-- Generated by IcoMoon.io -->
<svg version="1.1" xmlns="http://www.w3.org/2000/svg" width="24" height="24" viewBox="0 0 24 24">
<title>media-pause</title>
<path d="M9.375 2.25h-6c-0.621 0-1.125 0.504-1.125 1.125v0 17.25c0 0.621 0.504 1.125 1.125 1.125v0h6c0.621 0 1.125-0.504 1.125-1.125v0-17.25c0-0.621-0.504-1.125-1.125-1.125v0zM9 20.25h-5.25v-16.5h5.25z"></path>
<path d="M20.625 2.25h-6c-0.621 0-1.125 0.504-1.125 1.125v0 17.25c0 0.621 0.504 1.125 1.125 1.125v0h6c0.621 0 1.125-0.504 1.125-1.125v0-17.25c0-0.621-0.504-1.125-1.125-1.125v0zM20.25 20.25h-5.25v-16.5h5.25z"></path>
</svg>
