<!-- Generated by IcoMoon.io -->
<svg version="1.1" xmlns="http://www.w3.org/2000/svg" width="24" height="24" viewBox="0 0 24 24">
<title>media-skip-forward</title>
<path d="M1.5 5.244v13.511c0 0.621 0.504 1.125 1.125 1.125 0.252 0 0.485-0.083 0.673-0.223l-0.003 0.002 8.33-6.171v5.267c0 0.621 0.504 1.125 1.125 1.125 0.252 0 0.485-0.083 0.673-0.223l-0.003 0.002 9.12-6.755c0.278-0.207 0.456-0.535 0.456-0.904s-0.178-0.697-0.453-0.902l-0.003-0.002-9.12-6.755c-0.185-0.138-0.417-0.221-0.669-0.221-0.621 0-1.125 0.503-1.125 1.125v5.267l-8.331-6.171c-0.185-0.138-0.417-0.221-0.669-0.221-0.621 0-1.125 0.503-1.125 1.125v0zM13.125 5.989l8.115 6.011-8.115 6.011zM3 5.989l8.115 6.011-8.115 6.011z"></path>
</svg>
