<!-- Generated by IcoMoon.io -->
<svg version="1.1" xmlns="http://www.w3.org/2000/svg" width="24" height="24" viewBox="0 0 24 24">
<title>media-step-backward</title>
<path d="M18.881 4.246c-0.147-0.076-0.322-0.121-0.507-0.121-0.252 0-0.485 0.083-0.672 0.224l0.003-0.002-9.12 6.756c-0.278 0.207-0.455 0.535-0.455 0.904s0.178 0.697 0.452 0.902l0.003 0.002 9.12 6.756c0.185 0.138 0.418 0.221 0.67 0.221 0.621 0 1.125-0.504 1.125-1.125 0-0 0-0 0-0v0-13.512c0-0.001 0-0.002 0-0.003 0-0.436-0.249-0.813-0.612-0.998l-0.006-0.003zM18 18.017l-8.115-6.011 8.115-6.011z"></path>
<path d="M4.5 4.125h1.5v15.75h-1.5v-15.75z"></path>
</svg>
