<!-- Generated by IcoMoon.io -->
<svg version="1.1" xmlns="http://www.w3.org/2000/svg" width="24" height="24" viewBox="0 0 24 24">
<title>mood-very-good</title>
<path d="M12 0.75c-6.213 0-11.25 5.037-11.25 11.25s5.037 11.25 11.25 11.25 11.25-5.037 11.25-11.25-5.037-11.25-11.25-11.25zM18.894 18.894c-1.757 1.752-4.182 2.835-6.859 2.835-5.365 0-9.715-4.349-9.715-9.715s4.349-9.715 9.715-9.715c5.365 0 9.715 4.349 9.715 9.715 0 1.365-0.282 2.664-0.79 3.843l0.024-0.063c-0.517 1.205-1.222 2.234-2.090 3.099l-0 0z"></path>
<path d="M12 18c2.692 0 4.875-2.183 4.875-4.875v0h-9.75c0 2.692 2.183 4.875 4.875 4.875v0z"></path>
<path d="M9.645 10.701l0.96-1.152-2.73-2.275-2.73 2.275 0.96 1.152 1.77-1.475 1.77 1.475z"></path>
<path d="M13.395 9.549l0.96 1.152 1.77-1.475 1.77 1.475 0.96-1.152-2.73-2.275-2.73 2.275z"></path>
</svg>
