<!-- Generated by IcoMoon.io -->
<svg version="1.1" xmlns="http://www.w3.org/2000/svg" width="24" height="24" viewBox="0 0 24 24">
<title>mood-very-bad</title>
<path d="M12 0.75c-6.213 0-11.25 5.037-11.25 11.25s5.037 11.25 11.25 11.25 11.25-5.037 11.25-11.25-5.037-11.25-11.25-11.25zM18.894 18.894c-1.757 1.752-4.182 2.835-6.859 2.835-5.365 0-9.715-4.349-9.715-9.715s4.349-9.715 9.715-9.715c5.365 0 9.715 4.349 9.715 9.715 0 1.365-0.282 2.664-0.79 3.843l0.024-0.063c-0.517 1.205-1.222 2.234-2.090 3.099l-0 0z"></path>
<path d="M12 13.125c-2.692 0-4.875 2.183-4.875 4.875v0h9.75c0-2.692-2.183-4.875-4.875-4.875v0z"></path>
<path d="M5.502 8.811l0.997-1.121 3.375 3-0.997 1.121-3.375-3z"></path>
<path d="M13.877 10.939l3-3.375 1.121 0.997-3 3.375-1.121-0.997z"></path>
</svg>
