<!-- Generated by IcoMoon.io -->
<svg version="1.1" xmlns="http://www.w3.org/2000/svg" width="24" height="24" viewBox="0 0 24 24">
<title>moon</title>
<path d="M12.576 23.25c-3.168 0-6.14-1.228-8.369-3.457s-3.457-5.201-3.457-8.369c0-0.001 0-0.002 0-0.003 0-4.58 2.603-8.551 6.411-10.515l0.066-0.031c0.151-0.079 0.33-0.125 0.52-0.125 0.633 0 1.146 0.513 1.146 1.146 0 0.12-0.019 0.236-0.053 0.345l0.002-0.008c-0.293 0.913-0.462 1.962-0.462 3.051 0 2.853 1.158 5.436 3.030 7.304l0 0c1.858 1.872 4.432 3.030 7.277 3.030 0.006 0 0.013 0 0.019-0h-0.001c0.002 0 0.005 0 0.008 0 1.089 0 2.139-0.169 3.125-0.482l-0.073 0.020c0.101-0.032 0.217-0.051 0.337-0.051 0.633 0 1.146 0.513 1.146 1.146 0 0.19-0.046 0.369-0.128 0.527l0.003-0.006c-1.995 3.874-5.967 6.477-10.546 6.477-0.001 0-0.002 0-0.003 0h0zM7.186 2.615c-2.98 1.835-4.936 5.080-4.936 8.782 0 0.010 0 0.019 0 0.029v-0.002c0 5.694 4.632 10.326 10.326 10.326 0.008 0 0.018 0 0.028 0 3.702 0 6.946-1.957 8.756-4.892l0.025-0.044c-0.803 0.194-1.725 0.305-2.673 0.305-0.002 0-0.003 0-0.005 0h0c-0.007 0-0.014 0-0.022 0-3.258 0-6.206-1.326-8.333-3.469l-0.001-0.001c-2.144-2.14-3.47-5.098-3.47-8.366 0-0.947 0.111-1.867 0.321-2.749l-0.016 0.080z"></path>
</svg>
