<!-- Generated by IcoMoon.io -->
<svg version="1.1" xmlns="http://www.w3.org/2000/svg" width="64" height="64" viewBox="0 0 64 64">
<title>moon</title>
<path d="M33.535 62c-8.447 0-16.372-3.274-22.317-9.218s-9.218-13.87-9.218-22.317c0-0.002 0-0.004 0-0.007 0-12.212 6.943-22.803 17.096-28.041l0.177-0.083c0.404-0.21 0.881-0.333 1.388-0.333 1.687 0 3.055 1.368 3.055 3.055 0 0.321-0.049 0.63-0.141 0.92l0.006-0.022c-0.781 2.433-1.231 5.233-1.231 8.137 0 7.609 3.089 14.497 8.081 19.478l0 0.001c4.955 4.991 11.82 8.081 19.406 8.081 0.017 0 0.034 0 0.051-0h-0.003c0.006 0 0.014 0 0.021 0 2.905 0 5.705-0.45 8.333-1.284l-0.195 0.053c0.269-0.086 0.578-0.135 0.898-0.135 1.687 0 3.055 1.368 3.055 3.055 0 0.506-0.123 0.984-0.341 1.405l0.008-0.017c-5.321 10.33-15.911 17.273-28.124 17.273-0.002 0-0.005 0-0.007 0h0zM19.164 6.973c-7.946 4.894-13.164 13.547-13.164 23.418 0 0.026 0 0.052 0 0.078v-0.004c0 15.183 12.352 27.535 27.535 27.535 0.022 0 0.048 0 0.074 0 9.871 0 18.524-5.218 23.35-13.046l0.068-0.118c-2.142 0.517-4.6 0.814-7.128 0.814-0.005 0-0.009 0-0.014 0h0.001c-0.018 0-0.039 0-0.060 0-8.687 0-16.549-3.537-22.222-9.25l-0.002-0.002c-5.716-5.706-9.253-13.594-9.253-22.308 0-2.524 0.297-4.979 0.857-7.332l-0.043 0.214z"></path>
</svg>
