<!-- Generated by IcoMoon.io -->
<svg version="1.1" xmlns="http://www.w3.org/2000/svg" width="24" height="24" viewBox="0 0 24 24">
<title>mouse</title>
<path d="M20.625 0.75v1.5h-8.25c-0.621 0.001-1.124 0.504-1.125 1.125v1.875h-1.471c-2.293 0.003-4.152 1.861-4.154 4.154v7.498c0 3.5 2.848 6.348 6.348 6.348h0.054c3.5 0 6.348-2.848 6.348-6.348v-7.497c-0.003-2.293-1.861-4.152-4.154-4.154h-1.471v-1.5h8.25c0.621-0.001 1.124-0.504 1.125-1.125v-1.875zM9.779 6.75h1.471v4.125h-4.125v-1.471c0.002-1.465 1.189-2.653 2.654-2.654h0zM12.027 21.75h-0.054c-2.676-0.003-4.845-2.172-4.848-4.848v-4.527h9.75v4.527c-0.003 2.676-2.172 4.845-4.848 4.848h-0zM16.875 9.404v1.471h-4.125v-4.125h1.471c1.465 0.002 2.653 1.189 2.654 2.654v0z"></path>
</svg>
