<!-- Generated by IcoMoon.io -->
<svg version="1.1" xmlns="http://www.w3.org/2000/svg" width="24" height="24" viewBox="0 0 24 24">
<title>movie</title>
<path d="M6.375 22.875h16.875v-21.75h-22.5v21.75h5.625zM19.125 2.625h2.625v1.875h-2.625zM19.125 6h2.625v1.875h-2.625zM19.125 9.375h2.625v1.875h-2.625zM19.125 12.75h2.625v1.875h-2.625zM19.125 16.125h2.625v1.875h-2.625zM19.125 19.5h2.625v1.875h-2.625zM6.375 9.375v-6.75h11.25v8.625h-11.25zM6.375 19.5v-6.75h11.25v8.625h-11.25zM2.25 2.625h2.625v1.875h-2.625zM2.25 6h2.625v1.875h-2.625zM2.25 9.375h2.625v1.875h-2.625zM2.25 12.75h2.625v1.875h-2.625zM2.25 16.125h2.625v1.875h-2.625zM2.25 19.5h2.625v1.875h-2.625z"></path>
</svg>
