<!-- Generated by IcoMoon.io -->
<svg version="1.1" xmlns="http://www.w3.org/2000/svg" width="24" height="24" viewBox="0 0 24 24">
<title>object-group</title>
<path d="M14.25 6.375h-8.25v7.125h3.75v4.125h8.25v-7.125h-3.75zM7.5 12v-4.125h5.25v4.125h-5.25zM16.5 12v4.125h-5.25v-2.625h3v-1.5z"></path>
<path d="M23.25 5.25v-4.5h-4.5v1.5h-13.5v-1.5h-4.5v4.5h1.5v13.5h-1.5v4.5h4.5v-1.5h13.5v1.5h4.5v-4.5h-1.5v-13.5zM20.25 2.25h1.5v1.5h-1.5zM2.25 2.25h1.5v1.5h-1.5zM3.75 21.75h-1.5v-1.5h1.5zM21.75 21.75h-1.5v-1.5h1.5zM20.25 18.75h-1.5v1.5h-13.5v-1.5h-1.5v-13.5h1.5v-1.5h13.5v1.5h1.5z"></path>
</svg>
