<!-- Generated by IcoMoon.io -->
<svg version="1.1" xmlns="http://www.w3.org/2000/svg" width="24" height="24" viewBox="0 0 24 24">
<title>opacity</title>
<path d="M8.403 16.407c0.077 0.353 0.167 0.654 0.277 0.945l-0.015-0.046c0.122 0.005 0.244 0.009 0.368 0.009 0 0 0 0 0.001 0 0.542 0 1.072-0.052 1.585-0.151l-0.052 0.008-0.448-0.448 1.061-1.061 1.021 1.021c0.783-0.33 1.458-0.74 2.061-1.234l-0.015 0.012-0.545-0.545 1.061-1.061 0.559 0.559c0.517-0.6 0.955-1.287 1.287-2.033l0.021-0.053-0.941-0.941 1.061-1.061 0.393 0.393c0.11-0.507 0.173-1.089 0.173-1.686 0-0.001 0-0.002 0-0.003v0c0-0.154-0.005-0.307-0.013-0.459-0.26-0.097-0.578-0.187-0.904-0.253l-0.043-0.007 0.291-1.472q0.202 0.040 0.4 0.090c-0.932-3.553-4.171-6.181-8.012-6.181-4.567 0-8.283 3.716-8.283 8.283 0 3.873 2.672 7.133 6.269 8.035q-0.045-0.17-0.082-0.343zM2.25 9.033c0-3.74 3.043-6.783 6.783-6.783s6.783 3.043 6.783 6.783-3.043 6.783-6.783 6.783-6.783-3.043-6.783-6.783z"></path>
<path d="M13.368 8.39l0.727-0.183-0.367-1.454-0.727 0.183c-3.040 0.79-5.369 3.185-6.050 6.205l-0.011 0.055-0.16 0.733 1.466 0.319 0.16-0.733c0.574-2.514 2.477-4.472 4.915-5.115l0.048-0.011z"></path>
<path d="M17.045 6.931q-0.198-0.049-0.4-0.090l-0.291 1.472c3.135 0.638 5.461 3.372 5.461 6.649 0 0.002 0 0.004 0 0.005v-0c0 0.139-0.005 0.277-0.013 0.415l0.999 0.999-1.061 1.061-0.287-0.287c-0.29 0.834-0.707 1.555-1.234 2.179l0.008-0.010 0.401 0.401-1.061 1.061-0.425-0.425c-0.616 0.475-1.335 0.852-2.115 1.093l-0.048 0.013 0.066 0.066-1.061 1.061-0.843-0.843c-0.036 0.001-0.073 0.001-0.109 0.001-2.856 0-5.4-1.821-6.368-4.443-0.095-0.245-0.185-0.546-0.254-0.855l-0.008-0.044-1.466 0.317q0.037 0.172 0.082 0.343c0.964 3.586 4.186 6.182 8.014 6.183h0c4.567 0 8.283-3.716 8.283-8.283 0-3.808-2.613-7.124-6.27-8.036z"></path>
<path d="M11.179 15.664l-1.061 1.061 5.866 5.866 1.061-1.061-5.866-5.866z"></path>
<path d="M14.762 13.857l-1.061 1.061 5.866 5.866 1.061-1.061-5.866-5.866z"></path>
<path d="M16.749 10.329l-1.061 1.061 6.052 6.052 1.061-1.061-6.052-6.052z"></path>
</svg>
