<!-- Generated by IcoMoon.io -->
<svg version="1.1" xmlns="http://www.w3.org/2000/svg" width="24" height="24" viewBox="0 0 24 24">
<title>paint-bucket</title>
<path d="M19.912 14.532l-0.586-0.733-0.586 0.733c-0.392 0.49-2.345 3.010-2.345 4.495 0 1.709 1.315 3.099 2.931 3.099s2.931-1.39 2.931-3.099c0-1.485-1.953-4.004-2.345-4.494zM19.326 20.625c-0.789 0-1.431-0.717-1.431-1.599 0-0.547 0.726-1.776 1.431-2.775 0.705 0.998 1.431 2.227 1.431 2.775 0 0.882-0.642 1.599-1.431 1.599z"></path>
<path d="M5.75 2.414l-1.244 3.417-3.096-1.275-0.571 1.387 3.153 1.298-2.732 7.505c-0.086 0.228-0.135 0.492-0.135 0.768 0 0.967 0.609 1.791 1.464 2.111l0.016 0.005 8.659 3.152c0.229 0.086 0.493 0.136 0.77 0.136 0.967 0 1.791-0.609 2.109-1.465l0.005-0.016 4.489-12.333zM7.084 8.515c0.118 0.738 0.75 1.296 1.512 1.296 0.845 0 1.53-0.685 1.53-1.53s-0.685-1.53-1.53-1.53c-0.376 0-0.721 0.136-0.988 0.361l0.002-0.002-1.716-0.707 0.752-2.067 10.068 3.665-1.34 3.681v-0.057h-11.381l1.387-3.811zM12.739 18.925c-0.108 0.29-0.383 0.494-0.705 0.494-0.092 0-0.18-0.017-0.262-0.047l0.005 0.002-8.659-3.152c-0.29-0.108-0.494-0.383-0.494-0.705 0-0.092 0.017-0.18 0.047-0.262l-0.002 0.005 0.777-2.135h11.402z"></path>
</svg>
