<!-- Generated by IcoMoon.io -->
<svg version="1.1" xmlns="http://www.w3.org/2000/svg" width="24" height="24" viewBox="0 0 24 24">
<title>paperclip</title>
<path d="M7.193 22.125c-3.521 0-6.375-2.854-6.375-6.375 0-1.76 0.714-3.354 1.867-4.508l9.216-9.216 1.061 1.061-9.216 9.216c-0.882 0.882-1.428 2.101-1.428 3.447 0 2.692 2.183 4.875 4.875 4.875 1.346 0 2.565-0.546 3.447-1.428l9.746-9.746c0.611-0.611 0.989-1.455 0.989-2.386 0-1.864-1.511-3.375-3.375-3.375-0.932 0-1.776 0.378-2.387 0.989l-9.746 9.746c-0.341 0.34-0.552 0.81-0.552 1.329 0 1.036 0.839 1.875 1.875 1.875 0.519 0 0.989-0.211 1.329-0.552l8.42-8.42 1.061 1.061-8.42 8.42c-0.61 0.606-1.45 0.98-2.378 0.98-1.864 0-3.375-1.511-3.375-3.375 0-0.928 0.374-1.768 0.98-2.378l9.746-9.746c0.883-0.888 2.106-1.437 3.457-1.437 2.692 0 4.875 2.183 4.875 4.875 0 1.351-0.549 2.574-1.437 3.456l-9.746 9.746c-1.147 1.153-2.736 1.867-4.49 1.867-0.006 0-0.012 0-0.018-0h0.001z"></path>
</svg>
