<!-- Generated by IcoMoon.io -->
<svg version="1.1" xmlns="http://www.w3.org/2000/svg" width="24" height="24" viewBox="0 0 24 24">
<title>pen-nib</title>
<path d="M22.545 6.454l-4.915-4.915c-0.204-0.204-0.485-0.33-0.796-0.33-0.35 0-0.663 0.16-0.869 0.411l-0.002 0.002-4.216 5.153-6.1 1.243c-0.434 0.089-0.783 0.391-0.936 0.789l-0.003 0.009-3.872 10.208c-0.052 0.134-0.083 0.29-0.083 0.452 0 0.353 0.143 0.672 0.374 0.903l2.497 2.497c0.231 0.231 0.55 0.374 0.903 0.374 0.163 0 0.318-0.030 0.461-0.086l-0.009 0.003 10.212-3.874c0.401-0.154 0.7-0.495 0.793-0.913l0.002-0.008 1.317-6.033 5.157-4.219c0.253-0.208 0.413-0.521 0.413-0.871 0-0.311-0.126-0.592-0.33-0.796v0zM14.549 17.934l-9.964 3.779-0.616-0.616 4.658-4.657c0.37 0.212 0.814 0.337 1.287 0.337 1.451 0 2.628-1.176 2.628-2.628s-1.176-2.628-2.628-2.628c-1.451 0-2.628 1.176-2.628 2.628 0 0.444 0.11 0.861 0.304 1.228l-0.007-0.014-4.674 4.674-0.616-0.616 3.777-9.958 5.846-1.191 3.893 3.893zM8.785 14.152c0-0.621 0.504-1.125 1.125-1.125s1.125 0.504 1.125 1.125c0 0.621-0.504 1.125-1.125 1.125v0c-0.621 0-1.125-0.504-1.125-1.125v0zM16.679 10.914l-3.508-3.508 3.693-4.513 4.329 4.329z"></path>
</svg>
