<!-- Generated by IcoMoon.io -->
<svg version="1.1" xmlns="http://www.w3.org/2000/svg" width="64" height="64" viewBox="0 0 64 64">
<title>pencil</title>
<path d="M58.745 5.255c-2.009-2.009-4.785-3.252-7.852-3.252s-5.842 1.243-7.852 3.252l-34.062 34.062-6.021 17.751c-0.107 0.301-0.169 0.648-0.169 1.009 0 0.862 0.351 1.642 0.918 2.204l0.011 0.011c0.562 0.566 1.341 0.917 2.201 0.918h0c0.362-0 0.71-0.062 1.034-0.175l-0.022 0.007 17.751-6.021 34.062-34.062c2.009-2.009 3.252-4.785 3.252-7.852s-1.243-5.842-3.252-7.852v0zM22.514 51.532l-15.204 5.158 5.158-15.204 26.095-26.095 10.047 10.047zM55.917 18.13l-4.479 4.479-10.047-10.046 4.479-4.479c1.286-1.289 3.065-2.087 5.029-2.087 3.923 0 7.104 3.181 7.104 7.104 0 1.965-0.798 3.743-2.087 5.029l-0 0z"></path>
</svg>
