<!-- Generated by IcoMoon.io -->
<svg version="1.1" xmlns="http://www.w3.org/2000/svg" width="24" height="24" viewBox="0 0 24 24">
<title>pencil</title>
<path d="M22.029 1.971c-0.754-0.754-1.795-1.22-2.944-1.22s-2.191 0.466-2.944 1.22l-12.773 12.773-2.258 6.657c-0.040 0.113-0.063 0.243-0.063 0.378 0 0.323 0.132 0.616 0.344 0.827l0.004 0.004c0.211 0.212 0.503 0.344 0.826 0.344h0c0.136-0 0.266-0.023 0.388-0.066l-0.008 0.003 6.657-2.258 12.773-12.773c0.754-0.754 1.22-1.795 1.22-2.944s-0.466-2.191-1.22-2.944v0zM8.443 19.325l-5.702 1.934 1.934-5.702 9.785-9.785 3.767 3.767zM20.969 6.799l-1.68 1.68-3.767-3.767 1.68-1.68c0.482-0.483 1.149-0.783 1.886-0.783 1.471 0 2.664 1.193 2.664 2.664 0 0.737-0.299 1.404-0.783 1.886l-0 0z"></path>
</svg>
