<!-- Generated by IcoMoon.io -->
<svg version="1.1" xmlns="http://www.w3.org/2000/svg" width="64" height="64" viewBox="0 0 64 64">
<title>people</title>
<path d="M57.818 39.537l-8.043-5.263 3.097-5.677c0.716-1.332 1.138-2.915 1.14-4.596v-9.001c0-0.010 0-0.021 0-0.032 0-7.176-5.817-12.992-12.992-12.992-3.415 0-6.523 1.318-8.842 3.473l0.008-0.007 2.718 2.934c1.599-1.482 3.748-2.391 6.109-2.391 4.97 0 8.999 4.029 8.999 8.999 0 0.006 0 0.013 0 0.019v-0.001 9c-0 0.98-0.241 1.903-0.667 2.714l0.015-0.032-4.865 8.918 11.132 7.284c1.444 0.956 2.384 2.573 2.384 4.41 0 0.006 0 0.013-0 0.019v-0.001 6.688h-9v4h13v-10.688c0-0.007 0-0.016 0-0.025 0-3.229-1.653-6.072-4.16-7.729l-0.035-0.021z"></path>
<path d="M39.818 43.537l-8.043-5.263 3.097-5.677c0.716-1.332 1.138-2.915 1.14-4.596v-9.001c-0.005-7.183-5.824-13.005-13.005-13.017h-0.001c-7.165 0-12.993 5.839-12.993 13.017v9c-0 0.014-0 0.030-0 0.046 0 1.665 0.417 3.232 1.153 4.603l-0.026-0.052 3.114 5.708-7.996 5.232c-2.541 1.677-4.194 4.519-4.194 7.747 0 0.006 0 0.011 0 0.017v-0.001l-0.062 10.7h42.012v-10.688c0-0.007 0-0.016 0-0.025 0-3.229-1.653-6.072-4.159-7.729l-0.035-0.021zM40.012 58h-33.988l0.039-6.688c0-0.005 0-0.012 0-0.018 0-1.837 0.94-3.454 2.365-4.397l0.020-0.012 11.085-7.254-4.881-8.949c-0.402-0.773-0.639-1.689-0.639-2.659 0-0.008 0-0.016 0-0.024v0.001-9c0-4.971 4.029-9 9-9s9 4.029 9 9v0 9c-0 0.98-0.241 1.903-0.667 2.714l0.015-0.032-4.864 8.918 11.132 7.284c1.444 0.956 2.384 2.573 2.384 4.41 0 0.006 0 0.013-0 0.019v-0.001z"></path>
</svg>
