<!-- Generated by IcoMoon.io -->
<svg version="1.1" xmlns="http://www.w3.org/2000/svg" width="24" height="24" viewBox="0 0 24 24">
<title>people</title>
<path d="M21.682 14.826l-3.016-1.974 1.161-2.129c0.269-0.5 0.427-1.093 0.428-1.724v-3.375c0-0.004 0-0.008 0-0.012 0-2.691-2.181-4.872-4.872-4.872-1.281 0-2.446 0.494-3.316 1.302l0.003-0.003 1.019 1.1c0.6-0.556 1.405-0.897 2.291-0.897 1.864 0 3.375 1.511 3.375 3.375 0 0.002 0 0.005 0 0.007v-0 3.375c-0 0.367-0.091 0.713-0.25 1.018l0.006-0.012-1.824 3.344 4.175 2.732c0.542 0.358 0.894 0.965 0.894 1.654 0 0.002 0 0.005-0 0.007v-0 2.508h-3.375v1.5h4.875v-4.008c0-0.003 0-0.006 0-0.009 0-1.211-0.62-2.277-1.56-2.898l-0.013-0.008z"></path>
<path d="M14.932 16.326l-3.016-1.974 1.161-2.129c0.269-0.5 0.427-1.093 0.428-1.724v-3.375c-0.002-2.694-2.184-4.877-4.877-4.881h-0c-2.687 0-4.873 2.19-4.873 4.881v3.375c-0 0.005-0 0.011-0 0.017 0 0.624 0.156 1.212 0.432 1.726l-0.010-0.020 1.168 2.14-2.999 1.962c-0.953 0.629-1.573 1.695-1.573 2.905 0 0.002 0 0.004 0 0.006v-0l-0.023 4.012h15.754v-4.008c0-0.003 0-0.006 0-0.009 0-1.211-0.62-2.277-1.56-2.898l-0.013-0.008zM15.004 21.75h-12.746l0.015-2.508c0-0.002 0-0.004 0-0.007 0-0.689 0.352-1.295 0.887-1.649l0.007-0.005 4.157-2.72-1.831-3.356c-0.151-0.29-0.239-0.633-0.239-0.997 0-0.003 0-0.006 0-0.009v0-3.375c0-1.864 1.511-3.375 3.375-3.375s3.375 1.511 3.375 3.375v0 3.375c-0 0.367-0.091 0.713-0.25 1.018l0.006-0.012-1.824 3.344 4.175 2.732c0.542 0.358 0.894 0.965 0.894 1.654 0 0.002 0 0.005-0 0.007v-0z"></path>
</svg>
