<!-- Generated by IcoMoon.io -->
<svg version="1.1" xmlns="http://www.w3.org/2000/svg" width="24" height="24" viewBox="0 0 24 24">
<title>phone</title>
<path d="M21.064 4.202l-0.032-0.020-4.059-2-4.381 5.841 2.016 2.688c-0.129 2.098-1.798 3.767-3.884 3.895l-0.012 0.001-2.688-2.016-5.841 4.381 2 4.059 0.020 0.032c0.211 0.336 0.579 0.556 0.999 0.556 0.001 0 0.003 0 0.004 0h1.047c8.487-0 15.367-6.88 15.367-15.367 0-0 0-0 0-0v0-1.047c0-0.001 0-0.002 0-0.004 0-0.42-0.22-0.788-0.551-0.996l-0.005-0.003zM20.12 6.252c0 7.646-6.221 13.867-13.867 13.867h-0.848l-1.327-2.694 3.946-2.959 2.197 1.648h0.25c3.115-0.004 5.64-2.528 5.644-5.643v-0.25l-1.648-2.197 2.959-3.946 2.694 1.327z"></path>
</svg>
