<!-- Generated by IcoMoon.io -->
<svg version="1.1" xmlns="http://www.w3.org/2000/svg" width="24" height="24" viewBox="0 0 24 24">
<title>pin</title>
<path d="M22.397 6.572l-4.969-4.969c-0.527-0.527-1.255-0.852-2.059-0.852-1.608 0-2.912 1.304-2.912 2.912 0 0.659 0.219 1.267 0.588 1.755l-0.005-0.007-0.23 0.259-4.578 2.011-1.997-1.079c-0.155-0.085-0.339-0.135-0.534-0.135-0.322 0-0.613 0.135-0.818 0.352l-0 0.001-1.948 2.063c-0.191 0.201-0.309 0.473-0.309 0.772 0 0.311 0.127 0.592 0.332 0.795l4.766 4.766-6.973 6.973v1.061h1.061l6.973-6.973 4.744 4.744c0.203 0.204 0.485 0.331 0.795 0.331 0.296 0 0.565-0.114 0.765-0.301l-0.001 0.001 2.082-1.928c0.222-0.206 0.361-0.499 0.361-0.825 0-0.197-0.051-0.383-0.14-0.544l0.003 0.006-1.094-2.009 1.975-4.243 0.403-0.484c0.463 0.325 1.039 0.519 1.66 0.519 1.609 0 2.913-1.304 2.913-2.913 0-0.804-0.326-1.532-0.853-2.059v0zM21.336 9.629c-0.256 0.256-0.609 0.414-0.999 0.414s-0.743-0.158-0.999-0.414l-0.791-0.792-1.551 1.86-2.377 5.106 1.317 2.417-1.604 1.484-10.059-10.058 1.5-1.589 2.389 1.291 5.549-2.438 1.368-1.54-0.711-0.711c-0.256-0.256-0.414-0.609-0.414-0.999 0-0.78 0.632-1.412 1.412-1.412 0.39 0 0.743 0.158 0.999 0.414l4.969 4.969c0.256 0.256 0.414 0.609 0.414 0.999s-0.158 0.743-0.414 0.999v0z"></path>
</svg>
