<!-- Generated by IcoMoon.io -->
<svg version="1.1" xmlns="http://www.w3.org/2000/svg" width="24" height="24" viewBox="0 0 24 24">
<title>pizza</title>
<path d="M21.951 4.974c-3.441-2.295-6.693-3.43-9.941-3.472-3.29-0.041-6.535 0.97-9.922 3.095-0.426 0.268-0.705 0.735-0.705 1.268 0 0.281 0.078 0.544 0.213 0.769l-0.004-0.007 9.121 15.54c0.262 0.446 0.74 0.741 1.286 0.741 0 0 0 0 0 0h0.008c0.002 0 0.005 0 0.007 0 0.541 0 1.015-0.289 1.275-0.722l0.004-0.007 9.111-15.185c0.135-0.22 0.215-0.487 0.215-0.773 0-0.518-0.263-0.975-0.663-1.244l-0.005-0.003zM21.118 6.222l-9.111 15.185-9.122-15.54c3.073-1.928 5.996-2.867 8.928-2.867q0.089 0 0.178 0.001c2.95 0.038 5.936 1.091 9.128 3.22z"></path>
<path d="M10.48 10.851c-0.111-0.615-0.642-1.075-1.28-1.075-0.718 0-1.3 0.582-1.3 1.3s0.582 1.3 1.3 1.3c0.080 0 0.157-0.007 0.233-0.021l-0.008 0.001c0.615-0.111 1.075-0.642 1.075-1.28 0-0.080-0.007-0.157-0.021-0.233l0.001 0.008z"></path>
<path d="M15.412 12.455c0.467 0.545 0.405 1.366-0.14 1.833s-1.366 0.405-1.833-0.14c-0.467-0.545-0.405-1.366 0.14-1.833s1.366-0.405 1.833 0.14z"></path>
<path d="M10.020 15.952l0.96-1.152 2.25 1.875-0.96 1.152-2.25-1.875z"></path>
<path d="M11.737 9.049l3-1.125 0.527 1.405-3 1.125-0.527-1.405z"></path>
<path d="M5.649 8.512c1.56-0.979 3.963-2.136 6.601-2.136q0.058 0 0.116 0.001c2.197 0.028 4.213 0.703 6.344 2.124l0.832-1.248c-2.382-1.589-4.656-2.344-7.156-2.376-3.049-0.038-5.779 1.264-7.533 2.365z"></path>
</svg>
