<!-- Generated by IcoMoon.io -->
<svg version="1.1" xmlns="http://www.w3.org/2000/svg" width="24" height="24" viewBox="0 0 24 24">
<title>pool</title>
<path d="M21.96 16.945c-0.425-0.198-0.954-0.445-1.924-0.445s-1.499 0.247-1.924 0.445c-0.365 0.17-0.653 0.305-1.29 0.305s-0.925-0.134-1.29-0.305c-0.425-0.198-0.954-0.445-1.924-0.445s-1.499 0.247-1.924 0.445c-0.365 0.17-0.653 0.305-1.29 0.305s-0.925-0.134-1.29-0.305c-0.425-0.198-0.954-0.445-1.924-0.445s-1.499 0.247-1.924 0.445c-0.365 0.17-0.653 0.305-1.29 0.305s-0.925-0.134-1.29-0.305c-0.425-0.198-0.954-0.445-1.924-0.445v1.5c0.637 0 0.925 0.134 1.29 0.305 0.425 0.198 0.954 0.445 1.924 0.445s1.499-0.247 1.924-0.445c0.365-0.17 0.653-0.305 1.29-0.305s0.925 0.134 1.29 0.305c0.425 0.198 0.954 0.445 1.924 0.445s1.499-0.247 1.924-0.445c0.365-0.17 0.653-0.305 1.29-0.305s0.925 0.134 1.29 0.305c0.425 0.198 0.954 0.445 1.924 0.445s1.499-0.247 1.924-0.445c0.365-0.17 0.653-0.305 1.29-0.305s0.925 0.134 1.29 0.305c0.425 0.198 0.954 0.445 1.924 0.445v-1.5c-0.637 0-0.925-0.134-1.29-0.305z"></path>
<path d="M20.036 21c-0.97 0-1.499 0.247-1.924 0.445-0.365 0.17-0.653 0.305-1.29 0.305s-0.925-0.134-1.29-0.305c-0.425-0.198-0.954-0.445-1.924-0.445s-1.499 0.247-1.924 0.445c-0.365 0.17-0.653 0.305-1.29 0.305s-0.925-0.134-1.29-0.305c-0.425-0.198-0.954-0.445-1.924-0.445s-1.499 0.247-1.924 0.445c-0.365 0.17-0.653 0.305-1.29 0.305s-0.925-0.134-1.29-0.305c-0.425-0.198-0.954-0.445-1.924-0.445v1.5c0.637 0 0.925 0.134 1.29 0.305 0.425 0.198 0.954 0.445 1.924 0.445s1.499-0.247 1.924-0.445c0.365-0.17 0.653-0.305 1.29-0.305s0.925 0.134 1.29 0.305c0.425 0.198 0.954 0.445 1.924 0.445s1.499-0.247 1.924-0.445c0.365-0.17 0.653-0.305 1.29-0.305s0.925 0.134 1.29 0.305c0.425 0.198 0.954 0.445 1.924 0.445s1.499-0.247 1.924-0.445c0.365-0.17 0.653-0.305 1.29-0.305s0.925 0.134 1.29 0.305c0.425 0.198 0.954 0.445 1.924 0.445v-1.5c-0.637 0-0.925-0.134-1.29-0.305-0.425-0.198-0.954-0.445-1.924-0.445z"></path>
<path d="M11.625 12.75h6.75v2.625h1.5v-9.943c0-0.001 0-0.002 0-0.003 0-0.476 0.148-0.916 0.401-1.279l-0.005 0.007 2.342-3.407h-1.82l-1.758 2.557c-0.413 0.592-0.66 1.327-0.66 2.12 0 0.002 0 0.003 0 0.005v-0 2.068h-6.75v-2.068c0-0.001 0-0.002 0-0.003 0-0.476 0.148-0.916 0.401-1.279l-0.005 0.007 2.342-3.407h-1.82l-1.758 2.557c-0.413 0.592-0.66 1.327-0.66 2.12 0 0.002 0 0.003 0 0.005v-0 9.943h1.5zM11.625 9h6.75v2.25h-6.75z"></path>
</svg>
