<!-- Generated by IcoMoon.io -->
<svg version="1.1" xmlns="http://www.w3.org/2000/svg" width="24" height="24" viewBox="0 0 24 24">
<title>puzzle</title>
<path d="M23.048 12.033l-2.576-2.318 0.769-0.628c0.342-0.282 0.628-0.616 0.851-0.991l0.010-0.017c0.851-1.474 0.603-3.283-0.616-4.502s-3.029-1.467-4.502-0.616c-0.393 0.233-0.727 0.519-1.004 0.854l-0.005 0.006-0.628 0.769-2.346-2.605c-0.204-0.203-0.485-0.329-0.795-0.329s-0.592 0.126-0.796 0.329l-3.075 3.075 0.056 1.111 1.552 1.268c0.206 0.169 0.379 0.369 0.514 0.594l0.006 0.010c0.507 0.878 0.355 1.959-0.378 2.692s-1.814 0.884-2.692 0.378c-0.236-0.141-0.435-0.314-0.601-0.516l-0.003-0.004-1.268-1.552-1.111-0.056-3.34 3.34c-0.204 0.204-0.33 0.485-0.33 0.795s0.126 0.592 0.33 0.795l8.22 8.22c0.679 0.679 1.616 1.098 2.652 1.098s1.973-0.42 2.652-1.098l8.485-8.485c0.203-0.204 0.329-0.485 0.329-0.795s-0.126-0.592-0.329-0.795l0 0zM13.531 21.076c-0.407 0.407-0.97 0.659-1.591 0.659s-1.184-0.252-1.591-0.659l-7.955-7.955 2.489-2.489 0.75 0.918c0.282 0.342 0.616 0.628 0.991 0.851l0.017 0.010c1.474 0.851 3.283 0.603 4.502-0.616s1.467-3.029 0.616-4.502c-0.233-0.393-0.519-0.727-0.854-1.004l-0.006-0.005-0.918-0.75 2.209-2.209 2.626 2.918 1.138-0.027 1.175-1.438c0.169-0.206 0.369-0.378 0.594-0.514l0.010-0.006c0.878-0.507 1.959-0.355 2.692 0.378s0.884 1.814 0.378 2.692c-0.141 0.235-0.314 0.435-0.515 0.601l-0.004 0.003-1.438 1.175-0.027 1.138 2.918 2.626z"></path>
</svg>
