<!-- Generated by IcoMoon.io -->
<svg version="1.1" xmlns="http://www.w3.org/2000/svg" width="64" height="64" viewBox="0 0 64 64">
<title>puzzle</title>
<path d="M61.596 31.227l-0.076-0.072-6.87-6.183 2.051-1.676c0.911-0.752 1.675-1.642 2.27-2.644l0.026-0.046c2.269-3.93 1.608-8.755-1.643-12.007s-8.076-3.912-12.006-1.643c-1.048 0.621-1.938 1.385-2.676 2.278l-0.014 0.017-1.676 2.051-6.255-6.946c-0.543-0.543-1.293-0.879-2.121-0.879s-1.578 0.336-2.121 0.879l-8.201 8.201 0.149 2.963 4.138 3.381c0.549 0.451 1.010 0.984 1.37 1.584l0.015 0.028c1.351 2.34 0.946 5.225-1.007 7.178s-4.838 2.358-7.178 1.007c-0.628-0.375-1.161-0.836-1.603-1.375l-0.008-0.011-3.381-4.138-2.963-0.149-8.908 8.908c-0.543 0.543-0.879 1.293-0.879 2.121s0.336 1.578 0.879 2.121l21.92 21.92c1.811 1.807 4.311 2.924 7.071 2.924s5.26-1.117 7.071-2.924l22.627-22.627c0.542-0.543 0.877-1.293 0.877-2.121s-0.335-1.578-0.877-2.121l0 0zM36.14 55.269c-1.087 1.084-2.586 1.755-4.243 1.755s-3.156-0.67-4.243-1.755l-21.213-21.213 6.637-6.637 2.001 2.449c0.752 0.911 1.642 1.675 2.644 2.27l0.046 0.026c3.93 2.269 8.755 1.608 12.006-1.643s3.912-8.076 1.643-12.006c-0.621-1.048-1.385-1.938-2.278-2.677l-0.017-0.014-2.449-2.001 5.891-5.891 7.002 7.78 3.035-0.072 3.133-3.834c0.451-0.549 0.983-1.009 1.583-1.369l0.028-0.015c2.34-1.351 5.225-0.946 7.178 1.007s2.358 4.838 1.007 7.178c-0.375 0.628-0.836 1.16-1.374 1.603l-0.011 0.008-3.834 3.132-0.072 3.035 7.78 7.002z"></path>
</svg>
