<!-- Generated by IcoMoon.io -->
<svg version="1.1" xmlns="http://www.w3.org/2000/svg" width="24" height="24" viewBox="0 0 24 24">
<title>qr-code</title>
<path d="M2.25 2.25h6v-1.5h-7.5v7.5h1.5v-6z"></path>
<path d="M8.25 8.25v-4.5h-4.5v4.5h4.5zM5.25 5.25h1.5v1.5h-1.5z"></path>
<path d="M15.375 0.75v1.5h6.375v6h1.5v-7.5h-7.875z"></path>
<path d="M20.25 8.25v-4.5h-4.5v4.5h4.5zM17.25 5.25h1.5v1.5h-1.5z"></path>
<path d="M2.25 15.75h-1.5v7.5h7.5v-1.5h-6v-6z"></path>
<path d="M5.25 15.75h-1.5v4.5h4.5v-4.5h-3zM6.75 18.75h-1.5v-1.5h1.5z"></path>
<path d="M21.75 21.75h-6.375v1.5h7.875v-7.5h-1.5v6z"></path>
<path d="M12.75 14.25h6v3h1.5v-4.5h-7.5v1.5z"></path>
<path d="M20.25 20.25v-1.5h-9v-6h-7.5v1.5h6v6h10.5z"></path>
<path d="M9.75 3.75h1.5v4.5h-1.5v-4.5z"></path>
<path d="M3.75 11.25h10.5v-7.5h-1.5v6h-9v1.5z"></path>
<path d="M15.75 9.75h4.5v1.5h-4.5v-1.5z"></path>
<path d="M15.75 15.75h1.5v1.5h-1.5v-1.5z"></path>
<path d="M12.75 15.75h1.5v1.5h-1.5v-1.5z"></path>
</svg>
