<!-- Generated by IcoMoon.io -->
<svg version="1.1" xmlns="http://www.w3.org/2000/svg" width="24" height="24" viewBox="0 0 24 24">
<title>rain</title>
<path d="M18.665 6.432c-0.534-3.24-3.315-5.682-6.665-5.682-3.367 0-6.159 2.465-6.668 5.689l-0.005 0.038c-1.185 0.212-2.216 0.762-3.018 1.545l0.001-0.001c-0.962 0.932-1.56 2.236-1.561 3.68v0c0 1.459 0.599 2.848 1.688 3.913q0.133 0.13 0.274 0.251l0.531-1.593c-0.614-0.71-0.993-1.614-0.993-2.57 0-1.986 1.675-3.657 3.812-3.805l0.659-0.046 0.038-0.659c0.168-2.764 2.45-4.941 5.241-4.941 2.787 0 5.067 2.172 5.239 4.916l0.001 0.015 0.042 0.698 0.699 0.007c2.184 0.023 3.769 1.627 3.769 3.815 0 1.554-0.783 2.877-1.961 3.558l-0.615 1.846c1.025-0.254 1.902-0.787 2.572-1.513l0.003-0.003c0.968-1.041 1.501-2.421 1.501-3.887 0-2.771-1.928-4.932-4.585-5.269z"></path>
<path d="M5.908 23.25h1.584l2.969-8.759-1.421-0.482-3.132 9.241z"></path>
<path d="M13.783 23.25h1.584l2.969-8.759-1.421-0.482-3.132 9.241z"></path>
<path d="M13.599 11.767l-3.015 9.233h1.578l2.863-8.767-1.426-0.466z"></path>
<path d="M6.037 11.767l-3.015 9.233h1.578l2.863-8.767-1.426-0.466z"></path>
</svg>
