<!-- Generated by IcoMoon.io -->
<svg version="1.1" xmlns="http://www.w3.org/2000/svg" width="24" height="24" viewBox="0 0 24 24">
<title>reddit</title>
<path d="M19.778 8.387c-0.001 0-0.003 0-0.004 0-0.853 0-1.634 0.309-2.238 0.82l0.005-0.004c-1.356-0.655-2.945-1.059-4.594-1.171l0.84-4.199 1.588 0.203c-0 0.009-0.001 0.017-0.001 0.026 0 0.001 0 0.002 0 0.004 0 1.624 1.316 2.94 2.94 2.94s2.94-1.316 2.94-2.94c0-1.624-1.316-2.94-2.94-2.94-1.074 0-2.014 0.576-2.527 1.436l-0.007 0.013-3.19-0.407-1.169 5.844c-1.78 0.074-3.506 0.488-4.963 1.192-0.6-0.508-1.382-0.816-2.237-0.816-1.918 0-3.472 1.554-3.472 3.472 0 1.204 0.613 2.264 1.543 2.887l0.013 0.008c-0 0.007-0 0.015-0 0.022 0 1.867 1.048 3.602 2.951 4.884 1.812 1.221 4.207 1.894 6.744 1.894s4.932-0.672 6.744-1.894c1.903-1.282 2.951-3.017 2.951-4.884 0-0.007 0-0.015-0-0.022 0.943-0.631 1.556-1.691 1.556-2.895 0-1.917-1.554-3.472-3.472-3.472-0 0-0 0-0 0h0zM18.311 2.625c0.793 0 1.436 0.643 1.436 1.436s-0.643 1.436-1.436 1.436c-0.793 0-1.436-0.643-1.436-1.436v0c0.001-0.793 0.643-1.435 1.436-1.436h0zM20.605 13.65l-0.489 0.226 0.058 0.535c0.013 0.109 0.020 0.236 0.020 0.365v0c0 1.353-0.813 2.646-2.289 3.64-1.567 1.056-3.664 1.637-5.906 1.637s-4.339-0.581-5.906-1.637c-1.476-0.995-2.289-2.288-2.289-3.64 0-0.129 0.007-0.256 0.021-0.38l-0.001 0.015 0.058-0.535-0.489-0.226c-0.682-0.32-1.145-1.001-1.145-1.79 0-1.089 0.883-1.972 1.972-1.972 0.609 0 1.154 0.276 1.515 0.71l0.003 0.003 0.397 0.478 0.544-0.302c1.485-0.825 3.374-1.279 5.319-1.279s3.834 0.454 5.319 1.279l0.544 0.302 0.397-0.478c0.364-0.437 0.909-0.713 1.518-0.713 1.089 0 1.972 0.883 1.972 1.972 0 0.789-0.463 1.47-1.133 1.785l-0.012 0.005z"></path>
</svg>
