<!-- Generated by IcoMoon.io -->
<svg version="1.1" xmlns="http://www.w3.org/2000/svg" width="24" height="24" viewBox="0 0 24 24">
<title>rowing</title>
<path d="M14.183 4.98c0.258 0.169 0.575 0.269 0.915 0.269 0.932 0 1.687-0.755 1.687-1.687s-0.755-1.687-1.687-1.687c-0.932 0-1.687 0.755-1.687 1.687 0 0 0 0 0 0v-0c0 0.001 0 0.003 0 0.004 0 0.591 0.305 1.11 0.766 1.409l0.007 0.004z"></path>
<path d="M19.683 18.595l-2.337-2.337-3.498-0.915-5.027-5.218h2.808l1.872-2.534v5.523l1.504 1.572 1.496 0.299v-8.83h-3.805l-1.824 2.47h-3.496l-1.585-1.645-1.080 1.041 5.291 5.492-5.984 5.039 0.037 0.043h-3.303v1.5h10.875v-1.5h-5.331l4.75-4 1.623 1.684 0.966 3.691 2.795 2.795c0.204 0.204 0.485 0.33 0.796 0.33s0.592-0.126 0.795-0.33l2.121-2.121q0.002-0.002 0.005-0.005c0.322-0.332 0.771-0.54 1.269-0.544h1.835v-1.5zM17.224 21.439l-2.243-2.243-0.564-2.155 2.155 0.564 2.243 2.243z"></path>
</svg>
