<!-- Generated by IcoMoon.io -->
<svg version="1.1" xmlns="http://www.w3.org/2000/svg" width="24" height="24" viewBox="0 0 24 24">
<title>rss</title>
<path d="M3.094 12v1.5c4.136 0 7.5 3.364 7.5 7.5h1.5c0-4.963-4.037-9-9-9z"></path>
<path d="M3.094 6.563v1.5c7.134 0 12.938 5.804 12.938 12.938h1.5c0-0.012 0-0.025 0-0.039 0-3.974-1.617-7.571-4.228-10.169l-0.001-0.001c-2.598-2.612-6.195-4.229-10.17-4.229-0.014 0-0.028 0-0.041 0h0.002z"></path>
<path d="M21.407 13.264c-1.053-2.456-2.49-4.553-4.259-6.317l-0-0c-3.588-3.596-8.548-5.821-14.029-5.821-0.009 0-0.017 0-0.026 0h0.001v1.5c10.132 0 18.375 8.243 18.375 18.375h1.5c0-0.011 0-0.024 0-0.038 0-2.781-0.575-5.427-1.611-7.827l0.049 0.128z"></path>
<path d="M4.219 16.875c-1.657 0-3 1.343-3 3s1.343 3 3 3c1.657 0 3-1.343 3-3v0c-0.002-1.656-1.344-2.998-3-3h-0zM4.219 21.375c-0.828 0-1.5-0.672-1.5-1.5s0.672-1.5 1.5-1.5c0.828 0 1.5 0.672 1.5 1.5v0c-0.001 0.828-0.672 1.499-1.5 1.5h-0z"></path>
</svg>
