<!-- Generated by IcoMoon.io -->
<svg version="1.1" xmlns="http://www.w3.org/2000/svg" width="24" height="24" viewBox="0 0 24 24">
<title>running</title>
<path d="M16.566 9.375l-1.452-2.712-2.846-0.949-0.007 0.020-4.423 1.264c-0.632 0.187-1.086 0.761-1.088 1.442v3.935h1.5v-3.934l3.45-0.986-1.524 4.67-0.007-0.003-1.381 3.867c-0.108 0.292-0.385 0.497-0.709 0.497-0.084 0-0.165-0.014-0.24-0.039l0.005 0.002-3.107-1.036-0.474 1.423 3.107 1.036c0.212 0.073 0.457 0.115 0.712 0.115 0.971 0 1.799-0.615 2.114-1.478l0.005-0.016 1.136-3.18 0.805 0.263 2.264 2.264c0.136 0.135 0.22 0.322 0.22 0.528 0 0.001 0 0.001 0 0.002v-0 5.004h1.5v-5.004c0-0.002 0-0.004 0-0.006 0-0.619-0.252-1.18-0.659-1.585l-2.263-2.263 1.255-3.847 0.903 1.626c0.196 0.348 0.563 0.579 0.983 0.579h3.904v-1.5z"></path>
<path d="M13.445 5.143c0.291 0.244 0.669 0.393 1.082 0.393 0.932 0 1.687-0.755 1.687-1.687s-0.755-1.687-1.687-1.687c-0.932 0-1.687 0.755-1.687 1.687 0 0 0 0 0 0v0c0 0.001 0 0.002 0 0.003 0 0.518 0.234 0.981 0.603 1.289l0.003 0.002z"></path>
</svg>
