<!-- Generated by IcoMoon.io -->
<svg version="1.1" xmlns="http://www.w3.org/2000/svg" width="24" height="24" viewBox="0 0 24 24">
<title>settings</title>
<path d="M11.491 7.875c-2.278 0-4.125 1.847-4.125 4.125s1.847 4.125 4.125 4.125c2.278 0 4.125-1.847 4.125-4.125v0c-0.003-2.277-1.848-4.122-4.125-4.125h-0zM11.491 14.625c-1.45 0-2.625-1.175-2.625-2.625s1.175-2.625 2.625-2.625c1.45 0 2.625 1.175 2.625 2.625v0c-0.002 1.449-1.176 2.623-2.625 2.625h-0z"></path>
<path d="M21.783 15.109l-1.489-1.226c0.126-0.566 0.198-1.216 0.198-1.883s-0.072-1.317-0.209-1.943l0.011 0.060 1.489-1.226c0.21-0.173 0.342-0.432 0.342-0.723 0-0.173-0.047-0.335-0.129-0.474l0.002 0.004-1.529-2.648c-0.164-0.283-0.466-0.469-0.811-0.469-0.119 0-0.232 0.022-0.337 0.062l0.006-0.002-1.808 0.677c-0.908-0.823-1.996-1.467-3.196-1.866l-0.064-0.018-0.317-1.902c-0.075-0.447-0.459-0.783-0.922-0.783-0.001 0-0.002 0-0.003 0h-3.057c-0.001 0-0.002 0-0.003 0-0.463 0-0.847 0.336-0.921 0.778l-0.001 0.005-0.317 1.902c-1.263 0.417-2.351 1.061-3.267 1.891l0.008-0.007-1.808-0.677c-0.098-0.038-0.211-0.060-0.33-0.060-0.345 0-0.646 0.187-0.808 0.465l-0.002 0.004-1.529 2.648c-0.079 0.135-0.126 0.296-0.126 0.469 0 0.291 0.133 0.55 0.341 0.722l0.002 0.001 1.489 1.226c-0.126 0.566-0.198 1.216-0.198 1.883s0.072 1.317 0.209 1.943l-0.011-0.060-1.489 1.226c-0.21 0.173-0.342 0.432-0.342 0.723 0 0.173 0.047 0.335 0.129 0.474l-0.002-0.004 1.529 2.648c0.164 0.283 0.466 0.47 0.811 0.47 0.119 0 0.232-0.022 0.337-0.062l-0.006 0.002 1.808-0.677c0.908 0.823 1.996 1.467 3.196 1.866l0.064 0.018 0.317 1.902c0.075 0.447 0.459 0.783 0.922 0.783 0.001 0 0.002 0 0.003 0h3.057c0.001 0 0.002 0 0.003 0 0.463 0 0.847-0.336 0.921-0.778l0.001-0.005 0.317-1.902c1.263-0.417 2.351-1.061 3.267-1.891l-0.008 0.007 1.808 0.677c0.098 0.038 0.211 0.060 0.33 0.060 0.345 0 0.646-0.187 0.808-0.465l0.002-0.004 1.529-2.648c0.079-0.135 0.126-0.296 0.126-0.469 0-0.291-0.133-0.55-0.341-0.722l-0.002-0.001zM19.409 17.786l-2.255-0.845-0.341 0.344c-0.914 0.921-2.064 1.605-3.352 1.955l-0.053 0.012-0.469 0.124-0.396 2.374h-2.104l-0.396-2.374-0.469-0.124c-1.341-0.362-2.491-1.047-3.404-1.967l-0-0-0.341-0.344-2.255 0.845-1.052-1.822 1.858-1.529-0.127-0.467c-0.166-0.59-0.261-1.267-0.261-1.967s0.095-1.377 0.274-2.020l-0.013 0.053 0.127-0.467-1.858-1.529 1.052-1.822 2.255 0.845 0.341-0.344c0.914-0.921 2.064-1.605 3.352-1.955l0.053-0.012 0.469-0.124 0.396-2.374h2.104l0.396 2.374 0.469 0.124c1.341 0.362 2.491 1.047 3.404 1.967l0 0 0.341 0.344 2.255-0.845 1.052 1.822-1.858 1.529 0.127 0.467c0.166 0.59 0.261 1.267 0.261 1.967s-0.095 1.377-0.274 2.020l0.013-0.053-0.127 0.467 1.858 1.529z"></path>
</svg>
