<!-- Generated by IcoMoon.io -->
<svg version="1.1" xmlns="http://www.w3.org/2000/svg" width="64" height="64" viewBox="0 0 64 64">
<title>settings</title>
<path d="M30.644 21c-6.075 0-11 4.925-11 11s4.925 11 11 11c6.075 0 11-4.925 11-11v0c-0.007-6.072-4.928-10.993-10.999-11h-0.001zM30.644 39c-3.866 0-7-3.134-7-7s3.134-7 7-7c3.866 0 7 3.134 7 7v0c-0.005 3.864-3.136 6.995-7 7h-0z"></path>
<path d="M58.087 40.29l-3.971-3.269c0.336-1.509 0.528-3.242 0.528-5.021s-0.192-3.512-0.557-5.18l0.029 0.16 3.971-3.269c0.559-0.461 0.913-1.153 0.913-1.928 0-0.461-0.125-0.893-0.343-1.263l0.006 0.012-4.077-7.060c-0.438-0.754-1.242-1.252-2.162-1.252-0.316 0-0.619 0.059-0.898 0.166l0.017-0.006-4.82 1.806c-2.423-2.195-5.323-3.913-8.523-4.975l-0.169-0.049-0.845-5.071c-0.201-1.192-1.225-2.089-2.459-2.089-0.002 0-0.005 0-0.007 0h-8.152c-0.002 0-0.004 0-0.007 0-1.234 0-2.258 0.897-2.457 2.074l-0.002 0.015-0.845 5.072c-3.369 1.111-6.27 2.829-8.713 5.042l0.020-0.018-4.821-1.806c-0.261-0.102-0.564-0.161-0.88-0.161-0.92 0-1.723 0.498-2.155 1.24l-0.006 0.012-4.077 7.061c-0.212 0.359-0.337 0.791-0.337 1.252 0 0.775 0.354 1.468 0.909 1.925l0.004 0.003 3.971 3.269c-0.336 1.509-0.528 3.242-0.528 5.021s0.192 3.512 0.557 5.18l-0.029-0.16-3.971 3.269c-0.559 0.461-0.913 1.153-0.913 1.928 0 0.461 0.125 0.893 0.343 1.263l-0.006-0.012 4.077 7.060c0.438 0.754 1.242 1.252 2.162 1.252 0.316 0 0.619-0.059 0.898-0.166l-0.017 0.006 4.82-1.806c2.423 2.195 5.323 3.913 8.523 4.975l0.169 0.049 0.845 5.071c0.201 1.192 1.225 2.089 2.459 2.089 0.002 0 0.005 0 0.007 0h8.152c0.002 0 0.004 0 0.007 0 1.234 0 2.258-0.897 2.457-2.074l0.002-0.015 0.845-5.072c3.369-1.111 6.27-2.829 8.713-5.042l-0.020 0.018 4.821 1.806c0.261 0.102 0.564 0.161 0.88 0.161 0.92 0 1.723-0.498 2.155-1.24l0.006-0.012 4.077-7.061c0.212-0.359 0.337-0.791 0.337-1.252 0-0.775-0.354-1.468-0.909-1.925l-0.004-0.003zM51.758 47.43l-6.014-2.253-0.911 0.917c-2.436 2.455-5.503 4.281-8.938 5.214l-0.14 0.032-1.251 0.33-1.055 6.33h-5.611l-1.055-6.33-1.25-0.33c-3.575-0.966-6.642-2.791-9.077-5.245l-0.001-0.001-0.911-0.917-6.014 2.253-2.806-4.86 4.954-4.078-0.338-1.246c-0.442-1.573-0.696-3.38-0.696-5.246s0.254-3.672 0.73-5.387l-0.033 0.141 0.338-1.247-4.954-4.078 2.806-4.86 6.014 2.253 0.911-0.917c2.436-2.455 5.503-4.281 8.938-5.214l0.14-0.032 1.25-0.329 1.055-6.33h5.611l1.055 6.33 1.251 0.329c3.575 0.966 6.642 2.791 9.077 5.245l0.001 0.001 0.911 0.917 6.014-2.253 2.806 4.86-4.954 4.078 0.338 1.247c0.442 1.573 0.696 3.38 0.696 5.246s-0.254 3.672-0.73 5.387l0.033-0.141-0.338 1.246 4.954 4.078z"></path>
</svg>
