<!-- Generated by IcoMoon.io -->
<svg version="1.1" xmlns="http://www.w3.org/2000/svg" width="24" height="24" viewBox="0 0 24 24">
<title>share-alt</title>
<path d="M18.938 16.125c-1.146 0-2.166 0.542-2.816 1.384l-0.006 0.008-7.684-4.361c0.123-0.345 0.194-0.742 0.194-1.156s-0.071-0.812-0.201-1.181l0.008 0.025 7.684-4.361c0.657 0.847 1.675 1.386 2.819 1.386 1.966 0 3.559-1.594 3.559-3.559s-1.594-3.559-3.559-3.559c-1.966 0-3.559 1.594-3.559 3.559 0 0.289 0.034 0.57 0.099 0.839l-0.005-0.024-7.815 4.435c-0.651-0.692-1.573-1.122-2.596-1.122-1.968 0-3.563 1.595-3.563 3.563s1.595 3.563 3.563 3.563c1.022 0 1.944-0.431 2.594-1.121l0.002-0.002 7.815 4.435c-0.060 0.244-0.094 0.524-0.094 0.812 0 1.967 1.595 3.562 3.562 3.562s3.562-1.595 3.562-3.562c0-1.967-1.595-3.562-3.562-3.562-0 0-0 0-0 0h0zM18.938 2.25c1.139 0 2.063 0.923 2.063 2.063s-0.923 2.063-2.063 2.063c-1.139 0-2.063-0.923-2.063-2.063v0c0.001-1.139 0.924-2.061 2.062-2.063h0zM5.063 14.063c-1.139 0-2.063-0.923-2.063-2.063s0.923-2.063 2.063-2.063c1.139 0 2.063 0.923 2.063 2.063v0c-0.001 1.139-0.924 2.061-2.062 2.063h-0zM18.938 21.75c-1.139 0-2.063-0.923-2.063-2.063s0.923-2.063 2.063-2.063c1.139 0 2.063 0.923 2.063 2.063v0c-0.001 1.139-0.924 2.061-2.062 2.063h-0z"></path>
</svg>
