<!-- Generated by IcoMoon.io -->
<svg version="1.1" xmlns="http://www.w3.org/2000/svg" width="24" height="24" viewBox="0 0 24 24">
<title>shower</title>
<path d="M11.288 13.773l-1.118 1.118 1.116 2.231 1.098-1.159-1.095-2.191z"></path>
<path d="M11.999 18.55l1.045 2.091 1.098-1.159-1.045-2.091-1.098 1.159z"></path>
<path d="M20.575 9.498l-1.084 1.144 2.082 0.996 1.084-1.144-2.082-0.996z"></path>
<path d="M16.060 9.001l2.009 0.961 1.084-1.144-1.968-0.941-1.125 1.125z"></path>
<path d="M14.427 15.987l1.337 1.783 1.046-1.105-1.337-1.783-1.046 1.105z"></path>
<path d="M14.561 13.665l-1.356-1.809-1.071 1.071 1.381 1.842 1.046-1.105z"></path>
<path d="M14.097 10.963l1.72 1.376 1.035-1.093-1.688-1.35-1.067 1.067z"></path>
<path d="M16.992 13.279l1.721 1.377 1.035-1.093-1.721-1.377-1.035 1.093z"></path>
<path d="M16.345 4.72l-1.23 1.23-1.159-1.159c-0.947-0.947-2.255-1.532-3.699-1.532s-2.753 0.586-3.699 1.532v0c-0.016 0.016-0.032 0.032-0.047 0.048-0.586-0.417-1.316-0.667-2.105-0.667-2.019 0-3.655 1.636-3.655 3.655 0 0 0 0 0 0v0 11.297h1.5v-11.297c0-0 0-0 0-0 0-1.19 0.965-2.155 2.155-2.155 0.457 0 0.881 0.142 1.229 0.385l-0.007-0.005c-0.378 0.706-0.6 1.545-0.6 2.436 0 1.445 0.585 2.753 1.531 3.702l1.159 1.159-1.121 1.121 0.938 0.938 9.75-9.75zM8.672 12.183l-1.054-1.054c-0.675-0.675-1.093-1.608-1.093-2.639 0-2.061 1.671-3.732 3.732-3.732 1.030 0 1.963 0.418 2.639 1.093l1.054 1.054z"></path>
</svg>
