<!-- Generated by IcoMoon.io -->
<svg version="1.1" xmlns="http://www.w3.org/2000/svg" width="24" height="24" viewBox="0 0 24 24">
<title>skype</title>
<path d="M21.65 13.754c0.099-0.526 0.156-1.133 0.158-1.752v-0.001c0-0.001 0-0.002 0-0.003 0-5.415-4.39-9.805-9.805-9.805-0.001 0-0.002 0-0.003 0h0c-0.621 0.002-1.227 0.059-1.816 0.168l0.062-0.010c-0.889-0.615-1.99-0.982-3.176-0.982-0.004 0-0.008 0-0.011 0h0.001c-3.141 0.004-5.687 2.549-5.691 5.69v0c0 0.003 0 0.007 0 0.011 0 1.187 0.367 2.288 0.994 3.195l-0.012-0.019c-0.099 0.526-0.156 1.133-0.158 1.752v0.001c0 0.001 0 0.002 0 0.003 0 5.415 4.39 9.805 9.805 9.805 0.001 0 0.002 0 0.003 0h-0c0.621-0.002 1.227-0.059 1.816-0.168l-0.062 0.010c0.889 0.615 1.99 0.982 3.177 0.982 0.004 0 0.008 0 0.011 0h-0.001c3.141-0.004 5.687-2.549 5.691-5.69v-0c0-0.003 0-0.007 0-0.011 0-1.187-0.367-2.287-0.994-3.195l0.012 0.019zM16.941 21.131c-0.001 0-0.003 0-0.004 0-0.965 0-1.853-0.329-2.558-0.881l0.009 0.007-0.273-0.21-0.337 0.070c-0.533 0.118-1.146 0.187-1.775 0.19h-0.002c-4.581 0-8.308-3.727-8.308-8.308 0.003-0.631 0.072-1.244 0.201-1.835l-0.011 0.058 0.070-0.337-0.21-0.273c-0.545-0.7-0.874-1.591-0.874-2.559 0-2.311 1.874-4.185 4.185-4.185 0.968 0 1.86 0.329 2.569 0.881l-0.009-0.007 0.273 0.21 0.337-0.070c0.533-0.118 1.146-0.187 1.775-0.19h0.002c4.581 0 8.308 3.727 8.308 8.308-0.003 0.631-0.072 1.244-0.201 1.835l0.011-0.058-0.070 0.337 0.21 0.273c0.545 0.7 0.874 1.591 0.874 2.559 0 2.311-1.874 4.185-4.185 4.185-0.002 0-0.004 0-0.006 0h0z"></path>
<path d="M13.152 10.788l-1.27-0.293c-0.928-0.22-1.624-0.379-1.624-1.087 0-0.647 0.684-0.94 1.759-0.94 1.918 0 1.954 1.405 3.139 1.405 0.794 0 1.27-0.623 1.27-1.331 0-1.405-2.333-2.321-4.641-2.321-2.113 0-4.568 0.916-4.568 3.395 0 2.052 1.368 2.785 3.151 3.212l1.783 0.44c1.087 0.269 1.759 0.391 1.759 1.173 0 0.623-0.696 1.099-1.771 1.099-2.26 0-2.382-1.881-3.689-1.881-0.855 0-1.234 0.611-1.234 1.282 0 1.502 2.296 2.724 5.044 2.724 2.296 0 4.69-1.148 4.69-3.628-0-2.125-2.064-2.858-3.799-3.249z"></path>
</svg>
