<!-- Generated by IcoMoon.io -->
<svg version="1.1" xmlns="http://www.w3.org/2000/svg" width="24" height="24" viewBox="0 0 24 24">
<title>smile</title>
<path d="M12 0.75c-6.213 0-11.25 5.037-11.25 11.25s5.037 11.25 11.25 11.25 11.25-5.037 11.25-11.25-5.037-11.25-11.25-11.25zM18.894 18.894c-1.757 1.752-4.182 2.835-6.859 2.835-5.365 0-9.715-4.349-9.715-9.715s4.349-9.715 9.715-9.715c5.365 0 9.715 4.349 9.715 9.715 0 1.365-0.282 2.664-0.79 3.843l0.024-0.063c-0.517 1.205-1.222 2.234-2.090 3.099l-0 0z"></path>
<path d="M7.125 9.375h1.875v1.875h-1.875v-1.875z"></path>
<path d="M15 9.375h1.875v1.875h-1.875v-1.875z"></path>
<path d="M15.857 14.4c-0.591 1.462-1.999 2.475-3.643 2.475-0.004 0-0.009 0-0.013-0h-0.402c-0.004 0-0.008 0-0.013 0-1.644 0-3.052-1.013-3.634-2.449l-0.009-0.026-0.060-0.15h-1.616l0.283 0.707c0.824 2.020 2.773 3.418 5.049 3.418h0.403c2.276 0 4.225-1.398 5.035-3.382l0.013-0.036 0.283-0.707h-1.616z"></path>
</svg>
