<!-- Generated by IcoMoon.io -->
<svg version="1.1" xmlns="http://www.w3.org/2000/svg" width="24" height="24" viewBox="0 0 24 24">
<title>smoking-room</title>
<path d="M0.75 11.25v5.625h16.125v-5.625h-16.125zM15.375 15.375h-13.125v-2.625h13.125z"></path>
<path d="M18 11.25h1.5v5.625h-1.5v-5.625z"></path>
<path d="M20.625 11.25h1.5v5.625h-1.5v-5.625z"></path>
<path d="M18.067 8.123c-0.156-0.233-0.25-0.52-0.25-0.828 0-0.372 0.136-0.713 0.36-0.975l-0.002 0.002c0.449-0.52 0.722-1.202 0.722-1.948 0-0.653-0.21-1.257-0.565-1.749l0.006 0.009-0.274-0.384h-1.715l-0.085 0.061 0.853 1.195c0.174 0.241 0.279 0.543 0.279 0.868 0 0.372-0.136 0.713-0.362 0.974l0.002-0.002c-0.446 0.521-0.718 1.203-0.718 1.949 0 0.618 0.187 1.193 0.507 1.671l-0.007-0.011 0.28 0.42h1.803z"></path>
<path d="M21.442 8.123c-0.156-0.233-0.25-0.52-0.25-0.828 0-0.372 0.136-0.713 0.36-0.975l-0.002 0.002c0.449-0.52 0.722-1.202 0.722-1.948 0-0.653-0.21-1.257-0.565-1.749l0.006 0.009-0.274-0.384h-1.715l-0.085 0.061 0.853 1.195c0.174 0.241 0.279 0.543 0.279 0.868 0 0.372-0.136 0.713-0.362 0.974l0.002-0.002c-0.446 0.521-0.718 1.203-0.718 1.949 0 0.618 0.187 1.193 0.507 1.671l-0.007-0.011 0.28 0.42h1.803z"></path>
</svg>
