<!-- Generated by IcoMoon.io -->
<svg version="1.1" xmlns="http://www.w3.org/2000/svg" width="64" height="64" viewBox="0 0 64 64">
<title>social-facebook</title>
<path d="M38 62h-14v-25h-9v-14h9v-6c0-9.112 5.888-15 15-15 3.078 0 5.992 0.574 7.557 0.883 0.31 0.061 0.604 0.119 0.736 0.139l1.707 0.253v12.726h-8c-2.057 0-2.603 0.338-2.721 0.441-0.104 0.091-0.279 0.415-0.279 1.559v5h10.21l-1.4 14h-8.81zM28 58h6v-25h9.19l0.6-6h-9.79v-9c0-1.456 0.187-3.292 1.644-4.568 1.131-0.991 2.783-1.432 5.356-1.432h4v-5.345c-1.508-0.286-3.745-0.655-6-0.655-6.888 0-11 4.112-11 11v10h-9v6h9z"></path>
</svg>
