<!-- Generated by IcoMoon.io -->
<svg version="1.1" xmlns="http://www.w3.org/2000/svg" width="64" height="64" viewBox="0 0 64 64">
<title>social-twitter</title>
<path d="M56.375 12h-4.784c-0.97-0.828-2.072-1.548-3.259-2.118l-0.091-0.039c-1.758-0.854-3.824-1.353-6.006-1.353h-0c-0.001 0-0.002 0-0.003 0-7.515 0-13.712 5.643-14.585 12.923l-0.007 0.070c-5.797-1.357-11.254-5.275-14.15-10.439l-3.42-6.099-3.524 6.040c-1.121 1.922-1.847 3.73-2.426 6.045-3.017 12.067 0.381 19.876 3.762 24.303 1.345 1.747 2.879 3.255 4.595 4.531l0.062 0.044c-0.855 0.198-1.838 0.313-2.847 0.314h-0.001c-0.249 0-0.502-0.008-0.75-0.022l-6.815-0.405v7.474l1.927 1.168c0.298 0.181 7.427 4.424 18.487 4.424 5.281 0 10.236-1.055 14.729-3.136 4.271-2.009 7.883-4.748 10.823-8.092l0.031-0.036c5.616-6.369 8.836-14.809 8.836-23.156 0-0.106 0.004-0.273 0.009-0.459l5.776-11.98zM53 23s-0.041 0.976-0.041 1.439c0 14.134-10.758 30.42-30.42 30.42-10.071 0-16.414-3.844-16.414-3.844v-0.976l2.578 0.153q0.496 0.029 0.988 0.029c4.61 0 8.855-1.908 12.286-4.597-4.7-0.099-18.977-7.624-13.977-27.624 0.452-1.892 1.14-3.56 2.046-5.083l-0.046 0.083c4.238 7.557 13 13 22 13-0.166-0.794-0.457-1.991-0.457-2.819 0-0.001 0-0.003 0-0.005 0-5.902 4.785-10.687 10.687-10.687 0.002 0 0.003 0 0.005 0h-0c3.078 0 5.813 1.425 7.766 3.51h6.375z"></path>
</svg>
