<!-- Generated by IcoMoon.io -->
<svg version="1.1" xmlns="http://www.w3.org/2000/svg" width="64" height="64" viewBox="0 0 64 64">
<title>social-linkedin</title>
<path d="M14.806 26.138h7.416v23.862h-7.416v-23.862z"></path>
<path d="M18.516 14.277c-0 0-0.001 0-0.002 0-2.375 0-4.3 1.925-4.3 4.3s1.925 4.3 4.3 4.3c2.375 0 4.3-1.925 4.3-4.3 0-0 0-0.001 0-0.001v0c-0.001-2.373-1.924-4.297-4.298-4.298h-0z"></path>
<path d="M41.104 25.545c-3.608 0-6.027 1.978-7.017 3.854h-0.099v-3.261h-7.113v23.862h7.41v-11.804c0-3.112 0.593-6.126 4.451-6.126 3.803 0 3.854 3.559 3.854 6.326v11.604h7.411v-13.089c0-6.424-1.386-11.366-8.896-11.366z"></path>
<path d="M53.3 3h-42.61c-4.241 0-7.691 3.411-7.691 7.603v42.79c0 4.195 3.45 7.607 7.691 7.607h42.61c4.247 0 7.701-3.413 7.701-7.607v-42.79c0-4.192-3.455-7.603-7.701-7.603zM57.001 53.393c0 1.991-1.661 3.607-3.701 3.607h-42.61c-2.036 0-3.691-1.616-3.691-3.607v-42.79c0-1.989 1.654-3.603 3.691-3.603h42.61c2.040 0 3.701 1.614 3.701 3.603z"></path>
</svg>
