<!-- Generated by IcoMoon.io -->
<svg version="1.1" xmlns="http://www.w3.org/2000/svg" width="24" height="24" viewBox="0 0 24 24">
<title>sort-numeric-down</title>
<path d="M11.019 17.892l-2.432 2.432v-19.573h-1.5v19.573l-2.432-2.432-1.061 1.061 4.243 4.243 4.243-4.243-1.061-1.061z"></path>
<path d="M18.375 9.375v-6.75h-1.5v1.5h-1.5v1.5h1.5v3.75h-1.875v1.5h5.25v-1.5h-1.875z"></path>
<path d="M17.644 13.125h-0.206c-1.439 0.002-2.605 1.168-2.606 2.606v0.206c0.002 1.439 1.168 2.605 2.606 2.606h0.206c0.001 0 0.001 0 0.002 0 0.399 0 0.777-0.090 1.114-0.251l-0.016 0.007c-0.081 1.093-0.988 1.949-2.094 1.951h-0.9v1.5h0.9c1.987-0.002 3.598-1.613 3.6-3.6v-2.419c-0.002-1.439-1.168-2.605-2.606-2.606h-0zM17.644 17.044h-0.206c-0.611-0.001-1.106-0.496-1.106-1.106v-0.206c0.001-0.611 0.496-1.106 1.106-1.106h0.206c0.611 0.001 1.106 0.496 1.106 1.106v0.206c-0.001 0.611-0.496 1.106-1.106 1.106h-0z"></path>
</svg>
