<!-- Generated by IcoMoon.io -->
<svg version="1.1" xmlns="http://www.w3.org/2000/svg" width="64" height="64" viewBox="0 0 64 64">
<title>speedometer</title>
<path d="M53.213 17.787c-5.429-5.429-12.929-8.787-21.213-8.787-16.569 0-30 13.431-30 30 0 0 0 0 0 0v0 11h18v-4h-14v-7c0-14.336 11.664-26 26-26s26 11.664 26 26v7h-14v4h18v-11c0-0.024 0-0.053 0-0.081 0-8.259-3.359-15.733-8.786-21.13l-0.001-0.001z"></path>
<path d="M10 33h4v4h-4v-4z"></path>
<path d="M30 16h4v4h-4v-4z"></path>
<path d="M17 21h4v4h-4v-4z"></path>
<path d="M50 33h4v4h-4v-4z"></path>
<path d="M37.153 41.887l8.65-18.022-3.606-1.731-8.648 18.017c-0.471-0.098-1.012-0.154-1.566-0.154-4.428 0-8.017 3.59-8.017 8.017s3.59 8.017 8.017 8.017c4.428 0 8.017-3.59 8.017-8.017 0-2.452-1.101-4.648-2.836-6.118l-0.012-0.010zM32 52c-2.209 0-4-1.791-4-4s1.791-4 4-4c2.209 0 4 1.791 4 4v0c-0.003 2.208-1.792 3.997-4 4h-0z"></path>
</svg>
