<!-- Generated by IcoMoon.io -->
<svg version="1.1" xmlns="http://www.w3.org/2000/svg" width="24" height="24" viewBox="0 0 24 24">
<title>spotify</title>
<path d="M19.425 4.575c-1.902-1.909-4.533-3.090-7.44-3.090-5.799 0-10.5 4.701-10.5 10.5 0 2.907 1.181 5.538 3.090 7.439l0 0c1.902 1.909 4.533 3.090 7.44 3.090 5.799 0 10.5-4.701 10.5-10.5 0-2.907-1.181-5.538-3.090-7.439l-0-0zM12 21c-4.963 0-9-4.037-9-9s4.037-9 9-9 9 4.037 9 9-4.037 9-9 9z"></path>
<path d="M18.183 9.53c-3.34-1.983-8.624-2.169-11.804-1.204-0.35 0.108-0.599 0.428-0.599 0.806 0 0.465 0.377 0.842 0.842 0.842 0.088 0 0.173-0.013 0.252-0.038l-0.006 0.002c2.769-0.841 7.555-0.682 10.456 1.041h0c0.123 0.074 0.272 0.119 0.431 0.119 0.465 0 0.842-0.377 0.842-0.842 0-0.307-0.164-0.576-0.41-0.723l-0.004-0.002z"></path>
<path d="M15.941 15.209c-2.372-1.45-5.313-1.787-8.741-1.004-0.251 0.059-0.435 0.282-0.435 0.547 0 0.31 0.251 0.561 0.561 0.561 0.044 0 0.086-0.005 0.127-0.015l-0.004 0.001c3.133-0.716 5.793-0.423 7.906 0.867 0.084 0.052 0.185 0.083 0.294 0.083 0.31 0 0.561-0.251 0.561-0.561 0-0.202-0.107-0.379-0.267-0.478l-0.002-0.001z"></path>
<path d="M16.998 12.565c-2.778-1.707-6.841-2.188-10.11-1.196-0.291 0.090-0.498 0.357-0.498 0.671 0 0.387 0.314 0.702 0.702 0.702 0.073 0 0.143-0.011 0.209-0.032l-0.005 0.001c2.861-0.869 6.549-0.438 8.968 1.049 0.104 0.065 0.231 0.104 0.367 0.104 0.252 0 0.473-0.133 0.597-0.332l0.002-0.003v0c0.065-0.104 0.104-0.231 0.104-0.367 0-0.252-0.133-0.472-0.332-0.596l-0.003-0.002z"></path>
</svg>
