<!-- Generated by IcoMoon.io -->
<svg version="1.1" xmlns="http://www.w3.org/2000/svg" width="24" height="24" viewBox="0 0 24 24">
<title>spreadsheet</title>
<path d="M0.75 3v18.375h22.5v-18.375zM21.75 19.875h-19.5v-15.375h19.5z"></path>
<path d="M4.125 6.375h4.125v1.5h-4.125v-1.5z"></path>
<path d="M4.125 9.75h4.125v1.5h-4.125v-1.5z"></path>
<path d="M4.125 13.125h4.125v1.5h-4.125v-1.5z"></path>
<path d="M4.125 16.5h4.125v1.5h-4.125v-1.5z"></path>
<path d="M13.5 6.375h6.375v1.5h-6.375v-1.5z"></path>
<path d="M13.5 9.75h6.375v1.5h-6.375v-1.5z"></path>
<path d="M13.5 13.125h6.375v1.5h-6.375v-1.5z"></path>
<path d="M13.5 16.5h6.375v1.5h-6.375v-1.5z"></path>
<path d="M10.125 6.375h1.5v1.5h-1.5v-1.5z"></path>
<path d="M10.125 9.75h1.5v1.5h-1.5v-1.5z"></path>
<path d="M10.125 13.125h1.5v1.5h-1.5v-1.5z"></path>
<path d="M10.125 16.5h1.5v1.5h-1.5v-1.5z"></path>
</svg>
