<!-- Generated by IcoMoon.io -->
<svg version="1.1" xmlns="http://www.w3.org/2000/svg" width="24" height="24" viewBox="0 0 24 24">
<title>star</title>
<path d="M23.156 9.313c-0.222-0.675-0.795-1.176-1.497-1.292l-0.011-0.002-5.433-0.883-2.519-4.894c-0.324-0.619-0.961-1.035-1.696-1.035s-1.372 0.415-1.691 1.024l-0.005 0.010-2.519 4.894-5.433 0.883c-0.914 0.153-1.602 0.937-1.602 1.883 0 0.524 0.211 0.999 0.553 1.344l-0-0 3.877 3.908-0.839 5.44c-0.014 0.088-0.023 0.189-0.023 0.293 0 1.053 0.854 1.906 1.907 1.906 0.314 0 0.61-0.076 0.871-0.21l-0.011 0.005 4.914-2.479 4.915 2.479c0.25 0.129 0.546 0.205 0.859 0.205 1.053 0 1.907-0.854 1.907-1.907 0-0.103-0.008-0.204-0.024-0.302l0.001 0.011-0.839-5.44 3.877-3.908c0.343-0.344 0.554-0.818 0.554-1.341 0-0.211-0.035-0.415-0.098-0.605l0.004 0.013zM21.631 10.189l-4.409 4.445 0.955 6.188c0.003 0.019 0.005 0.041 0.005 0.064 0 0.225-0.182 0.407-0.407 0.407-0.067 0-0.131-0.016-0.187-0.046l0.002 0.001-5.59-2.82-5.59 2.82c-0.054 0.028-0.117 0.045-0.185 0.045-0.225 0-0.406-0.182-0.406-0.407 0-0.023 0.002-0.045 0.005-0.066l-0 0.002 0.955-6.188-4.409-4.445c-0.073-0.074-0.118-0.175-0.118-0.287 0-0.202 0.147-0.37 0.34-0.402l0.002-0 6.18-1.004 2.865-5.567c0.069-0.132 0.205-0.221 0.362-0.221s0.293 0.089 0.361 0.219l0.001 0.002 2.865 5.567 6.18 1.004c0.195 0.033 0.342 0.2 0.342 0.402 0 0.112-0.045 0.213-0.118 0.287l0-0z"></path>
</svg>
