<!-- Generated by IcoMoon.io -->
<svg version="1.1" xmlns="http://www.w3.org/2000/svg" width="24" height="24" viewBox="0 0 24 24">
<title>star-half</title>
<path d="M6.353 21.277c-0.049 0.026-0.108 0.041-0.17 0.041-0.207 0-0.374-0.167-0.374-0.374 0-0.021 0.002-0.041 0.005-0.061l-0 0.002 0.964-6.251-4.454-4.49c-0.067-0.068-0.109-0.161-0.109-0.264 0-0.186 0.135-0.34 0.313-0.37l0.002-0 6.243-1.014 3.227-4.923v-2.736l-4.12 6.285-5.591 0.909c-0.701 0.115-1.264 0.608-1.479 1.258l-0.004 0.013c-0.020 0.060-0.040 0.135-0.055 0.211l-0.002 0.012v0.716c0.075 0.378 0.256 0.706 0.509 0.96l-0-0 3.921 3.953-0.849 5.503c-0.014 0.086-0.022 0.186-0.022 0.288 0 1.035 0.839 1.874 1.874 1.874 0.309 0 0.6-0.075 0.856-0.207l-0.011 0.005 4.971-2.508v-1.68z"></path>
</svg>
