<!-- Generated by IcoMoon.io -->
<svg version="1.1" xmlns="http://www.w3.org/2000/svg" width="64" height="64" viewBox="0 0 64 64">
<title>star</title>
<path d="M61.75 24.834c-0.593-1.801-2.12-3.136-3.992-3.445l-0.029-0.004-14.489-2.355-6.717-13.052c-0.863-1.651-2.564-2.759-4.523-2.759s-3.66 1.108-4.51 2.731l-0.013 0.028-6.716 13.052-14.488 2.355c-2.437 0.407-4.271 2.5-4.271 5.021 0 1.398 0.564 2.663 1.476 3.583l-0-0 10.337 10.421-2.238 14.507c-0.038 0.235-0.060 0.505-0.060 0.781 0 2.808 2.276 5.084 5.084 5.084 0.837 0 1.627-0.202 2.323-0.561l-0.029 0.013 13.105-6.611 13.105 6.611c0.667 0.344 1.456 0.546 2.292 0.546 2.809 0 5.086-2.277 5.086-5.086 0-0.274-0.022-0.543-0.063-0.806l0.004 0.029-2.238-14.507 10.337-10.421c0.913-0.916 1.478-2.181 1.478-3.577 0-0.564-0.092-1.106-0.262-1.613l0.010 0.036zM57.684 27.171l-11.758 11.854 2.545 16.501c0.009 0.051 0.014 0.11 0.014 0.171 0 0.599-0.485 1.084-1.084 1.084-0.18 0-0.35-0.044-0.499-0.121l0.006 0.003-14.907-7.52-14.907 7.52c-0.143 0.075-0.313 0.119-0.493 0.119-0.599 0-1.084-0.485-1.084-1.084 0-0.060 0.005-0.119 0.014-0.177l-0.001 0.006 2.545-16.501-11.758-11.853c-0.195-0.196-0.315-0.467-0.315-0.765 0-0.539 0.392-0.986 0.906-1.072l0.006-0.001 16.48-2.678 7.64-14.846c0.184-0.353 0.548-0.59 0.966-0.59s0.782 0.237 0.964 0.584l0.003 0.006 7.64 14.846 16.48 2.678c0.521 0.087 0.913 0.534 0.913 1.073 0 0.299-0.12 0.569-0.315 0.765l0-0z"></path>
</svg>
