<!-- Generated by IcoMoon.io -->
<svg version="1.1" xmlns="http://www.w3.org/2000/svg" width="24" height="24" viewBox="0 0 24 24">
<title>tags</title>
<path d="M23.999 12.745c-0.019-0.61-0.28-1.155-0.689-1.546l-0.001-0.001-8.705-8.48c-0.253-0.253-0.603-0.409-0.99-0.409-0.001 0-0.003 0-0.004 0h-1.554l10.212 9.97c0.143 0.136 0.233 0.328 0.233 0.541 0 0.196-0.075 0.373-0.198 0.506l0-0-7.331 8.126 1.029 1.001 7.41-8.116c0.365-0.397 0.589-0.929 0.589-1.513 0-0.028-0.001-0.056-0.002-0.083l0 0.004z"></path>
<path d="M20.011 13.273c0.043-0.114 0.067-0.246 0.067-0.383 0-0.302-0.119-0.576-0.313-0.777l0 0c-0.005-0.005-0.009-0.011-0.014-0.016l-9.241-9.396c-0.27-0.271-0.644-0.439-1.057-0.439-0.001 0-0.003 0-0.004 0h-6.627c-1.144 0.001-2.070 0.928-2.072 2.071v6.614c0.001 0.43 0.181 0.817 0.47 1.091l0.001 0.001 9.862 9.388c0.2 0.189 0.47 0.305 0.767 0.305 0.001 0 0.002 0 0.002 0h-0q0.021 0 0.042-0.001c0.114-0.004 0.222-0.025 0.324-0.059l-0.008 0.002c0.187-0.063 0.345-0.168 0.47-0.305l0.001-0.001 7.099-7.716c0.098-0.106 0.176-0.232 0.228-0.371l0.003-0.008zM11.836 20.072l-9.586-9.124v-6.614c0-0.316 0.256-0.571 0.572-0.572h6.628l8.986 9.137z"></path>
<path d="M6.563 5.25c-1.346 0-2.438 1.091-2.438 2.438s1.091 2.438 2.438 2.438c1.346 0 2.438-1.091 2.438-2.438v0c-0.002-1.346-1.092-2.436-2.437-2.438h-0zM6.563 8.625c-0.518 0-0.938-0.42-0.938-0.938s0.42-0.938 0.938-0.938c0.518 0 0.938 0.42 0.938 0.938v0c-0.001 0.518-0.42 0.937-0.937 0.938h-0z"></path>
</svg>
