<!-- Generated by IcoMoon.io -->
<svg version="1.1" xmlns="http://www.w3.org/2000/svg" width="24" height="24" viewBox="0 0 24 24">
<title>tennis-ball</title>
<path d="M19.955 4.045c-2.035-2.033-4.846-3.291-7.951-3.291-6.213 0-11.25 5.037-11.25 11.25 0 3.105 1.258 5.915 3.291 7.951l-0-0c2.035 2.033 4.846 3.291 7.951 3.291 6.213 0 11.25-5.037 11.25-11.25 0-3.105-1.258-5.915-3.291-7.951l0 0zM13.247 5.050c0.433-0.828 0.538-1.714 0.315-2.674 4.128 0.667 7.396 3.935 8.063 8.063-0.96-0.224-1.846-0.119-2.674 0.315-1.223 0.639-2.127 1.913-3.001 3.144-0.746 1.051-1.518 2.138-2.46 2.808-1.001 0.712-2.089 0.872-3.424 0.503-1.098-0.303-2.035-1.223-2.043-1.231-0.009-0.009-0.929-0.951-1.231-2.043-0.369-1.335-0.209-2.423 0.503-3.424 0.67-0.942 1.757-1.714 2.808-2.46 1.231-0.874 2.505-1.778 3.144-3.001zM12 21.75c-5.376 0-9.75-4.374-9.75-9.75 0-5.365 4.355-9.731 9.716-9.75 0.742 1.973-0.525 3.010-2.732 4.577-2.221 1.577-4.985 3.539-3.888 7.507 0.411 1.486 1.567 2.655 1.616 2.704s1.218 1.205 2.704 1.616c0.513 0.153 1.102 0.243 1.712 0.248l0.003 0c2.854-0 4.46-2.262 5.792-4.136 1.567-2.207 2.604-3.474 4.577-2.732-0.018 5.361-4.385 9.716-9.75 9.716z"></path>
</svg>
