<!-- Generated by IcoMoon.io -->
<svg version="1.1" xmlns="http://www.w3.org/2000/svg" width="24" height="24" viewBox="0 0 24 24">
<title>thumb-up</title>
<path d="M5.936 9.5h-3.499c-0.002 0-0.004-0-0.005-0-0.552 0-1.014 0.386-1.129 0.903l-0.001 0.008c-0.352 1.502-0.554 3.227-0.554 4.999 0 1.658 0.177 3.275 0.512 4.832l-0.027-0.15 0.070 0.337c0.115 0.532 0.581 0.925 1.14 0.927h3.495c0.643-0.001 1.163-0.522 1.164-1.164v-9.528c-0.001-0.643-0.522-1.164-1.164-1.164h-0zM5.6 19.857h-2.886l-0.014-0.070c-0.288-1.315-0.454-2.826-0.454-4.376 0-1.562 0.168-3.085 0.487-4.552l-0.026 0.141h2.893z"></path>
<path d="M23.178 12.998l-1.035-2.761c-0.167-0.433-0.579-0.735-1.062-0.736h-5.518v-1.384l0.449-0.994c0.231-0.499 0.366-1.084 0.366-1.7 0-1.679-1.002-3.124-2.44-3.77l-0.026-0.010c-0.134-0.060-0.29-0.095-0.455-0.095-0.456 0-0.849 0.268-1.031 0.655l-0.003 0.007-3.765 8.241v1.175h1.112l3.857-8.443c0.755 0.471 1.251 1.298 1.251 2.24 0 0.392-0.086 0.764-0.24 1.099l0.007-0.016-0.515 1.141-0.066 0.309v2.296l0.75 0.75h6.014l0.923 2.462v0.435l-3.187 5.601h-5.857l-4.049-2.375v1.739l3.375 1.98c0.164 0.098 0.363 0.156 0.574 0.156h6.169c0.42-0 0.787-0.229 0.983-0.568l0.003-0.005 3.34-5.87c0.093-0.161 0.148-0.355 0.148-0.561v-0.598c0-0 0-0 0-0.001 0-0.143-0.027-0.28-0.075-0.405l0.003 0.008z"></path>
</svg>
