<!-- Generated by IcoMoon.io -->
<svg version="1.1" xmlns="http://www.w3.org/2000/svg" width="24" height="24" viewBox="0 0 24 24">
<title>toggle-off</title>
<path d="M17.25 6h-10.5c-3.314 0-6 2.686-6 6s2.686 6 6 6v0h10.5c3.314 0 6-2.686 6-6s-2.686-6-6-6v0zM17.25 16.5h-10.5c-2.485 0-4.5-2.015-4.5-4.5s2.015-4.5 4.5-4.5v0h10.5c2.485 0 4.5 2.015 4.5 4.5s-2.015 4.5-4.5 4.5v0z"></path>
<path d="M6.75 9c-1.657 0-3 1.343-3 3s1.343 3 3 3c1.657 0 3-1.343 3-3v0c-0.002-1.656-1.344-2.998-3-3h-0zM6.75 13.5c-0.828 0-1.5-0.672-1.5-1.5s0.672-1.5 1.5-1.5c0.828 0 1.5 0.672 1.5 1.5v0c-0.001 0.828-0.672 1.499-1.5 1.5h-0z"></path>
</svg>
