<!-- Generated by IcoMoon.io -->
<svg version="1.1" xmlns="http://www.w3.org/2000/svg" width="24" height="24" viewBox="0 0 24 24">
<title>toilet</title>
<path d="M22.013 2.167c-0.67-0.865-1.708-1.417-2.876-1.417-0.004 0-0.008 0-0.013 0h-0.58l-2.625 10.125h-14.045v1.5c0 2.179 0.873 4.131 2.457 5.496 1.499 1.292 3.556 2.004 5.793 2.004h1.787l-0.375 3.375h9.463v-11.529l1.66-6.402c0.076-0.277 0.119-0.594 0.119-0.922 0-0.844-0.288-1.621-0.772-2.237l0.006 0.008zM19.5 21.75h-6.287l0.375-3.375h-3.463c-3.974 0-6.75-2.467-6.75-6h16.125zM21.208 4.942l-1.538 5.933h-2.2l2.217-8.552c0.924 0.256 1.59 1.090 1.59 2.079 0 0.192-0.025 0.378-0.072 0.555l0.003-0.015z"></path>
</svg>
