<!-- Generated by IcoMoon.io -->
<svg version="1.1" xmlns="http://www.w3.org/2000/svg" width="24" height="24" viewBox="0 0 24 24">
<title>translate</title>
<path d="M10.791 16.726l0.676-1.437c-0.653-0.651-1.273-1.336-1.856-2.050l-0.038-0.048q0.744-1.004 1.387-2.061c1.115-1.799 2.048-3.875 2.693-6.075l0.045-0.18h2.428v-1.5h-6.75v-2.625h-1.5v2.625h-7.125v1.5h2.802c0.797 2.746 1.941 5.145 3.406 7.306l-0.057-0.090c0.319-0.394 0.642-0.817 0.964-1.267-1.113-1.712-2.048-3.684-2.704-5.78l-0.046-0.17h7.019c-1.393 4.572-3.963 7.932-5.936 9.99-2.296 2.396-4.31 3.603-4.33 3.615l0.382 0.645 0.382 0.646c0.088-0.052 2.178-1.3 4.612-3.829q0.721-0.749 1.38-1.544c0.702 0.841 1.41 1.6 2.158 2.319l0.009 0.009z"></path>
<path d="M17.357 9.375h-1.714l-5.829 12.75h1.649l1.714-3.75h6.644l1.714 3.75h1.649zM15.375 16.875h-1.511l2.636-5.766 2.636 5.766z"></path>
</svg>
