<!-- Generated by IcoMoon.io -->
<svg version="1.1" xmlns="http://www.w3.org/2000/svg" width="24" height="24" viewBox="0 0 24 24">
<title>tv</title>
<path d="M22.125 4.125h-7.916l3.375-3.375h-2.122l-3.375 3.375h-0.152l-3.375-3.375h-2.122l3.375 3.375h-7.939c-0.621 0-1.125 0.504-1.125 1.125v0 13.875c0 0.621 0.504 1.125 1.125 1.125v0h4.875v3h10.5v-3h4.875c0.621 0 1.125-0.504 1.125-1.125v0-13.875c0-0.621-0.504-1.125-1.125-1.125v0zM15.75 21.75h-7.5v-1.5h7.5zM21.75 18.75h-19.5v-13.125h19.5z"></path>
</svg>
