<!-- Generated by IcoMoon.io -->
<svg version="1.1" xmlns="http://www.w3.org/2000/svg" width="24" height="24" viewBox="0 0 24 24">
<title>twitter</title>
<path d="M19.347 4.5c-0.364-0.311-0.777-0.581-1.222-0.794l-0.034-0.015c-0.659-0.32-1.434-0.507-2.252-0.507h-0c-0 0-0.001 0-0.001 0-2.818 0-5.142 2.116-5.469 4.846l-0.003 0.026c-2.174-0.509-4.22-1.978-5.306-3.915l-1.283-2.287-1.321 2.265c-0.42 0.721-0.693 1.399-0.91 2.267-1.131 4.525 0.143 7.454 1.411 9.114 0.504 0.655 1.079 1.22 1.723 1.699l0.023 0.016c-0.321 0.074-0.689 0.117-1.068 0.118h-0c-0.094 0-0.188-0.003-0.281-0.008l-2.556-0.152v2.803l0.723 0.438c0.112 0.068 2.785 1.659 6.933 1.659 1.98 0 3.839-0.396 5.523-1.176 1.602-0.753 2.956-1.781 4.059-3.034l0.012-0.014c2.106-2.389 3.314-5.554 3.314-8.683 0-0.041 0.001-0.103 0.003-0.172l2.166-4.493h-4.183zM19.875 8.625s-0.015 0.366-0.015 0.54c0 5.3-4.034 11.408-11.407 11.408-3.776-0-6.155-1.442-6.155-1.442v-0.366l0.967 0.057q0.186 0.011 0.37 0.011c1.729 0 3.321-0.716 4.607-1.724-1.763-0.037-7.116-2.859-5.241-10.359 0.17-0.71 0.427-1.335 0.767-1.906l-0.017 0.031c1.589 2.834 4.875 4.875 8.25 4.875-0.062-0.298-0.171-0.747-0.171-1.057 0-0.001 0-0.001 0-0.002 0-2.213 1.794-4.008 4.008-4.008 0.001 0 0.001 0 0.002 0h-0c1.154 0 2.18 0.534 2.912 1.316h2.391z"></path>
</svg>
