<!-- Generated by IcoMoon.io -->
<svg version="1.1" xmlns="http://www.w3.org/2000/svg" width="64" height="64" viewBox="0 0 64 64">
<title>user</title>
<path d="M51.45 42.957l-9.103-5.917 3.432-6.292c0.767-1.383 1.22-3.033 1.221-4.788v-9.96c0-7.732-6.268-14-14-14s-14 6.268-14 14v0 9.96c0.001 1.756 0.454 3.405 1.247 4.84l-0.026-0.052 3.432 6.292-9.103 5.917c-2.755 1.803-4.55 4.875-4.55 8.366 0 0.007 0 0.013 0 0.020v-0.001 10.658h46v-10.659c0-0.006 0-0.012 0-0.019 0-3.491-1.795-6.563-4.512-8.342l-0.038-0.023zM52 58h-38v-6.659c0-0.003 0-0.007 0-0.011 0-2.095 1.077-3.938 2.707-5.005l0.023-0.014 12.208-7.935-5.205-9.543c-0.46-0.83-0.732-1.82-0.733-2.873v-9.96c0-5.523 4.477-10 10-10s10 4.477 10 10v0 9.96c-0.001 1.053-0.272 2.043-0.748 2.904l0.016-0.031-5.205 9.543 12.208 7.935c1.653 1.082 2.73 2.925 2.73 5.019 0 0.004 0 0.008 0 0.012v-0.001z"></path>
</svg>
