<!-- Generated by IcoMoon.io -->
<svg version="1.1" xmlns="http://www.w3.org/2000/svg" width="64" height="64" viewBox="0 0 64 64">
<title>user-female</title>
<path d="M50.45 42.957l-9.103-5.917 1.658-3.040h2.928c0 0 0 0 0 0 3.314 0 6-2.686 6-6 0-0.854-0.178-1.667-0.5-2.402l0.015 0.039-6.251-14.315c-1.985-5.478-7.142-9.321-13.198-9.321s-11.213 3.843-13.167 9.224l-0.031 0.097-6.251 14.315c-0.307 0.697-0.485 1.509-0.485 2.363 0 3.314 2.686 6 6 6 0 0 0 0 0 0h2.928l1.658 3.040-9.103 5.917c-2.755 1.803-4.55 4.875-4.55 8.366 0 0.007 0 0.013 0 0.020v-0.001 10.658h46v-10.659c0-0.006 0-0.012 0-0.019 0-3.491-1.795-6.563-4.512-8.342l-0.038-0.023zM51 58h-38v-6.659c0-0.003 0-0.007 0-0.011 0-2.095 1.077-3.938 2.707-5.005l0.023-0.014 12.208-7.935-4.569-8.376h-5.303c-1.105-0-2-0.895-2-2 0-0.283 0.059-0.552 0.165-0.797l-0.005 0.013 6.272-14.362 0.056-0.143c1.403-3.941 5.101-6.711 9.446-6.711s8.044 2.771 9.425 6.642l0.022 0.070 0.025 0.072 6.302 14.432c0.101 0.231 0.16 0.501 0.16 0.784 0 1.105-0.895 2-2 2h-5.303l-4.569 8.376 12.208 7.935c1.653 1.082 2.73 2.925 2.73 5.019 0 0.004 0 0.008 0 0.012v-0.001z"></path>
</svg>
