<!-- Generated by IcoMoon.io -->
<svg version="1.1" xmlns="http://www.w3.org/2000/svg" width="24" height="24" viewBox="0 0 24 24">
<title>user-female</title>
<path d="M18.919 16.109l-3.414-2.219 0.622-1.14h1.098c0 0 0 0 0 0 1.243 0 2.25-1.007 2.25-2.25 0-0.32-0.067-0.625-0.188-0.901l0.006 0.014-2.344-5.368c-0.744-2.054-2.678-3.495-4.949-3.495s-4.205 1.441-4.938 3.459l-0.012 0.037-2.344 5.368c-0.115 0.261-0.182 0.566-0.182 0.886 0 1.243 1.007 2.25 2.25 2.25 0 0 0 0 0 0h1.098l0.622 1.14-3.414 2.219c-1.033 0.676-1.706 1.828-1.706 3.137 0 0.002 0 0.005 0 0.007v-0 3.997h17.25v-3.997c0-0.002 0-0.005 0-0.007 0-1.309-0.673-2.461-1.692-3.128l-0.014-0.009zM19.125 21.75h-14.25v-2.497c0-0.001 0-0.003 0-0.004 0-0.785 0.404-1.477 1.015-1.877l0.009-0.005 4.578-2.976-1.713-3.141h-1.989c-0.414-0-0.75-0.336-0.75-0.75 0-0.106 0.022-0.207 0.062-0.299l-0.002 0.005 2.352-5.386 0.021-0.054c0.526-1.478 1.913-2.517 3.542-2.517s3.016 1.039 3.534 2.491l0.008 0.026 0.009 0.027 2.363 5.412c0.038 0.087 0.060 0.188 0.060 0.294 0 0.414-0.336 0.75-0.75 0.75h-1.989l-1.713 3.141 4.578 2.976c0.62 0.406 1.024 1.097 1.024 1.882 0 0.001 0 0.003 0 0.004v-0z"></path>
</svg>
