<!-- Generated by IcoMoon.io -->
<svg version="1.1" xmlns="http://www.w3.org/2000/svg" width="24" height="24" viewBox="0 0 24 24">
<title>vector</title>
<path d="M18.618 14.556c1.411-1.531 2.219-3.57 2.36-5.931h2.272v-6h-6v6h2.225c-0.219 3.243-1.866 5.608-4.475 6.603v-1.728h-6v1.728c-2.609-0.995-4.256-3.36-4.475-6.603h2.225v-6h-6v6h2.272c0.14 2.361 0.949 4.4 2.36 5.931 0.678 0.734 1.484 1.338 2.385 1.777l0.047 0.021-2.293 0.764c-0.121-0.159-0.254-0.298-0.4-0.423l-0.004-0.003c-0.459-0.39-1.059-0.627-1.714-0.627-0.811 0-1.537 0.364-2.024 0.937l-0.003 0.004v-0c-0.39 0.459-0.627 1.059-0.627 1.714 0 1.464 1.186 2.652 2.65 2.655h0q0.113 0 0.226-0.010c1.367-0.118 2.432-1.257 2.432-2.644 0-0.070-0.003-0.139-0.008-0.207l0.001 0.009 2.949-0.983v1.959h6v-1.959l2.948 0.983c-0.005 0.059-0.007 0.127-0.007 0.196 0 0.078 0.003 0.156 0.010 0.233l-0.001-0.010c0.118 1.366 1.255 2.43 2.64 2.433h0q0.113 0 0.226-0.010c1.367-0.118 2.433-1.257 2.433-2.645 0-1.466-1.188-2.654-2.654-2.654-0.811 0-1.537 0.364-2.024 0.937l-0.003 0.004c-0.031 0.037-0.061 0.074-0.090 0.112l-2.293-0.764c0.949-0.46 1.755-1.064 2.427-1.793l0.005-0.005zM18.75 7.125v-3h3v3zM2.25 7.125v-3h3v3zM4.286 19.466c-0.213 0.251-0.529 0.41-0.882 0.41-0.638 0-1.155-0.517-1.155-1.155 0-0.285 0.103-0.546 0.275-0.748l-0.001 0.002v-0c0.192-0.228 0.469-0.379 0.781-0.405l0.004-0q0.049-0.004 0.098-0.004c0.637 0.001 1.153 0.518 1.153 1.155 0 0.285-0.103 0.546-0.274 0.747l0.001-0.002zM13.5 18h-3v-3h3zM19.714 17.975v-0c0.192-0.228 0.469-0.379 0.781-0.405l0.004-0q0.049-0.004 0.098-0.004c0.637 0.001 1.153 0.518 1.153 1.155s-0.517 1.155-1.155 1.155-1.155-0.517-1.155-1.155c0-0.285 0.103-0.546 0.274-0.747l-0.001 0.002z"></path>
</svg>
