<!-- Generated by IcoMoon.io -->
<svg version="1.1" xmlns="http://www.w3.org/2000/svg" width="24" height="24" viewBox="0 0 24 24">
<title>vertical-align-center1</title>
<path d="M17.25 23.25h6v-9h-6zM18.75 15.75h3v6h-3z"></path>
<path d="M9 19.875h6v-5.625h-6zM10.5 15.75h3v2.625h-3z"></path>
<path d="M0.75 23.25h6v-9h-6zM2.25 15.75h3v6h-3z"></path>
<path d="M6.75 0.75h-6v9h6zM5.25 8.25h-3v-6h3z"></path>
<path d="M15 4.5h-6v5.25h6zM13.5 8.25h-3v-2.25h3z"></path>
<path d="M17.25 0.75v9h6v-9zM21.75 8.25h-3v-6h3z"></path>
<path d="M0.75 11.25h22.5v1.5h-22.5v-1.5z"></path>
</svg>
