<!-- Generated by IcoMoon.io -->
<svg version="1.1" xmlns="http://www.w3.org/2000/svg" width="24" height="24" viewBox="0 0 24 24">
<title>voice-over-record</title>
<path d="M16.046 4.914c0.652 0.802 1.048 1.835 1.048 2.961 0 1.122-0.393 2.153-1.048 2.962l0.007-0.009 1.169 0.938c0.855-1.054 1.372-2.413 1.372-3.891 0-1.484-0.521-2.846-1.389-3.913l0.009 0.011z"></path>
<path d="M20.257 1.519l-1.172 0.945c1.192 1.465 1.914 3.354 1.914 5.412 0 2.051-0.718 3.935-1.915 5.413l0.013-0.016 1.172 0.942c1.389-1.719 2.229-3.931 2.229-6.339 0-2.416-0.846-4.634-2.258-6.375l0.015 0.019z"></path>
<path d="M16.294 16.109l-3.413-2.219 1.287-2.359c0.288-0.519 0.457-1.138 0.458-1.796v-3.735c0-2.899-2.351-5.25-5.25-5.25s-5.25 2.351-5.25 5.25v0 3.735c0 0.659 0.17 1.277 0.468 1.816l-0.010-0.019 1.287 2.359-3.413 2.219c-1.033 0.676-1.706 1.828-1.706 3.137 0 0.002 0 0.005 0 0.007v-0 3.997h17.25v-3.997c0-0.002 0-0.004 0-0.007 0-1.309-0.673-2.461-1.692-3.128l-0.014-0.009zM16.5 21.75h-14.25v-2.497c0-0.001 0-0.002 0-0.004 0-0.785 0.404-1.477 1.015-1.877l0.009-0.005 4.578-2.976-1.952-3.578c-0.173-0.311-0.274-0.683-0.275-1.078v-3.734c0-2.071 1.679-3.75 3.75-3.75s3.75 1.679 3.75 3.75v0 3.735c-0 0.395-0.102 0.767-0.281 1.090l0.006-0.012-1.952 3.578 4.578 2.976c0.62 0.406 1.024 1.097 1.024 1.882 0 0.002 0 0.003 0 0.005v-0z"></path>
</svg>
