<!-- Generated by IcoMoon.io -->
<svg version="1.1" xmlns="http://www.w3.org/2000/svg" width="24" height="24" viewBox="0 0 24 24">
<title>watch</title>
<path d="M19.5 12c0-0.002 0-0.004 0-0.006 0-1.95-0.747-3.726-1.971-5.057l0.005 0.005-1.161-6.193h-8.745l-1.161 6.193c-1.219 1.327-1.966 3.105-1.966 5.057s0.747 3.73 1.971 5.062l-0.005-0.005 1.161 6.193h8.745l1.161-6.193c1.219-1.325 1.966-3.101 1.966-5.051 0-0.002 0-0.004 0-0.006v0zM15.128 2.25l0.609 3.249c-1.072-0.628-2.361-0.999-3.737-0.999s-2.664 0.371-3.772 1.018l0.035-0.019 0.609-3.249zM12 6c3.314 0 6 2.686 6 6s-2.686 6-6 6c-3.314 0-6-2.686-6-6v0c0.004-3.312 2.688-5.996 6-6h0zM8.872 21.75l-0.609-3.249c1.072 0.628 2.361 0.999 3.737 0.999s2.664-0.371 3.772-1.018l-0.035 0.019-0.609 3.249z"></path>
</svg>
