<!-- Generated by IcoMoon.io -->
<svg version="1.1" xmlns="http://www.w3.org/2000/svg" width="24" height="24" viewBox="0 0 24 24">
<title>weightlifitng</title>
<path d="M13.688 7.313c0 0.932-0.756 1.688-1.688 1.688s-1.688-0.756-1.688-1.688c0-0.932 0.756-1.688 1.688-1.688s1.688 0.756 1.688 1.688z"></path>
<path d="M18.75 0.75v2.625h-13.5v-2.625h-4.5v6.75h4.5v-2.625h1.185l0.353 4.232 3.712 1.856v4.786h-3.709l-0.347 6.254h1.502l0.264-4.754h7.581l0.264 4.754h1.502l-0.347-6.254h-3.709v-4.786l3.712-1.856 0.353-4.232h1.185v2.625h4.5v-6.75zM3.75 3.375v2.625h-1.5v-3.75h1.5zM15.788 8.143l-3.788 1.894-3.788-1.894-0.272-3.268h8.12zM21.75 6h-1.5v-3.75h1.5z"></path>
</svg>
