<!-- Generated by IcoMoon.io -->
<svg version="1.1" xmlns="http://www.w3.org/2000/svg" width="24" height="24" viewBox="0 0 24 24">
<title>wheelchair</title>
<path d="M12 3.098c0 0.882-0.715 1.598-1.598 1.598s-1.598-0.715-1.598-1.598c0-0.882 0.715-1.598 1.598-1.598s1.598 0.715 1.598 1.598z"></path>
<path d="M21.568 16.897l-2.247 0.562-0.899-4.195c-0.115-0.511-0.563-0.887-1.1-0.889h-4.158l-0.303-2.625h5.139v-1.5h-5.312l-0.194-1.679c-0.067-0.563-0.542-0.996-1.118-0.996-0.045 0-0.090 0.003-0.134 0.008l0.005-0.001-1.863 0.215 0.932 8.078h6.702l1.161 5.416 3.753-0.938z"></path>
<path d="M10.5 21c-0 0-0 0-0 0-3.106 0-5.625-2.518-5.625-5.625 0-2.342 1.431-4.35 3.467-5.196l0.037-0.014-0.177-1.535c-2.805 0.958-4.827 3.62-4.827 6.745 0 3.929 3.196 7.125 7.125 7.125 2.572-0.001 4.826-1.365 6.078-3.408l0.018-0.031-0.471-2.185c-0.75 2.25-2.878 4.125-5.625 4.125z"></path>
</svg>
