<!-- Generated by IcoMoon.io -->
<svg version="1.1" xmlns="http://www.w3.org/2000/svg" width="24" height="24" viewBox="0 0 24 24">
<title>wifi-signal-1</title>
<path d="M11.146 22.5h1.708l10.771-15.382v-1.286l-0.010-0.007c-3.237-2.291-7.266-3.662-11.615-3.662s-8.378 1.371-11.678 3.705l0.063-0.043-0.010 0.007v1.286zM8.384 15.941c1.041-0.592 2.288-0.941 3.616-0.941s2.574 0.349 3.652 0.96l-0.037-0.019-3.616 5.164zM12 3.662c0.009-0 0.019-0 0.030-0 3.753 0 7.248 1.109 10.174 3.017l-0.072-0.044-5.652 8.072c-1.284-0.759-2.829-1.207-4.479-1.207s-3.196 0.448-4.521 1.23l0.042-0.023-5.652-8.072c2.854-1.864 6.348-2.973 10.102-2.973 0.011 0 0.021 0 0.032 0h-0.002z"></path>
</svg>
