<svg xmlns="http://www.w3.org/2000/svg" viewBox="0 0 160 160">
  <defs>
    <style>
      .cls-1 {
        fill: #fff;
      }
    </style>
  </defs>
  <title>signet_white</title>
  <g id="Warstwa_1" data-name="Warstwa 1">
    <g>
      <path class="cls-1" d="M125,47.091,86,24.5743a12,12,0,0,0-12,0L35,47.091a12.0336,12.0336,0,0,0-6,10.3923v45.0334a12.0335,12.0335,0,0,0,6,10.3923l39,22.5166a11.9993,11.9993,0,0,0,12,0l39-22.5166a12.0335,12.0335,0,0,0,6-10.3923V57.4833A12.0336,12.0336,0,0,0,125,47.091Zm-2,55.4257a4,4,0,0,1-2,3.464L82,128.4974a4,4,0,0,1-4,0L39,105.9807a4,4,0,0,1-2-3.464V57.4833a4,4,0,0,1,2-3.4641L78,31.5025a4,4,0,0,1,4,0l39,22.5167a4,4,0,0,1,2,3.4641Z"/>
      <path class="cls-1" d="M103.0216,93.0379h-2.866a4,4,0,0,0-1.9246.4935L80.95,103.0167,61,91.4981V68.5206L80.95,57.002l17.2894,9.455a4,4,0,0,0,1.9192.4905h2.8632a2,2,0,0,0,2-2V62.2357a2,2,0,0,0-1.04-1.7547L84.793,49.9854a8.0391,8.0391,0,0,0-7.8428.09L57,61.5929A8.0243,8.0243,0,0,0,53,68.5216v22.976a8,8,0,0,0,4,6.9283l19.95,11.5185a8.0422,8.0422,0,0,0,7.8433.0879l19.19-10.5311a2,2,0,0,0,1.0378-1.7534v-2.71A2,2,0,0,0,103.0216,93.0379Z"/>
    </g>
  </g>
</svg>
