<?xml version="1.0" standalone="no"?>
<!DOCTYPE svg PUBLIC "-//W3C//DTD SVG 1.1//EN" "http://www.w3.org/Graphics/SVG/1.1/DTD/svg11.dtd" >
<svg xmlns="http://www.w3.org/2000/svg">
<metadata></metadata>
<defs>
<font id="glyphicons_socialregular" horiz-adv-x="2400" >
<font-face units-per-em="2400" ascent="1920" descent="-480" />
<missing-glyph horiz-adv-x="500" />
<glyph horiz-adv-x="0" />
<glyph horiz-adv-x="800" />
<glyph unicode=" " />
<glyph unicode="&#xa0;" />
<glyph unicode="&#x2000;" horiz-adv-x="1200" />
<glyph unicode="&#x2001;" />
<glyph unicode="&#x2002;" horiz-adv-x="1200" />
<glyph unicode="&#x2003;" />
<glyph unicode="&#x2004;" horiz-adv-x="800" />
<glyph unicode="&#x2005;" horiz-adv-x="600" />
<glyph unicode="&#x2006;" horiz-adv-x="400" />
<glyph unicode="&#x2007;" horiz-adv-x="400" />
<glyph unicode="&#x2008;" horiz-adv-x="300" />
<glyph unicode="&#x2009;" horiz-adv-x="480" />
<glyph unicode="&#x200a;" horiz-adv-x="133" />
<glyph unicode="&#x202f;" horiz-adv-x="480" />
<glyph unicode="&#x205f;" horiz-adv-x="600" />
<glyph unicode="&#x25fc;" horiz-adv-x="500" d="M0 0z" />
<glyph unicode="&#xe001;" d="M250 0q-103 0 -176.5 73.5t-73.5 176.5v1900q0 103 73.5 176.5t176.5 73.5h1900q103 0 176.5 -73.5t73.5 -176.5v-1900q0 -103 -73.5 -176.5t-176.5 -73.5h-1900zM830 270q21 0 35 18q126 160 164 299q8 30 85 252q38 -36 93.5 -57.5t112.5 -21.5q109 0 203.5 48 t161.5 131.5t105 202t38 255.5q0 79 -25.5 157t-76 146.5t-120.5 120.5t-165.5 82.5t-202.5 30.5q-121 0 -228 -33t-185.5 -90t-135.5 -131t-85.5 -158.5t-28.5 -170.5q0 -89 23.5 -162.5t68.5 -126t107 -77.5q14 -6 27 -6q21 0 36.5 13t21.5 35l18 71q4 15 4 26 q0 23 -22 50q-52 61 -52 155q0 41 8.5 82t26 79.5t42.5 73.5t59 64t74.5 50t90.5 33t105 12q157 0 248 -83t91 -226q0 -124 -33 -225.5t-90.5 -158.5t-127.5 -57q-59 0 -92 42q-22 27 -22 63q0 14 3 28q10 41 35 121q15 49 22.5 75t14.5 62.5t7 63.5q0 48 -18.5 85 t-52.5 57.5t-78 20.5q-85 0 -143 -75.5t-58 -184.5q0 -77 27 -142q-137 -465 -153 -536q-17 -72 -17 -167q0 -85 13 -180q2 -16 14 -26t27 -10z" />
<glyph unicode="&#xe002;" d="M250 0q-103 0 -176.5 73.5t-73.5 176.5v1900q0 103 73.5 176.5t176.5 73.5h1900q103 0 176.5 -73.5t73.5 -176.5v-1900q0 -103 -73.5 -176.5t-176.5 -73.5h-1900zM1552 688q498 323 548 357q25 18 25 28q0 5 -5.5 10t-18.5 13t-22 14l-301 240q64 50 190.5 145.5 t128.5 96.5q8 3 12.5 6t9 11t4.5 19q0 30 -33 44l-513 330q-12 8 -32 8t-34 -12l-320 -266l-318 266q-14 12 -33 12q-15 0 -27 -8l-515 -332q-28 -17 -28 -40q0 -20 27 -39q220 -173 304 -240q-17 -14 -43.5 -34.5t-54 -42.5t-57 -46t-56 -44.5t-47.5 -37t-33 -26.5t-13 -10 q-19 -16 -19 -40q0 -11 143.5 -104.5t286.5 -181.5l144 -87l352 293zM1200 1070l-448 280l450 281l446 -280zM1191 366q14 0 27 8l374 238l-392 330l-406 -334l370 -234q13 -8 27 -8z" />
<glyph unicode="&#xe003;" d="M250 0q-103 0 -176.5 73.5t-73.5 176.5v1900q0 103 73.5 176.5t176.5 73.5h1900q103 0 176.5 -73.5t73.5 -176.5v-1900q0 -103 -73.5 -176.5t-176.5 -73.5h-1900zM910 476q121 0 228.5 33t191.5 96t145.5 149t94 195.5t32.5 232.5q0 40 -2 67.5t-4.5 41t-7.5 20.5t-8 8 t-9 1h-691v-240h402q-8 -33 -24 -67t-46.5 -74.5t-70 -71t-100 -51t-131.5 -20.5q-116 0 -211 52t-149 144t-54 204q0 114 55.5 211.5t151 154t207.5 56.5q159 0 265 -102l14 -14l219 211l-15 15q-99 92 -222 140t-261 48q-98 0 -191 -26t-172 -72.5t-145.5 -113 t-113 -145.5t-72.5 -172t-26 -191q0 -146 57 -279.5t153.5 -230t230 -153.5t279.5 -57zM1900 900h200v200h200v200h-200v200h-200v-200h-200v-200h200v-200z" />
<glyph unicode="&#xe004;" d="M250 0q-103 0 -176.5 73.5t-73.5 176.5v1900q0 103 73.5 176.5t176.5 73.5h1900q103 0 176.5 -73.5t73.5 -176.5v-1900q0 -103 -73.5 -176.5t-176.5 -73.5h-1900zM834 800h1264q33 0 33 16q0 12 -19 27q-83 61 -134.5 114t-86 118t-53 135t-32.5 178q-12 84 -57.5 161.5 t-114 135.5t-161.5 92.5t-193 34.5q-45 0 -87.5 -8t-79.5 -21.5t-71.5 -33t-63.5 -42t-55.5 -49t-47.5 -53t-39 -54.5t-31.5 -53.5t-23.5 -51.5q-138 1 -226.5 -31.5t-132.5 -101t-44 -176.5q0 -163 116.5 -250t339.5 -87z" />
<glyph unicode="&#xe005;" d="M250 0q-103 0 -176.5 73.5t-73.5 176.5v1900q0 103 73.5 176.5t176.5 73.5h1900q103 0 176.5 -73.5t73.5 -176.5v-1900q0 -103 -73.5 -176.5t-176.5 -73.5h-1900zM746 655l882 1l16 144h-244v300l436 421l205 42l59 137h-800l44 -137l182 -25l-269 -279l-316 424l229 21 l18 120h-900l4 -127l256 -37l452 -560l-2 -277l-228 -33z" />
<glyph unicode="&#xe006;" d="M250 0q-103 0 -176.5 73.5t-73.5 176.5v1900q0 103 73.5 176.5t176.5 73.5h1900q103 0 176.5 -73.5t73.5 -176.5v-1900q0 -103 -73.5 -176.5t-176.5 -73.5h-1900zM1000 500h400q74 0 146 18t136 52.5t112.5 82.5t77 112t28.5 135v319q0 22 -11 40.5t-29.5 29.5t-40.5 11 l-88 7q-26 0 -48 12.5t-36 34.5t-16 49q0 120 -57 211t-154 138.5t-220 47.5h-300q-184 0 -292 -108t-108 -292v-500q0 -71 28.5 -135t77 -112t112.5 -82.5t136 -52.5t146 -18zM946 1304q-41 0 -69.5 28.5t-28.5 68.5q0 27 13 49.5t35.5 35.5t49.5 13h257q40 0 68.5 -28.5 t28.5 -69t-28.5 -69t-68.5 -28.5h-257zM945 802q-38 0 -65 27t-27 65.5t27 65.5t65 27h517q25 0 46 -12.5t33.5 -33.5t12.5 -47q0 -38 -27 -65t-65 -27h-517z" />
<glyph unicode="&#xe007;" d="M250 0q-103 0 -176.5 73.5t-73.5 176.5v1900q0 103 73.5 176.5t176.5 73.5h1900q103 0 176.5 -73.5t73.5 -176.5v-1900q0 -103 -73.5 -176.5t-176.5 -73.5h-1900zM1500 1391v538q-48 22 -101.5 35t-101.5 17t-110 4q-143 0 -280 -51q2 -1 69 -60t150.5 -133t170 -152.5 t145 -134.5t58.5 -63zM441 996q547 498 697 632q-6 6 -78 71.5t-144.5 131t-75.5 67.5q-198 -101 -312.5 -288.5t-114.5 -409.5q0 -98 28 -204zM1600 900h331q53 164 53 307q0 101 -26 220q-14 66 -54.5 138t-92 132.5t-107.5 109t-104 74.5v-981zM800 519v685 q0 -6 -32.5 -38t-80 -74t-93.5 -81.5t-82 -70l-36 -30.5q91 -256 324 -391zM1469 462q60 25 117 57.5t111.5 74.5t103 96t85.5 115h-986v-336q106 -54 282 -54q168 0 287 47z" />
<glyph unicode="&#xe008;" d="M250 0q-103 0 -176.5 73.5t-73.5 176.5v1900q0 103 73.5 176.5t176.5 73.5h1900q103 0 176.5 -73.5t73.5 -176.5v-1900q0 -103 -73.5 -176.5t-176.5 -73.5h-1900zM1477 767q39 23 114 71.5t101 70.5q2 2 8 7t8.5 7t7 7t6.5 8.5t4 9.5t2 12q0 28 -34 74q-2 2 -10 12.5 t-10.5 14t-10.5 14.5t-11 16t-9.5 16t-9.5 18t-7 18t-6 20t-3.5 20t-1.5 22v346q0 32 -3 65.5t-13 79.5t-26.5 87t-47 83t-70 72t-99 49t-132.5 19q-71 0 -121.5 -3.5t-101 -12t-86 -24t-68.5 -40.5t-55 -61.5t-40 -86t-31 -114.5q-1 -7 -1 -14q0 -24 15.5 -42t43.5 -24 l196 -22q23 1 40 19t22 44q9 46 41 70.5t83 24.5q52 0 77 -38q8 -13 8 -50q0 -16 -1.5 -34.5t-2.5 -29.5l-2 -10q-25 -3 -65 -9t-127 -24t-129 -37q-110 -48 -170.5 -142t-60.5 -218q0 -158 89.5 -252.5t239.5 -94.5q104 0 175.5 28t146.5 100q2 -2 11.5 -17t16.5 -25.5 t18.5 -27t21.5 -28t21 -23t21 -17.5t19 -6q4 0 9 2zM1122 1049q-28 0 -49 13.5t-30.5 34t-13 37t-3.5 29.5q0 53 32 91.5t79 57t103 21.5q7 -44 7 -94q0 -74 -19 -108q-45 -82 -106 -82zM1929 447q5 -1 10 -1q9 0 19 4.5t15.5 9t13.5 12t9 8.5q59 49 91.5 141t32.5 172 q0 55 -16 74q-18 23 -67.5 34t-78.5 11q-138 0 -223 -61q-25 -17 -25 -39q0 -19 12 -25.5t37 -6.5h1q12 0 32.5 3t40 7t42.5 7t40 3q42 0 56 -3t20 -18q2 -5 2 -13q0 -18 -14.5 -59.5t-56.5 -146.5q-11 -27 -11 -70q0 -39 18 -43zM1169 400q102 0 208 21t203 58t184.5 84.5 t163.5 103.5q27 20 27 49q0 24 -17.5 40t-41.5 16q-15 0 -28 -6q-162 -68 -339.5 -105.5t-349.5 -37.5q-400 0 -841 214q-17 8 -29 8t-22.5 -5.5t-17 -16t-6.5 -23.5q0 -22 18 -38q199 -179 416 -270.5t472 -91.5z" />
<glyph unicode="&#xe009;" d="M250 0q-103 0 -176.5 73.5t-73.5 176.5v1900q0 103 73.5 176.5t176.5 73.5h1900q103 0 176.5 -73.5t73.5 -176.5v-1900q0 -103 -73.5 -176.5t-176.5 -73.5h-1900zM1065 375h20.5h18.5h29h32q111 0 180.5 7.5t95 16.5t59.5 27v281q-117 -74 -218 -74q-40 0 -83.5 14 t-71 34t-27.5 37v582h400v300h-400v400h-257q0 -7 -1 -20q-2 -46 -4.5 -69.5t-11.5 -61t-28 -70.5t-50 -69q-26 -31 -61 -53t-66.5 -32.5t-59.5 -16.5t-44 -7l-17 -1v-300h200v-632q0 -70 23.5 -124.5t60 -85.5t87 -50.5t97 -26t97.5 -6.5zM1850 342q86 0 147 61t61 147 t-61 147t-147 61t-147 -61t-61 -147t61 -147t147 -61z" />
<glyph unicode="&#xe010;" d="M250 0q-103 0 -176.5 73.5t-73.5 176.5v1900q0 103 73.5 176.5t176.5 73.5h1900q103 0 176.5 -73.5t73.5 -176.5v-1900q0 -103 -73.5 -176.5t-176.5 -73.5h-1900zM940 638l210 631l-141 389l-104 9q-14 0 -14 14q0 17 16 17q129 -11 230 -11q18 0 41 0.5t44.5 1.5l43 2 t40 2.5t33 2.5t23 1.5l8.5 0.5q14 0 15 -15v-1q0 -14 -14 -16l-125 -9l341 -1015l111 370q21 69 31.5 105t19 80.5t8.5 79.5q0 39 -7.5 76t-22.5 72.5t-27.5 59.5t-32.5 58q-8 12 -24 38t-22.5 38t-15.5 31t-12.5 35t-3.5 33q0 34 13 63t45 49.5t77 20.5l70 -3 q-6 6 -16 15.5t-43.5 37.5t-70.5 53.5t-95.5 57t-118.5 53.5t-138 37.5t-157 15.5q-122 0 -245.5 -39t-221.5 -102.5t-174 -138t-119 -149.5q18 0 99.5 2.5t152.5 4.5t74 2q14 0 15 -15v-1q0 -14 -15 -16l-124 -9zM1553 440l47 27q204 119 322 324.5t118 441.5 q0 227 -108 425l-38 -13q6 -42 6 -86q0 -142 -65 -303zM813 414q-27 63 -224.5 604t-222.5 620q-26 -55 -48 -125t-35 -145t-13 -135q0 -125 32.5 -240.5t86 -203.5t125 -163.5t146 -126t153.5 -85.5zM1155 347q185 0 317 59l-303 811q-241 -708 -284 -828q100 -42 270 -42z " />
<glyph unicode="&#xe011;" d="M250 0q-103 0 -176.5 73.5t-73.5 176.5v1900q0 103 73.5 176.5t176.5 73.5h1900q103 0 176.5 -73.5t73.5 -176.5v-1900q0 -103 -73.5 -176.5t-176.5 -73.5h-1900zM800 400h700v100h-200v1400h200v100h-700v-100h200v-1400h-200v-100z" />
<glyph unicode="&#xe012;" d="M250 0q-103 0 -176.5 73.5t-73.5 176.5v1900q0 103 73.5 176.5t176.5 73.5h1900q103 0 176.5 -73.5t73.5 -176.5v-1900q0 -103 -73.5 -176.5t-176.5 -73.5h-1900zM1200 200q17 -17 36 -17q9 0 32 2.5t51 6t83.5 6t122.5 2.5q54 0 101 28.5t82.5 76.5t64.5 118t49 146.5 t35.5 169t24 179t14 182t7.5 172.5t2 157q0 66 -1 130t-2.5 101.5t-1.5 39.5q0 41 -62.5 70.5t-137.5 29.5h-400q-2 7 -6.5 19.5t-19.5 43.5t-31 54.5t-41.5 43t-51.5 19.5h-76.5h-55.5h-56h-26.5t-17 -4t-11 -6.5t-5 -15t-2.5 -21v-33.5v-200q0 -58 -6.5 -97.5t-15 -59.5 t-24.5 -30t-25.5 -11.5t-28.5 -1.5h-300q-31 2 -54 -8t-34.5 -29t-11.5 -45q0 -24 13.5 -110t35.5 -194t57 -208.5t70 -135.5q39 -39 225.5 -70t271.5 -31q26 0 40 44t16.5 97t5.5 97t10 44q5 0 13 -13.5t19.5 -33.5t27.5 -41.5t43.5 -41t60.5 -28.5q30 -7 74.5 -12.5 t78 -8.5t66 -10t51.5 -22t21 -40q4 -37 4 -76q0 -43 -4.5 -80.5t-13 -71t-24.5 -53t-37 -19.5h-125q-26 0 -40.5 15.5t-14.5 35.5t14.5 34.5t40.5 14.5h100v100q-64 18 -133 18q-160 0 -167 -118q-3 -49 -11 -126t-8 -105q0 -50 19 -69zM400 1600h281q33 0 58 12t37 29.5 t18 32.5t6 25v281zM1400 1100q-2 2 -2 13q0 35 11 99.5t36 126t55 61.5q29 0 82 -54.5t94 -122t41 -101.5q0 -22 -22.5 -22t-78.5 30t-81 30q-16 0 -48 -18t-57.5 -32.5t-29.5 -9.5z" />
<glyph unicode="&#xe013;" d="M250 0q-103 0 -176.5 73.5t-73.5 176.5v1900q0 103 73.5 176.5t176.5 73.5h1900q103 0 176.5 -73.5t73.5 -176.5v-1900q0 -103 -73.5 -176.5t-176.5 -73.5h-1900zM1383 300h469l-418 700l617 1100h-469l-616 -1100zM247 900h470l316 496l-111 304h-464l109 -296z" />
<glyph unicode="&#xe014;" d="M250 0q-104 0 -177 73t-73 177v1900q0 104 73 177t177 73h1900q104 0 177 -73t73 -177v-1900q0 -104 -73 -177t-177 -73h-1900zM1200 1069q21 0 35 15l676 680q12 12 12 26q0 6 -2 11q-8 19 -33 19h-1376q-25 0 -33 -19q-2 -5 -2 -11q0 -14 12 -26l676 -680 q14 -15 35 -15zM503 836q11 0 24 12l312 317q15 15 15 37q0 20 -13 33l-315 317q-12 12 -23 12q-23 0 -23 -35v-658q0 -35 23 -35zM1907 839q13 9 13 30v660q0 35 -23 35q-11 0 -24 -12l-307 -317q-15 -14 -15 -35t15 -35l308 -317q12 -12 22 -12q6 0 11 3zM512 580h1376 q25 0 33 19q2 5 2 11q0 14 -12 26l-437 437q-14 15 -35 15t-35 -15l-197 -197q-4 -2 -7 -2l-7 2l-197 197q-14 15 -35 15t-36 -15l-436 -437q-12 -12 -12 -26q0 -6 2 -11q8 -19 33 -19z" />
<glyph unicode="&#xe015;" d="M250 0q-103 0 -176.5 73.5t-73.5 176.5v1900q0 103 73.5 176.5t176.5 73.5h1900q103 0 176.5 -73.5t73.5 -176.5v-1900q0 -103 -73.5 -176.5t-176.5 -73.5h-1900zM1213 354q113 0 221 30t199.5 84t168 130.5t130.5 168t84 199.5t30 221t-30 221t-84 199.5t-130.5 168.5 t-168 130.5t-199.5 83.5t-221 30t-221 -30t-199.5 -83.5t-168 -130.5t-130.5 -168.5t-84 -199.5t-30 -221t30 -221t84 -199.5t130.5 -168t168 -130.5t199.5 -84t221 -30zM1319 1480q-105 189 -234 368q63 12 128 12q119 0 230.5 -40.5t202.5 -117.5q-8 -10 -18 -20.5 t-27 -27t-36 -32.5t-46 -35t-56 -36.5t-66.5 -36.5t-77.5 -34zM558 1348q24 95 73.5 179t121 151t158.5 111q128 -177 234 -363q-295 -75 -587 -78zM1887 1217q-150 27 -303 27q-77 0 -148 -8q-33 78 -46 105q58 25 112 55.5t91.5 57t71.5 55.5t52 47.5t33 36.5 q127 -167 137 -376zM694 755q-75 91 -115 202t-40 229l3 1q27 0 59 1t86 4t114 9.5t128 16.5t144.5 26.5t148.5 37.5q20 -39 39 -81q-2 -1 -6 -2q-90 -29 -175.5 -78.5t-144 -98t-112 -105.5t-80.5 -92.5t-49 -69.5zM1615 645q-41 217 -122 444q58 8 118 8q138 0 265 -35 q-16 -83 -51.5 -159.5t-88.5 -142t-121 -115.5zM1213 512q-222 0 -401 132q15 25 34.5 53.5t64.5 78.5t98 94.5t137 93.5t178 84q95 -252 138 -489q-120 -47 -249 -47z" />
<glyph unicode="&#xe016;" d="M250 0q-103 0 -176.5 73.5t-73.5 176.5v1900q0 103 73.5 176.5t176.5 73.5h1900q103 0 176.5 -73.5t73.5 -176.5v-1900q0 -103 -73.5 -176.5t-176.5 -73.5h-1900zM300 900h900v800h-200v-700h-462l13 72q56 296 397 368l4 68q-239 -23 -406 -125q-83 -50 -140 -124 t-81.5 -148t-24.5 -148q0 -4 -0.5 -19.5t-0.5 -24.5q0 -13 1 -19zM1300 900h900v98q0 107 -62.5 197t-191.5 170q-123 75 -258.5 100t-353.5 25h-16h-16l-1 -90h33q134 0 242.5 -22t179.5 -58t119.5 -85t69.5 -100.5t21 -106.5q0 -13 -1 -26l-465 -2v300h-200v-400z" />
<glyph unicode="&#xe017;" d="M250 0q-103 0 -176.5 73.5t-73.5 176.5v1900q0 103 73.5 176.5t176.5 73.5h550v-1867q0 -17 10 -17q6 0 14 7l376 343l377 -343q7 -7 13 -7q10 0 10 17v1867h550q103 0 176.5 -73.5t73.5 -176.5v-1900q0 -103 -73.5 -176.5t-176.5 -73.5h-1900z" />
<glyph unicode="&#xe018;" d="M250 0q-103 0 -176.5 73.5t-73.5 176.5v1900q0 103 73.5 176.5t176.5 73.5h1900q103 0 176.5 -73.5t73.5 -176.5v-1900q0 -103 -73.5 -176.5t-176.5 -73.5h-1900zM650 1636q76 0 129.5 53.5t53.5 129t-53.5 129.5t-129.5 54t-129.5 -54t-53.5 -129.5t53.5 -129 t129.5 -53.5zM1000 500h300v551q0 51 10 75q1 4 4 10q7 18 11 26.5t11.5 23t16 22t20 16t27.5 12t35 3.5q81 0 123 -56.5t42 -153.5v-529h300v665q0 51 -1.5 90t-7 72t-10 57t-17 43t-22.5 31t-31 21t-37 13.5t-47 7t-55 3t-66 0.5q-67 0 -121.5 -12t-88 -30.5t-56 -42.5 t-31.5 -46t-9 -42v170h-300q2 -39 2 -298zM500 500h300v1000h-300v-1000z" />
<glyph unicode="&#xe019;" d="M250 0q-104 0 -177 73t-73 177v1900q0 104 73 177t177 73h1900q104 0 177 -73t73 -177v-1900q0 -104 -73 -177t-177 -73h-1900zM418 500h82v974l680 -494l31 -22l889 648v82q0 48 -34 80t-84 32h-5l-771 -558l-770 558h-18q-50 0 -84 -32t-34 -80v-1070q0 -17 5 -33 q11 -37 42 -61t71 -24zM1206 1366l594 434h-1200zM600 500h1200v625l-588 -291l-612 444v-778zM1900 500h82q26 0 49.5 11t40 30t23.5 44q5 16 5 33v652l-200 -98v-672z" />
<glyph unicode="&#xe020;" d="M250 0q-104 0 -177 73t-73 177v1900q0 104 73 177t177 73h1900q104 0 177 -73t73 -177v-1900q0 -104 -73 -177t-177 -73h-1900zM1851 549l-558 714l238 237h-283l2 3l-350 297v200l-500 -500h200l297 -350l3 2v-283l231 232z" />
<glyph unicode="&#xe021;" d="M250 0q-103 0 -176.5 73.5t-73.5 176.5v1900q0 103 73.5 176.5t176.5 73.5h1900q103 0 176.5 -73.5t73.5 -176.5v-1900q0 -103 -73.5 -176.5t-176.5 -73.5h-1900zM400 700h500q68 0 125 17.5t101.5 52.5t69.5 91t25 129q0 48 -7.5 87t-25 73t-48.5 58t-74 36 q41 20 65.5 51.5t33.5 68.5t9 88q0 135 -63.5 191.5t-210.5 56.5h-500v-1000zM1400 1500h500v100h-500v-100zM600 1300v200h218q23 0 38 -1t34 -4t31 -9.5t23.5 -16.5t16.5 -27t5 -40q0 -58 -34.5 -80t-97.5 -22h-234zM1653 676q54 0 104 12t86.5 31.5t67 44t49.5 49.5 t29.5 47.5t10.5 39.5h-197q-57 -63 -147 -63q-53 0 -90.5 20t-57.5 56t-22 87h514q0 113 -20 193t-63 132t-108 76.5t-156 24.5q-106 0 -189 -48t-128 -132t-45 -190q0 -168 97.5 -274t264.5 -106zM1486 1100q9 191 161 191q26 0 47.5 -5.5t37 -14.5t27.5 -21t19.5 -26.5 t12.5 -27.5t7.5 -28t3.5 -26t1 -22l-1 -20h-316zM600 900v200h251q31 0 51 -1.5t41.5 -8t33 -18t19 -31.5t7.5 -50q0 -28 -10.5 -46.5t-31.5 -27.5t-44.5 -12t-58.5 -3z" />
<glyph unicode="&#xe022;" d="M250 0q-104 0 -177 73t-73 177v1900q0 104 73 177t177 73h1900q104 0 177 -73t73 -177v-1900q0 -104 -73 -177t-177 -73h-1900zM649 670q-49 57 -49 130v200q0 54 27 100t73 73t100 27h800q83 0 141.5 -58.5t58.5 -141.5v-200q0 -74 -49 -130q113 66 181 180t68 250v100 q0 96 -21 166.5t-73 133.5l-6 400l-400 -200h-600l-400 200v-400q-100 -131 -100 -300v-100q0 -136 68 -250t181 -180zM800 800h200v300h-200v-300zM1400 800h200v300h-200v-300zM1100 700h200v100h-200v-100z" />
<glyph unicode="&#xe023;" d="M250 0q-103 0 -176.5 73.5t-73.5 176.5v1900q0 103 73.5 176.5t176.5 73.5h1900q103 0 176.5 -73.5t73.5 -176.5v-1900q0 -103 -73.5 -176.5t-176.5 -73.5h-1900zM717 1300h183v337l123 463h-165l-62 -260l-65 260h-163l150 -486zM1139 1282q76 0 123 47q38 39 38 129 v295q0 83 -39 121q-25 25 -49.5 36t-60.5 11q-38 0 -64.5 -10.5t-52.5 -34.5q-11 -10 -18.5 -23t-10.5 -30t-4 -30.5t-1 -36.5v-296q0 -36 1 -52t8 -39t21 -38q26 -26 49 -37.5t60 -11.5zM1471 1288q44 0 80 21q4 2 17 6t22.5 8t9.5 8v-31h100v600h-100v-439q0 -4 -9 -8 t-21 -7.5t-15 -5.5q-13 -9 -40 -9q-15 3 -15 18v451h-100v-490q0 -7 -0.5 -19.5t-0.5 -17.5q0 -36 12 -51q13 -18 26 -26t34 -8zM1143 1421q-22 0 -27 6q-1 0 -6 5t-7.5 9t-2.5 9v311q0 3 4 6t9 5.5t7 4.5q6 5 31 5q21 0 28 -6q1 -1 7 -4t10 -5.5t4 -5.5v-311q0 -5 -4.5 -9 t-10.5 -8t-7 -5q-2 -3 -14 -5t-21 -2zM800 400h800q124 0 212 88t88 212v200q0 81 -40 150.5t-109 109.5t-151 40h-800q-81 0 -150.5 -40t-109.5 -109.5t-40 -150.5v-200q0 -82 40 -151t109.5 -109t150.5 -40zM737 505v482h-90v82h267v-82h-90v-482h-87zM1362 499 q-23 0 -41 9q-17 9 -33 29v-32h-78v564h78v-182q16 19 34 29q17 10 35 10q37 0 56 -26q20 -27 20 -78v-231q0 -45 -18.5 -68.5t-52.5 -23.5zM1603 493q-52 0 -82 34q-30 35 -30 95v187q0 54 33 88t85 34q53 0 81 -31q29 -32 29 -91v-106h-148v-79q0 -32 7 -45q8 -13 27 -13 t26.5 11t7.5 47v29h80v-31q0 -64 -29 -96q-29 -33 -87 -33zM968 498h-1q-26 0 -40 19t-14 56v348h78v-319q0 -15 4.5 -22t15.5 -7q9 0 22 9t24 23v316h77v-416h-77v45q-22 -25 -45 -38q-23 -14 -44 -14zM1325 564q15 0 21 9q7 9 7 29v215q0 21 -9 32q-8 11 -24 11 q-8 0 -16 -4t-16 -13v-259q10 -11 18 -15q9 -5 19 -5zM1570 767h69v43q0 26 -8 37.5t-26 11.5t-27 -12q-8 -11 -8 -37v-43z" />
<glyph unicode="&#xe024;" d="M250 0q-104 0 -177 73t-73 177v1900q0 104 73 177t177 73h1900q104 0 177 -73t73 -177v-1900q0 -104 -73 -177t-177 -73h-1900zM1192 505l216 100v1463l-216 -105v-1238l-16 2q-139 17 -250 69t-173 127.5t-62 160.5q0 113 115 207.5t296 134.5v226 q-207 -30 -372.5 -112.5t-260 -202t-94.5 -253.5q0 -145 102 -270t283.5 -206t409.5 -101zM2127 1174l-89 488l-157 -138q-89 51 -178 81t-205 46v-226q103 -23 191 -64l-169 -129z" />
<glyph unicode="&#xe025;" d="M250 0q-103 0 -176.5 73.5t-73.5 176.5v1900q0 103 73.5 176.5t176.5 73.5h1900q104 0 177 -73t73 -177v-1900q0 -103 -73.5 -176.5t-176.5 -73.5h-1900zM698 185q55 0 86 35q458 541 466 549q4 4 7 10l5 10t5 7.5t7 3.5h296q36 0 63.5 8.5t42.5 19t26.5 29.5t16 31.5 t9.5 33.5q22 92 112 541l61 304q10 49 10 87q0 48 -16.5 80t-52 49t-91.5 17h-970q-47 0 -84 -16.5t-57 -43t-30 -53.5t-10 -53v-1542q0 -76 64 -102q12 -5 34 -5zM810 534q-2 -2 -6 -1.5t-4 2.5v1204q0 21 20.5 41t46.5 20h779q20 0 34.5 -12.5t14.5 -33.5q0 -5 -1 -11 l-41 -208q-4 -16 -21.5 -25.5t-38.5 -9.5h-379q-17 0 -27.5 -0.5t-24 -1.5t-21.5 -4t-16.5 -7.5t-13.5 -11.5t-8 -17.5t-3 -23.5v-67q0 -44 25 -55.5t90 -11.5h320q14 0 26.5 -7.5t20 -19.5t7.5 -26q0 -5 -1 -10l-40 -207q-7 -30 -60 -30h-262q-17 0 -29.5 -3.5t-25 -14.5 t-18.5 -18t-23 -28z" />
<glyph unicode="&#xe026;" d="M250 0q-103 0 -176.5 73.5t-73.5 176.5v1900q0 103 73.5 176.5t176.5 73.5h1900q103 0 176.5 -73.5t73.5 -176.5v-1900q0 -103 -73.5 -176.5t-176.5 -73.5h-1900zM1684 427q7 0 13 2t13.5 8.5t12.5 21t5 36.5q0 38 -13 73t-38 42l-10 2q-22 6 -35 10t-34.5 16.5 t-40.5 31.5q155 99 240.5 268.5t85.5 376.5q0 34 -3 69q-8 116 -44 217t-96.5 179.5t-141.5 134t-182 85t-216 29.5q-30 0 -62 -2q-73 -5 -142 -23.5t-125 -47t-106.5 -66.5t-89.5 -80t-72 -89.5t-55.5 -93.5t-37.5 -93q-43 -133 -43 -268q0 -253 139 -444 q93 -129 233.5 -197.5t309.5 -68.5q75 0 154 14q27 4 65 15q27 -53 57 -79t72 -45q77 -34 187 -34zM1183 778q-125 0 -200 65q-32 27 -58.5 73t-44.5 105t-28 129t-10 145q0 20 1 40q5 147 46 260.5t106 160.5q50 37 127 47q26 3 51 3q54 0 100 -14t78 -37.5t51.5 -44.5 t34.5 -45q39 -63 60 -159t21 -203q0 -204 -65 -350q-6 7 -9 10q-43 37 -98 59t-90 27t-68 5l-25 -1q-22 0 -43.5 -23t-32.5 -51t-11 -49q0 -35 37 -38q124 -8 177 -98q-50 -16 -107 -16z" />
<glyph unicode="&#xe027;" d="M250 0q-103 0 -176.5 73.5t-73.5 176.5v1900q0 103 73.5 176.5t176.5 73.5h1900q103 0 176.5 -73.5t73.5 -176.5v-1900q0 -103 -73.5 -176.5t-176.5 -73.5h-1900zM1206 305q143 0 273 54t231.5 155.5t155.5 231.5t54 273q0 95 -24.5 185t-71 171t-113.5 149 q-102 101 -232 154.5t-273 53.5q-142 0 -271.5 -53t-229.5 -153v448q0 43 -31.5 74.5t-75 31.5t-74.5 -31.5t-31 -74.5v-955q0 -143 54 -273t155 -231.5t231 -155.5t273 -54zM1206.5 517q-100.5 0 -192.5 38t-163 109t-108.5 162.5t-37.5 192t37.5 192.5t109.5 163 q35 35 76 62.5t86 46t93.5 28t98.5 9.5q101 0 192.5 -37.5t162.5 -108.5t109 -163t38 -192.5t-38 -192t-109 -162.5t-162.5 -109t-192 -38zM1030 797q46 0 86 23t63.5 63t23.5 87q0 71 -51 122t-122.5 51t-122 -51t-50.5 -122.5t50.5 -122t122.5 -50.5z" />
<glyph unicode="&#xe028;" d="M250 0q-103 0 -176.5 73.5t-73.5 176.5v1900q0 103 73.5 176.5t176.5 73.5h1900q103 0 176.5 -73.5t73.5 -176.5v-1900q0 -103 -73.5 -176.5t-176.5 -73.5h-1900zM1698 1844q41 0 64 35q12 18 12 40q0 42 -35 64q-102 66 -244.5 102t-299.5 36q-138 0 -246 -29 q-31 -7 -46 -34q-10 -18 -10 -38q0 -21 10 -38.5t27.5 -27.5t37.5 -10q9 0 19 3q89 23 208 23q133 0 256 -30t206 -84q19 -12 41 -12zM1617 1662q36 0 56 29q11 17 11 37q0 36 -30 55q-94 63 -216.5 97.5t-251.5 34.5q-111 0 -211 -27q-27 -7 -41 -30q-8 -16 -8 -33 q0 -14 5 -26.5t14 -21.5t21.5 -14t25.5 -5q8 0 17 2q81 22 176 22q109 0 214 -29t182 -80q16 -11 36 -11zM1547 1507q30 0 48 26q9 14 9 31q0 31 -26 48q-166 109 -388 109q-95 0 -200 -20q-23 -4 -36 -23q-10 -15 -10 -32q0 -24 16.5 -41t39.5 -17l12 2q92 17 176 17 q190 0 328 -90q13 -10 31 -10zM1163 344q24 -3 49 -3q108 0 203 46.5t163 125.5t108.5 187.5t44.5 229.5q0 135 -33 241.5t-95.5 180t-151 117.5t-201.5 56q-21 2 -43 2q-97 0 -194 -43.5t-174 -117t-126.5 -178.5t-53.5 -219q-4 -130 31 -241.5t102 -192t162 -130.5 t209 -61zM1184 621q-99 3 -156 85q-56 81 -56 216q0 77 21 143t54.5 108.5t73.5 67t79 24.5h6q105 -3 160 -83q53 -79 53 -224q0 -158 -62.5 -247.5t-172.5 -89.5z" />
<glyph unicode="&#xe029;" d="M250 0q-104 0 -177 73t-73 177v1900q0 104 73 177t177 73h1900q104 0 177 -73t73 -177v-1900q0 -104 -73 -177t-177 -73h-1900zM704 464q63 0 119.5 13t107.5 42.5t88 73t59 109.5t22 148v700q0 17 11 29t28 17t30.5 7t25.5 2q21 0 45.5 -5.5t35.5 -13.5q1 -1 4 -3 t5.5 -4t5 -5t4.5 -6t3.5 -8t1.5 -10v-132l150 -65l150 65v132q0 112 -49.5 202t-141 141.5t-209 51.5t-209.5 -51.5t-141.5 -141.5t-49.5 -202v-700q0 -27 -10 -46.5t-26.5 -29t-32 -13.5t-31.5 -4t-31.5 4t-32 13.5t-26.5 29t-10 46.5v250h-300v-250q0 -212 117 -321 q43 -41 97 -53t134 -12h27.5h28.5zM1690 455q118 0 212 51.5t146 141.5t52 202v270l-300 -4v-266q0 -17 -11.5 -29t-30 -17t-32 -7t-26 -2t-26.5 2t-32.5 7t-30 17t-11.5 29v290l-150 -65l-150 65v-290q0 -200 127 -301q117 -94 263 -94z" />
<glyph unicode="&#xe030;" d="M250 0q-103 0 -176.5 73.5t-73.5 176.5v1900q0 103 73.5 176.5t176.5 73.5h1900q103 0 176.5 -73.5t73.5 -176.5v-1900q0 -103 -73.5 -176.5t-176.5 -73.5h-1900zM800 1123l10 15q169 152 388 152q108 0 208 -39t182 -113l12 -15v77q0 55 22 107t61.5 92t90.5 64l13 3 l-2 8q-38 127 -125 226.5t-207 154.5t-252.5 55t-252 -55t-206.5 -154.5t-125 -226.5l-1 -8l10 -3q78 -36 126 -108t48 -155v-77zM550 600h100q50 0 50 50v550q0 87 -58.5 148.5t-145 61.5t-145.5 -61.5t-59 -148.5q0 -89 69 -151l139 -249v-150q0 -50 50 -50zM1750 600h100 q50 0 50 50v88l5 57l139 251q69 64 69 154q0 87 -60.5 148.5t-147.5 61.5q-86 0 -145.5 -61.5t-59.5 -148.5v-550q0 -50 50 -50zM800 700h800v300l4 53q-174 157 -399 157q-76 0 -149 -18t-140 -56t-116 -91v-345z" />
<glyph unicode="&#xe031;" d="M250 0q-104 0 -177 73t-73 177v1900q0 104 73 177t177 73h1900q104 0 177 -73t73 -177v-1900q0 -104 -73 -177t-177 -73h-550v900h300l75 400h-375l9 205q0 81 33 119t128 38h212l48 358q-227 30 -361 30q-223 0 -349 -137.5t-126 -371.5l6 -241h-300v-400h300v-900h-950 z" />
<glyph unicode="&#xe032;" d="M250 0q-103 0 -176.5 73.5t-73.5 176.5v1900q0 103 73.5 176.5t176.5 73.5h1900q103 0 176.5 -73.5t73.5 -176.5v-1900q0 -103 -73.5 -176.5t-176.5 -73.5h-1900zM895 443q138 0 264 31.5t227 87.5t187 133t148.5 167.5t106.5 190.5t65.5 204t21.5 206q0 21 -1 46 q106 77 179 186q-98 -44 -206 -57q56 34 97 85t61 114q-106 -63 -228 -87q-33 35 -73.5 60t-89 39t-98.5 14q-73 0 -139.5 -28.5t-114.5 -76.5t-76.5 -114.5t-28.5 -139.5q0 -42 9 -81q-220 11 -412 110t-326 264q-49 -83 -49 -180q0 -92 43 -170.5t116 -127.5 q-85 2 -162 44v-4q0 -129 82 -228t206 -124q-47 -12 -95 -12q-36 0 -67 6q34 -108 126 -177.5t209 -71.5q-94 -73 -208 -113t-238 -40q-42 0 -85 5q251 -161 549 -161z" />
<glyph unicode="&#xe033;" d="M689 1800q-47 -48 -82 -100h-607v450q0 90 57 158.5t143 86.5v-595h100v600h100v-600h100v600h100v-600h89zM2150 2400q103 0 176.5 -73.5t73.5 -176.5v-450h-607q-98 145 -254.5 230t-338.5 85q-143 0 -272 -53.5t-228 -150.5v589h1450zM2200 1900v200q0 41 -29.5 70.5 t-70.5 29.5h-200q-41 0 -70.5 -29.5t-29.5 -70.5v-200q0 -41 29.5 -70.5t70.5 -29.5h200q41 0 70.5 29.5t29.5 70.5zM1200 748q-112 0 -214.5 43.5t-176.5 117.5t-117.5 176.5t-43.5 214.5t43.5 214.5t117.5 176.5t176.5 117.5t214.5 43.5t214.5 -43.5t176.5 -117.5 t117.5 -176.5t43.5 -214.5t-43.5 -214.5t-117.5 -176.5t-176.5 -117.5t-214.5 -43.5zM1199 1734q-88 0 -168 -34.5t-138 -92.5t-92.5 -138t-34.5 -168q0 60 22 130q28 -39 70.5 -61t91.5 -22q84 0 143 59t59 143q0 49 -22 91.5t-60 70.5q69 22 129 22zM1916 1300 q0 156 -67 300h551v-1350q0 -103 -73.5 -176.5t-176.5 -73.5h-1900q-103 0 -176.5 73.5t-73.5 176.5v1350h551q-66 -144 -66 -300q0 -117 36 -226t102 -197t154 -154t197.5 -102t225.5 -36q146 0 278.5 56.5t228 152.5t152.5 228t57 278z" />
<glyph unicode="&#xe034;" d="M250 0q-103 0 -176.5 73.5t-73.5 176.5v1900q0 103 73.5 176.5t176.5 73.5h1900q103 0 176.5 -73.5t73.5 -176.5v-1900q0 -103 -73.5 -176.5t-176.5 -73.5h-1900zM400 1300h600q41 0 70.5 29.5t29.5 70.5v600q0 27 -13.5 50t-36.5 36.5t-50 13.5h-600q-27 0 -50 -13.5 t-36.5 -36.5t-13.5 -50v-600q0 -41 29.5 -70.5t70.5 -29.5zM1400 1300h600q41 0 70.5 29.5t29.5 70.5v600q0 27 -13.5 50t-36.5 36.5t-50 13.5h-600q-41 0 -70.5 -29.5t-29.5 -70.5v-600q0 -41 29.5 -70.5t70.5 -29.5zM700 1484q-89 0 -152.5 63.5t-63.5 152.5t63.5 152.5 t152.5 63.5t152.5 -63.5t63.5 -152.5q0 -44 -17 -84t-46 -69t-69 -46t-84 -17zM1700 1484q-44 0 -84 17t-68.5 46t-46 69t-17.5 84q0 89 63.5 152.5t152.5 63.5q59 0 108.5 -29t78.5 -78.5t29 -108.5q0 -89 -63.5 -152.5t-152.5 -63.5zM400 300h600q41 0 70.5 29.5 t29.5 70.5v600q0 41 -29.5 70.5t-70.5 29.5h-600q-27 0 -50 -13.5t-36.5 -36.5t-13.5 -50v-600q0 -41 29.5 -70.5t70.5 -29.5zM1400 300h600q41 0 70.5 29.5t29.5 70.5v600q0 41 -29.5 70.5t-70.5 29.5h-600q-41 0 -70.5 -29.5t-29.5 -70.5v-600q0 -41 29.5 -70.5 t70.5 -29.5zM700 484q-89 0 -152.5 63.5t-63.5 152.5t63.5 152.5t152.5 63.5t152.5 -63.5t63.5 -152.5q0 -29 -8 -57t-22 -52t-33.5 -43.5t-43.5 -33.5t-52 -22t-57 -8zM1700 484q-44 0 -84 17t-68.5 46t-46 69t-17.5 84q0 89 63.5 152.5t152.5 63.5q59 0 108.5 -29 t78.5 -78.5t29 -108.5q0 -89 -63.5 -152.5t-152.5 -63.5z" />
<glyph unicode="&#xe035;" d="M250 0q-103 0 -176.5 73.5t-73.5 176.5v1900q0 103 73.5 176.5t176.5 73.5h1900q103 0 176.5 -73.5t73.5 -176.5v-1900q0 -103 -73.5 -176.5t-176.5 -73.5h-1900zM1082 485q227 0 555 425q317 407 328 642q1 17 1 33q0 280 -235 287q-335 11 -454 -375q61 26 119 26 q109 0 109 -110q0 -13 -1 -27q-7 -83 -108 -241.5t-151 -158.5q-65 0 -119 245q-18 71 -65 367q-41 257 -208 257q-11 0 -23 -1q-79 -7 -238 -144q-121 -110 -234 -209l76 -97q108 75 126 75q83 0 155 -259q24 -90 69 -254.5t61 -221.5q97 -259 237 -259z" />
<glyph unicode="&#xe036;" d="M250 0q-104 0 -177 73t-73 177v1900q0 104 73 177t177 73h1900q104 0 177 -73t73 -177v-1900q0 -104 -73 -177t-177 -73h-1900zM750 875q95 0 175.5 47t127.5 127.5t47 175.5t-47 175.5t-127.5 127.5t-175.5 47t-175.5 -47t-127.5 -127.5t-47 -175.5t47 -175.5 t127.5 -127.5t175.5 -47zM1650 875q95 0 175.5 47t127.5 127.5t47 175.5t-47 175.5t-127.5 127.5t-175.5 47t-175.5 -47t-127.5 -127.5t-47 -175.5t47 -175.5t127.5 -127.5t175.5 -47z" />
<glyph unicode="&#xe037;" d="M250 0q-103 0 -176.5 73.5t-73.5 176.5v1900q0 103 73.5 176.5t176.5 73.5h1900q103 0 176.5 -73.5t73.5 -176.5v-1900q0 -103 -73.5 -176.5t-176.5 -73.5h-1900zM836 668q62 0 122 13.5t114.5 39.5t103 64t87.5 85l8 10l-90 208l-20 -37q-31 -60 -81.5 -104.5 t-113 -68.5t-130.5 -24q-100 0 -184.5 49t-133.5 134t-49 184.5t49 184t133.5 133.5t184.5 49q110 0 203 -60t133 -158l170 -387l20 -44q58 -137 148 -200.5t226 -64.5q105 0 191.5 43.5t135.5 119.5t49 169q0 70 -18.5 121.5t-57.5 88.5t-87.5 61.5t-121.5 48.5l-46 15 q-42 13 -65 21t-48 20.5t-36.5 24.5t-19 30t-7.5 42q0 50 34.5 82.5t88.5 32.5q29 0 52 -7.5t43 -24t39 -43.5l10 -14l148 76l-10 18q-93 165 -275 165q-93 0 -163 -35.5t-107.5 -101t-37.5 -152.5q0 -66 21 -115.5t66 -87t101.5 -65t141.5 -54.5q42 -15 64.5 -23.5 t47 -20.5t35 -25t17 -31t6.5 -42q0 -69 -55.5 -113t-144.5 -44q-45 2 -76.5 13.5t-55 37.5t-38.5 52t-36 73q-68 155 -167 386l-7 17q-71 163 -204.5 252t-306.5 89q-113 0 -215 -43.5t-176.5 -118t-118 -176.5t-43.5 -214.5t43.5 -215t118 -176.5t176.5 -118t215 -44z" />
<glyph unicode="&#xe038;" d="M250 0q-103 0 -176.5 73.5t-73.5 176.5v1900q0 103 73.5 176.5t176.5 73.5h1900q103 0 176.5 -73.5t73.5 -176.5v-1900q0 -103 -73.5 -176.5t-176.5 -73.5h-1900zM1722 400h314q0 223 -59.5 436t-166 393t-258.5 332t-331.5 258t-390.5 165t-430 59v-315q177 0 347.5 -48 t315.5 -133.5t267.5 -208t208.5 -268t134.5 -318t48.5 -352.5zM1165 400h315q0 123 -29 243.5t-83.5 226.5t-129 201t-169 170.5t-200.5 130t-226 84t-243 29.5v-315q102 0 199 -26t183.5 -76.5t158.5 -122.5q108 -109 166 -250t58 -295zM618 402q59 0 109.5 29t79.5 79.5 t29 109.5q0 90 -64 154t-154 64t-154 -64t-64 -154q0 -59 29 -109.5t79.5 -79.5t109.5 -29z" />
<glyph unicode="&#xe039;" d="M250 0q-103 0 -176.5 73.5t-73.5 176.5v1900q0 103 73.5 176.5t176.5 73.5h1900q103 0 176.5 -73.5t73.5 -176.5v-1900q0 -103 -73.5 -176.5t-176.5 -73.5h-1900zM1614 345q104 0 197.5 40t161.5 107.5t108.5 161.5t40.5 197q0 150 -81 276q5 43 5 88q0 114 -30.5 223 t-84.5 201.5t-131.5 170.5t-170 132.5t-201.5 84.5t-224 31q-57 0 -126 -10q-124 80 -270 80q-102 0 -194 -39.5t-159 -106t-106.5 -159t-39.5 -193.5q-1 -134 67 -251q-17 -82 -17 -165q0 -98 22 -192.5t63.5 -177.5t99 -156t130.5 -130.5t156 -99.5t177.5 -64t192.5 -23 q96 0 196 24q104 -50 218 -50zM1220 686q-231 0 -345 130q-30 33 -55 87t-25 99q0 72 71 90q13 3 25 3q29 0 53 -19t41.5 -48.5t33.5 -60.5t37.5 -59.5t44.5 -40.5q49 -25 113 -25q29 0 57.5 5.5t54 16t47 27.5t36.5 38q24 37 24 72q0 53 -50 93t-116 58q-27 8 -84.5 22 t-92.5 23.5t-81.5 29t-80.5 44.5q-54 39 -83.5 97.5t-29.5 123.5q0 56 22 108q23 53 69 92.5t98.5 60.5t113.5 29q52 8 102 8q162 0 266 -74q27 -19 52 -48.5t43 -67.5t18 -71q0 -55 -49 -87q-26 -17 -50 -17q-28 0 -54.5 25t-44 56t-41.5 64t-45 44q-45 24 -112 24 q-42 0 -79 -10t-66 -34t-39 -59q-4 -14 -4 -28q0 -24 12 -44.5t34 -35.5t47 -26.5t56.5 -20.5t56.5 -14.5t53.5 -12t41.5 -9.5q53 -15 88.5 -27t80 -33.5t77 -52t53.5 -70.5q32 -63 32 -131q0 -66 -30 -127.5t-83 -110t-135 -77.5t-179 -29z" />
<glyph unicode="&#xe040;" d="M250 0q-103 0 -176.5 73.5t-73.5 176.5v1900q0 103 73.5 176.5t176.5 73.5h1900q103 0 176.5 -73.5t73.5 -176.5v-1900q0 -103 -73.5 -176.5t-176.5 -73.5h-1900zM1186 526q161 0 310 52q150 52 278 151l15 11l-86 132l-38 -27q-84 -59 -161 -91q-142 -60 -306 -60 q-240 0 -405 129q-185 145 -185 394q0 224 159 385q176 178 468 178q159 0 286 -65q198 -101 198 -331q0 -158 -73 -252q-70 -92 -136 -92q-29 0 -41 16q-14 18 -14 38l8 43q1 2 16 56l121 407h-209l-21 -70q-3 5 -9.5 15.5t-12.5 19.5t-12 15q-57 57 -158 57 q-168 0 -283 -148q-113 -145 -113 -312q0 -146 77 -228q77 -84 193 -84q113 0 193 74q24 21 45 51q11 -38 45 -73q49 -52 139 -52q166 0 294 150q127 150 127 358q0 264 -200 424q-189 150 -474 150q-351 0 -576 -218q-215 -208 -215 -507q0 -267 172 -461 q208 -235 584 -235zM1108 1035q-44 0 -67 32q-26 35 -26 93q0 102 64 211q60 105 141 105q38 0 61 -25q23 -27 23 -66q0 -78 -59 -218q-56 -132 -137 -132z" />
<glyph unicode="&#xe041;" d="M250 0q-104 0 -177 73t-73 177v1900q0 104 73 177t177 73h1900q104 0 177 -73t73 -177v-1900q0 -104 -73 -177t-177 -73h-1900zM1109 327q47 0 93 36q130 99 262 260t200 303q68 -12 139 -12q97 0 191 29l6 7v302l-26 -17q-9 -4 -32.5 -12.5t-81 -21t-109.5 -12.5 q-56 0 -111.5 20.5t-98.5 53t-75 73.5q-94 121 -94 321q0 64 66 75q4 1 18 1h18q58 -5 68 -71q8 -47 8 -105q0 -51 -6 -108.5t-10.5 -83t-6.5 -32.5l-8 -33h304l3 24q16 197 16 301q0 41 -2 69q-13 161 -136 258q-101 80 -240 80q-34 0 -73 -5q-135 -19 -222.5 -117 t-93.5 -238q-1 -15 -1 -32q0 -77 18 -160q60 -289 293 -445q-113 -224 -275 -367q-122 128 -197.5 233t-126.5 229q-115 283 -115 624q0 46 1 46h-301q1 0 1 -57q0 -196 40 -400q73 -364 273 -649q146 -208 328 -332q50 -35 96 -35z" />
<glyph unicode="&#xe042;" d="M250 0q-104 0 -177 73t-73 177v1900q0 104 73 177t177 73h1900q104 0 177 -73t73 -177v-1900q0 -104 -73 -177t-177 -73h-1900zM1726 1149q107 0 183 76t76 182q0 53 -21 100.5t-55.5 82.5t-82.5 55.5t-100 20.5q-107 0 -183 -76t-76 -182.5t76 -182.5t183 -76z M1149 1103q97 0 165.5 68.5t68.5 165t-68.5 165t-165.5 68.5t-165.5 -68.5t-68.5 -164.5q0 -64 31 -117.5t85 -85t118 -31.5zM625 1062q87 0 149 62t62 149t-62 149t-149.5 62t-149.5 -62t-62 -149q0 -43 16.5 -82t45 -67t68 -45t82.5 -17zM1486 690h488q15 0 25 10t10 25 v96q0 113 -75.5 197t-184.5 94l-11 1h-25l-10 -1q-110 -10 -185.5 -94t-75.5 -197v-96q0 -15 11.5 -25t32.5 -10zM933 690h440q13 0 22.5 9.5t9.5 22.5v87q0 102 -68 178t-167 85h-13h-15h-14q-65 -6 -119 -42.5t-85 -95t-31 -125.5v-87q0 -14 10.5 -23t29.5 -9zM430 690 h396q8 0 15 4t11 11t4 15v78q0 93 -63 161.5t-158 76.5h-10h-19q-90 -8 -151.5 -77t-61.5 -161v-78q0 -13 10 -21.5t27 -8.5z" />
<glyph unicode="&#xe043;" d="M250 0q-103 0 -176.5 73.5t-73.5 176.5v1900q0 103 73.5 176.5t176.5 73.5h1900q103 0 176.5 -73.5t73.5 -176.5v-1900q0 -103 -73.5 -176.5t-176.5 -73.5h-1900zM898 473q204 0 304.5 108t100.5 328v809h-160v-84q-46 51 -110.5 80t-134.5 29q-120 0 -214 -58t-146 -162 t-52 -237q0 -218 109 -341t303 -123q73 0 136 28.5t109 81.5v-23q0 -152 -59 -222t-186 -70q-22 0 -44 2t-52.5 11t-54.5 24t-44 43t-26 66l-4 23h-158l2 -30q4 -61 29.5 -110t63 -80.5t87 -53t99.5 -30.5t102 -9zM1393 797h244v448q0 120 55 191.5t147 71.5q34 0 75 -8 l34 -6v241l-38 4q-27 4 -61 4q-63 0 -122.5 -31.5t-101.5 -80.5v89h-232v-923zM898 974q-44 0 -81 12.5t-63.5 35t-46 51t-31.5 63t-17.5 69t-5.5 70.5q0 46 8 89t26.5 84.5t46 73t69.5 50.5t95 19q50 0 91.5 -19t68.5 -50.5t45 -73t25.5 -84.5t7.5 -89q0 -44 -9 -87 t-28 -81.5t-46.5 -68t-67.5 -47t-87 -17.5z" />
<glyph unicode="&#xe044;" d="M250 0q-104 0 -177 73t-73 177v1900q0 104 73 177t177 73h1900q104 0 177 -73t73 -177v-1900q0 -104 -73 -177t-177 -73h-1900zM1162 1770h17q64 0 127 33.5t108 86.5q89 111 89 238q0 17 -2 34q-63 -3 -133.5 -39.5t-116.5 -90.5q-39 -45 -65 -107t-26 -123q0 -16 2 -32 zM919 465q35 1 70.5 12.5t60.5 23.5t64.5 22.5t83.5 10.5q42 0 80.5 -10.5t63 -23t59 -22.5t70.5 -10q35 0 67.5 12t57 29.5t51.5 48t45 55t44 62.5q37 53 67 114t39.5 89t11.5 39q-4 1 -13.5 5.5t-32.5 18t-44.5 31t-47.5 46.5t-45 62.5t-31.5 81.5t-12.5 101q0 59 19 114 t42.5 88.5t54.5 63.5t44.5 39t23.5 15q-29 41 -66.5 73t-71 49t-70 28t-60 14t-43.5 4q-14 1 -28 1q-52 0 -113 -20t-110.5 -40t-73.5 -20q-18 0 -43.5 8t-52 19t-55 22t-62 18.5t-63.5 7.5q-108 0 -203 -57.5t-150 -154.5q-72 -124 -72 -294q0 -147 50.5 -298.5 t127.5 -262.5q27 -39 45 -63.5t47.5 -57.5t54 -51t56.5 -31t64 -12z" />
<glyph unicode="&#xe045;" d="M250 0q-103 0 -176.5 73.5t-73.5 176.5v1900q0 103 73.5 176.5t176.5 73.5h1900q103 0 176.5 -73.5t73.5 -176.5v-1900q0 -103 -73.5 -176.5t-176.5 -73.5h-1900zM1078 1271h722v629l-722 -105v-524zM498 1271h528v516l-528 -76v-440zM1026 697v523h-528v-445zM1800 583 v637h-722v-530z" />
<glyph unicode="&#xe046;" d="M250 0q-104 0 -177 73t-73 177v1900q0 104 73 177t177 73h1900q104 0 177 -73t73 -177v-1900q0 -104 -73 -177t-177 -73h-1900zM1138 1340q9 0 18 2q13 4 24 13.5t17 20t10 23t5 18t1 9.5l-3 523q-8 70 -40 90q-30 18 -52 18q-8 0 -29 -6l-304 -114q-33 -11 -51 -38 q-7 -13 -7 -28q0 -35 30 -71l318 -432q2 -3 8.5 -8t22.5 -12.5t32 -7.5zM1380 1191q14 0 20 2l368 107l18 9t25.5 18.5t19.5 26.5q2 9 2 18q0 30 -12 51l-175 206q-2 3 -6 8.5t-19 14.5t-34 10q-10 0 -20.5 -4.5t-17 -10t-12.5 -13t-8 -11t-3 -4.5l-207 -327 q-10 -16 -10 -39q0 -18 9 -33q17 -29 62 -29zM616 975q4 0 8.5 0.5t8 1t7.5 1.5t6.5 1.5t4.5 1t3.5 1t0.5 0.5l383 85l11 6q11 5 17.5 9.5t14 20.5t7.5 39q0 13 -5.5 25t-12.5 20t-16 14.5t-13.5 9t-6.5 3.5l-328 166q-28 12 -54 12q-16 0 -27 -7q-10 -5 -18.5 -13.5 t-15 -19.5t-7.5 -22l-21 -262q-2 -50 10 -72q12 -21 43 -21zM1598 604q14 0 29.5 6.5t23 12t11.5 8.5l156 223q17 31 17 58q0 19 -15.5 32.5t-27.5 17t-16 4.5l-368 118q-8 2 -20 2q-31 0 -50 -19q-16 -16 -16 -42q0 -24 11 -45l197 -329q4 -6 12 -14.5t25 -20.5t31 -12z M1145 490q16 0 29 4q12 3 19.5 11.5t10.5 18t4 19.5t1 15v7l5 382q-3 44 -36 61q-12 6 -25 6q-32 0 -59 -26l-257 -283q-27 -36 -27 -66q0 -7 2 -12q11 -37 44 -53l258 -81q10 -3 31 -3z" />
<glyph unicode="&#xe047;" d="M250 0q-103 0 -176.5 73.5t-73.5 176.5v1900q0 103 73.5 176.5t176.5 73.5h1900q103 0 176.5 -73.5t73.5 -176.5v-1900q0 -103 -73.5 -176.5t-176.5 -73.5h-1900zM1300 609l3 1032q0 21 1 34.5t3.5 29.5t8.5 24t16 8q4 0 8 -1q56 -16 56 -109v-425q68 -33 128 -33 q88 0 140 68t52 193q0 177 -72.5 274.5t-253.5 159.5q-146 49 -395 95v-1259zM911 767q4 1 14 2.5t14 2.5v149l-142 -51q-47 -18 -107 -18q-39 0 -65 9q-27 9 -27 23q0 20 45 36l296 106v167l-411 -147q-124 -39 -183 -82q-32 -24 -32 -61q0 -38 35 -73t101 -54 q96 -31 221 -31q102 0 241 22zM1337 619l627 226q3 1 9 3.5t22.5 10t30.5 15.5t30.5 20.5t26.5 24.5q15 20 15 41q0 30 -31.5 58.5t-100.5 49.5q-137 52 -306 52q-48 0 -92 -4q-55 -7 -108.5 -18t-79.5 -19l-26 -9l-17 -6v-172l307 108q71 16 119 16q31 0 53 -7 q27 -9 27 -23q0 -20 -45 -36l-461 -164v-167z" />
<glyph unicode="&#xe048;" d="M250 0q-104 0 -177 73t-73 177v1900q0 104 73 177t177 73h1900q104 0 177 -73t73 -177v-1900q0 -104 -73 -177t-177 -73h-1900zM1199 1645q154 139 319 139q41 0 78.5 -9t54.5 -17l17 -9q-214 173 -469 173q-132 0 -252.5 -45t-216.5 -128q5 3 15 7.5t43 12t70 7.5 q161 0 341 -131zM634 749q-8 24 -8 69q0 37 7 79.5t31.5 109.5t64.5 138.5t112.5 166.5t167.5 194q-59 36 -116 69t-95.5 53.5t-68.5 35.5l-44 22l-14 7q-93 -99 -144 -226t-51 -267q0 -126 41.5 -241t116.5 -210zM1765 749q50 63 85 134t54 152t19 165q0 94 -24 183.5 t-67 166.5t-104 143q-126 -57 -338 -187q95 -99 167.5 -194t112 -166.5t64.5 -138.5t32 -109.5t7 -79.5q0 -20 -2 -37t-4 -25zM1199 479q152 0 287.5 59t235.5 165q-2 7 -5.5 19t-20.5 51t-39.5 80.5t-65 102.5t-94.5 120.5t-130.5 132.5t-169.5 140q-82 -60 -155.5 -128.5 t-124.5 -129.5t-93.5 -120.5t-69 -107t-44.5 -84.5t-26 -57l-7 -20q100 -105 235.5 -164t286.5 -59z" />
<glyph unicode="&#xe049;" d="M250 0q-103 0 -176.5 73.5t-73.5 176.5v1900q0 103 73.5 176.5t176.5 73.5h1900q103 0 176.5 -73.5t73.5 -176.5v-1900q0 -103 -73.5 -176.5t-176.5 -73.5h-1900zM800 1600h800q0 5 -0.5 13t-4.5 33.5t-10 50t-18.5 58.5t-29.5 64t-43.5 61t-59.5 54l88 112q8 13 8 29 q0 30 -26 47q-13 8 -29 8q-31 0 -45 -23l-98 -127q-67 20 -132 20t-131 -20l-97 124q-17 26 -47 26q-16 0 -29 -8q-25 -16 -25 -46q0 -17 9 -33l86 -109q-44 -32 -77.5 -77.5t-49.5 -89t-25.5 -82t-11.5 -62.5zM954.5 1700q-22.5 0 -38.5 16t-16 38.5t16 38.5t38.5 16 t38.5 -16t16 -38.5t-16 -38.5t-38.5 -16zM1445.5 1700q-22.5 0 -38.5 16t-16 38.5t16 38.5t39 16q14 0 26.5 -7.5t20 -20t7.5 -27.5q0 -22 -16 -38t-38.5 -16zM600 950q41 0 70.5 29.5t29.5 70.5v450q0 27 -13.5 50t-36.5 36.5t-50 13.5q-41 0 -70.5 -29.5t-29.5 -70.5v-450 q0 -41 29.5 -70.5t70.5 -29.5zM1800 950q41 0 70.5 29.5t29.5 70.5v450q0 41 -29.5 70.5t-70.5 29.5q-27 0 -50 -13.5t-36.5 -36.5t-13.5 -50v-450q0 -41 29.5 -70.5t70.5 -29.5zM1000.5 400q40.5 0 70 28.5t29.5 68.5v303h200v-303q0 -40 30 -68.5t70 -28.5t70 28.5 t30 68.5v303h46q22 0 38 16t16 38v646h-800v-646q0 -11 4.5 -21t11.5 -17t17.5 -11.5t21.5 -4.5h45v-303q0 -40 30 -68.5t70.5 -28.5z" />
<glyph unicode="&#xe050;" d="M250 0q-103 0 -176.5 73.5t-73.5 176.5v1900q0 103 73.5 176.5t176.5 73.5h1900q103 0 176.5 -73.5t73.5 -176.5v-1900q0 -103 -73.5 -176.5t-176.5 -73.5h-1900zM501 1469q38 0 70 17.5t51 48.5t19 67q0 55 -41 94t-99 39t-99.5 -39t-41.5 -94q0 -36 19 -67t51.5 -48.5 t70.5 -17.5zM1801 762q53 0 88 11q21 6 34 11t39 16.5t44 24t41 33t37.5 44.5t25.5 58t14 73q2 34 -5 64.5t-18 53t-32.5 45.5t-38 37.5t-46 32.5t-46 26.5t-46.5 24.5q-17 8 -25 12q-45 23 -69 41.5t-31.5 33t-7.5 32.5q0 8 1 18q3 31 41.5 55.5t87.5 24.5q28 0 54 -6 t43.5 -15t30.5 -18t19 -15l6 -7l46 171q-4 3 -10.5 7.5t-29.5 16.5t-48 21t-63.5 16t-77.5 7q-124 0 -212 -61.5t-102 -149.5q-3 -21 -3 -42q0 -59 21.5 -114.5t67.5 -101.5t108 -66q57 -18 97.5 -39t62 -43.5t21.5 -44.5q1 -13 -0.5 -24.5t-9 -28t-20.5 -28.5t-38.5 -21.5 t-60.5 -11.5q-31 -2 -65 4t-60 16.5t-48 21t-34 18.5l-11 7l-59 -180q6 -3 15 -7t39.5 -14.5t62 -18.5t78.5 -14.5t92 -6.5zM1099 750q86 0 162.5 37.5t131.5 101.5t87.5 153t32.5 189q0 140 -52.5 249.5t-147 170.5t-214.5 61q-123 0 -217.5 -60t-146.5 -169.5t-52 -251.5 q0 -216 114.5 -348.5t301.5 -132.5zM1100 933q-39 0 -75 18.5t-66.5 53.5t-48.5 93.5t-18 132.5t18 132.5t48.5 94t66.5 53.5t75 18q55 0 105 -51q45 -45 71.5 -116t26.5 -144q0 -119 -59 -202t-144 -83zM399 800h201l2 605h-203v-605z" />
<glyph unicode="&#xe051;" d="M250 0q-104 0 -177 73t-73 177v1900q0 104 73 177t177 73h1900q104 0 177 -73t73 -177v-1900q0 -104 -73 -177t-177 -73h-1900zM913 390q30 0 47 28l273 495l238 -496q16 -27 46 -27q39 0 48 30l459 1034q41 96 81 131q35 31 92 37q21 0 35 18q12 16 12 35q0 23 -11 34.5 t-27 11.5q-37 0 -99 -5q-51 -6 -90 -6q-35 0 -91 6q-68 5 -106 5q-17 0 -29.5 -12.5t-12.5 -37.5q0 -20 9 -32.5t17 -14.5l9 -2q58 -3 77.5 -21.5t19.5 -47.5q0 -30 -16 -72l-325 -754l-204 416l166 309q61 106 100 136q36 26 98 34q19 0 32 13t13 40q0 20 -8.5 31t-15 13 t-12.5 2q-47 0 -116 -6q-58 -5 -80 -5q-37 0 -97 6q-72 5 -108 5q-19 0 -31 -19q-10 -13 -10 -31q0 -20 9 -32.5t17 -14.5l9 -2q34 -2 55.5 -9t29 -18.5t9.5 -19t2 -17.5q0 -30 -24 -75l-107 -199l-108 221q-26 51 -26 73q0 37 96 44q34 0 34 49q0 22 -9.5 34t-16.5 14 t-14 2q-61 0 -124 -6q-67 -5 -112 -5q-58 0 -101 4q-35 4 -114 4q-6 0 -13 -2.5t-15.5 -15.5t-8.5 -34q0 -24 11 -38q22 -28 29 -28q71 -4 89 -22q41 -38 82 -125l192 -401l-186 -346l-347 797q-12 28 -12 44q0 31 24 49q29 21 80 26q34 0 34 49q0 22 -9.5 34t-16.5 14 t-13 2q-61 0 -141 -6q-82 -5 -127 -5q-61 0 -114 4q-44 4 -128 4q-6 0 -13.5 -2.5t-16.5 -15.5t-9 -34q0 -24 12 -39l30 -27q79 0 117 -31q50 -41 82 -115l451 -1034q13 -30 49 -30z" />
<glyph unicode="&#xe052;" d="M250 0q-104 0 -177 73t-73 177v1900q0 104 73 177t177 73h1900q104 0 177 -73t73 -177v-1900q0 -104 -73 -177t-177 -73h-1900zM1201 467q126 0 236.5 30t190 80t144.5 115.5t106.5 134.5t69.5 140t40 129t12 104v600q0 41 -29.5 70.5t-70.5 29.5h-1400 q-41 0 -70.5 -29.5t-29.5 -70.5v-600q0 -46 12 -104t40.5 -129t70 -140t107 -134.5t145 -115.5t190 -80t236.5 -30zM1201 899q-46 0 -80 32l-393 377q-35 34 -35 83q0 46 32 79q34 35 83 35q46 0 79 -32l314 -301l313 301q33 32 79 32q49 0 83 -35q32 -33 32 -79 q0 -49 -35 -83l-393 -377q-34 -32 -79 -32z" />
<glyph unicode="&#xe053;" d="M250 0q-104 0 -177 73t-73 177v607l514 -206q26 -123 125 -204t228 -81q140 0 243 94t117 232l464 339q201 0 343 142t142 342q0 132 -65 243.5t-176.5 176.5t-243.5 65q-199 0 -340.5 -140.5t-143.5 -339.5l-302 -433q-13 2 -38 2q-101 0 -184 -51l-683 275v837 q0 104 73 177t177 73h1900q104 0 177 -73t73 -177v-1900q0 -104 -73 -177t-177 -73h-1900zM1691 1191q-134 0 -229.5 95t-95.5 229q0 135 95.5 230t229.5 95t229.5 -95t95.5 -230q0 -134 -95.5 -229t-229.5 -95zM1692 1257q108 0 184 76.5t76 183.5t-76 183t-184 76 q-107 0 -183 -76t-76 -183t76 -183.5t183 -76.5zM867 461q-75 0 -138 39t-97 103q43 -17 131 -53q38 -15 78 -15q42 0 81 15.5t69.5 46t46.5 71.5q16 38 16 79q0 63 -36 117t-97 79l-111 44q27 6 57 6q111 0 188.5 -77.5t77.5 -188.5q0 -110 -77.5 -188t-188.5 -78z" />
<glyph unicode="&#xe054;" d="M250 0q-104 0 -177 73t-73 177v1900q0 104 73 177t177 73h1900q104 0 177 -73t73 -177v-935q-78 42 -161 42q-32 0 -62 -6q-29 195 -178.5 325.5t-349.5 130.5q-198 0 -349 -132v-975h1040q29 10 60 26v-376q0 -104 -73 -177t-177 -73h-1900zM900 600h100v898 q-16 2 -24 2q-32 0 -76 -7v-893zM1100 600h100v859l-8 -11q-39 20 -92 35v-883zM700 600h100v865q-50 -19 -100 -55v-810zM500 600h100v715q-28 -35 -51 -77q-32 10 -49 13v-651zM340 600h60v653q-54 -6 -100 -27v-610q26 -12 40 -16zM200 686v470q-97 -99 -97 -236 q0 -135 97 -234z" />
<glyph unicode="&#xe055;" d="M1243 861q-8 6 -21 16t-25.5 20.5t-26.5 22.5t-24.5 20.5t-18.5 15.5t-9 8q-45 48 -142 48q-26 0 -103.5 -3.5t-127.5 -3.5q-407 0 -745 175v970q0 103 73.5 176.5t176.5 73.5h1900q104 0 177 -73.5t73 -176.5v-970q-338 -175 -745 -175q-51 0 -128.5 3.5t-103.5 3.5 q-169 0 -180 -151zM1658 1078q110 0 203.5 51t148 138t54.5 190t-54.5 190.5t-148 138.5t-203.5 51t-203 -51t-147.5 -138.5t-54.5 -190.5q0 -62 20.5 -119.5t58 -104t87.5 -82t111.5 -54.5t127.5 -19zM784 1082q109 0 201 50t146 136.5t54 188.5t-54 188.5t-146 136.5 t-201 50q-81 0 -155.5 -29.5t-128 -79.5t-85.5 -119.5t-32 -146.5q0 -61 20.5 -118.5t57.5 -103.5t86 -80.5t110.5 -53.5t126.5 -19zM250 0q-104 0 -177 73t-73 177v639q148 -97 338 -175q-62 -212 -62 -396q0 -176 56 -318h-82zM2068 0q56 142 56 318q0 184 -62 396 q190 78 338 175v-639q0 -104 -73 -177t-177 -73h-82zM1100 0q0 37 0.5 264t0.5 336q43 -3 85 -3q130 0 248 23t233.5 79t197.5 142q-10 -63 -33 -118.5t-67 -110.5t-105.5 -96.5t-153.5 -72.5t-206 -43v-400h-200z" />
<glyph unicode="&#xe056;" d="M250 0q-104 0 -177 73t-73 177v1900q0 104 73 177t177 73h1900q104 0 177 -73t73 -177v-1900q0 -104 -73 -177t-177 -73h-1900zM806 364q5 0 12 1q98 15 148 18q35 1 49 16.5t14 51.5q0 70 -1 212t-1 213v286v32q0 4 3 60l15 1q14 -37 15 -38q212 -600 258 -734 q9 -27 22.5 -39t36.5 -12q9 0 20 2q86 14 174 19q14 1 24 4.5t16 10t8.5 16t2.5 24.5v180.5v180.5v177.5v177.5q0 124 0.5 369.5t0.5 366.5q0 34 -12 47.5t-45 10.5q-32 -2 -65 -2q-34 0 -69 2q-33 3 -45 -10t-12 -47q0 -128 2 -388.5t2 -392.5v-63q0 -1 -1.5 -1t-3.5 -0.5 t-4.5 -0.5t-4.5 -0.5t-4 -0.5q-3 8 -7.5 18t-8 18t-7.5 18.5t-7 18.5q-201 567 -277 787q-8 23 -20.5 33.5t-35.5 10.5q-8 0 -24.5 -0.5t-25.5 -0.5q-34 1 -99 1h-30.5t-19.5 -3.5t-13 -6t-6 -13t-3 -19v-29.5v-1516v-15v-13v-5q0 -34 29 -34z" />
<glyph unicode="&#xe057;" d="M250 0q-104 0 -177 73t-73 177v1900q0 104 73 177t177 73h1900q104 0 177 -73t73 -177v-1900q0 -104 -73 -177t-177 -73h-1900zM609 491h245q26 0 45.5 17t24.5 43l56 355q4 26 24 43t46 17h163q507 0 584 488q9 54 9 102q0 142 -75 229q-113 131 -374 131h-513 q-26 0 -46 -17t-24 -43l-208 -1316q-3 -20 10 -34.5t33 -14.5zM1034 1309l52 264q2 12 14 19.5t27 7.5h34q58 0 88 -1.5t68.5 -10.5t58.5 -28q28 -26 28 -72q0 -17 -4 -38q-4 -23 -13 -42t-19 -32.5t-27 -24.5t-30.5 -18t-36.5 -11.5t-38 -7t-42 -4t-42 -1.5h-44h-74z M773 300h321q26 0 46 17t24 43l64 275q8 54 67 60q176 0 328.5 69.5t253.5 195.5t126 285q7 44 7 88q0 79 -22 146.5t-62 114.5l-4 4q2 -30 2 -55q0 -57 -9 -109q-30 -192 -120 -323t-236.5 -198t-345.5 -67h-77q-27 0 -37.5 -12.5t-14.5 -38.5l-42 -263q-6 -39 -18.5 -65 t-28 -41t-44 -22.5t-55 -9.5t-72.5 -2h-90l-3 -43q-3 -19 9.5 -34t32.5 -15z" />
<glyph unicode="&#xe058;" d="M250 0q-104 0 -177 73t-73 177v1900q0 104 73 177t177 73h1900q104 0 177 -73t73 -177v-1900q0 -104 -73 -177t-177 -73h-1900zM1500 972h600l-604 1030l-582 2zM563 396l606 1044l-288 507l-600 -1034zM629 396l1198 1l303 518h-1200z" />
<glyph unicode="&#xe059;" d="M250 0q-104 0 -177 73t-73 177v1900q0 104 73 177t177 73h1900q104 0 177 -73t73 -177v-1900q0 -104 -73 -177t-177 -73h-1900zM1200 400h549q62 0 106.5 44.5t44.5 106.5v1198q0 62 -44.5 106.5t-106.5 44.5h-1198q-62 0 -106.5 -44.5t-44.5 -106.5v-249h300v50 q0 21 14.5 35.5t35.5 14.5h800q21 0 35.5 -14.5t14.5 -35.5v-800q0 -20 -14.5 -35t-35.5 -15h-350v-300zM551 400h549v300h-350q-21 0 -35.5 15t-14.5 35v650h-300v-849q0 -62 44.5 -106.5t106.5 -44.5z" />
<glyph unicode="&#xe060;" d="M250 0q-104 0 -177 73t-73 177v1900q0 104 73 177t177 73h1900q104 0 177 -73t73 -177v-1900q0 -104 -73 -177t-177 -73h-1900zM700 500h900q82 0 141 44t59 106v950h-264q-22 142 -131 237t-255 95t-255 -95t-131 -237h-264v-950q0 -62 59 -106t141 -44zM923 1600 q20 77 83 126t144 49t144 -49t83 -126h-454zM600 800v600h200v-600h-200zM900 800v600h200v-600h-200zM1200 800v600h200v-600h-200zM1500 800v600h200v-600h-200z" />
<glyph unicode="&#xe061;" d="M250 0q-104 0 -177 73t-73 177v1900q0 104 73 177t177 73h1900q104 0 177 -73t73 -177v-1900q0 -104 -73 -177t-177 -73h-1900zM1200 794q113 0 217.5 19.5t178 50.5t120 70t53.5 77q110 641 110 675q0 71 -101 127t-254 84t-324 28q-126 0 -247 -17t-217.5 -46.5 t-155.5 -75.5t-59 -100q0 -33 110 -675q5 -25 26.5 -50.5t56.5 -49t85 -44.5t108 -37t128.5 -25.5t144.5 -10.5h20zM1200 1638q-118 0 -214 13t-141 29t-47 29q2 13 46.5 28.5t140 28t212.5 12.5h3q118 0 214 -13t141 -29t47 -28q-2 -13 -46.5 -28.5t-141 -28.5t-214.5 -13z M1200 981q-78 0 -134 55.5t-56 134t56 134t134 55.5t134 -55.5t56 -134t-56 -134t-134 -55.5zM1200 1046q51 0 88 36.5t37 88.5q0 34 -17 62.5t-45.5 45.5t-62.5 17t-63 -17t-45.5 -45.5t-16.5 -62.5t16.5 -63t45.5 -45.5t63 -16.5zM1200 362q122 0 225 24.5t167.5 68 t76.5 97.5q9 41 48 255q0 14 -6.5 25t-16 16t-20.5 5q-18 0 -31 -11q-5 -5 -19 -14.5t-56 -30t-90.5 -37t-123.5 -30t-154 -13.5t-155 14t-122 29t-91.5 38t-54 29t-20.5 14q-13 12 -31 12t-30.5 -14t-11.5 -41q40 -217 46 -246q13 -54 77 -97.5t167.5 -68t225.5 -24.5z" />
<glyph unicode="&#xe062;" d="M250 0q-104 0 -177 73t-73 177v1900q0 104 73 177t177 73h1900q104 0 177 -73t73 -177v-1900q0 -104 -73 -177t-177 -73h-1900zM349 338l477 125q187 -99 400 -99q100 0 196 22.5t180.5 65t159 101t133 133t101 159t65 181t22.5 196.5q0 171 -64.5 328t-186 278.5 t-278 186t-328.5 65.5q-117 0 -228 -31t-205 -86.5t-173 -134.5t-134.5 -173t-86.5 -205t-31 -228q0 -223 109 -417zM1225 564q-180 0 -334 92l-36 21l-222 -58l59 216l-24 37q-100 160 -100 350q0 134 52 255.5t140.5 209.5t210 140.5t255.5 52.5q132 0 252 -50t213 -143 t142.5 -213.5t49.5 -251.5q0 -134 -52 -255.5t-140 -210t-210 -140.5t-256 -52zM1441 794q25 0 54 5q40 6 94 40t70 78q16 46 16 87q0 24 -7 36q-8 15 -41 30l-11 6q-118 59 -144 68q-19 8 -33 8q-29 0 -49 -30q-11 -15 -33 -40t-39 -35l-15 6q-82 36 -144 92 q-27 23 -50 51.5t-36.5 51t-18.5 38.5q6 7 22 26l10 12q12 13 25 41q7 14 7 29q0 17 -9 34q-3 7 -39 95l-23 57q-14 32 -32 43t-41 11h-41q-45 0 -81 -39q-77 -82 -77 -189q0 -110 94 -236q27 -39 58.5 -77t77.5 -84.5t105 -88t121 -68.5q57 -24 121 -44q43 -14 89 -14z" />
<glyph unicode="&#xe063;" d="M250 0q-104 0 -177 73t-73 177v1900q0 104 73 177t177 73h1900q104 0 177 -73t73 -177v-1900q0 -104 -73 -177t-177 -73h-1900zM1146 1145q22 -11 54 -11t54 11l788 394q22 11 22 26.5t-22 27.5l-788 394q-22 11 -54 11t-54 -11l-788 -394q-22 -12 -22 -27.5t22 -26.5z M1146 745q22 -11 54 -11t54 11l788 394q22 11 22 26.5t-22 27.5l-93 46q-22 11 -53.5 11t-53.5 -11l-588 -294q-22 -11 -54 -11t-54 11l-588 294q-22 11 -53.5 11t-54.5 -11l-92 -46q-22 -12 -22 -27.5t22 -26.5zM1146 345q22 -11 53.5 -11t54.5 11l788 394q22 11 22 26.5 t-22 27.5l-93 46q-22 11 -53.5 11t-53.5 -11l-588 -294q-23 -11 -54.5 -11t-53.5 11l-588 294q-22 11 -53.5 11t-54.5 -11l-92 -46q-22 -12 -22 -27.5t22 -26.5z" />
<glyph unicode="&#xe064;" d="M250 0q-104 0 -177 73t-73 177v1900q0 104 73 177t177 73h1900q104 0 177 -73t73 -177v-1900q0 -104 -73 -177t-177 -73h-1900zM947 544q26 0 42 18.5t16 48.5l-2 606l105 -296l328 -164l237 403l-102 -471l243 -94q23 -11 45 -11q27 0 44 17t17 46v934q0 18 -17 27 l-422 211q-14 6 -29 6q-39 0 -58 -31l-222 -361l87 -303l-274 466l-6 7l-418 209q-16 8 -30 8q-23 0 -37 -16t-14 -42v-938q0 -24 14.5 -47t35.5 -34l382 -190q18 -9 35 -9z" />
<glyph unicode="&#xe065;" d="M250 0q-104 0 -177 73t-73 177v1900q0 104 73 177t177 73h1900q104 0 177 -73t73 -177v-1900q0 -104 -73 -177t-177 -73h-1900zM1841 1394l137 102l-507 682l-137 -102zM1702 1232l109 130l-653 544l-109 -130zM1606 1039l72 154l-771 359l-71 -154zM1557 825l35 166 l-831 175l-35 -167zM390 290h1520v620h-120v-500h-1280v500h-120v-620zM709 613h850v170h-850v-170z" />
<glyph unicode="&#xe066;" d="M0 259v1891q0 104 73 177t177 73h606q-181 -63 -288.5 -209.5t-107.5 -340.5v-404q-134 -63 -217 -198.5t-83 -297.5v-150l37 -414l-100 -37q-69 -27 -97 -90zM2400 260q-28 62 -98 89l-99 37l33 350q4 36 4 64v150q0 162 -83 297.5t-217 198.5v404q0 194 -107.5 340.5 t-288.5 209.5h606q104 0 177 -73t73 -177v-1890zM514 702l-152 43q-25 8 -51 8q-1 0 -2.5 -0.5t-3 -0.5h-2.5q-3 28 -3 48v150q0 149 86 261t214 133v506q0 101 39.5 186t107.5 142.5t159 89.5t194 32h200q82 0 157.5 -20t137.5 -59.5t108 -93.5t71.5 -125t25.5 -152v-506 q84 -14 152.5 -69t108 -141t39.5 -184v-150q0 -20 -3 -48q-1 0 -4 0.5t-4 0.5q-25 0 -51 -8l-152 -43l-37 100q-20 52 -61 82t-93 30q-50 0 -95 -33q-3 4 -8 10t-22.5 23.5t-36 33.5t-46.5 35.5t-55.5 33.5t-62.5 23.5t-69 9.5h-200q-46 0 -94 -17.5t-83.5 -42t-64 -49.5 t-43.5 -42l-15 -18q-45 33 -95 33q-52 0 -93 -30t-61 -82zM880 1554v46q0 29 20.5 49.5t49.5 20.5t49.5 -20.5t20.5 -49.5v-46q35 7 57.5 34t22.5 62v100q0 41 -29.5 70.5t-70.5 29.5h-100q-41 0 -70.5 -29.5t-29.5 -70.5v-100q0 -35 23 -62t57 -34zM1380 1554v46 q0 29 20.5 49.5t49.5 20.5t49.5 -20.5t20.5 -49.5v-46q35 7 57.5 34t22.5 62v100q0 41 -29.5 70.5t-70.5 29.5h-100q-41 0 -70.5 -29.5t-29.5 -70.5v-100q0 -35 23 -62t57 -34zM1200 1083q33 0 58 12l311 156q17 8 31 24t22 36t8 39q0 30 -19 57.5t-47 38.5l-166 62 q1 -1 1.5 -3.5t0.5 -4.5q0 -21 -14.5 -35.5t-35.5 -14.5q-14 0 -25.5 6.5t-18 18t-6.5 25.5q0 22 18 38l-61 23q-24 9 -57 9t-57 -9l-61 -23q18 -16 18 -38q0 -21 -14.5 -35.5t-35.5 -14.5q-14 0 -25.5 6.5t-18 18t-6.5 25.5q0 2 0.5 4.5t1.5 3.5l-166 -62q-14 -6 -26 -16 t-21 -22.5t-14 -27.5t-5 -30q0 -29 17.5 -57.5t43.5 -41.5l311 -156q25 -12 58 -12zM650 0q-131 0 -192 28l-316 144q-16 11 -16 23q0 15 21 23l173 64q16 6 25.5 20.5t9.5 31.5q0 7 -1 14l-65 228q-2 7 -2 13q0 24 24 24q6 0 13 -2l228 -65q7 -2 14 -2q17 0 31.5 10 t20.5 26l64 173q8 21 23 21q12 0 23 -16q117 -258 144.5 -316.5t27.5 -191.5v-50q0 -83 -58.5 -141.5t-141.5 -58.5h-50zM1700 0q-83 0 -141.5 58.5t-58.5 141.5v50q0 133 28 192l144 316q11 16 23 16q15 0 22 -21l65 -173q6 -16 20.5 -26t31.5 -10q7 0 14 2l228 65 q7 2 13 2q24 0 24 -24q0 -6 -2 -13l-65 -228q-2 -7 -2 -14q0 -17 10 -31.5t26 -20.5l173 -64q21 -8 21 -23q0 -12 -16 -23l-316 -144q-61 -28 -192 -28h-50zM974 0q66 91 66 200v6q30 -6 60 -6h200q30 0 60 6v-6q0 -109 66 -200h-452z" />
<glyph unicode="&#xe067;" d="M250 0q-104 0 -177 73t-73 177v1900q0 104 73 177t177 73h1900q104 0 177 -73t73 -177v-1900q0 -104 -73 -177t-177 -73h-1900zM1717 686q11 0 14 1l218 3q6 0 18.5 2t35.5 13t33 30q7 13 7 29q0 24 -18 55q-42 76 -170 195q-45 42 -61.5 61.5t-16.5 38.5q0 20 15.5 44 t59.5 80q36 48 56 74q134 179 134 250q0 11 -3 20q-14 39 -84 39q-20 0 -23 -1l-251 -1q-21 0 -36 -9q-19 -11 -30 -36q-45 -114 -90 -190q-26 -44 -48.5 -77.5t-37.5 -51.5t-27.5 -29.5t-19 -15.5t-11.5 -4q-23 15 -23 87v32l1 30q0 43 3 108q1 43 1 61q0 57 -14.5 86.5 t-58.5 40.5q-46 11 -120 12h-35q-131 0 -178 -23q-21 -10 -37.5 -29.5t-13.5 -37.5l5 -10l10 -6l5 -1q42 -5 60 -29q20 -27 20 -101q2 -33 2 -65q0 -63 -8 -106.5t-24 -50.5q-38 0 -144 182q-45 80 -87 181q-10 23 -27 36q-23 16 -49 19l-235 -2q-44 0 -63 -23 q-10 -12 -10 -31q0 -16 6 -32q8 -20 21.5 -49.5t57 -117t87.5 -164.5t107 -168.5t122 -152.5q49 -51 105 -88.5t101 -56.5t92.5 -30.5t73.5 -14t49 -2.5h102q37 5 57 26q19 20 19 56q0 11 1 24.5t4 32t8.5 33.5t15 27.5t21.5 15.5q12 0 30.5 -14.5t31.5 -29t37 -41.5 q64 -73 98 -96q55 -38 109 -38z" />
<glyph unicode="&#xe068;" d="M250 0q-104 0 -177 73t-73 177v1900q0 104 73 177t177 73h1900q104 0 177 -73t73 -177v-1900q0 -104 -73 -177t-177 -73h-1900zM1211 234q36 0 71 6.5t61 15t59 25t50.5 27t49.5 30.5q39 24 59.5 35.5t50.5 22.5t56 11q3 0 31 -6q57 -13 91 -13q45 0 81 19q67 34 84 115 l11 2q35 7 55.5 11.5t53.5 15.5t59 29t45 42q39 50 39 102q0 22 -7 45q-8 21 -22 38.5t-27.5 27.5t-34.5 18.5t-33 12t-33 7.5q-8 2 -11 3q-116 43 -204 177q-18 27 -27 45q12 6 29 12q27 11 42 17t39.5 19t39 25t30 31t24.5 41q11 29 11 59q0 36 -16 71q-47 102 -161 102 q-26 0 -56 -6q4 60 4 100q0 175 -64 293q-49 88 -125.5 154.5t-173.5 105t-206 45.5q-21 1 -37 1q-154 0 -287.5 -65.5t-215.5 -181.5q-100 -141 -100 -358q0 -38 3 -97q-27 7 -53 7q-57 0 -105 -34q-77 -55 -77 -133q0 -24 7.5 -45.5t17 -37.5t28 -32.5t32.5 -26.5 t39 -22.5t39 -18.5t40 -18l17 -7q-25 -55 -94 -126q-63 -66 -135 -94q-2 -1 -16 -3q-21 -5 -34.5 -8.5t-35 -12.5t-39 -24.5t-30.5 -37.5q-19 -32 -19 -70q0 -25 9 -50q5 -15 13 -29t17.5 -25t22.5 -21t24 -17t27 -14t27 -11t28 -9t26 -7.5t25 -6.5q27 -7 45 -8l1 -3 q43 -127 159 -127q23 0 52 5l21 3q33 5 58 5q47 0 79 -15q34 -16 97 -55q40 -26 63.5 -39t63.5 -31t82 -25.5t90 -7.5zM1211 454q-26 0 -48.5 4.5t-47 16t-40.5 20.5t-47 29q-74 46 -121 68q-76 35 -170 35q-42 0 -89 -7h-4q-10 23 -22 41t-25.5 30t-28 20.5t-31.5 14.5 q60 39 112 93q162 169 162 301q0 60 -35 109q-8 12 -20 22q70 43 70 136q0 17 -3 43q-2 17 -3 25q-4 66 -4 106q0 49 5 87t18.5 76t36.5 70q52 73 135.5 113.5t184.5 40.5q13 0 28 -1q106 -6 192 -56.5t131 -133.5q38 -69 38 -189q0 -40 -6 -124l-2 -40q-6 -98 54 -146 q6 -5 12 -9q-29 -26 -43 -59q-13 -32 -13 -67t15 -75.5t27.5 -62.5t34.5 -56q83 -127 197 -202q-23 -6 -40.5 -16.5t-36 -33t-31.5 -56.5q-1 -1 -2 -6q-56 12 -83 12q-34 0 -68.5 -7t-59.5 -15t-57 -24.5t-49 -26.5t-48 -29q-41 -25 -62 -37t-53 -23t-60 -11z" />
<glyph unicode="&#xe069;" d="M250 0q-104 0 -177 73t-73 177v1900q0 104 73 177t177 73h1900q104 0 177 -73t73 -177v-1900q0 -104 -73 -177t-177 -73h-1900zM1735 365q24 0 32.5 19.5t8.5 55.5q0 10 -0.5 30.5t-0.5 29.5q0 40 25.5 135.5t25.5 114.5q0 29 -10 49t-24 28t-30 8t-27.5 -8t-13.5 -21 q-11 -58 -20 -91t-26.5 -64.5t-43.5 -52.5q-34 -27 -83.5 -44.5t-110 -25.5t-112.5 -11t-117 -3q-26 0 -70.5 0.5t-61.5 0.5q-55 0 -91.5 13t-54 37t-24 49t-6.5 57v434q0 95 57 95h369q34 0 62 -6t47 -14.5t34.5 -24t24 -27t16.5 -31t10.5 -29.5t7.5 -28q0 -3 1 -4 q5 -21 17.5 -31.5t28.5 -10.5t28 11.5t12 32.5q0 24 -5.5 93.5t-5.5 109.5q0 61 11 183q3 37 -11.5 56t-36.5 19q-13 0 -19 -1t-13 -6t-10 -17t-4 -32q-6 -73 -51 -108t-107 -35h-412q-18 0 -28 4.5t-15 16.5t-5 33q0 17 -1 188.5t-1 218.5q0 17 0.5 26.5t3 22.5t8 19.5 t14.5 15t23.5 12.5t34.5 8.5t47.5 6.5t62.5 3.5t79 1.5q93 0 166 -4.5t122 -12t84.5 -19t54.5 -23t30 -27.5t13.5 -28.5t2.5 -28.5v-16v-15q0 -30 8.5 -40.5t26.5 -10.5q20 0 39 15t19 45q0 22 -6 80.5t-6 85.5q0 29 10 66t10 42q0 12 -3.5 22t-15.5 19.5t-31 10.5 q-21 0 -86 -9t-199 -17.5t-324 -8.5q-91 0 -220.5 2.5t-224.5 5t-102 2.5q-39 0 -39 -39v-8v-8.5t0.5 -7.5t2 -7.5t3.5 -6t5.5 -6t8.5 -4.5t12 -4t15 -2q37 -4 65 -20t43.5 -38.5t25.5 -54t13 -60.5t3 -64v-1007q0 -40 -8.5 -72.5t-22 -53.5t-32 -37t-35.5 -24.5t-36 -13.5 t-31 -6t-22 -1q-49 0 -49 -46q0 -21 10 -29.5t41 -8.5q46 0 466 2t530 2q67 0 111.5 -3.5t58.5 -8t27 -8t27 -3.5z" />
<glyph unicode="&#xe070;" d="M250 0q-104 0 -177 73t-73 177v1900q0 104 73 177t177 73h1900q104 0 177 -73t73 -177v-1900q0 -104 -73 -177t-177 -73h-1900zM400 1700h1600v106q0 91 -63.5 142.5t-159.5 51.5h-1155q-96 0 -159 -51.5t-63 -142.5v-106zM400 1300h1600v300h-1600v-300zM400 900h1600 v300h-1600v-300zM1300 200l413 300h64q60 0 111.5 32t81.5 85.5t30 116.5v66h-1600v-66q0 -96 65 -165t157 -69h678v-300z" />
</font>
</defs>
</svg>
